<?xml version="1.0" encoding="utf-8"?>
<!-- Generator: Adobe Illustrator 22.0.1, SVG Export Plug-In . SVG Version: 6.00 Build 0)  -->
<svg version="1.1" id="Layer_1" xmlns="http://www.w3.org/2000/svg" xmlns:xlink="http://www.w3.org/1999/xlink" x="0px" y="0px"
	 viewBox="0 0 100 100" style="enable-background:new 0 0 100 100;" xml:space="preserve">
<g id="surface1">
	<path d="M49.6,2C32.8,2,19.1,15.7,19.1,32.5c0,10.5,5.4,19.9,13.5,25.4C17,64.6,6,80,6,98h8.7c0-11,5.1-20.9,13.1-27.3L46.6,88
		l3,2.9l3-2.9l18.8-17.3c8,6.4,13.1,16.2,13.1,27.3h8.7c0-18-11-33.4-26.6-40.1c8.1-5.5,13.5-14.8,13.5-25.4
		C80.2,15.7,66.5,2,49.6,2z M49.6,10.7c12.1,0,21.8,9.7,21.8,21.8s-9.7,21.8-21.8,21.8s-21.8-9.7-21.8-21.8S37.5,10.7,49.6,10.7z
		 M49.6,63.1c5,0,9.8,1,14,2.9L49.6,79L35.6,66C39.9,64.1,44.6,63.1,49.6,63.1z"/>
</g>
</svg>
