<?xml version="1.0" encoding="utf-8"?>
<!-- Generator: Adobe Illustrator 22.0.1, SVG Export Plug-In . SVG Version: 6.00 Build 0)  -->
<svg version="1.1" id="Layer_1" xmlns="http://www.w3.org/2000/svg" xmlns:xlink="http://www.w3.org/1999/xlink" x="0px" y="0px"
	 viewBox="0 0 100 100" style="enable-background:new 0 0 100 100;" xml:space="preserve">
<g id="surface1">
	<path d="M48,2v36h4V2H48z M44,8.5C25.6,11.1,11.1,25.6,8.5,44h4C15.1,27.9,27.9,15.1,44,12.5V8.5z M56,8.5v4
		C72.1,15.1,84.9,27.9,87.5,44h4C88.9,25.6,74.4,11.1,56,8.5z M44,28.9c-7.3,2.1-13.1,7.8-15.1,15.1H33c1.8-5.1,5.9-9.1,11-10.9
		V28.9z M56,28.9v4.2c5.1,1.8,9.1,5.9,11,10.9h4.2C69.1,36.7,63.3,30.9,56,28.9z M50,44c-3.3,0-6,2.7-6,6s2.7,6,6,6s5.9-2.7,5.9-6
		S53.3,44,50,44z M2,48v4h36v-4H2z M62,48v4h36v-4H62z M8.5,56C11.1,74.4,25.6,88.9,44,91.5v-4C27.9,84.9,15.1,72.1,12.5,56H8.5z
		 M28.9,56c2.1,7.3,7.8,13.1,15.1,15.1v-4.2c-5.1-1.8-9.1-5.9-11-10.9H28.9z M66.9,56c-1.8,5.1-5.9,9.1-10.9,11v4.2
		c7.3-2.1,13.1-7.8,15.1-15.1H66.9z M87.5,56C84.9,72.1,72.1,84.9,56,87.5v4C74.4,88.9,88.9,74.4,91.5,56H87.5z M48,62v36h4V62H48z"
		/>
</g>
</svg>
