<?xml version="1.0" encoding="utf-8"?>
<!-- Generator: Adobe Illustrator 22.0.1, SVG Export Plug-In . SVG Version: 6.00 Build 0)  -->
<svg version="1.1" id="Layer_1" xmlns="http://www.w3.org/2000/svg" xmlns:xlink="http://www.w3.org/1999/xlink" x="0px" y="0px"
	 viewBox="0 0 100 100" style="enable-background:new 0 0 100 100;" xml:space="preserve">
<style type="text/css">
	.st0{fill:#333333;}
</style>
<title>arrow-right - FontAwesome</title>
<desc>Created with Sketch.</desc>
<g id="Style">
	<g id="Icons" transform="translate(-207.000000, -240.000000)">
		<path id="arrow-right---FontAwesome" class="st0" d="M301,290c0,2.1-0.8,4.1-2.2,5.6l-38.9,40.1c-1.4,1.4-3.4,2.3-5.4,2.3
			s-3.9-0.9-5.4-2.3l-4.5-4.6c-1.4-1.5-2.3-3.5-2.3-5.6c0-2.1,0.8-4.1,2.3-5.6l17.5-18.1H220c-4.3,0-7-3.7-7-7.9v-7.9
			c0-4.2,2.7-7.9,7-7.9h42.1l-17.5-18.1c-1.4-1.4-2.3-3.5-2.3-5.5c0-2.1,0.8-4.1,2.3-5.5l4.5-4.6c1.4-1.5,3.3-2.3,5.4-2.3
			s4,0.9,5.4,2.3l38.9,40.1C300.2,285.9,301,287.9,301,290z"/>
	</g>
</g>
</svg>
