<?xml version="1.0" encoding="utf-8"?>
<!-- Generator: Adobe Illustrator 22.0.1, SVG Export Plug-In . SVG Version: 6.00 Build 0)  -->
<svg version="1.1" id="Layer_1" xmlns="http://www.w3.org/2000/svg" xmlns:xlink="http://www.w3.org/1999/xlink" x="0px" y="0px"
	 viewBox="0 0 100 100" style="enable-background:new 0 0 100 100;" xml:space="preserve">
<g id="surface1">
	<path d="M10.3,2C5.8,2,2,5.8,2,10.3l0,51.5h0C2,62.1,2,62.3,2,62.5c0,4.6,3.8,8.3,8.3,8.3h29.2l0,18.1h0.1c0,0.2-0.1,0.4-0.1,0.7
		c0,4.6,3.8,8.3,8.3,8.3H98v-4.2H47.9c-2.3,0-4.2-1.8-4.2-4.2s1.8-4.2,4.2-4.2H98V29.1H60.4V2H10.3z M10.3,6.2h45.9v23h-8.3
		c-4.6,0-8.3,3.8-8.3,8.3l0,16.7H10.3c-1.5,0-2.9,0.4-4.1,1.1l0-45C6.2,8,8,6.2,10.3,6.2z M16.6,10.3c-2.3,0-4.2,1.9-4.2,4.2v4.2
		c0,2.3,1.9,4.2,4.2,4.2h29.2c2.3,0,4.2-1.9,4.2-4.2v-4.2c0-2.3-1.9-4.2-4.2-4.2H16.6z M16.6,14.5h29.2v4.2H16.6V14.5z M47.9,33.3
		h45.9v48H47.9c-1.5,0-2.9,0.5-4.1,1.3l0-45.1C43.7,35.1,45.6,33.3,47.9,33.3z M54.2,37.5c-2.3,0-4.2,1.9-4.2,4.2v4.2
		c0,2.3,1.9,4.2,4.2,4.2h29.2c2.3,0,4.2-1.9,4.2-4.2v-4.2c0-2.3-1.9-4.2-4.2-4.2H54.2z M54.2,41.7h29.2v4.2H54.2V41.7z M10.3,58.3
		h29.2l0,8.3H10.3c-2.3,0-4.2-1.8-4.2-4.2S8,58.3,10.3,58.3z"/>
</g>
</svg>
