<?xml version="1.0" encoding="utf-8"?>
<!-- Generator: Adobe Illustrator 22.0.1, SVG Export Plug-In . SVG Version: 6.00 Build 0)  -->
<svg version="1.1" id="Layer_1" xmlns="http://www.w3.org/2000/svg" xmlns:xlink="http://www.w3.org/1999/xlink" x="0px" y="0px"
	 viewBox="0 0 100 100" style="enable-background:new 0 0 100 100;" xml:space="preserve">
<title>book - anticon</title>
<desc>Created with Sketch.</desc>
<g id="Style">
	<g id="Icons" transform="translate(-150.000000, -1699.000000)">
		<path id="book---anticon" d="M232.8,1701c2.1,0,4,0.7,5.5,2.2c1.5,1.5,2.3,3.3,2.3,5.5v80.6c0,2.1-0.8,3.9-2.3,5.4
			c-1.5,1.5-3.3,2.3-5.4,2.3h-66.2c-2.1,0-3.9-0.8-5.4-2.3c-1.5-1.5-2.3-3.3-2.3-5.4v-80.6c0-2.1,0.8-4,2.3-5.5
			c1.5-1.5,3.3-2.2,5.4-2.2H232.8z M197.4,1708.7h-12.9v22.6l4.7-4.7c0.5-0.5,1.1-0.7,1.8-0.7c0.7,0,1.4,0.2,1.9,0.7l3.5,3.6l1,0.9
			V1708.7z M176.8,1708.7h-10v66.8H233v-66.8h-27.8v29.6c0,1.1-0.4,2-1.1,2.7c-0.7,0.7-1.7,1.1-2.7,1.1h-0.1c-2.5-0.1-4.6-1-6.4-2.8
			l-3.7-3.6l-3.7,3.7c-1.9,1.8-4.1,2.7-6.7,2.7c-1.1,0-2-0.4-2.7-1.1c-0.7-0.7-1.1-1.6-1.1-2.7V1708.7z M166.7,1789.3h66.1v-6.1
			h-66.1V1789.3z"/>
	</g>
</g>
</svg>
