<?xml version="1.0" encoding="utf-8"?>
<!-- Generator: Adobe Illustrator 22.0.1, SVG Export Plug-In . SVG Version: 6.00 Build 0)  -->
<svg version="1.1" id="Layer_1" xmlns="http://www.w3.org/2000/svg" xmlns:xlink="http://www.w3.org/1999/xlink" x="0px" y="0px"
	 viewBox="0 0 100 100" style="enable-background:new 0 0 100 100;" xml:space="preserve">
<title>bubbles - simple-line-icons</title>
<desc>Created with Sketch.</desc>
<g id="Style">
	<g id="Icons" transform="translate(-206.000000, -975.000000)">
		<path id="bubbles---simple-line-icons" d="M247.8,1040.9h-2.1c-0.7,0-1.4,0-2,0c-0.7,0-1.4-0.1-2.3-0.2c-0.4,0.5-1.4,1.4-2.9,2.6
			c-1.5,1.2-3.2,2.5-5.2,3.8c-2,1.3-4.1,2.5-6.3,3.6c-2.2,1.1-4.3,1.8-6.2,2.1h-0.1l-0.2,0c-0.1,0-0.3,0-0.4,0
			c-0.6,0-1.1-0.2-1.5-0.7s-0.6-1-0.6-1.6c0-0.2,0-0.3,0-0.5s0.1-0.3,0.1-0.4h-0.1c0.8-1.3,1.8-3.2,3.1-5.9s2-5.1,2-7.3v-0.2
			c-2.6-1.3-4.8-3-6.8-5c-1.9-2-3.5-4.1-4.8-6.5c-1.2-2.4-2.2-4.8-2.8-7.4s-0.9-5.2-0.9-7.7c0-4.1,1-8,3-11.6s4.8-6.8,8.4-9.4
			c3.6-2.7,7.7-4.8,12.5-6.3c4.8-1.6,9.8-2.3,15.3-2.3c5.4,0,10.4,0.8,15.1,2.3c4.7,1.6,8.8,3.7,12.3,6.3c3.5,2.7,6.3,5.8,8.3,9.4
			s3,7.5,3,11.6c0.1,4.6-0.9,8.9-2.8,12.7s-4.6,7.1-8.1,9.9s-7.5,4.8-12.2,6.3C258.2,1040.2,253.2,1040.9,247.8,1040.9z M239,1034.3
			l3.3,0.3c1.4,0.2,2.7,0.3,3.9,0.3h1.8c4.6,0,8.8-0.6,12.7-1.9c3.9-1.2,7.3-3,10.1-5.2s5.1-4.9,6.7-8c1.6-3.1,2.4-6.4,2.4-10.1
			c0-3.3-0.9-6.4-2.6-9.2s-4-5.4-7-7.5c-2.9-2.1-6.4-3.8-10.4-5.1c-4-1.2-8.3-1.9-12.8-1.9s-8.9,0.6-12.9,1.9
			c-4,1.2-7.6,2.9-10.6,5.1c-3,2.1-5.4,4.6-7.1,7.5s-2.6,5.9-2.6,9.2c0,3.9,1,7.9,2.9,11.9s5,7.1,9.1,9.2l3.3,1.7l-0.3,3.7l-0.2,1.7
			c-0.1,1.1-0.7,3.1-1.8,6.1c1.7-1,3.4-2.2,5-3.6c1.7-1.4,2.7-2.3,3.1-2.9L239,1034.3z M304,1034.3c0,4.4-1.1,8.4-3.2,11.8
			c-2.1,3.4-5.4,6.2-9.8,8.5v0.2c0,2,0.4,4.3,1.1,6.9c0.8,2.6,1.4,4.4,2.1,5.5c0.1,0.1,0.1,0.3,0.1,0.4c0,0.1,0,0.3,0,0.4
			c0,0.6-0.2,1-0.6,1.4s-0.8,0.6-1.4,0.6h-0.6c-3.3-0.6-6.7-2.3-10-5.1c-3.4-2.9-5.4-4.7-6.1-5.6c-0.8,0.1-1.4,0.1-2,0.1
			s-1.2,0-1.8,0h-1.8c-3.1,0-6-0.3-8.7-0.8c-2.7-0.5-5.3-1.3-7.6-2.4s-4.5-2.3-6.5-3.8c-1.9-1.5-3.7-3.2-5.2-5
			c0.1-0.1,1.8-0.2,4.9-0.2s4.4,0,3.7,0.1c2.6,2,5.4,3.5,8.5,4.5c3.1,1,6.7,1.5,10.8,1.5h1.8c1.2,0,2.1-0.1,2.8-0.2l3.2-0.5l1.7,2.4
			c1.2,1.6,3.2,3.5,6.1,5.6c-0.3-1-0.4-2.8-0.6-5.6l-0.2-4.2l2.9-1.4c3.6-1.8,6.1-4,7.7-6.4s2.3-5.3,2.3-8.6c0-2.7-0.5-5-1.4-7
			c-0.9-2-2.6-3.9-5.2-5.7c0.3-1,0.6-2.1,0.9-3.2s0.5-2.3,0.6-3.3c3.9,2.4,6.8,5.1,8.5,8.3S304,1030.2,304,1034.3z"/>
	</g>
</g>
</svg>
