<?xml version="1.0" encoding="UTF-8"?>
<svg width="55px" height="55px" viewBox="0 0 55 55" version="1.1" xmlns="http://www.w3.org/2000/svg" xmlns:xlink="http://www.w3.org/1999/xlink">
    <!-- Generator: sketchtool 49.3 (51167) - http://www.bohemiancoding.com/sketch -->
    <title>F16CAA87-D736-49EB-82D4-FBC2C519AAF0</title>
    <desc>Created with sketchtool.</desc>
    <defs></defs>
    <g id="Symbols" stroke="none" stroke-width="1" fill="none" fill-rule="evenodd">
        <g id="icon/calendar" fill="#81CA49" fill-rule="nonzero">
            <path d="M13.1851852,3 C11.6518519,3 10.4074074,4.24444444 10.4074074,5.77777778 L10.4074074,8.55555556 L5.77777778,8.55555556 C4.24444444,8.55555556 3,9.8 3,11.3333333 L3,50.2222222 C3,51.7555556 4.24444444,53 5.77777778,53 L50.2222222,53 C51.7555556,53 53,51.7555556 53,50.2222222 L53,11.3333333 C53,9.8 51.7555556,8.55555556 50.2222222,8.55555556 L45.5925926,8.55555556 L45.5925926,5.77777778 C45.5925926,4.24444444 44.3481481,3 42.8148148,3 C41.2814815,3 40.037037,4.24444444 40.037037,5.77777778 L40.037037,8.55555556 L30.7777778,8.55555556 L30.7777778,5.77777778 C30.7777778,4.24444444 29.5333333,3 28,3 C26.4666667,3 25.2222222,4.24444444 25.2222222,5.77777778 L25.2222222,8.55555556 L15.962963,8.55555556 L15.962963,5.77777778 C15.962963,4.24444444 14.7185185,3 13.1851852,3 Z M13.1851852,4.85185185 C13.6953704,4.85185185 14.1111111,5.26759259 14.1111111,5.77777778 L14.1111111,13.1851852 C14.1111111,13.6953704 13.6953704,14.1111111 13.1851852,14.1111111 C12.675,14.1111111 12.2592593,13.6953704 12.2592593,13.1851852 L12.2592593,5.77777778 C12.2592593,5.26759259 12.675,4.85185185 13.1851852,4.85185185 Z M28,4.85185185 C28.5101852,4.85185185 28.9259259,5.26759259 28.9259259,5.77777778 L28.9259259,13.1851852 C28.9259259,13.6953704 28.5101852,14.1111111 28,14.1111111 C27.4898148,14.1111111 27.0740741,13.6953704 27.0740741,13.1851852 L27.0740741,5.77777778 C27.0740741,5.26759259 27.4898148,4.85185185 28,4.85185185 Z M42.8148148,4.85185185 C43.325,4.85185185 43.7407407,5.26759259 43.7407407,5.77777778 L43.7407407,13.1851852 C43.7407407,13.6953704 43.325,14.1111111 42.8148148,14.1111111 C42.3046296,14.1111111 41.8888889,13.6953704 41.8888889,13.1851852 L41.8888889,5.77777778 C41.8888889,5.26759259 42.3046296,4.85185185 42.8148148,4.85185185 Z M5.77777778,10.4074074 L10.4074074,10.4074074 L10.4074074,13.1851852 C10.4074074,14.7185185 11.6518519,15.962963 13.1851852,15.962963 C14.7185185,15.962963 15.962963,14.7185185 15.962963,13.1851852 L15.962963,10.4074074 L25.2222222,10.4074074 L25.2222222,13.1851852 C25.2222222,14.7185185 26.4666667,15.962963 28,15.962963 C29.5333333,15.962963 30.7777778,14.7185185 30.7777778,13.1851852 L30.7777778,10.4074074 L40.037037,10.4074074 L40.037037,13.1851852 C40.037037,14.7185185 41.2814815,15.962963 42.8148148,15.962963 C44.3481481,15.962963 45.5925926,14.7185185 45.5925926,13.1851852 L45.5925926,10.4074074 L50.2222222,10.4074074 C50.7324074,10.4074074 51.1481481,10.8231481 51.1481481,11.3333333 L51.1481481,17.8148148 C50.637963,17.8148148 50.2222222,18.2305556 50.2222222,18.7407407 L50.2222222,20.5925926 C50.2222222,21.1027778 50.637963,21.5185185 51.1481481,21.5185185 L51.1481481,50.2222222 C51.1481481,50.7324074 50.7324074,51.1481481 50.2222222,51.1481481 L5.77777778,51.1481481 C5.26759259,51.1481481 4.85185185,50.7324074 4.85185185,50.2222222 L4.85185185,21.5185185 C5.36203704,21.5185185 5.77777778,21.1027778 5.77777778,20.5925926 L5.77777778,18.7407407 C5.77777778,18.2305556 5.36203704,17.8148148 4.85185185,17.8148148 L4.85185185,11.3333333 C4.85185185,10.8231481 5.26759259,10.4074074 5.77777778,10.4074074 Z M9.48148148,17.8148148 C8.9712963,17.8148148 8.55555556,18.2305556 8.55555556,18.7407407 L8.55555556,20.5925926 C8.55555556,21.1027778 8.9712963,21.5185185 9.48148148,21.5185185 C9.99166667,21.5185185 10.4074074,21.1027778 10.4074074,20.5925926 L10.4074074,18.7407407 C10.4074074,18.2305556 9.99166667,17.8148148 9.48148148,17.8148148 Z M14.1111111,17.8148148 C13.6009259,17.8148148 13.1851852,18.2305556 13.1851852,18.7407407 L13.1851852,20.5925926 C13.1851852,21.1027778 13.6009259,21.5185185 14.1111111,21.5185185 C14.6212963,21.5185185 15.037037,21.1027778 15.037037,20.5925926 L15.037037,18.7407407 C15.037037,18.2305556 14.6212963,17.8148148 14.1111111,17.8148148 Z M18.7407407,17.8148148 C18.2305556,17.8148148 17.8148148,18.2305556 17.8148148,18.7407407 L17.8148148,20.5925926 C17.8148148,21.1027778 18.2305556,21.5185185 18.7407407,21.5185185 C19.2509259,21.5185185 19.6666667,21.1027778 19.6666667,20.5925926 L19.6666667,18.7407407 C19.6666667,18.2305556 19.2509259,17.8148148 18.7407407,17.8148148 Z M23.3703704,17.8148148 C22.8601852,17.8148148 22.4444444,18.2305556 22.4444444,18.7407407 L22.4444444,20.5925926 C22.4444444,21.1027778 22.8601852,21.5185185 23.3703704,21.5185185 C23.8805556,21.5185185 24.2962963,21.1027778 24.2962963,20.5925926 L24.2962963,18.7407407 C24.2962963,18.2305556 23.8805556,17.8148148 23.3703704,17.8148148 Z M28,17.8148148 C27.4898148,17.8148148 27.0740741,18.2305556 27.0740741,18.7407407 L27.0740741,20.5925926 C27.0740741,21.1027778 27.4898148,21.5185185 28,21.5185185 C28.5101852,21.5185185 28.9259259,21.1027778 28.9259259,20.5925926 L28.9259259,18.7407407 C28.9259259,18.2305556 28.5101852,17.8148148 28,17.8148148 Z M32.6296296,17.8148148 C32.1194444,17.8148148 31.7037037,18.2305556 31.7037037,18.7407407 L31.7037037,20.5925926 C31.7037037,21.1027778 32.1194444,21.5185185 32.6296296,21.5185185 C33.1398148,21.5185185 33.5555556,21.1027778 33.5555556,20.5925926 L33.5555556,18.7407407 C33.5555556,18.2305556 33.1398148,17.8148148 32.6296296,17.8148148 Z M37.2592593,17.8148148 C36.7490741,17.8148148 36.3333333,18.2305556 36.3333333,18.7407407 L36.3333333,20.5925926 C36.3333333,21.1027778 36.7490741,21.5185185 37.2592593,21.5185185 C37.7694444,21.5185185 38.1851852,21.1027778 38.1851852,20.5925926 L38.1851852,18.7407407 C38.1851852,18.2305556 37.7694444,17.8148148 37.2592593,17.8148148 Z M41.8888889,17.8148148 C41.3787037,17.8148148 40.962963,18.2305556 40.962963,18.7407407 L40.962963,20.5925926 C40.962963,21.1027778 41.3787037,21.5185185 41.8888889,21.5185185 C42.3990741,21.5185185 42.8148148,21.1027778 42.8148148,20.5925926 L42.8148148,18.7407407 C42.8148148,18.2305556 42.3990741,17.8148148 41.8888889,17.8148148 Z M46.5185185,17.8148148 C46.0083333,17.8148148 45.5925926,18.2305556 45.5925926,18.7407407 L45.5925926,20.5925926 C45.5925926,21.1027778 46.0083333,21.5185185 46.5185185,21.5185185 C47.0287037,21.5185185 47.4444444,21.1027778 47.4444444,20.5925926 L47.4444444,18.7407407 C47.4444444,18.2305556 47.0287037,17.8148148 46.5185185,17.8148148 Z M11.3333333,24.2962963 C10.8222222,24.2962963 10.4074074,24.7111111 10.4074074,25.2222222 L10.4074074,41.8888889 C10.4074074,42.4 10.8222222,42.8148148 11.3333333,42.8148148 L44.6666667,42.8148148 C45.1777778,42.8148148 45.5925926,42.4 45.5925926,41.8888889 L45.5925926,25.2222222 C45.5925926,24.7111111 45.1777778,24.2962963 44.6666667,24.2962963 L11.3333333,24.2962963 Z M12.2592593,26.1481481 L18.7407407,26.1481481 L18.7407407,32.6296296 L12.2592593,32.6296296 L12.2592593,26.1481481 Z M20.5925926,26.1481481 L27.0740741,26.1481481 L27.0740741,32.6296296 L20.5925926,32.6296296 L20.5925926,26.1481481 Z M28.9259259,26.1481481 L35.4074074,26.1481481 L35.4074074,32.6296296 L28.9259259,32.6296296 L28.9259259,26.1481481 Z M37.2592593,26.1481481 L43.7407407,26.1481481 L43.7407407,32.6296296 L37.2592593,32.6296296 L37.2592593,26.1481481 Z M12.2592593,34.4814815 L18.7407407,34.4814815 L18.7407407,40.962963 L12.2592593,40.962963 L12.2592593,34.4814815 Z M20.5925926,34.4814815 L27.0740741,34.4814815 L27.0740741,40.962963 L20.5925926,40.962963 L20.5925926,34.4814815 Z M28.9259259,34.4814815 L35.4074074,34.4814815 L35.4074074,40.962963 L28.9259259,40.962963 L28.9259259,34.4814815 Z M37.2592593,34.4814815 L43.7407407,34.4814815 L43.7407407,40.962963 L37.2592593,40.962963 L37.2592593,34.4814815 Z M7.62962963,45.5925926 C7.11944444,45.5925926 6.7037037,46.0083333 6.7037037,46.5185185 C6.7037037,47.0287037 7.11944444,47.4444444 7.62962963,47.4444444 L48.3703704,47.4444444 C48.8805556,47.4444444 49.2962963,47.0287037 49.2962963,46.5185185 C49.2962963,46.0083333 48.8805556,45.5925926 48.3703704,45.5925926 L7.62962963,45.5925926 Z" id="icons-calendar"></path>
        </g>
    </g>
</svg>
