<?xml version="1.0" encoding="utf-8"?>
<!-- Generator: Adobe Illustrator 22.0.1, SVG Export Plug-In . SVG Version: 6.00 Build 0)  -->
<svg version="1.1" id="Layer_1" xmlns="http://www.w3.org/2000/svg" xmlns:xlink="http://www.w3.org/1999/xlink" x="0px" y="0px"
	 viewBox="0 0 100 100" style="enable-background:new 0 0 100 100;" xml:space="preserve">
<title>ion-chatbubble - Ionicons</title>
<desc>Created with Sketch.</desc>
<g id="_xD83D__xDCA1_Demo-_x28_0917_x29_-">
	<g id="_xD83D__xDCA1_-1.0-homepage_x5F_F" transform="translate(-1363.000000, -607.000000)">
		<g id="online-QA" transform="translate(1341.000000, 584.000000)">
			<path id="ion-chatbubble---Ionicons" d="M72,117.5c-13.2,0-24.5-4.5-33.9-13.5S24,84.2,24,71.4s4.7-23.7,14.1-32.8S58.8,25,72,25
				s24.5,4.5,33.9,13.6c9.4,9.1,14.1,20,14.1,32.8c0,9.1-2.5,17.4-7.6,24.9l-0.5,0.5c-0.2,0.2-0.2,0.3-0.2,0.5
				c-0.6,1.2-0.9,2.4-0.9,3.5l5.1,20.3l-19.4-7.2c-0.6-0.3-1.5-0.5-2.8-0.5c-0.5,0-1.3,0.2-2.5,0.5c-0.2,0.2-0.3,0.2-0.5,0.2
				C85,116.4,78.8,117.5,72,117.5z"/>
		</g>
	</g>
</g>
</svg>
