<?xml version="1.0" encoding="UTF-8"?>
<svg width="55px" height="55px" viewBox="0 0 55 55" version="1.1" xmlns="http://www.w3.org/2000/svg" xmlns:xlink="http://www.w3.org/1999/xlink">
    <!-- Generator: sketchtool 49.3 (51167) - http://www.bohemiancoding.com/sketch -->
    <title>F2552572-A3F1-4ACC-87D4-660C28654922</title>
    <desc>Created with sketchtool.</desc>
    <defs></defs>
    <g id="Symbols" stroke="none" stroke-width="1" fill="none" fill-rule="evenodd">
        <g id="icon/chat" fill="#81CA49" fill-rule="nonzero">
            <path d="M2.8,2 C1.25781227,2 0,3.27663444 0,4.8418998 L0,35.1554977 C0,36.7207631 1.25781227,37.9973975 2.8,37.9973975 L9.46822893,37.9973975 C9.52656227,39.011305 9.3625,41.1575314 7.59791667,44.1400455 C7.40833333,44.4656799 7.42656227,44.8764235 7.64166667,45.179855 C7.82031227,45.4314815 8.10468773,45.575797 8.4,45.575797 C8.46562547,45.575797 8.5348956,45.5683967 8.60416667,45.5535951 C15.8119789,43.9291235 18.4953123,39.644071 19.2791667,37.9973975 L26.1333333,37.9973975 L26.1333333,42.7338972 C26.1333333,44.2991626 27.3911456,45.575797 28.9333333,45.575797 L40.3520833,45.575797 C40.9135421,47.3186811 42.8057289,51.3854104 48.4020833,52.1957951 C48.4458333,52.2031964 48.4895833,52.2068966 48.5333333,52.2068966 C48.8177088,52.2068966 49.0875,52.0736825 49.2661456,51.8442588 C49.4739588,51.5778307 49.525,51.2225932 49.4010421,50.9080593 C48.2781255,48.0624593 48.2453123,46.3602798 48.3291667,45.575797 L53.2,45.575797 C54.7421877,45.575797 56,44.2991626 56,42.7338972 L56,21.8932986 C56,20.3280333 54.7421877,19.0513988 53.2,19.0513988 L48.5333333,19.0513988 L48.5333333,4.8418998 C48.5333333,3.27663444 47.2755211,2 45.7333333,2 L2.8,2 Z M2.8,3.89459987 L45.7333333,3.89459987 C46.2473956,3.89459987 46.6666667,4.320145 46.6666667,4.8418998 L46.6666667,35.1554977 C46.6666667,35.6772525 46.2473956,36.1027977 45.7333333,36.1027977 L18.6666667,36.1027977 C18.2656255,36.1027977 17.9083333,36.3618255 17.7807289,36.7503662 C17.7661456,36.798471 16.3078123,41.0317176 10.2229167,43.1335394 C11.9291667,39.2444288 11.1890623,36.8650785 11.1526044,36.7503662 C11.025,36.3618255 10.6677088,36.1027977 10.2666667,36.1027977 L2.8,36.1027977 C2.28593773,36.1027977 1.86666667,35.6772525 1.86666667,35.1554977 L1.86666667,4.8418998 C1.86666667,4.320145 2.28593773,3.89459987 2.8,3.89459987 Z M10.2666667,15.2621991 C9.7489588,15.2621991 9.33333333,15.6877442 9.33333333,16.209499 C9.33333333,16.7312538 9.7489588,17.156799 10.2666667,17.156799 L27.0666667,17.156799 C27.5843755,17.156799 28,16.7312538 28,16.209499 C28,15.6877442 27.5843755,15.2621991 27.0666667,15.2621991 L10.2666667,15.2621991 Z M30.8,15.2621991 C30.2822921,15.2621991 29.8666667,15.6877442 29.8666667,16.209499 C29.8666667,16.7312538 30.2822921,17.156799 30.8,17.156799 L34.5333333,17.156799 C35.0510421,17.156799 35.4666667,16.7312538 35.4666667,16.209499 C35.4666667,15.6877442 35.0510421,15.2621991 34.5333333,15.2621991 L30.8,15.2621991 Z M10.2666667,20.9459987 C9.7489588,20.9459987 9.33333333,21.3715438 9.33333333,21.8932986 C9.33333333,22.4150534 9.7489588,22.8405986 10.2666667,22.8405986 L30.8,22.8405986 C31.3177088,22.8405986 31.7333333,22.4150534 31.7333333,21.8932986 C31.7333333,21.3715438 31.3177088,20.9459987 30.8,20.9459987 L10.2666667,20.9459987 Z M48.5333333,20.9459987 L53.2,20.9459987 C53.7140623,20.9459987 54.1333333,21.3715438 54.1333333,21.8932986 L54.1333333,42.7338972 C54.1333333,43.255652 53.7140623,43.6811971 53.2,43.6811971 L47.6,43.6811971 C47.2463544,43.6811971 46.9255211,43.8847188 46.7651044,44.2029519 C46.6630211,44.4101738 45.9119789,46.1345562 47.0859377,49.9607594 C42.7473956,48.5731137 42.0182289,44.6544 41.9854167,44.4730812 C41.9125,44.0179329 41.5223956,43.6811971 41.0666667,43.6811971 L28.9333333,43.6811971 C28.4192711,43.6811971 28,43.255652 28,42.7338972 L28,37.9973975 L45.7333333,37.9973975 C47.2755211,37.9973975 48.5333333,36.7207631 48.5333333,35.1554977 L48.5333333,20.9459987 Z M5.6,30.418998 C5.08229213,30.418998 4.66666667,30.8445432 4.66666667,31.366298 L4.66666667,33.2608979 C4.66666667,33.7826527 5.08229213,34.2081978 5.6,34.2081978 C6.1177088,34.2081978 6.53333333,33.7826527 6.53333333,33.2608979 L6.53333333,31.366298 C6.53333333,30.8445432 6.1177088,30.418998 5.6,30.418998 Z M10.2666667,30.418998 C9.7489588,30.418998 9.33333333,30.8445432 9.33333333,31.366298 L9.33333333,33.2608979 C9.33333333,33.7826527 9.7489588,34.2081978 10.2666667,34.2081978 C10.7843755,34.2081978 11.2,33.7826527 11.2,33.2608979 L11.2,31.366298 C11.2,30.8445432 10.7843755,30.418998 10.2666667,30.418998 Z M14.9333333,30.418998 C14.4156255,30.418998 14,30.8445432 14,31.366298 L14,33.2608979 C14,33.7826527 14.4156255,34.2081978 14.9333333,34.2081978 C15.4510421,34.2081978 15.8666667,33.7826527 15.8666667,33.2608979 L15.8666667,31.366298 C15.8666667,30.8445432 15.4510421,30.418998 14.9333333,30.418998 Z M19.6,30.418998 C19.0822921,30.418998 18.6666667,30.8445432 18.6666667,31.366298 L18.6666667,33.2608979 C18.6666667,33.7826527 19.0822921,34.2081978 19.6,34.2081978 C20.1177088,34.2081978 20.5333333,33.7826527 20.5333333,33.2608979 L20.5333333,31.366298 C20.5333333,30.8445432 20.1177088,30.418998 19.6,30.418998 Z M24.2666667,30.418998 C23.7489588,30.418998 23.3333333,30.8445432 23.3333333,31.366298 L23.3333333,33.2608979 C23.3333333,33.7826527 23.7489588,34.2081978 24.2666667,34.2081978 C24.7843755,34.2081978 25.2,33.7826527 25.2,33.2608979 L25.2,31.366298 C25.2,30.8445432 24.7843755,30.418998 24.2666667,30.418998 Z M28.9333333,30.418998 C28.4156255,30.418998 28,30.8445432 28,31.366298 L28,33.2608979 C28,33.7826527 28.4156255,34.2081978 28.9333333,34.2081978 C29.4510421,34.2081978 29.8666667,33.7826527 29.8666667,33.2608979 L29.8666667,31.366298 C29.8666667,30.8445432 29.4510421,30.418998 28.9333333,30.418998 Z M33.6,30.418998 C33.0822921,30.418998 32.6666667,30.8445432 32.6666667,31.366298 L32.6666667,33.2608979 C32.6666667,33.7826527 33.0822921,34.2081978 33.6,34.2081978 C34.1177088,34.2081978 34.5333333,33.7826527 34.5333333,33.2608979 L34.5333333,31.366298 C34.5333333,30.8445432 34.1177088,30.418998 33.6,30.418998 Z M38.2666667,30.418998 C37.7489588,30.418998 37.3333333,30.8445432 37.3333333,31.366298 L37.3333333,33.2608979 C37.3333333,33.7826527 37.7489588,34.2081978 38.2666667,34.2081978 C38.7843755,34.2081978 39.2,33.7826527 39.2,33.2608979 L39.2,31.366298 C39.2,30.8445432 38.7843755,30.418998 38.2666667,30.418998 Z M42.9333333,30.418998 C42.4156255,30.418998 42,30.8445432 42,31.366298 L42,33.2608979 C42,33.7826527 42.4156255,34.2081978 42.9333333,34.2081978 C43.4510421,34.2081978 43.8666667,33.7826527 43.8666667,33.2608979 L43.8666667,31.366298 C43.8666667,30.8445432 43.4510421,30.418998 42.9333333,30.418998 Z" id="icon-chat"></path>
        </g>
    </g>
</svg>
