<?xml version="1.0" encoding="utf-8"?>
<!-- Generator: Adobe Illustrator 22.0.1, SVG Export Plug-In . SVG Version: 6.00 Build 0)  -->
<svg version="1.1" id="Layer_1" xmlns="http://www.w3.org/2000/svg" xmlns:xlink="http://www.w3.org/1999/xlink" x="0px" y="0px"
	 viewBox="0 0 100 100" style="enable-background:new 0 0 100 100;" xml:space="preserve">
<style type="text/css">
	.st0{fill:#333333;}
</style>
<title>clock - simple-line-icons</title>
<desc>Created with Sketch.</desc>
<g id="Style">
	<g id="Icons" transform="translate(-78.000000, -965.000000)">
		<path id="clock---simple-line-icons" class="st0" d="M128,967c6.6,0,12.9,1.2,18.7,3.8s10.9,5.9,15.3,10.3s7.8,9.4,10.3,15.3
			s3.8,12.1,3.8,18.7s-1.2,12.9-3.8,18.7s-5.9,10.9-10.3,15.3s-9.4,7.8-15.3,10.3s-12.1,3.8-18.7,3.8c-6.6,0-12.9-1.2-18.7-3.8
			s-10.9-5.9-15.3-10.3s-7.8-9.4-10.3-15.3S80,1021.6,80,1015s1.2-12.9,3.8-18.7S89.7,985.4,94,981s9.4-7.8,15.3-10.3
			S121.4,967,128,967z M128,1057.1c5.8,0,11.3-1.1,16.4-3.3s9.5-5.2,13.3-9c3.8-3.8,6.8-8.3,9-13.4s3.3-10.5,3.3-16.4
			s-1.1-11.3-3.3-16.4s-5.2-9.5-9-13.3c-3.8-3.8-8.2-6.8-13.3-9S133.8,973,128,973c-5.8,0-11.3,1.1-16.4,3.3s-9.5,5.2-13.3,9
			s-6.8,8.2-9,13.3S86,1009.2,86,1015s1.1,11.3,3.3,16.4s5.2,9.5,9,13.4s8.2,6.8,13.3,9S122.2,1057.1,128,1057.1z M131,1013.8
			l14.2,14.2c0.6,0.6,0.8,1.3,0.8,2.1s-0.3,1.5-0.8,2.1c-0.6,0.6-1.3,0.9-2.1,0.9s-1.5-0.3-2.1-0.9l-14.9-14.8c0-0.1,0-0.1,0-0.1
			l0,0c-0.3-0.3-0.5-0.6-0.7-0.9s-0.2-0.8-0.2-1.2v-30c0-0.8,0.3-1.5,0.9-2.1s1.3-0.9,2.1-0.9s1.5,0.3,2.1,0.9s0.9,1.3,0.9,2.1
			V1013.8z"/>
	</g>
</g>
</svg>
