<?xml version="1.0" encoding="utf-8"?>
<!-- Generator: Adobe Illustrator 22.0.1, SVG Export Plug-In . SVG Version: 6.00 Build 0)  -->
<svg version="1.1" id="Layer_1" xmlns="http://www.w3.org/2000/svg" xmlns:xlink="http://www.w3.org/1999/xlink" x="0px" y="0px"
	 viewBox="0 0 100 100" style="enable-background:new 0 0 100 100;" xml:space="preserve">
<g id="surface1">
	<path d="M32.2,4c-3,0-5.5,2.5-5.5,5.5c0,0.9,0.3,1.8,0.7,2.6l-10.1,9.3c-0.9-0.6-1.9-0.9-3-0.9c-3,0-5.5,2.5-5.5,5.5
		s2.5,5.5,5.5,5.5s5.5-2.5,5.5-5.5c0-0.9-0.3-1.8-0.7-2.6l10.1-9.3c0.9,0.6,1.9,0.9,3,0.9c0.9,0,1.8-0.3,2.6-0.7l10.6,11.5
		c-0.6,0.9-0.9,1.9-0.9,2.9c0,3,2.5,5.5,5.5,5.5s5.5-2.5,5.5-5.5c0-0.4,0-0.8-0.1-1.1l7-3.5c1,1.2,2.5,1.9,4.1,1.9
		c3,0,5.5-2.5,5.5-5.5c0-0.5-0.1-1-0.2-1.5l7.3-4.3c1,1,2.4,1.6,3.9,1.6c3,0,5.5-2.5,5.5-5.5s-2.5-5.5-5.5-5.5c-3,0-5.5,2.5-5.5,5.5
		c0,0.5,0.1,1,0.2,1.5l-7.3,4.3c-1-1-2.4-1.6-3.9-1.6c-3,0-5.5,2.5-5.5,5.5c0,0.4,0,0.8,0.1,1.1l-7,3.5c-1-1.2-2.5-1.9-4.1-1.9
		c-0.9,0-1.8,0.3-2.6,0.7L36.8,12.4c0.6-0.9,0.9-1.9,0.9-2.9C37.7,6.5,35.2,4,32.2,4z M32.2,6.7c1.5,0,2.7,1.2,2.7,2.7
		c0,1.5-1.2,2.7-2.7,2.7s-2.7-1.2-2.7-2.7C29.4,8,30.6,6.7,32.2,6.7z M82.9,8.1c1.5,0,2.7,1.2,2.7,2.7c0,1.5-1.2,2.7-2.7,2.7
		s-2.7-1.2-2.7-2.7C80.2,9.3,81.4,8.1,82.9,8.1z M66.5,17.7c1.5,0,2.7,1.2,2.7,2.7c0,1.5-1.2,2.7-2.7,2.7s-2.7-1.2-2.7-2.7
		C63.7,18.9,64.9,17.7,66.5,17.7z M14.3,23.2c1.5,0,2.7,1.2,2.7,2.7s-1.2,2.7-2.7,2.7c-1.5,0-2.7-1.2-2.7-2.7S12.8,23.2,14.3,23.2z
		 M50,25.9c1.5,0,2.7,1.2,2.7,2.7s-1.2,2.7-2.7,2.7s-2.7-1.2-2.7-2.7S48.5,25.9,50,25.9z M25.3,31.1v60.7h-4.1V42.1H7.5v49.7H2v2.7
		h96v-2.7h-5.5V33.8H78.8v57.9h-4.1V46.2H61v45.6h-4.1V54.4H43.1v37.4H39V31.1H25.3z M28.1,33.8h8.2v57.9h-8.2V33.8z M81.5,36.6h8.2
		v5.8c-0.8,0-1.4,0.6-1.4,1.4c0,0.8,0.6,1.4,1.4,1.4v5.5c-0.8,0-1.4,0.6-1.4,1.4s0.6,1.4,1.4,1.4v5.5c-0.8,0-1.4,0.6-1.4,1.4
		c0,0.8,0.6,1.4,1.4,1.4v5.5c-0.8,0-1.4,0.6-1.4,1.4c0,0.8,0.6,1.4,1.4,1.4v5.5c-0.8,0-1.4,0.6-1.4,1.4s0.6,1.4,1.4,1.4v5.5
		c-0.8,0-1.4,0.6-1.4,1.4s0.6,1.4,1.4,1.4v5.5h-8.2v-5.5c0.8,0,1.4-0.6,1.4-1.4s-0.6-1.4-1.4-1.4v-5.5c0.8,0,1.4-0.6,1.4-1.4
		s-0.6-1.4-1.4-1.4v-5.5c0.8,0,1.4-0.6,1.4-1.4c0-0.8-0.6-1.4-1.4-1.4v-5.5c0.8,0,1.4-0.6,1.4-1.4c0-0.8-0.6-1.4-1.4-1.4v-5.5
		c0.8,0,1.4-0.6,1.4-1.4s-0.6-1.4-1.4-1.4v-5.5c0.8,0,1.4-0.6,1.4-1.4c0-0.8-0.6-1.4-1.4-1.4V36.6z M85.7,38.3
		c-0.8,0-1.4,0.6-1.4,1.4s0.6,1.4,1.4,1.4s1.4-0.6,1.4-1.4S86.4,38.3,85.7,38.3z M10.2,44.8h8.2v5.8c-0.8,0-1.4,0.6-1.4,1.4
		s0.6,1.4,1.4,1.4v5.5c-0.8,0-1.4,0.6-1.4,1.4c0,0.8,0.6,1.4,1.4,1.4v5.5c-0.8,0-1.4,0.6-1.4,1.4c0,0.8,0.6,1.4,1.4,1.4v5.5
		c-0.8,0-1.4,0.6-1.4,1.4s0.6,1.4,1.4,1.4v5.5c-0.8,0-1.4,0.6-1.4,1.4s0.6,1.4,1.4,1.4v5.5h-8.2v-5.5c0.8,0,1.4-0.6,1.4-1.4
		s-0.6-1.4-1.4-1.4v-5.5c0.8,0,1.4-0.6,1.4-1.4s-0.6-1.4-1.4-1.4v-5.5c0.8,0,1.4-0.6,1.4-1.4c0-0.8-0.6-1.4-1.4-1.4v-5.5
		c0.8,0,1.4-0.6,1.4-1.4c0-0.8-0.6-1.4-1.4-1.4v-5.5c0.8,0,1.4-0.6,1.4-1.4s-0.6-1.4-1.4-1.4V44.8z M14.3,46.5
		c-0.8,0-1.4,0.6-1.4,1.4c0,0.8,0.6,1.4,1.4,1.4c0.8,0,1.4-0.6,1.4-1.4C15.7,47.1,15.1,46.5,14.3,46.5z M85.7,46.5
		c-0.8,0-1.4,0.6-1.4,1.4c0,0.8,0.6,1.4,1.4,1.4s1.4-0.6,1.4-1.4C87,47.1,86.4,46.5,85.7,46.5z M63.7,48.9h8.2v42.9h-8.2V48.9z
		 M14.3,54.7c-0.8,0-1.4,0.6-1.4,1.4c0,0.8,0.6,1.4,1.4,1.4c0.8,0,1.4-0.6,1.4-1.4C15.7,55.4,15.1,54.7,14.3,54.7z M85.7,54.7
		c-0.8,0-1.4,0.6-1.4,1.4c0,0.8,0.6,1.4,1.4,1.4s1.4-0.6,1.4-1.4C87,55.4,86.4,54.7,85.7,54.7z M45.9,57.1h8.2v1.7
		c-0.8,0-1.4,0.6-1.4,1.4c0,0.8,0.6,1.4,1.4,1.4v5.5c-0.8,0-1.4,0.6-1.4,1.4c0,0.8,0.6,1.4,1.4,1.4v5.5c-0.8,0-1.4,0.6-1.4,1.4
		s0.6,1.4,1.4,1.4v5.5c-0.8,0-1.4,0.6-1.4,1.4s0.6,1.4,1.4,1.4v5.5h-8.2v-5.5c0.8,0,1.4-0.6,1.4-1.4s-0.6-1.4-1.4-1.4v-5.5
		c0.8,0,1.4-0.6,1.4-1.4s-0.6-1.4-1.4-1.4v-5.5c0.8,0,1.4-0.6,1.4-1.4c0-0.8-0.6-1.4-1.4-1.4v-5.5c0.8,0,1.4-0.6,1.4-1.4
		c0-0.8-0.6-1.4-1.4-1.4V57.1z M14.3,63c-0.8,0-1.4,0.6-1.4,1.4s0.6,1.4,1.4,1.4c0.8,0,1.4-0.6,1.4-1.4S15.1,63,14.3,63z M50,63
		c-0.8,0-1.4,0.6-1.4,1.4s0.6,1.4,1.4,1.4s1.4-0.6,1.4-1.4S50.8,63,50,63z M85.7,63c-0.8,0-1.4,0.6-1.4,1.4s0.6,1.4,1.4,1.4
		s1.4-0.6,1.4-1.4S86.4,63,85.7,63z M14.3,71.2c-0.8,0-1.4,0.6-1.4,1.4s0.6,1.4,1.4,1.4c0.8,0,1.4-0.6,1.4-1.4S15.1,71.2,14.3,71.2z
		 M50,71.2c-0.8,0-1.4,0.6-1.4,1.4s0.6,1.4,1.4,1.4s1.4-0.6,1.4-1.4S50.8,71.2,50,71.2z M85.7,71.2c-0.8,0-1.4,0.6-1.4,1.4
		s0.6,1.4,1.4,1.4s1.4-0.6,1.4-1.4S86.4,71.2,85.7,71.2z M14.3,79.4c-0.8,0-1.4,0.6-1.4,1.4c0,0.8,0.6,1.4,1.4,1.4
		c0.8,0,1.4-0.6,1.4-1.4C15.7,80,15.1,79.4,14.3,79.4z M50,79.4c-0.8,0-1.4,0.6-1.4,1.4c0,0.8,0.6,1.4,1.4,1.4s1.4-0.6,1.4-1.4
		C51.4,80,50.8,79.4,50,79.4z M85.7,79.4c-0.8,0-1.4,0.6-1.4,1.4c0,0.8,0.6,1.4,1.4,1.4s1.4-0.6,1.4-1.4C87,80,86.4,79.4,85.7,79.4z
		 M14.3,87.7c-0.8,0-1.4,0.6-1.4,1.4s0.6,1.4,1.4,1.4c0.8,0,1.4-0.6,1.4-1.4S15.1,87.7,14.3,87.7z M50,87.7c-0.8,0-1.4,0.6-1.4,1.4
		s0.6,1.4,1.4,1.4s1.4-0.6,1.4-1.4S50.8,87.7,50,87.7z M85.7,87.7c-0.8,0-1.4,0.6-1.4,1.4s0.6,1.4,1.4,1.4S87,89.8,87,89
		S86.4,87.7,85.7,87.7z"/>
</g>
</svg>
