<?xml version="1.0" encoding="utf-8"?>
<!-- Generator: Adobe Illustrator 22.0.1, SVG Export Plug-In . SVG Version: 6.00 Build 0)  -->
<svg version="1.1" id="Layer_1" xmlns="http://www.w3.org/2000/svg" xmlns:xlink="http://www.w3.org/1999/xlink" x="0px" y="0px"
	 viewBox="0 0 100 100" style="enable-background:new 0 0 100 100;" xml:space="preserve">
<g id="surface1">
	<path d="M21.9,2C13.7,2,7,8.7,7,16.9v6.4c0,1.2,1,2.1,2.1,2.1h10.7v64c0,1.2,1,2.1,2.1,2.1h29.9v-4.3H24.1V25.5h40.5
		c1.2,0,2.1-1,2.1-2.1v-6.4c0-5.9,4.8-10.7,10.7-10.7c0.1,0,0.1,0,0.2,0c5.8,0.1,10.5,4.9,10.5,10.7v70.4H77.4v4.3h12.8
		c1.2,0,2.1-1,2.1-2.1V16.9c0-8.1-6.5-14.8-14.6-14.9c-0.1,0-0.2,0-0.3,0H21.9z M21.9,6.3h45.1c-2.8,2.7-4.6,6.5-4.6,10.7v4.3H11.3
		v-4.3C11.3,11.1,16.1,6.3,21.9,6.3z M34.7,31.9v4.3h42.7v-4.3H34.7z M34.7,44.7v4.3h42.7v-4.3H34.7z M64.6,57.5c-1.6,0-3,0.9-4,2.2
		c-1.5-0.3-3.1-0.2-4.4,0.8c-1.3,1-1.6,2.7-1.6,4.2c-1.4,0.8-2.5,1.9-2.8,3.5c-0.3,1.6,0.5,3,1.5,4.2c-0.6,1.5-0.7,3.2,0.1,4.5
		c0.1,0.2,0.3,0.4,0.5,0.6v18.3c0,0.8,0.4,1.5,1.2,1.9c0.7,0.4,1.6,0.3,2.2-0.2l7.3-5.5l7.3,5.5c0.6,0.5,1.5,0.5,2.2,0.2
		c0.7-0.4,1.2-1.1,1.2-1.9V77.5c0.2-0.2,0.4-0.4,0.5-0.6c0.9-1.5,0.7-3.1,0.1-4.5c1-1.1,1.7-2.6,1.5-4.2c-0.3-1.6-1.4-2.8-2.8-3.5
		c0-1.5-0.3-3.1-1.6-4.2c-1.3-1-2.9-1.1-4.4-0.8C67.6,58.4,66.3,57.5,64.6,57.5z M68.9,60.1c0.1,0.1,0.3,0.2,0.2,0.1L69,60.3
		C68.9,60.2,68.9,60.1,68.9,60.1z M64.6,61.7c0.7,0,0.7,0.1,0.9,0.7c0.1,0.3,0.3,0.6,0.5,0.9c0.1,0.1,0.2,0.2,0.8,0.5
		c0.6,0.3,1,0.3,1.1,0.3c0.4,0,0.8-0.1,1.1-0.3c0.3-0.2,0.9-0.2,1.2,0c0.4,0.3,0.4,0.4,0.1,1.1c-0.1,0.2-0.1,0.5-0.1,0.7
		c0,0.3,0.1,0.3,0.3,0.6c0.1,1,0.8,1.8,1.7,1.9c0.3,0.1,0.7,0.5,0.8,0.8c0.1,0.4-0.1,0.8-0.5,1c-0.6,0.4-1,1.1-1,1.8v0.7
		c0,0.4,0.1,0.9,0.4,1.3c0.1,0.1,0.1,0.9,0.1,1.1c-0.2,0.3-0.6,0.5-1,0.5c-0.8-0.1-1.6,0.2-2.1,0.8c0,0,0,0,0,0.1
		c-0.1,0.1,0,0-0.1,0.1c0,0,0,0-0.1,0c-0.4,0.4-0.7,0.9-0.7,1.5c0,0.6,0,0.6-0.5,0.7c-0.1,0-0.2,0.1-0.3,0.1c0,0,0,0-0.1,0
		c-0.1,0-0.6-0.2-0.9-0.5c-0.4-0.4-1-0.6-1.5-0.6h-0.8c-0.6,0-1.1,0.2-1.5,0.6c-0.3,0.3-0.7,0.5-1.2,0.3C61.2,78.3,61,78,61,77.7
		c0-0.4-0.2-1-0.5-1.3c-0.2-0.3-0.5-0.5-0.6-0.6c-0.5-0.5-1.2-0.7-1.9-0.6c-0.4,0.1-0.8-0.1-1-0.5c-0.2-0.4-0.3-0.6,0-1
		c0.3-0.4,0.5-0.8,0.5-1.3v-0.7c0-0.7-0.4-1.4-1-1.8c-0.3-0.2-0.5-0.6-0.5-1c0.1-0.3,0.5-0.7,0.8-0.8c0.9-0.2,1.7-1,1.7-1.9
		c0.1-0.3,0.3-0.3,0.3-0.6c0-0.2,0-0.5-0.1-0.7c-0.2-0.7-0.2-0.8,0.1-1.1c0.3-0.2,0.9-0.2,1.2,0c0.7,0.4,1.5,0.4,2.1,0
		c0,0,0,0,0.1,0c0,0,0,0,0.1-0.1c0,0,0.1,0,0.1-0.1c0.6-0.2,1-0.7,1.2-1.3C63.8,62.1,64.3,61.7,64.6,61.7z M58.2,81.1
		c0.5,0.6,1.1,1.1,1.8,1.4c0,0,0,0,0.1,0.1c1.6,0.5,3.2,0.1,4.5-0.7c0,0,0,0,0.1,0H65c0.8,0.4,1.4,1.1,2.4,1.1
		c0.4,0,1.1-0.2,1.7-0.4c0,0,0.1,0,0.1-0.1c0,0,0.1,0,0.1,0v-0.1c0.7-0.3,1.2-0.7,1.6-1.2v10.5l-5.1-3.9c-0.7-0.6-1.8-0.6-2.5,0
		l-5.1,3.9V81.1z"/>
</g>
</svg>
