<?xml version="1.0" encoding="utf-8"?>
<!-- Generator: Adobe Illustrator 22.0.1, SVG Export Plug-In . SVG Version: 6.00 Build 0)  -->
<svg version="1.1" id="Layer_1" xmlns="http://www.w3.org/2000/svg" xmlns:xlink="http://www.w3.org/1999/xlink" x="0px" y="0px"
	 viewBox="0 0 100 100" style="enable-background:new 0 0 100 100;" xml:space="preserve">
<style type="text/css">
	.st0{fill:#333333;}
</style>
<title>contacts - anticon</title>
<desc>Created with Sketch.</desc>
<g id="Style">
	<g id="Icons" transform="translate(-77.000000, -1691.000000)">
		<path id="contacts---anticon" class="st0" d="M98.4,1763c-0.8,0.8-1.7,1.1-2.7,1.1H82.9c-1.1,0-2-0.4-2.7-1.1s-1.1-1.7-1.1-2.7
			c0-1.1,0.4-2,1.1-2.7s1.7-1.1,2.7-1.1h12.9c1.1,0,2,0.4,2.7,1.1s1.1,1.7,1.1,2.7C99.6,1761.4,99.2,1762.3,98.4,1763z M82.9,1725.8
			c-1.1,0-2-0.4-2.7-1.1s-1.1-1.7-1.1-2.7s0.4-2,1.1-2.7s1.7-1.1,2.7-1.1h12.9c1.1,0,2,0.4,2.7,1.1s1.1,1.7,1.1,2.7s-0.4,2-1.1,2.7
			s-1.7,1.1-2.7,1.1H82.9z M167.3,1693c2.1,0,4,0.8,5.5,2.2s2.2,3.3,2.2,5.5v80.6c0,2.1-0.8,4-2.2,5.5s-3.3,2.2-5.5,2.2H93.6
			c-2.1,0-4-0.8-5.5-2.2c-1.5-1.5-2.2-3.3-2.2-5.5v-6c0-1.1,0.4-2,1.1-2.7c0.8-0.8,1.7-1.1,2.7-1.1s2,0.4,2.7,1.1s1.1,1.7,1.1,2.7v6
			h73.7v-80.6H93.6v6c0,1.1-0.4,2-1.1,2.7s-1.7,1.1-2.7,1.1s-2-0.4-2.7-1.1c-0.8-0.8-1.1-1.7-1.1-2.7v-6c0-2.1,0.7-4,2.2-5.5
			c1.5-1.5,3.3-2.2,5.5-2.2H167.3z M82.9,1745c-1.1,0-2-0.4-2.7-1.1s-1.1-1.7-1.1-2.7s0.4-2,1.1-2.7s1.7-1.1,2.7-1.1h12.9
			c1.1,0,2,0.4,2.7,1.1s1.1,1.7,1.1,2.7s-0.4,2-1.1,2.7s-1.7,1.1-2.7,1.1H82.9z M148.2,1765.7c-0.8,0-1.4-0.2-2-0.7
			c-0.6-0.5-0.9-1.1-1.1-1.8c-0.6-3.2-2.2-5.9-4.7-8c-2.5-2.1-5.4-3.2-8.7-3.2c-3.3,0-6.2,1.1-8.7,3.2c-2.5,2.1-4.1,4.8-4.7,8
			c-0.1,0.8-0.5,1.4-1.1,1.8c-0.6,0.5-1.3,0.7-2,0.7c-0.2,0-0.4,0-0.6-0.1c-0.8-0.1-1.5-0.5-2-1.3c-0.5-0.7-0.7-1.5-0.5-2.4
			c0.9-4.7,3.2-8.6,6.9-11.7c3.7-3.1,8-4.6,12.8-4.6c4.8,0,9.1,1.5,12.8,4.6c3.7,3.1,6,7,6.9,11.7c0.1,0.9-0.1,1.7-0.5,2.4
			c-0.5,0.7-1.1,1.2-2,1.3C148.7,1765.7,148.4,1765.7,148.2,1765.7z M137.9,1724.1c-1.7-1.7-3.8-2.6-6.2-2.6s-4.5,0.9-6.2,2.6
			c-1.7,1.7-2.6,3.8-2.6,6.2s0.9,4.5,2.6,6.2c1.7,1.7,3.8,2.6,6.2,2.6s4.5-0.9,6.2-2.6c1.7-1.7,2.6-3.8,2.6-6.2
			S139.6,1725.8,137.9,1724.1z M142.1,1740.8c-3,3-6.6,4.4-10.7,4.4s-7.7-1.5-10.7-4.4c-3-3-4.4-6.5-4.4-10.7s1.5-7.8,4.4-10.7
			c3-3,6.5-4.4,10.7-4.4s7.7,1.5,10.7,4.4c3,3,4.5,6.5,4.5,10.7S145.1,1737.8,142.1,1740.8z"/>
	</g>
</g>
</svg>
