<?xml version="1.0" encoding="utf-8"?>
<!-- Generator: Adobe Illustrator 22.0.1, SVG Export Plug-In . SVG Version: 6.00 Build 0)  -->
<svg version="1.1" id="Layer_1" xmlns="http://www.w3.org/2000/svg" xmlns:xlink="http://www.w3.org/1999/xlink" x="0px" y="0px"
	 viewBox="0 0 100 100" style="enable-background:new 0 0 100 100;" xml:space="preserve">
<path d="M50,2C39.7,2,31.1,9.9,30.1,20c-2.1,0-3.8-0.2-5.5,0.8c-0.9,0.5-1.6,1.4-2,2.3c-0.4,1-0.5,2-0.5,3.2c0,0.3,0.1,0.6,0.2,0.9
	c0.9,1.9,1.3,3.8,1.2,5c0,0.5-0.1,0.7-0.2,0.8c-2.6-0.8-5.2-0.6-7.2,0.1c-1.2,0.4-2.2,0.9-3,1.5c-0.4,0.3-0.8,0.6-1.1,1.1
	c-0.2,0.3-0.3,0.6-0.4,1.1c0,0.1,0.1,0.2,0.1,0.3c0,0,0,0,0,0.1c-0.2,0.3-0.5,0.9-1,1.6c-0.9,1.4-2.3,3.2-3.7,5
	c-1.4,1.9-2.7,3.8-3.7,5.4c-0.5,0.8-0.9,1.6-1.2,2.4c-0.3,0.8-0.7,1.8,0.3,3.1c0.2,0.3,0.5,0.5,0.8,0.6c3.8,1.6,5.8,3.3,7,4.8
	s1.5,3.1,1.6,4.8c0.2,1.7,0.1,3.5,0.6,5.4c0.6,1.9,2.2,3.7,4.7,4.5c0.3,0.1,0.6,0.4,0.9,1.2c0.3,0.8,0.5,1.9,0.5,3.1
	c0.1,2.3-0.2,4.4-0.2,4.4c-0.1,0.6,0.1,1.2,0.5,1.7c0,0,1.9,2,3.9,3.9c1,1,2.1,1.9,3.1,2.6c0.5,0.4,0.9,0.7,1.5,0.9
	c0.3,0.1,0.6,0.2,1,0.3c0.4,0,1.1,0,1.7-0.5c-0.6,0.5-0.5,0.2-0.1,0.2c0.4,0,1.1,0.1,1.9,0.2c1.6,0.3,3.6,0.8,5.7,1.4
	c2.1,0.5,4.1,1.1,5.8,1.4c0.8,0.2,1.5,0.3,2.2,0.3c0.3,0,0.7,0,1.1-0.1c0.4-0.1,1.2-0.3,1.7-1.1c0,0,0,0,0,0
	c0.5-0.8,1.2-2.4,2.2-4.1c1-1.6,2.2-3,3-3.5c0.1,0,0.1,0,0.2,0c0.6,0.2,1.4,0.5,2.4,0.9c2,0.9,4.6,2.2,7.1,3.5
	c2.6,1.3,5.2,2.8,7.3,3.9c1,0.6,2,1,2.7,1.4c0.7,0.4,1.1,0.6,1.9,0.8c1.7,0.4,2.8-0.3,3.9-1s2.3-1.5,3.4-2.4
	c1.1-0.9,2.1-1.8,2.9-2.5c0.8-0.7,1.5-1.4,1.5-1.3c0.5-0.4,0.8-1,0.8-1.4c0.1-0.4,0-0.7-0.1-0.9c-0.1-0.4-0.2-0.7-0.4-1
	c-0.3-0.6-0.7-1.1-1-1.7c-0.7-1.1-1.3-2.3-1.5-2.7v0c0-0.1,0.1-0.5,0.2-0.8c0.3-0.7,0.7-1.6,1.2-2.6c1.1-2.1,2.6-4.8,4.1-7.4
	c1.5-2.6,3-5.2,4.1-7.3c0.5-1,1-1.9,1.3-2.7c0.2-0.4,0.3-0.7,0.4-1.2c0.1-0.4,0.4-1.1-0.5-2.1c-0.2-0.2-0.4-0.4-0.7-0.5
	c-2.8-1.3-4.5-4.7-5.4-8.2c-0.4-1.7-0.7-3.4-0.8-4.7c0-0.5-0.1-1-0.1-1.3c0,0,0,0,0.1,0c0.6-0.3,1.5-0.7,2.5-1.1
	c0.9-0.4,1.9-0.8,2.7-1.1c0.4-0.2,0.7-0.3,1.1-0.5c0.2-0.1,0.3-0.2,0.5-0.4c0.2-0.2,0.5-0.3,0.8-1.1v0c1.2-4,1.8-6.9,1.6-9.4
	c-0.2-2.4-1.6-4.5-3.7-5.5c-1.2-0.9-2.6-1-3.9-1c-1.4,0-3,0.3-4.5,0.7c-2.6,0.6-4.9,1.2-6.5,1.5l-3.6-5.4c-0.4-0.6-1-0.9-1.7-0.9
	h-4.2C68.9,9.9,60.4,2,50,2z M50,6c8.9,0,16,7.1,16,16c0,5.1-4.2,13.6-8.7,20.5c-3.7,5.7-6.1,8.6-7.3,10.1
	c-1.2-1.5-3.7-4.5-7.3-10.2C38.3,35.4,34,26.9,34,22C34,13.1,41.2,6,50,6z M50,14c-4.4,0-8,3.6-8,8s3.6,8,8,8s8-3.6,8-8
	S54.4,14,50,14z M50,18c2.2,0,4,1.8,4,4s-1.8,4-4,4c-2.2,0-4-1.8-4-4S47.8,18,50,18z M69.9,24H73l3.8,5.6c0.4,0.6,1.1,0.9,1.8,0.9
	c2.3-0.2,5.3-1.2,8.1-1.8c1.4-0.3,2.7-0.5,3.7-0.6c1,0,1.5,0.2,1.5,0.2c0.2,0.1,0.3,0.2,0.5,0.3c1.2,0.5,1.4,0.7,1.5,2.2
	c0.1,1.4-0.4,4-1.4,7.4c-0.1,0.1-0.1,0.1-0.3,0.1c-0.7,0.3-1.6,0.7-2.5,1.1s-1.9,0.8-2.7,1.2c-0.4,0.2-0.8,0.4-1.1,0.6
	c-0.2,0.1-0.4,0.3-0.6,0.5s-0.5,0.6-0.6,1.3c-0.1,0.5,0,0.6,0,1.1c0,0.5,0,1.1,0.1,1.8c0.1,1.4,0.4,3.3,0.9,5.3
	c0.9,3.5,2.7,7.5,6.1,9.8c-0.2,0.5-0.5,1.1-0.9,1.9c-1,1.9-2.5,4.5-4.1,7.1c-1.5,2.6-3.1,5.3-4.2,7.6c-0.6,1.1-1.1,2.1-1.4,3
	c-0.3,0.9-0.7,1.5-0.5,2.8c0,0,0,0,0,0c0.4,1.7,1.3,3,2.1,4.2c0.2,0.3,0.3,0.5,0.5,0.8c-0.2,0.2-0.3,0.3-0.5,0.5
	c-0.8,0.7-1.8,1.6-2.8,2.4c-1,0.8-2.1,1.6-2.9,2c-0.6,0.3-1.1,0.4-1.2,0.5c0,0-0.3-0.1-0.9-0.4c-0.7-0.3-1.6-0.8-2.6-1.3
	c-2.1-1.1-4.7-2.5-7.3-3.9c-2.6-1.4-5.2-2.7-7.4-3.6c-1.1-0.5-2-0.8-2.9-1.1c-0.4-0.1-0.8-0.2-1.3-0.3c-0.4,0-1-0.1-1.7,0.3
	c-2.2,1.2-3.6,3.2-4.7,5.2c-0.9,1.5-1.4,2.5-1.8,3.3c-0.3,0-0.7-0.1-1.2-0.2c-1.5-0.3-3.5-0.8-5.6-1.4s-4.2-1.1-6-1.4
	c-0.9-0.2-1.7-0.3-2.5-0.3c-0.4,0-0.8,0.3-1.2,0.3c-0.1,0-0.4-0.2-0.7-0.4c-0.7-0.5-1.7-1.4-2.7-2.3c-1.6-1.5-2.7-2.7-3.2-3.2
	c0.1-0.7,0.3-1.9,0.2-4.1c-0.1-1.4-0.2-2.9-0.8-4.3s-1.5-2.8-3.1-3.5c-0.1,0-0.1-0.1-0.2-0.1c-1.7-0.5-1.9-1-2.2-1.9
	c-0.3-1-0.3-2.6-0.5-4.6c-0.2-2-0.7-4.5-2.4-6.8c-1.4-2-3.9-3.8-7.3-5.4c0.1-0.3,0.3-0.6,0.6-1.1c0.8-1.4,2.1-3.3,3.5-5.1
	s2.7-3.7,3.7-5.1c0.5-0.7,0.9-1.4,1.2-2c0.2-0.3,0.3-0.6,0.4-1c0-0.1-0.1-0.2-0.1-0.3c0.3-0.2,1-0.6,1.8-0.9c1.7-0.6,3.9-0.8,5.3,0
	c0.3,0.1,0.6,0.2,0.9,0.2c1.2,0,2.4-0.8,3-1.6c0.6-0.9,0.8-1.9,0.9-2.9c0.1-1.8-0.5-4-1.4-6.1c0-1,0.1-1.6,0.2-1.8
	c0.1-0.3,0.1-0.2,0.2-0.2c0.2-0.1,1.5-0.3,3.6-0.3c0.8,6.5,5,14.1,9.2,20.5c4.6,7.1,9.1,12.7,9.1,12.7c0.7,0.9,2,1,2.8,0.3
	c0.1-0.1,0.2-0.2,0.3-0.3c0,0,4.6-5.5,9.1-12.6C64.8,38.2,69.1,30.6,69.9,24z M23.8,33l0.4,0.1C24,33.1,23.9,33.1,23.8,33
	C23.7,33.1,23.7,33,23.8,33z M15.7,37c0,0.1,0,0.2,0,0.2c0,0.2-0.1,0.2-0.1,0.3C15.7,37.4,15.7,37.2,15.7,37z M35,54
	c-2.8,0-5,2.2-5,5s2.2,5,5,5c2.8,0,5-2.2,5-5S37.8,54,35,54z M28.8,89c0.2,0,0.2,0,0.2,0c-0.3,0-0.5,0-0.8,0.1
	C28.5,89.1,28.7,89,28.8,89z M27.8,89.4C27.8,89.4,27.7,89.4,27.8,89.4L27.8,89.4C27.7,89.4,27.8,89.4,27.8,89.4z"/>
</svg>
