<?xml version="1.0" encoding="utf-8"?>
<!-- Generator: Adobe Illustrator 22.0.1, SVG Export Plug-In . SVG Version: 6.00 Build 0)  -->
<svg version="1.1" id="Layer_1" xmlns="http://www.w3.org/2000/svg" xmlns:xlink="http://www.w3.org/1999/xlink" x="0px" y="0px"
	 viewBox="0 0 100 100" style="enable-background:new 0 0 100 100;" xml:space="preserve">
<g id="surface1">
	<path d="M28.9,2C14.1,2,2,14.1,2,28.9s12.1,26.9,26.9,26.9s26.9-12.1,26.9-26.9S43.7,2,28.9,2z M28.9,5.8c12.8,0,23,10.3,23,23
		s-10.3,23-23,23s-23-10.3-23-23S16.1,5.8,28.9,5.8z M28.7,11.5c-0.1,0-0.2,0-0.2,0.1c-0.9,0.2-1.5,1-1.5,1.9v14.9
		c-0.1,0.4-0.1,0.8,0.1,1.1c0,0,0,0,0.1,0.1c0,0,0,0.1,0.1,0.1c0,0,0,0,0.1,0.1c0,0,0,0.1,0,0.1c0,0,0,0,0.1,0.1c0,0,0,0,0.1,0.1
		c0,0,0,0.1,0.1,0.1c0,0,0,0,0.1,0.1c0,0,0,0,0.1,0.1c0,0,0,0,0.1,0.1c0,0,0.1,0,0.1,0.1c0,0,0,0,0.1,0.1c0.1,0.1,0.2,0.1,0.2,0.2
		l7.4,5.6c0.9,0.6,2.1,0.4,2.7-0.4c0.6-0.9,0.4-2.1-0.4-2.7l-6.9-5.2V13.5c0-0.6-0.2-1.1-0.6-1.5C29.8,11.7,29.2,11.5,28.7,11.5z
		 M59.1,32.7c-1.1,0.1-1.8,1.1-1.7,2.2s1.1,1.8,2.2,1.7h30.7v48H55.6l2.1-3.8l-2.1-3.8H34.6v7.7H23.1v-25c0-0.6-0.2-1.1-0.6-1.5
		c-0.4-0.4-1-0.6-1.5-0.5c-0.1,0-0.2,0-0.2,0.1c-0.9,0.2-1.5,1-1.5,1.9v25h-1.9c-0.1,0-0.1,0-0.2,0c-1,0.1-1.7,0.9-1.7,1.9v9.6
		c0,1.1,0.9,1.9,1.9,1.9h78.7c1.1,0,1.9-0.9,1.9-1.9v-9.6c0-1.1-0.9-1.9-1.9-1.9h-1.9V34.6c0-1.1-0.9-1.9-1.9-1.9H59.6
		c-0.1,0-0.1,0-0.2,0c-0.1,0-0.1,0-0.2,0C59.2,32.7,59.1,32.7,59.1,32.7z M19.3,88.4h74.9v5.8H19.3V88.4z"/>
</g>
</svg>
