<?xml version="1.0" encoding="utf-8"?>
<!-- Generator: Adobe Illustrator 22.0.1, SVG Export Plug-In . SVG Version: 6.00 Build 0)  -->
<svg version="1.1" id="Layer_1" xmlns="http://www.w3.org/2000/svg" xmlns:xlink="http://www.w3.org/1999/xlink" x="0px" y="0px"
	 viewBox="0 0 100 100" style="enable-background:new 0 0 100 100;" xml:space="preserve">
<g id="surface1">
	<path d="M49.8,6l-2.3,2.3L39,16.6l-11.8-1.6L24,14.4l-0.5,3.2l-2.1,11.7l-10.6,5.6L8,36.5l1.4,2.8L14.7,50L9.4,60.8L8,63.5l2.9,1.5
		l10.6,5.6l2.1,11.7l0.5,3.2l3.2-0.5L39,83.4l8.6,8.3l2.3,2.3l2.3-2.3l8.6-8.3l11.8,1.6l3.2,0.5l0.5-3.2l2.1-11.7l10.6-5.6l2.9-1.5
		l-1.4-2.8L85,50l5.2-10.8l1.4-2.8l-2.9-1.5l-10.6-5.6l-2.1-11.7l-0.5-3.2l-3.2,0.5l-11.8,1.6l-8.6-8.3L49.8,6z M49.8,15.1l7.5,7.3
		l1.1,1.1l1.5-0.2l10.3-1.5l1.8,10.3l0.3,1.5l1.4,0.8l9,4.8l-4.5,9.3L77.7,50l0.6,1.4l4.5,9.3l-9,4.8l-1.4,0.8l-0.3,1.5l-1.8,10.3
		L60,76.7l-1.5-0.2l-1.1,1.1l-7.5,7.3l-7.5-7.3l-1.1-1.1l-1.5,0.2l-10.3,1.5l-1.8-10.3l-0.3-1.5l-1.4-0.8l-9-4.8l4.5-9.3l0.6-1.4
		l-0.6-1.4l-4.5-9.3l9-4.8l1.4-0.8l0.3-1.5l1.8-10.3l10.3,1.5l1.5,0.2l1.1-1.1L49.8,15.1z M56.4,30.3L36.7,69.7h6.6L63,30.3H56.4z
		 M38.4,36.9c-2.7,0-4.9,2.2-4.9,4.9s2.2,4.9,4.9,4.9s4.9-2.2,4.9-4.9S41.1,36.9,38.4,36.9z M61.3,53.3c-2.7,0-4.9,2.2-4.9,4.9
		s2.2,4.9,4.9,4.9c2.7,0,4.9-2.2,4.9-4.9S64.1,53.3,61.3,53.3z"/>
</g>
</svg>
