<?xml version="1.0" encoding="utf-8"?>
<!-- Generator: Adobe Illustrator 22.0.1, SVG Export Plug-In . SVG Version: 6.00 Build 0)  -->
<svg version="1.1" id="Layer_1" xmlns="http://www.w3.org/2000/svg" xmlns:xlink="http://www.w3.org/1999/xlink" x="0px" y="0px"
	 viewBox="0 0 100 100" style="enable-background:new 0 0 100 100;" xml:space="preserve">
<title>emotsmile - simple-line-icons</title>
<desc>Created with Sketch.</desc>
<g id="Style">
	<g id="Icons" transform="translate(-325.000000, -975.000000)">
		<path id="emotsmile---simple-line-icons" d="M400.2,1033.9c0.8,0.4,1.3,0.9,1.6,1.7s0.3,1.5-0.1,2.2c-0.1,0.2-0.6,1.2-1.6,3
			s-2.6,3.8-4.7,5.9s-4.9,4-8.3,5.8s-7.5,2.6-12.3,2.6c-0.1,0-0.1,0-0.2,0s-0.1,0-0.2,0c-4.6,0-8.5-0.9-11.8-2.6s-6-3.7-8.1-5.8
			s-3.7-4.1-4.7-5.9s-1.6-2.8-1.6-3c-0.4-0.8-0.4-1.6-0.1-2.3s0.8-1.3,1.6-1.7c0.8-0.3,1.5-0.3,2.2,0s1.3,0.8,1.7,1.5
			c0.1,0.1,0.5,0.9,1.4,2.4s2.1,3,3.8,4.7s3.8,3.2,6.4,4.6s5.7,2.1,9.3,2.1l0.1,0c0.1,0,0.1,0,0.2,0c3.8,0,7.1-0.7,9.8-2.2
			s4.9-3,6.7-4.7s3-3.2,3.8-4.6s1.2-2.1,1.2-2.2c0.3-0.8,0.9-1.3,1.6-1.5S399.5,1033.6,400.2,1033.9z M375,977
			c6.6,0,12.9,1.2,18.7,3.8s10.9,5.9,15.3,10.3s7.8,9.4,10.3,15.3s3.8,12.1,3.8,18.7s-1.3,12.9-3.8,18.7s-5.9,10.9-10.3,15.3
			s-9.4,7.8-15.3,10.3s-12.1,3.8-18.7,3.8s-12.9-1.2-18.7-3.8s-10.9-5.9-15.3-10.3s-7.8-9.4-10.3-15.3s-3.8-12.1-3.8-18.7
			s1.3-12.9,3.8-18.7s5.9-10.9,10.3-15.3s9.4-7.8,15.3-10.3S368.4,977,375,977z M375,1067c5.8,0,11.3-1.1,16.4-3.3s9.5-5.2,13.3-9
			s6.8-8.2,9-13.3s3.3-10.5,3.3-16.4s-1.1-11.3-3.3-16.4s-5.2-9.5-9-13.3s-8.2-6.8-13.3-9S380.8,983,375,983s-11.3,1.1-16.4,3.3
			s-9.5,5.2-13.3,9s-6.8,8.2-9,13.3s-3.3,10.5-3.3,16.4s1.1,11.3,3.3,16.4s5.2,9.5,9,13.3s8.2,6.8,13.3,9S369.2,1067,375,1067z
			 M360,1022c-1.7,0-3.1-0.6-4.3-1.8s-1.7-2.6-1.7-4.2s0.6-3,1.7-4.2s2.6-1.8,4.3-1.8c1.6,0,3,0.6,4.2,1.8s1.7,2.6,1.7,4.2
			s-0.6,3-1.7,4.2S361.6,1022,360,1022z M390,1022c-1.7,0-3.1-0.6-4.3-1.8s-1.7-2.6-1.7-4.2s0.6-3,1.7-4.2s2.6-1.8,4.3-1.8
			c1.6,0,3,0.6,4.2,1.8s1.7,2.6,1.7,4.2s-0.6,3-1.7,4.2S391.6,1022,390,1022z"/>
	</g>
</g>
</svg>
