<?xml version="1.0" encoding="utf-8"?>
<!-- Generator: Adobe Illustrator 22.0.1, SVG Export Plug-In . SVG Version: 6.00 Build 0)  -->
<svg version="1.1" id="Layer_1" xmlns="http://www.w3.org/2000/svg" xmlns:xlink="http://www.w3.org/1999/xlink" x="0px" y="0px"
	 viewBox="0 0 100 100" style="enable-background:new 0 0 100 100;" xml:space="preserve">
<style type="text/css">
	.st0{fill:#333333;}
</style>
<title>th-large - FontAwesome</title>
<desc>Created with Sketch.</desc>
<g id="Style">
	<g id="Icons" transform="translate(-566.000000, -241.000000)">
		<path id="th-large---FontAwesome" class="st0" d="M612.8,300.2v19.4c0,3.5-2.9,6.5-6.5,6.5h-25.8c-3.5,0-6.5-2.9-6.5-6.5v-19.4
			c0-3.5,2.9-6.5,6.5-6.5h25.8C609.8,293.8,612.8,296.7,612.8,300.2z M612.8,261.5v19.4c0,3.5-2.9,6.5-6.5,6.5h-25.8
			c-3.5,0-6.5-2.9-6.5-6.5v-19.4c0-3.5,2.9-6.5,6.5-6.5h25.8C609.8,255,612.8,257.9,612.8,261.5z M658,300.2v19.4
			c0,3.5-2.9,6.5-6.5,6.5h-25.8c-3.5,0-6.5-2.9-6.5-6.5v-19.4c0-3.5,2.9-6.5,6.5-6.5h25.8C655.1,293.8,658,296.7,658,300.2z
			 M658,261.5v19.4c0,3.5-2.9,6.5-6.5,6.5h-25.8c-3.5,0-6.5-2.9-6.5-6.5v-19.4c0-3.5,2.9-6.5,6.5-6.5h25.8
			C655.1,255,658,257.9,658,261.5z"/>
	</g>
</g>
</svg>
