<?xml version="1.0" encoding="utf-8"?>
<!-- Generator: Adobe Illustrator 22.0.1, SVG Export Plug-In . SVG Version: 6.00 Build 0)  -->
<svg version="1.1" id="Layer_1" xmlns="http://www.w3.org/2000/svg" xmlns:xlink="http://www.w3.org/1999/xlink" x="0px" y="0px"
	 viewBox="0 0 100 100" style="enable-background:new 0 0 100 100;" xml:space="preserve">
<path d="M39.3,6C36.4,6,34,8.4,34,11.3V26c0,2.9,2.4,5.3,5.3,5.3h1.3v6.8l6.8-6.8h15.9c2.9,0,5.3-2.4,5.3-5.3V11.3
	c0-2.9-2.4-5.3-5.3-5.3H39.3z M39.3,8.7h24c1.5,0,2.7,1.2,2.7,2.7V26c0,1.5-1.2,2.7-2.7,2.7h-17l-3,3v-3h-4c-1.5,0-2.7-1.2-2.7-2.7
	V11.3C36.7,9.8,37.8,8.7,39.3,8.7z M59.7,11.7L50,21.4l-4.4-4.4l-1.9,1.9l6.3,6.3l11.6-11.6L59.7,11.7z M20.7,32.7
	c-5.9,0-10.7,4.8-10.7,10.7S14.8,54,20.7,54s10.7-4.8,10.7-10.7V42h-0.3C30.4,36.8,26.1,32.7,20.7,32.7z M79.3,32.7
	c-5.9,0-10.7,4.8-10.7,10.7S73.5,54,79.3,54c0.4,0,0.7,0,1.1-0.1c2.5-0.3,4.8-1.4,6.4-3.1c1.9-1.9,3.1-4.6,3.1-7.5V42h-0.3
	C89,36.8,84.7,32.7,79.3,32.7z M20.7,35.3c4.4,0,8,3.6,8,8s-3.6,8-8,8s-8-3.6-8-8S16.2,35.3,20.7,35.3z M79.3,35.3c4.4,0,8,3.6,8,8
	s-3.6,8-8,8c-4.4,0-8-3.6-8-8c0-0.3,0-0.6,0-0.8C71.8,38.5,75.2,35.3,79.3,35.3z M50,42c-6.6,0-12,5.4-12,12s5.4,12,12,12
	s12-5.4,12-12v-1.3h-0.3C61,46.7,56.1,42,50,42z M50,44.7c5.2,0,9.3,4.2,9.3,9.3s-4.2,9.3-9.3,9.3s-9.3-4.2-9.3-9.3
	S44.8,44.7,50,44.7z M20.7,56.7C10.4,56.7,2,65.1,2,75.3v5.3h29.7c-1.1,2.5-1.7,5.2-1.7,8V94h40v-4v-1.3c0-2.8-0.6-5.5-1.7-8H98
	v-5.3c0-10.3-8.4-18.7-18.7-18.7c-9.1,0-16.7,6.7-18.3,15.3c-3.2-2.1-7-3.3-11-3.3s-7.8,1.2-11,3.3C37.4,63.3,29.8,56.7,20.7,56.7z
	 M20.7,59.3c8.3,0,15.2,6.4,15.9,14.6c-1.3,1.2-2.5,2.6-3.4,4.1H4.7v-2.7C4.7,66.5,11.9,59.3,20.7,59.3z M79.3,59.3
	c8.8,0,16,7.2,16,16V78H66.9c-1-1.5-2.1-2.9-3.4-4.1C64.2,65.8,71,59.3,79.3,59.3z M50,71.3c9.5,0,17.3,7.8,17.3,17.3v2.7H32.7v-2.7
	C32.7,79.1,40.5,71.3,50,71.3z M7.3,72.7C6.6,72.7,6,73.3,6,74s0.6,1.3,1.3,1.3s1.3-0.6,1.3-1.3S8.1,72.7,7.3,72.7z M12.7,72.7
	c-0.7,0-1.3,0.6-1.3,1.3s0.6,1.3,1.3,1.3c0.7,0,1.3-0.6,1.3-1.3S13.4,72.7,12.7,72.7z M18,72.7c-0.7,0-1.3,0.6-1.3,1.3
	s0.6,1.3,1.3,1.3s1.3-0.6,1.3-1.3S18.7,72.7,18,72.7z M23.3,72.7c-0.7,0-1.3,0.6-1.3,1.3s0.6,1.3,1.3,1.3c0.7,0,1.3-0.6,1.3-1.3
	S24.1,72.7,23.3,72.7z M28.7,72.7c-0.7,0-1.3,0.6-1.3,1.3s0.6,1.3,1.3,1.3c0.7,0,1.3-0.6,1.3-1.3S29.4,72.7,28.7,72.7z M34,72.7
	c-0.7,0-1.3,0.6-1.3,1.3s0.6,1.3,1.3,1.3s1.3-0.6,1.3-1.3S34.7,72.7,34,72.7z M66,72.7c-0.7,0-1.3,0.6-1.3,1.3s0.6,1.3,1.3,1.3
	s1.3-0.6,1.3-1.3S66.7,72.7,66,72.7z M71.3,72.7c-0.7,0-1.3,0.6-1.3,1.3s0.6,1.3,1.3,1.3s1.3-0.6,1.3-1.3S72.1,72.7,71.3,72.7z
	 M76.7,72.7c-0.7,0-1.3,0.6-1.3,1.3s0.6,1.3,1.3,1.3S78,74.7,78,74S77.4,72.7,76.7,72.7z M82,72.7c-0.7,0-1.3,0.6-1.3,1.3
	s0.6,1.3,1.3,1.3s1.3-0.6,1.3-1.3S82.7,72.7,82,72.7z M87.3,72.7c-0.7,0-1.3,0.6-1.3,1.3s0.6,1.3,1.3,1.3c0.7,0,1.3-0.6,1.3-1.3
	S88.1,72.7,87.3,72.7z M92.7,72.7c-0.7,0-1.3,0.6-1.3,1.3s0.6,1.3,1.3,1.3c0.7,0,1.3-0.6,1.3-1.3S93.4,72.7,92.7,72.7z M36.7,86
	c-0.7,0-1.3,0.6-1.3,1.3c0,0.7,0.6,1.3,1.3,1.3c0.7,0,1.3-0.6,1.3-1.3C38,86.6,37.4,86,36.7,86z M42,86c-0.7,0-1.3,0.6-1.3,1.3
	c0,0.7,0.6,1.3,1.3,1.3s1.3-0.6,1.3-1.3C43.3,86.6,42.7,86,42,86z M47.3,86c-0.7,0-1.3,0.6-1.3,1.3c0,0.7,0.6,1.3,1.3,1.3
	s1.3-0.6,1.3-1.3C48.7,86.6,48.1,86,47.3,86z M52.7,86c-0.7,0-1.3,0.6-1.3,1.3c0,0.7,0.6,1.3,1.3,1.3s1.3-0.6,1.3-1.3
	C54,86.6,53.4,86,52.7,86z M58,86c-0.7,0-1.3,0.6-1.3,1.3c0,0.7,0.6,1.3,1.3,1.3s1.3-0.6,1.3-1.3C59.3,86.6,58.7,86,58,86z M63.3,86
	c-0.7,0-1.3,0.6-1.3,1.3c0,0.7,0.6,1.3,1.3,1.3c0.7,0,1.3-0.6,1.3-1.3C64.7,86.6,64.1,86,63.3,86z"/>
</svg>
