<?xml version="1.0" encoding="utf-8"?>
<!-- Generator: Adobe Illustrator 22.0.1, SVG Export Plug-In . SVG Version: 6.00 Build 0)  -->
<svg version="1.1" id="Layer_1" xmlns="http://www.w3.org/2000/svg" xmlns:xlink="http://www.w3.org/1999/xlink" x="0px" y="0px"
	 viewBox="0 0 100 100" style="enable-background:new 0 0 100 100;" xml:space="preserve">
<g id="surface1">
	<path d="M28.4,8c-6.8,0-13.5,2.6-18.7,7.7c-5,5-7.7,11.6-7.7,18.7c0,7.1,2.8,13.7,7.7,18.7l31.5,31.5c0,0,0.1,0.1,0.1,0.1l2.3,2.3
		c0,0,0.1,0.1,0.1,0.1l2.9,2.9c0.9,0.9,2.1,1.4,3.4,1.4s2.5-0.5,3.4-1.4l36.9-36.9c5-5,7.7-11.6,7.7-18.7c0-7.1-2.8-13.7-7.7-18.7
		c-10.3-10.3-27.1-10.3-37.4,0L50,18.6l-2.9-2.9C42,10.6,35.2,8,28.4,8z M28.4,11.2c6,0,11.9,2.3,16.4,6.8l2.9,2.9l-3.6,3.6
		c-0.6,0.6-0.6,1.6,0,2.3c0.3,0.3,0.7,0.5,1.1,0.5s0.8-0.2,1.1-0.5l6.5-6.5l2.2-2.2c9.1-9.1,23.8-9.1,32.9,0
		c4.4,4.4,6.8,10.2,6.8,16.4c0,6.2-2.4,12-6.8,16.4L51.1,87.7c-0.6,0.6-1.7,0.6-2.3,0L12,50.9c-4.4-4.4-6.8-10.2-6.8-16.4
		c0-6.2,2.4-12,6.8-16.4C16.5,13.5,22.5,11.2,28.4,11.2z M40.5,28.7c-0.4,0-0.8,0.2-1.1,0.5l-3.2,3.2c-0.6,0.6-0.6,1.6,0,2.3
		c0.3,0.3,0.7,0.5,1.1,0.5s0.8-0.2,1.1-0.5l3.2-3.2c0.6-0.6,0.6-1.6,0-2.3C41.3,28.9,40.9,28.7,40.5,28.7z M72.4,28.7
		c-0.4,0-0.8,0.2-1.1,0.5l-26,26L33.7,43.6C33,43,32,43,31.4,43.6s-0.6,1.6,0,2.3l12.8,12.8c0.3,0.3,0.7,0.5,1.1,0.5
		s0.8-0.2,1.1-0.5l27.1-27.1c0.6-0.6,0.6-1.6,0-2.3C73.3,28.9,72.9,28.7,72.4,28.7z M82,42.5c-0.4,0-0.8,0.2-1.1,0.5
		c-0.6,0.6-0.6,1.6,0,2.3l2.3,2.3c0.3,0.3,0.7,0.5,1.1,0.5c0.4,0,0.8-0.2,1.1-0.5c0.6-0.6,0.6-1.6,0-2.3L83.1,43
		C82.8,42.7,82.4,42.5,82,42.5z M76.3,48.2c-0.4,0-0.8,0.2-1.1,0.5c-0.6,0.6-0.6,1.6,0,2.3l2.3,2.3c0.3,0.3,0.7,0.5,1.1,0.5
		c0.4,0,0.8-0.2,1.1-0.5c0.6-0.6,0.6-1.6,0-2.3l-2.3-2.3C77.2,48.3,76.7,48.2,76.3,48.2z M70.7,53.8c-0.4,0-0.8,0.1-1.1,0.5
		c-0.6,0.6-0.6,1.6,0,2.3l2.3,2.3c0.3,0.3,0.7,0.5,1.1,0.5c0.4,0,0.8-0.2,1.1-0.5c0.6-0.6,0.6-1.6,0-2.3l-2.3-2.3
		C71.5,54,71.1,53.8,70.7,53.8z M65,59.4c-0.4,0-0.8,0.2-1.1,0.5c-0.6,0.6-0.6,1.6,0,2.3l2.3,2.3c0.3,0.3,0.7,0.5,1.1,0.5
		c0.4,0,0.8-0.2,1.1-0.5c0.6-0.6,0.6-1.6,0-2.3l-2.3-2.3C65.9,59.6,65.4,59.4,65,59.4z M59.4,65.1c-0.4,0-0.8,0.2-1.1,0.5
		c-0.6,0.6-0.6,1.6,0,2.3l2.3,2.3c0.3,0.3,0.7,0.5,1.1,0.5c0.4,0,0.8-0.2,1.1-0.5c0.6-0.6,0.6-1.6,0-2.3l-2.3-2.3
		C60.2,65.2,59.8,65.1,59.4,65.1z M53.8,70.7c-0.4,0-0.8,0.2-1.1,0.5c-0.6,0.6-0.6,1.6,0,2.3l2.3,2.3c0.3,0.3,0.7,0.5,1.1,0.5
		c0.4,0,0.8-0.2,1.1-0.5c0.6-0.6,0.6-1.6,0-2.3l-2.3-2.3C54.6,70.9,54.2,70.7,53.8,70.7z M48.1,76.4c-0.4,0-0.8,0.2-1.1,0.5
		c-0.6,0.6-0.6,1.6,0,2.3l2.3,2.3c0.3,0.3,0.7,0.5,1.1,0.5c0.4,0,0.8-0.2,1.1-0.5c0.6-0.6,0.6-1.6,0-2.3l-2.3-2.3
		C48.9,76.5,48.5,76.4,48.1,76.4z"/>
</g>
</svg>
