<?xml version="1.0" encoding="utf-8"?>
<!-- Generator: Adobe Illustrator 22.0.1, SVG Export Plug-In . SVG Version: 6.00 Build 0)  -->
<svg version="1.1" id="Layer_1" xmlns="http://www.w3.org/2000/svg" xmlns:xlink="http://www.w3.org/1999/xlink" x="0px" y="0px"
	 viewBox="0 0 100 100" style="enable-background:new 0 0 100 100;" xml:space="preserve">
<style type="text/css">
	.st0{fill:#333333;}
</style>
<title>heart-o - FontAwesome</title>
<desc>Created with Sketch.</desc>
<g id="Style">
	<g id="Icons" transform="translate(-143.000000, -239.000000)">
		<path id="heart-o---FontAwesome" class="st0" d="M234.1,272.4c0-15.2-10.2-18.4-18.7-18.4c-8,0-17,8.7-19.8,12.1
			c-1.3,1.6-4,1.6-5.2,0c-2.8-3.4-11.8-12.1-19.8-12.1c-8.6,0-18.8,3.2-18.8,18.4c0,9.9,9.9,19.1,10,19.2l31.1,30.3l31.1-30.3
			C224.2,291.5,234.1,282.3,234.1,272.4z M241,272.4c0,13-11.8,23.9-12.3,24.4l-33.4,32.5c-0.6,0.6-1.5,1-2.4,1
			c-0.9,0-1.7-0.3-2.4-1l-33.4-32.6c-0.4-0.4-12.2-11.3-12.2-24.3c0-15.9,9.6-25.4,25.6-25.4c9.4,0,18.2,7.5,22.4,11.7
			c4.2-4.2,13-11.7,22.4-11.7C231.4,247,241,256.5,241,272.4z"/>
	</g>
</g>
</svg>
