<?xml version="1.0" encoding="UTF-8"?>
<svg width="28px" height="31px" viewBox="0 0 28 31" version="1.1" xmlns="http://www.w3.org/2000/svg" xmlns:xlink="http://www.w3.org/1999/xlink">
    <!-- Generator: sketchtool 49.3 (51167) - http://www.bohemiancoding.com/sketch -->
    <title>FE26904A-E2B7-488D-BDCE-2E3A1AFA5BE4</title>
    <desc>Created with sketchtool.</desc>
    <defs></defs>
    <g id="Symbols" stroke="none" stroke-width="1" fill="none" fill-rule="evenodd">
        <g id="rating-layout" transform="translate(-54.000000, -298.000000)" fill="#666666" fill-rule="nonzero">
            <g id="account" transform="translate(54.000000, 298.000000)">
                <path d="M14,0 C8.6023434,0 4.2,4.43093005 4.2,9.86363636 C4.2,13.2597653 5.9226566,16.2761005 8.53125,18.0539773 C3.5382816,20.2116477 0,25.1985092 0,31 L2.8,31 C2.8,27.4332386 4.440625,24.2572802 7,22.1931818 L13.0375,27.7855114 L14,28.7102273 L14.9625,27.7855114 L21,22.1931818 C23.559375,24.2572802 25.2,27.4332386 25.2,31 L28,31 C28,25.1985092 24.4617184,20.2116477 19.46875,18.0539773 C22.0773434,16.2761005 23.8,13.2597653 23.8,9.86363636 C23.8,4.43093005 19.3976566,0 14,0 Z M14,2.81818182 C17.8828132,2.81818182 21,5.9556115 21,9.86363636 C21,13.7716626 17.8828132,16.9090909 14,16.9090909 C10.1171882,16.9090909 7,13.7716626 7,9.86363636 C7,5.9556115 10.1171882,2.81818182 14,2.81818182 Z M14,19.7272727 C15.6023434,19.7272727 17.1335934,20.0465206 18.50625,20.6519886 L14,24.8792614 L9.49375,20.6519886 C10.8664066,20.0465206 12.3976566,19.7272727 14,19.7272727 Z" id="icon-user"></path>
            </g>
        </g>
    </g>
</svg>
