<?xml version="1.0" encoding="utf-8"?>
<!-- Generator: Adobe Illustrator 22.0.1, SVG Export Plug-In . SVG Version: 6.00 Build 0)  -->
<svg version="1.1" id="Layer_1" xmlns="http://www.w3.org/2000/svg" xmlns:xlink="http://www.w3.org/1999/xlink" x="0px" y="0px"
	 viewBox="0 0 100 100" style="enable-background:new 0 0 100 100;" xml:space="preserve">
<path d="M51.5,2c-11.4,0-20.8,9.3-20.8,20.8c0,5.4,2.8,9.4,5.3,12.9c2.2,3.1,4.3,6,4.3,9.6v1.6v1.6c0,6.2,5,11.2,11.2,11.2
	s11.2-5,11.2-11.2v-1.6v-1.6c0-3.6,2.1-6.5,4.2-9.6c2.5-3.5,5.3-7.4,5.3-12.9C72.3,11.3,63,2,51.5,2z M51.5,5.2
	c9.7,0,17.5,7.9,17.5,17.5c0,4.4-2.3,7.6-4.7,11c-2.1,2.9-4.2,6-4.7,9.8H43.5c-0.5-3.8-2.7-6.9-4.8-9.8c-2.4-3.4-4.7-6.6-4.7-11
	C34,13.1,41.9,5.2,51.5,5.2z M45.2,21.2c-0.4,0-0.8,0.2-1.1,0.5c-0.6,0.6-0.6,1.6,0,2.3l3.2,3.2c0.3,0.3,0.7,0.5,1.1,0.5
	c0.4,0,0.8-0.2,1.1-0.5c0.6-0.6,0.6-1.6,0-2.3l-3.2-3.2C46,21.4,45.6,21.2,45.2,21.2z M58,21.2c-0.4,0-0.8,0.2-1.1,0.5l-6.4,6.4
	c-0.3,0.3-0.5,0.7-0.5,1.1v9.6c0,0.9,0.7,1.6,1.6,1.6c0.9,0,1.6-0.7,1.6-1.6v-8.9l5.9-5.9c0.6-0.6,0.6-1.6,0-2.3
	C58.8,21.4,58.4,21.2,58,21.2z M59.6,46.8v1.6c0,4.4-3.6,8-8,8s-8-3.6-8-8v-1.6L59.6,46.8z M28.1,55.3c-1,0-1.9,0-2.9,0.1L6.2,57.7
	C3.8,58,2,60,2,62.4v20.3c0,1.5,0.7,2.9,1.8,3.8C5,87.4,6.5,87.7,8,87.4l10.5-2.6c2.7-0.7,5.5-0.3,7.9,1l20.1,10.6
	c2.1,1.1,4.4,1.7,6.7,1.7c2.3,0,4.5-0.5,6.6-1.6L94,78.7c2.5-1.3,4-3.8,4-6.7c0-2.3-1.1-4.5-2.9-5.9c-1.8-1.4-4.2-1.9-6.5-1.3
	l-21.5,5.6c-0.4-1.2-1.1-2.4-2.1-3.3c-1.6-1.5-3.8-2.3-6-2.1l-3.5,0.3c-1.4,0.1-2.7-0.2-4-0.7l-15.1-7.1
	C33.8,56.1,31,55.4,28.1,55.3z M28,58.5c2.5,0.1,4.9,0.6,7.1,1.7l15.1,7.1c1.7,0.8,3.7,1.2,5.6,1l3.5-0.3c1.3-0.1,2.6,0.4,3.6,1.3
	c1,0.9,1.5,2.2,1.5,3.5v0.6c0,0.6-0.4,1.2-0.9,1.5l-4.7,2.1c-3.5,1.6-7.6,1.7-11.3,0.2l-8.1-3.2c-0.8-0.3-1.8,0.1-2.1,0.9
	c-0.3,0.8,0.1,1.8,0.9,2.1l8.1,3.2C50.7,82.1,55.7,82,60,80l4.7-2.1c1.7-0.8,2.8-2.5,2.8-4.4l21.8-5.7c1.3-0.3,2.6-0.1,3.7,0.8
	c1.1,0.8,1.7,2.1,1.7,3.4c0,1.6-0.9,3.1-2.3,3.8L58.4,93.5c-3.3,1.7-7.1,1.7-10.4,0L27.9,82.9c-2.1-1.1-4.4-1.7-6.7-1.7
	c-1.2,0-2.3,0.1-3.5,0.4L7.2,84.3c-0.5,0.1-1,0-1.4-0.3c-0.4-0.3-0.6-0.8-0.6-1.3V62.4c0-0.8,0.6-1.5,1.4-1.6l18.9-2.2
	C26.4,58.5,27.2,58.5,28,58.5z M10,62.8c-0.9,0-1.6,0.7-1.6,1.6S9.1,66,10,66h3.2c0.9,0,1.6-0.7,1.6-1.6s-0.7-1.6-1.6-1.6H10z
	 M10,70.8c-0.9,0-1.6,0.7-1.6,1.6S9.1,74,10,74h3.2c0.9,0,1.6-0.7,1.6-1.6s-0.7-1.6-1.6-1.6H10z M10,78.8c-0.9,0-1.6,0.7-1.6,1.6
	S9.1,82,10,82h3.2c0.9,0,1.6-0.7,1.6-1.6s-0.7-1.6-1.6-1.6H10z"/>
</svg>
