<?xml version="1.0" encoding="utf-8"?>
<!-- Generator: Adobe Illustrator 22.0.1, SVG Export Plug-In . SVG Version: 6.00 Build 0)  -->
<svg version="1.1" id="Layer_1" xmlns="http://www.w3.org/2000/svg" xmlns:xlink="http://www.w3.org/1999/xlink" x="0px" y="0px"
	 viewBox="0 0 100 100" style="enable-background:new 0 0 100 100;" xml:space="preserve">
<title>ion-social-instagram - Ionicons</title>
<desc>Created with Sketch.</desc>
<g id="Symbols">
	<g id="icon_x2F_social_x2F_ig_x2F_white" transform="translate(-1.000000, -1.000000)">
		<path id="ion-social-instagram---Ionicons" d="M31,51c0-13.3,6.7-20,20-20s20,6.7,20,20s-6.7,20-20,20S31,64.3,31,51z M31.3,31.3
			c-3.5,3.5-5.8,7.4-7,11.7H3V15c0-3.5,1.2-6.3,3.5-8.5C9.2,4.2,12.1,3,15.3,3h72c3.2,0,5.9,1.2,8.2,3.5S99,11.7,99,15v28H78
			c-1.2-4.3-3.5-8.2-7-11.7C65.5,25.7,58.8,23,51,23C43.3,23,36.8,25.7,31.3,31.3z M91,24v-9.8c0-0.8-0.3-1.6-1-2.2s-1.4-1-2.2-1
			h-9.5c-0.8,0-1.6,0.3-2.2,1s-1,1.4-1,2.2V24c0,0.8,0.3,1.6,1,2.2c0.5,0.5,1.2,0.8,2.2,0.8h9.5c1,0,1.7-0.2,2.2-0.8
			C90.7,25.6,91,24.8,91,24z M71,70.8c5.3-5.3,8-11.9,8-19.8h20v36c0,3-1.2,5.8-3.5,8.5c-2.2,2.3-4.9,3.5-8.2,3.5h-72
			c-3.3,0-6.2-1.2-8.5-3.5C4.2,93,3,90.2,3,87V51h20.2c0,7.8,2.7,14.4,8,19.8C36.8,76.3,43.3,79,51,79C58.8,79,65.5,76.3,71,70.8z"
			/>
	</g>
</g>
</svg>
