<?xml version="1.0" encoding="utf-8"?>
<!-- Generator: Adobe Illustrator 22.0.1, SVG Export Plug-In . SVG Version: 6.00 Build 0)  -->
<svg version="1.1" id="Layer_1" xmlns="http://www.w3.org/2000/svg" xmlns:xlink="http://www.w3.org/1999/xlink" x="0px" y="0px"
	 viewBox="0 0 100 100" style="enable-background:new 0 0 100 100;" xml:space="preserve">
<g id="surface1">
	<path d="M26.8,3c-1,0.2-1.7,1.1-1.7,2.1v37.5c0,1.1,0.9,2.1,2.1,2.1h19.1c3.2,0,6.1,1.3,8.4,3.5c0,0,0.1,0.1,0.1,0.1
		c0,0,0.1,0.1,0.1,0.1c0,0,0,0,0.1,0c0.1,0.1,0.3,0.2,0.5,0.3c0,0,0,0,0.1,0c0,0,0.1,0,0.1,0.1c0,0,0,0,0.1,0
		c0.5,0.2,1.1,0.1,1.6-0.1c0.2-0.1,0.4-0.2,0.5-0.4c0,0,0.1-0.1,0.1-0.1c2.3-2.2,5.2-3.5,8.4-3.5h19.1c1.1,0,2.1-0.9,2.1-2.1V5.1
		c0-1.1-0.9-2.1-2.1-2.1H62.6c-2.5,0-4.7,1.2-6.2,2.9C54.8,4.2,52.6,3,50.1,3H27.2c-0.1,0-0.1,0-0.2,0C26.9,3,26.9,3,26.8,3z
		 M29.3,7.2h20.8c2.3,0,4.2,1.8,4.2,4.2v31.6c-2.4-1.4-5.1-2.4-7.9-2.4H29.3V7.2z M62.6,7.2h20.8v33.3H66.4c-2.9,0-5.5,1-7.9,2.4
		V11.3C58.4,9,60.3,7.2,62.6,7.2z M90,55c-0.4,0-0.7,0.1-1.1,0.1c-1,0.2-2,0.5-2.9,1.1L62.6,70.7c-1.3-0.9-2.8-1.7-4.4-2.4
		C55,66.9,45,62.7,37.4,59.4c-3.3-1.4-6.7-2.2-10.2-2.2s-7,0.7-10.3,2L3.5,64.8C2.7,65,2.2,65.6,2,66.4c-0.1,0.8,0.2,1.6,0.8,2
		c0.6,0.5,1.5,0.5,2.2,0.2L18.5,63c5.5-2.3,11.7-2.3,17.2,0.1c7.7,3.4,17.9,7.6,20.8,8.9c1.7,0.7,3,1.5,4,2.2c0.3,0.5,0.7,0.8,1.2,1
		c0.7,0.7,0.9,1.4,0.9,2.1c0,1.6-0.5,1.9-1.2,2.3s-1.8,0.5-2.5,0.5c-0.4,0-2.4-0.3-4.5-0.9s-4.6-1.3-7-2.1c-4.8-1.5-9-3.1-9-3.1
		c-0.7-0.3-1.5-0.2-2.1,0.3c-0.6,0.5-0.9,1.3-0.7,2c0.1,0.8,0.7,1.4,1.4,1.6c0,0,4.4,1.5,9.2,3.1c2.4,0.8,5,1.6,7.2,2.2
		c2.2,0.6,4,1,5.5,1c1,0,2.7-0.1,4.5-1c1.8-0.9,3.4-3,3.4-5.9c0-1.4-0.5-2.6-1.2-3.6l22.6-13.9c0,0,0,0,0-0.1c1.7-1.1,4-0.6,5.1,1.2
		c1.1,1.7,0.6,3.9-1,5L55.4,91.1c-2.3,1.6-5.3,1.9-7.9,0.8l-20.3-8.3c-5.6-2.3-12-1.6-16.9,2L3,90.9c-0.9,0.7-1.1,2-0.5,2.9
		s2,1.1,2.9,0.5l7.2-5.3c3.7-2.7,8.6-3.3,12.9-1.6l20.3,8.4c3.9,1.6,8.4,1.1,11.8-1.2l36.8-25.1c3.5-2.4,4.4-7.1,2.1-10.7
		C95.3,56.3,92.7,55,90,55z"/>
</g>
</svg>
