<?xml version="1.0" encoding="utf-8"?>
<!-- Generator: Adobe Illustrator 22.0.1, SVG Export Plug-In . SVG Version: 6.00 Build 0)  -->
<svg version="1.1" id="Layer_1" xmlns="http://www.w3.org/2000/svg" xmlns:xlink="http://www.w3.org/1999/xlink" x="0px" y="0px"
	 viewBox="0 0 100 100" style="enable-background:new 0 0 100 100;" xml:space="preserve">
<title>Line</title>
<desc>Created with Sketch.</desc>
<g id="icon_x2F_social_x2F_line_x2F_primary" transform="translate(1.000000, 0.000000)">
</g>
<g>
	<path d="M38.9,35.1h-0.2c-1.4,0-2.5,1.2-2.5,2.6v19.6c0,1.5,1.1,2.6,2.5,2.6h0.2c1.4,0,2.5-1.2,2.5-2.6V37.8
		C41.4,36.3,40.2,35.1,38.9,35.1z"/>
	<path d="M61.5,35.1h-0.2c-1.4,0-2.5,1.2-2.5,2.6v11.5l-9-12.8c-0.4-0.8-1.2-1.3-2.2-1.3h-0.2c-1.4,0-2.5,1.2-2.5,2.6v19.6
		c0,1.5,1.1,2.6,2.5,2.6h0.2c1.4,0,2.5-1.2,2.5-2.6V45.6l9.1,13.1c0.1,0.1,0.1,0.2,0.2,0.3l0,0c0.3,0.4,0.6,0.6,1,0.8
		c0.3,0.1,0.6,0.2,0.9,0.2h0.2c0.4,0,0.8-0.1,1.2-0.3c0.3-0.1,0.5-0.3,0.6-0.5l0,0c0.4-0.5,0.7-1.1,0.7-1.9V37.8
		C64,36.3,62.9,35.1,61.5,35.1z"/>
	<path d="M79.4,35.2H70l0,0h-0.2c-1.4,0-2.5,1.2-2.5,2.6v19.6c0,1.5,1.1,2.6,2.5,2.6H70l0,0h9.5c1.4,0,2.5-1.2,2.5-2.6v-0.2
		c0-1.5-1.1-2.6-2.5-2.6h-7v-4.2h7c1.4,0,2.5-1.2,2.5-2.6v-0.3c0-1.5-1.1-2.6-2.5-2.6h-7v-4.2h7c1.4,0,2.5-1.2,2.5-2.6v-0.2
		C81.9,36.4,80.8,35.2,79.4,35.2z"/>
	<path d="M31.6,54.5h-7V37.8c0-1.5-1.1-2.6-2.5-2.6H22c-1.4,0-2.5,1.2-2.5,2.6v19.6c0,1.5,1.1,2.6,2.5,2.6h0.2l0,0h9.5
		c1.4,0,2.5-1.2,2.5-2.6v-0.2C34.1,55.7,33,54.5,31.6,54.5z"/>
	<g>
		<g>
			<path d="M50,7.5c-12.4,0-24,3.9-32.9,11.1S3.4,35.2,3.4,45.3c0,18.4,16.1,34,38.4,37.2c0.5,0.1,1.1,0.1,1.5,0.2
				c3.8,0.8,3.6,3.7,2.8,7.6c-0.4,2.2-0.8,4.1,0.4,4.9c0.3,0.2,0.6,0.3,1.1,0.3c5.5,0,25.3-14.1,36-24.2c1.9-1.6,3.6-3.3,5-5.1
				c0.4-0.4,0.7-0.8,0.9-1.1c4.6-6,7-12.9,7-19.9C96.5,24.4,75.7,7.5,50,7.5z M88.8,64.7c-0.2,0.3-0.5,0.7-0.8,1.1
				c-1.5,1.9-3.2,3.5-4.9,5c-13.9,12.8-33.8,25.6-36,23.9c-0.7-0.5-0.4-2.3,0-4c0.6-3.3,1.5-7.7-3.6-8.8c-0.5-0.1-1-0.1-1.6-0.2
				C20.2,78.4,4.4,63.1,4.4,45.3c0-9.8,4.7-19,13.3-26c8.6-7.1,20-10.9,32.2-10.9c25.1,0,45.6,16.5,45.6,36.8
				C95.6,52.1,93.2,58.8,88.8,64.7z"/>
			<path d="M47.6,96.5c-0.7,0-1.1-0.1-1.6-0.5c-1.7-1.1-1.3-3.5-0.8-5.7l0-0.2c0.9-4.6,0.5-6-2.1-6.5c-0.2,0-0.4-0.1-0.6-0.1
				c-0.3,0-0.6-0.1-0.8-0.1C18.9,80.2,2.4,64.1,2.4,45.3c0-10.5,5-20.2,14.1-27.5c9.1-7.3,21-11.3,33.5-11.3
				c14.4,0,27.8,5.2,36.8,14.3c6.9,6.9,10.6,15.6,10.6,24.5c0,7.3-2.5,14.4-7.2,20.5c-0.2,0.4-0.6,0.8-0.9,1.1
				c-1.3,1.7-3.1,3.5-5.1,5.2C74,81.7,53.6,96.5,47.6,96.5z M47.7,93.8C47.7,93.8,47.7,93.8,47.7,93.8c3.1,0,20.6-10.7,34.8-23.8
				c1.4-1.3,3.3-3,4.8-4.9c0.3-0.4,0.6-0.7,0.7-1l0,0c4.3-5.7,6.6-12.2,6.6-18.8c0-19.8-20-35.9-44.6-35.9c-12,0-23.2,3.8-31.6,10.7
				c-8.4,6.7-13,15.7-13,25.2c0,17.3,15.4,32.2,36.6,35.4c0.3,0,0.5,0.1,0.7,0.1c0.3,0,0.6,0.1,0.9,0.1c5.9,1.3,5,6.6,4.4,9.8l0,0.2
				C47.6,92.8,47.6,93.6,47.7,93.8z M47.5,93.8L47.5,93.8z"/>
		</g>
		<g>
			<path d="M47.6,96.1c-0.6,0-1-0.1-1.4-0.4c-1.4-1.1-1-3.1-0.6-5.3v-0.2c0.9-4.4,0.7-6.5-2.4-7.1c-0.2-0.1-0.4-0.1-0.7-0.1
				S42,83,41.7,83C19.3,79.8,3,63.9,3,45.3c0-10.2,4.9-19.9,13.8-27.1C25.6,11,37.5,7,50,7c26,0,47,17.1,47,38.3
				c0,7.1-2.4,14.1-7.1,20.2c-0.3,0.4-0.6,0.8-0.9,1.1c-1.4,1.8-3.1,3.5-5.1,5.2C73.7,81.3,53.5,96.1,47.6,96.1z M50,8.9
				c-12,0-23.4,3.8-31.9,10.8c-8.5,6.9-13.1,16-13.1,25.6c0,17.6,15.6,32.7,37.1,35.9c0.3,0,0.5,0.1,0.8,0.1s0.6,0.1,0.8,0.1
				c5.4,1.2,4.6,6,4,9.2v0.2c-0.5,2.1-0.5,3.2-0.2,3.5c1.7,1.3,20.4-10,35.4-23.8c1.6-1.4,3.4-3.1,4.9-5c0.3-0.4,0.6-0.8,0.8-1.1
				l0,0c4.4-5.7,6.7-12.3,6.7-19.1C95.1,25.2,74.9,8.9,50,8.9z M47,88.1c-0.1,0.8-0.2,1.6-0.4,2.4v0.2c-0.1,0.5-0.2,1-0.2,1.4
				c0.1-0.5,0.2-0.9,0.3-1.5v-0.1C46.8,89.6,47,88.8,47,88.1z M4,45.3c0,5.8,1.7,11.4,4.6,16.3C5.6,56.6,4,51.1,4,45.3z M17.2,19
				C8.7,26.1,4,35.4,4,45.3C4,35.5,8.7,26.2,17.2,19z M50,8c-12.2,0-23.8,3.8-32.5,10.9C26.3,11.8,37.8,8,50,8z"/>
			<path d="M47.6,97.1c-0.8,0-1.4-0.2-2-0.6c-1.8-1.4-1.4-3.8-1-6.2l0-0.3c0.4-2,0.7-4.1,0.1-5c-0.2-0.3-0.6-0.7-1.7-0.9l-0.3-0.1
				c0,0-0.1,0-0.2,0c-0.2,0-0.4,0-0.6-0.1c-0.1,0-0.1,0-0.2,0l-0.1,0C18.6,80.6,2,64.4,2,45.3c0-10.6,5-20.5,14.2-27.9
				C25.2,10,37.2,6,50,6c26.5,0,48,17.6,48,39.3c0,7.3-2.5,14.5-7.3,20.8c-0.3,0.4-0.6,0.8-0.9,1.1c-1.4,1.7-3.1,3.5-5.2,5.3
				C74.1,82.3,54,97.1,47.6,97.1z M46.3,92.2c-0.2,1.3-0.1,2.2,0.4,2.7C46.4,94.5,46.1,93.9,46.3,92.2L46.3,92.2z M48.6,90.6l0,0.3
				c-0.3,1.3-0.4,2-0.4,2.4c3.4-0.7,19.9-10.6,33.9-23.6c2-1.8,3.6-3.4,4.8-4.9c0.3-0.4,0.6-0.7,0.7-1c4.3-5.5,6.5-11.9,6.5-18.6
				C94.1,25.8,74.3,9.9,50,9.9c-11.9,0-23,3.7-31.3,10.6C10.5,27.1,5.9,35.9,5.9,45.3c0,17.1,15.2,31.8,36.2,34.9
				c0.2,0,0.3,0,0.5,0.1c0.2,0,0.6,0.1,0.8,0.1c0.1,0,0.1,0,0.2,0l0.2,0C50.2,81.8,49.2,87.7,48.6,90.6z M47,88.1L47,88.1L47,88.1z
				 M46.9,88L46.9,88c0.2-1.5,0.1-2.7-0.4-3.8C47,85.3,47.1,86.5,46.9,88z M50,8c13.6,0,25.9,4.8,34.4,12.5C75.9,12.8,63.6,8,50,8z
				 M17.2,19.1L17.2,19.1c0.1,0,0.2-0.1,0.2-0.1c0,0,0,0,0.1-0.1l0,0c0,0-0.1,0-0.1,0.1C17.3,19,17.3,19,17.2,19.1z"/>
		</g>
	</g>
</g>
</svg>
