<?xml version="1.0" encoding="utf-8"?>
<!-- Generator: Adobe Illustrator 22.0.1, SVG Export Plug-In . SVG Version: 6.00 Build 0)  -->
<svg version="1.1" id="Layer_1" xmlns="http://www.w3.org/2000/svg" xmlns:xlink="http://www.w3.org/1999/xlink" x="0px" y="0px"
	 viewBox="0 0 100 100" style="enable-background:new 0 0 100 100;" xml:space="preserve">
<title>Combined Shape</title>
<desc>Created with Sketch.</desc>
<g id="Symbols">
	<g id="icon_x2F_social_x2F_line_x2F_white">
		<path id="Combined-Shape" d="M98,46.5c0,7.6-2.6,14.8-7.2,20.8c-0.2,0.3-0.5,0.7-0.9,1.1c-1.6,1.9-3.3,3.7-5.2,5.4
			c-13.3,12.7-35.1,27.7-38,25.4c-2.5-2,4.1-11.9-3.5-13.5c-0.5-0.1-1.1-0.1-1.6-0.2C19.1,82.2,2,66,2,46.5C2,24.7,23.5,7,50,7
			S98,24.7,98,46.5z M37.7,61.6h0.2c1.5,0,2.7-1.3,2.7-2.8V38.1c0-1.5-1.2-2.8-2.7-2.8h-0.2c-1.5,0-2.7,1.3-2.7,2.8v20.7
			C35,60.4,36.2,61.6,37.7,61.6z M64.4,60.8L64.4,60.8c0.5-0.5,0.8-1.2,0.8-2V38.1c0-1.5-1.2-2.8-2.7-2.8h-0.2
			c-1.5,0-2.7,1.3-2.7,2.8v12.1l-9.8-13.5c-0.5-0.8-1.3-1.4-2.4-1.4h-0.2c-1.5,0-2.7,1.3-2.7,2.8v20.7c0,1.5,1.2,2.8,2.7,2.8h0.2
			c1.5,0,2.7-1.3,2.7-2.8V46.5L60,60.3c0.1,0.1,0.1,0.2,0.2,0.3l0,0c0.3,0.4,0.6,0.6,1.1,0.8c0.3,0.1,0.7,0.2,1,0.2h0.2
			c0.5,0,0.9-0.1,1.3-0.3C64,61.2,64.3,61,64.4,60.8z M84.6,48.7v-0.2c0-1.5-1.2-2.8-2.7-2.8h-7.5v-4.4h7.5c1.5,0,2.7-1.3,2.7-2.8
			v-0.2c0-1.5-1.2-2.8-2.7-2.8H71.6h-0.1h-0.2c-1.5,0-2.7,1.3-2.7,2.8V59c0,1.5,1.2,2.8,2.7,2.8h0.2h0.1h10.3c1.5,0,2.7-1.3,2.7-2.8
			v-0.2c0-1.5-1.2-2.8-2.7-2.8h-7.5v-4.4h7.5C83.4,51.4,84.6,50.2,84.6,48.7z M19.6,61.6h0.2h0.1h10.3c1.5,0,2.7-1.3,2.7-2.8v-0.2
			c0-1.5-1.2-2.8-2.7-2.8h-7.5V38.1c0-1.5-1.2-2.8-2.7-2.8h-0.2c-1.5,0-2.7,1.3-2.7,2.8v20.7C16.9,60.4,18.1,61.6,19.6,61.6z"/>
	</g>
</g>
</svg>
