<?xml version="1.0" encoding="utf-8"?>
<!-- Generator: Adobe Illustrator 22.0.1, SVG Export Plug-In . SVG Version: 6.00 Build 0)  -->
<svg version="1.1" id="Layer_1" xmlns="http://www.w3.org/2000/svg" xmlns:xlink="http://www.w3.org/1999/xlink" x="0px" y="0px"
	 viewBox="0 0 100 100" style="enable-background:new 0 0 100 100;" xml:space="preserve">
<g id="surface1">
	<path d="M25.6,2c-5.7,0-10.3,4.6-10.3,10.3s4.6,10.3,10.3,10.3S35.8,18,35.8,12.3S31.2,2,25.6,2z M77,2c-5.7,0-10.3,4.6-10.3,10.3
		S71.3,22.6,77,22.6S87.3,18,87.3,12.3S82.7,2,77,2z M25.6,5c4,0,7.3,3.3,7.3,7.3s-3.3,7.3-7.3,7.3s-7.3-3.3-7.3-7.3S21.5,5,25.6,5z
		 M77,5c4,0,7.3,3.3,7.3,7.3S81,19.6,77,19.6c-4,0-7.3-3.3-7.3-7.3S73,5,77,5z M42.7,8.9c-0.9,0-1.7,0.8-1.7,1.7V14
		c0,0.9,0.8,1.7,1.7,1.7s1.7-0.8,1.7-1.7v-3.4C44.4,9.6,43.6,8.9,42.7,8.9z M51.3,8.9c-0.9,0-1.7,0.8-1.7,1.7V14
		c0,0.9,0.8,1.7,1.7,1.7c0.9,0,1.7-0.8,1.7-1.7v-3.4C53,9.6,52.2,8.9,51.3,8.9z M59.8,8.9c-0.9,0-1.7,0.8-1.7,1.7V14
		c0,0.9,0.8,1.7,1.7,1.7c0.9,0,1.7-0.8,1.7-1.7v-3.4C61.6,9.6,60.8,8.9,59.8,8.9z M77.2,23.3c-8.4-0.1-16.1,5.5-19,13.6l-0.5,1.3
		c-0.5,1.4-1.5,2.6-2.7,3.4l-2.8,1.8L47.2,41c-1.2-0.6-2.1-1.5-2.8-2.6L41.7,34C37,26.3,28.1,22,19.3,23.9c-0.5,0.1-1,0.2-1.5,0.4
		l-0.7,0.2C13,25.6,9.4,28.1,7,31.6l-3.1,4.3c-1.6,2.2-2,5.1-1.2,7.7l2.9,8.6c0.9,2.7,3.4,4.6,6.2,4.7v1.6L8.7,90.8
		c-0.1,1.9,0.6,3.7,1.9,5.1c1.3,1.4,3.1,2.1,5,2.1c3.2,0,5.8-2.1,6.6-5c0.8,2.9,3.5,5,6.6,5c1.9,0,3.6-0.8,5-2.1
		c1.3-1.4,2-3.2,1.9-5l0.2-32.4V48.2c2.1,2.3,4.8,4,7.8,5l4.9,1.6c1.1,0.4,2.2,0.4,3.3,0.1c1.7,0.7,3.7,0.7,5.4-0.3l3.2-1.8
		c1.7-1,3.2-2.2,4.5-3.6v9.3l-1.5,32.1c-0.1,1.6,0.3,3.3,1.3,4.6c1.3,1.8,3.3,2.8,5.5,2.8c3.1,0,5.8-2.1,6.6-5c0.8,2.9,3.5,5,6.6,5
		c2.2,0,4.2-1,5.5-2.8c1-1.3,1.4-3,1.3-4.6l-1.2-27.4c1,0.4,2.1,0.6,3.3,0.4c2.9-0.5,5-3.2,5-6.2V42.3c0-4.2-1.3-8.3-3.9-11.5
		c-2.5-3-5.7-5.2-9.5-6.3L82.3,24c-0.5-0.1-1-0.3-1.5-0.4C79.6,23.4,78.4,23.3,77.2,23.3z M77,26.7c1,0,2,0.1,3,0.3
		c0.5,0.1,0.9,0.2,1.4,0.3l1.9,0.5c3.1,0.9,5.8,2.7,7.8,5.2c2.1,2.6,3.1,5.9,3.1,9.2v15.5c0,1.4-1.2,2.6-2.6,2.6
		c-1.4,0-2.6-1.2-2.6-2.6V39.1c0-0.9-0.8-1.7-1.7-1.7c-0.9,0-1.7,0.8-1.7,1.7v18.6c0,0,0,0.1,0,0.1L87,91c0,1-0.3,1.8-0.9,2.5
		c-0.7,0.8-1.7,1.1-2.8,1c-1.7-0.1-3.1-1.7-3.1-3.4l-1.5-29.2c0-0.9-0.8-1.6-1.7-1.6c-0.9,0-1.7,0.7-1.7,1.6l-1.5,29.2
		c-0.1,1.7-1.4,3.3-3.1,3.5c-1.1,0.1-2.1-0.3-2.8-1c-0.7-0.7-1-1.6-0.9-2.5l1.5-32.4V39.1c0-0.9-0.8-1.7-1.7-1.7
		c-0.9,0-1.7,0.8-1.7,1.7v4.3c-0.1,0.1-0.2,0.2-0.2,0.3c-1.6,2.4-3.3,4.7-5.8,6.1l-3,1.7c0.3-0.7,0.5-1.5,0.5-2.3
		c0-1.4-0.5-2.6-1.3-3.7l1.7-1.1c1.9-1.2,3.3-3,4-5.1l0.5-1.3C63.8,31.3,70.1,26.7,77,26.7z M22.9,26.9c6.3-0.2,12.4,3.3,15.8,8.9
		l2.7,4.5c1,1.7,2.5,3,4.2,3.9l5.9,2.9c0.9,0.4,1.4,1.3,1.4,2.3c0,0.8-0.4,1.6-1.1,2.1c-0.7,0.5-1.5,0.6-2.3,0.4L44.7,50
		c-2.9-1-5.4-2.7-7.3-5.1L32,38c-0.6-0.7-1.7-0.9-2.4-0.3c-0.7,0.6-0.9,1.7-0.3,2.4l3.1,3.9c0,0,0,0.1,0,0.1v14.3L32.2,91
		c0,0.9-0.3,1.8-0.9,2.5c-0.7,0.7-1.5,1.1-2.5,1.1c-1.8,0-3.3-1.4-3.4-3.2L25.6,62c0-0.9-0.7-1.7-1.6-1.7c-0.9,0-1.7,0.6-1.8,1.5
		l-3.2,29.5c-0.1,1.8-1.6,3.3-3.4,3.3c-0.9,0-1.8-0.4-2.5-1.1c-0.6-0.7-1-1.6-0.9-2.4l3.2-32.5V39.1c0-0.9-0.8-1.7-1.7-1.7
		c-0.9,0-1.7,0.8-1.7,1.7l0,14.2c-1.4-0.1-2.5-1-3-2.3L6,42.5c-0.5-1.6-0.3-3.3,0.7-4.6l3.1-4.3c2-2.8,5-4.9,8.3-5.9l0.7-0.2
		c0.5-0.1,1-0.3,1.5-0.4C21.1,27,22,26.9,22.9,26.9z"/>
</g>
</svg>
