<?xml version="1.0" encoding="utf-8"?>
<!-- Generator: Adobe Illustrator 22.0.1, SVG Export Plug-In . SVG Version: 6.00 Build 0)  -->
<svg version="1.1" id="Layer_1" xmlns="http://www.w3.org/2000/svg" xmlns:xlink="http://www.w3.org/1999/xlink" x="0px" y="0px"
	 viewBox="0 0 100 100" style="enable-background:new 0 0 100 100;" xml:space="preserve">
<path d="M49.8,2c-3.6,0-6.5,2.9-6.5,6.5s2.9,6.5,6.5,6.5s6.5-2.9,6.5-6.5S53.4,2,49.8,2z M49.8,4.6c2.2,0,3.9,1.7,3.9,3.9
	s-1.7,3.9-3.9,3.9c-2.2,0-3.9-1.7-3.9-3.9S47.6,4.6,49.8,4.6z M49.8,17.6l-1,0.5l-0.2,1.1l0.8,0.8l0.5,0.1l1-0.5l0.2-1.1l-0.8-0.8
	L49.8,17.6z M13.5,21.5c-3.6,0-6.5,2.9-6.5,6.5s2.9,6.5,6.5,6.5s6.5-2.9,6.5-6.5S17.1,21.5,13.5,21.5z M86.1,21.5
	c-3.6,0-6.5,2.9-6.5,6.5s2.9,6.5,6.5,6.5c3.6,0,6.5-2.9,6.5-6.5S89.7,21.5,86.1,21.5z M49.8,22.8l-1,0.5l-0.2,1.1l0.8,0.8l0.5,0.1
	l1-0.5l0.2-1.1l-0.8-0.8L49.8,22.8z M13.5,24.1c2.2,0,3.9,1.7,3.9,3.9s-1.7,3.9-3.9,3.9s-3.9-1.7-3.9-3.9S11.3,24.1,13.5,24.1z
	 M86.1,24.1c2.2,0,3.9,1.7,3.9,3.9s-1.7,3.9-3.9,3.9c-2.2,0-3.9-1.7-3.9-3.9S84,24.1,86.1,24.1z M49.8,27.9l-1,0.5l-0.2,1.1l0.8,0.8
	l0.5,0.1l1-0.5l0.2-1.1L50.3,28L49.8,27.9z M76.2,32.9l-1,0.5L75,34.6l0.8,0.8l0.5,0.1l1-0.5l0.2-1.1L76.7,33L76.2,32.9z M23.4,33
	l-1,0.5l-0.2,1.1l0.8,0.8l0.4,0.1l1-0.5l0.2-1.1l-0.8-0.8L23.4,33z M34.2,35.7c-1.4,0-2.6,1.2-2.6,2.6v25.9c0,1.4,1.2,2.6,2.6,2.6
	h31.1c1.4,0,2.6-1.2,2.6-2.6V38.3c0-1.4-1.2-2.6-2.6-2.6H34.2z M71.9,35.7l-1,0.5l-0.2,1.1l0.8,0.8l0.5,0.1l1-0.5l0.2-1.1l-0.8-0.8
	L71.9,35.7z M27.8,35.8l-1,0.5l-0.2,1.1l0.8,0.9l0.5,0.1l1-0.5l0.2-1.1l-0.8-0.8L27.8,35.8z M34.2,38.3h31.1v25.9H34.2V38.3z
	 M43.3,40.9c-0.7,0-1.3,0.6-1.3,1.3c0,0.7,0.6,1.3,1.3,1.3c0,0,0,0,0,0h13c0.7,0,1.3-0.6,1.3-1.3c0-0.7-0.6-1.3-1.3-1.3c0,0,0,0,0,0
	H43.3z M71.9,64.3l-1,0.5l-0.2,1.1l0.8,0.8l0.5,0.1l1-0.5l0.2-1.1l-0.8-0.8L71.9,64.3z M27.8,64.4l-1,0.5L26.5,66l0.8,0.9l0.5,0.1
	l1-0.5l0.2-1.1l-0.8-0.8L27.8,64.4z M76.2,67.1l-1,0.5L75,68.7l0.8,0.8l0.5,0.1l1-0.5l0.2-1.1l-0.8-0.8L76.2,67.1z M23.4,67.2
	l-1,0.5l-0.2,1.1l0.8,0.8l0.4,0.1l1-0.5l0.2-1.1l-0.8-0.8L23.4,67.2z M13.5,68.2c-3.6,0-6.5,2.9-6.5,6.5s2.9,6.5,6.5,6.5
	s6.5-2.9,6.5-6.5S17.1,68.2,13.5,68.2z M86.1,68.2c-3.6,0-6.5,2.9-6.5,6.5s2.9,6.5,6.5,6.5c3.6,0,6.5-2.9,6.5-6.5
	S89.7,68.2,86.1,68.2z M49.8,69.5l-1,0.5l-0.2,1.1l0.8,0.8l0.5,0.1l1-0.5l0.2-1.1l-0.8-0.8L49.8,69.5z M13.5,70.8
	c2.2,0,3.9,1.7,3.9,3.9c0,2.2-1.7,3.9-3.9,3.9s-3.9-1.7-3.9-3.9C9.6,72.5,11.3,70.8,13.5,70.8z M86.1,70.8c2.2,0,3.9,1.7,3.9,3.9
	c0,2.2-1.7,3.9-3.9,3.9c-2.2,0-3.9-1.7-3.9-3.9C82.2,72.5,84,70.8,86.1,70.8z M49.8,74.6l-1,0.5l-0.2,1.1l0.8,0.8l0.5,0.1l1-0.5
	l0.2-1.1l-0.8-0.8L49.8,74.6z M49.8,79.8l-1,0.5l-0.2,1.1l0.8,0.8l0.5,0.1l1-0.5l0.2-1.1l-0.8-0.8L49.8,79.8z M49.8,85
	c-3.6,0-6.5,2.9-6.5,6.5s2.9,6.5,6.5,6.5s6.5-2.9,6.5-6.5S53.4,85,49.8,85z M49.8,87.6c2.2,0,3.9,1.7,3.9,3.9s-1.7,3.9-3.9,3.9
	c-2.2,0-3.9-1.7-3.9-3.9S47.6,87.6,49.8,87.6z"/>
</svg>
