<?xml version="1.0" encoding="utf-8"?>
<!-- Generator: Adobe Illustrator 22.0.1, SVG Export Plug-In . SVG Version: 6.00 Build 0)  -->
<svg version="1.1" id="Layer_1" xmlns="http://www.w3.org/2000/svg" xmlns:xlink="http://www.w3.org/1999/xlink" x="0px" y="0px"
	 viewBox="0 0 100 100" style="enable-background:new 0 0 100 100;" xml:space="preserve">
<g id="surface1">
	<path d="M18.9,2C15.1,2,12,5.1,12,8.9v84c0,2.8,2.3,5.1,5.1,5.1h61.7c2.8,0,5.1-2.3,5.1-5.1v-2c2-0.7,3.4-2.6,3.4-4.8V7.1
		c0-2.8-2.3-5.1-5.1-5.1H18.9z M18.9,5.4h63.4c0.9,0,1.7,0.8,1.7,1.7v1.7c-1,0-1.7,0.8-1.7,1.7V14c0,0.9,0.8,1.7,1.7,1.7V86
		c0,0.9-0.8,1.7-1.7,1.7H17c-0.5,0-1.1,0.1-1.6,0.3V15.7c1,0,1.7-0.8,1.7-1.7v-3.4c0-0.9-0.8-1.7-1.7-1.7C15.4,7,17,5.4,18.9,5.4z
		 M24,8.9c-1,0-1.7,0.8-1.7,1.7V14c0,0.9,0.8,1.7,1.7,1.7s1.7-0.8,1.7-1.7v-3.4C25.7,9.6,25,8.9,24,8.9z M32.6,8.9
		c-1,0-1.7,0.8-1.7,1.7V14c0,0.9,0.8,1.7,1.7,1.7c1,0,1.7-0.8,1.7-1.7v-3.4C34.3,9.6,33.5,8.9,32.6,8.9z M41.1,8.9
		c-1,0-1.7,0.8-1.7,1.7V14c0,0.9,0.8,1.7,1.7,1.7s1.7-0.8,1.7-1.7v-3.4C42.9,9.6,42.1,8.9,41.1,8.9z M49.7,8.9c-1,0-1.7,0.8-1.7,1.7
		V14c0,0.9,0.8,1.7,1.7,1.7s1.7-0.8,1.7-1.7v-3.4C51.4,9.6,50.7,8.9,49.7,8.9z M58.3,8.9c-1,0-1.7,0.8-1.7,1.7V14
		c0,0.9,0.8,1.7,1.7,1.7S60,14.9,60,14v-3.4C60,9.6,59.2,8.9,58.3,8.9z M66.9,8.9c-1,0-1.7,0.8-1.7,1.7V14c0,0.9,0.8,1.7,1.7,1.7
		c1,0,1.7-0.8,1.7-1.7v-3.4C68.6,9.6,67.8,8.9,66.9,8.9z M75.4,8.9c-1,0-1.7,0.8-1.7,1.7V14c0,0.9,0.8,1.7,1.7,1.7
		c1,0,1.7-0.8,1.7-1.7v-3.4C77.1,9.6,76.4,8.9,75.4,8.9z M49.7,22.6c-11.3,0-20.6,9.2-20.6,20.6s9.2,20.6,20.6,20.6
		s20.6-9.2,20.6-20.6S61.1,22.6,49.7,22.6z M48,26.4v15.1h-6.8C41.6,34,44.4,27.9,48,26.4z M51.4,26.4c3.6,1.5,6.4,7.7,6.8,15.1
		h-6.8V26.4z M41.4,28.1c-2.1,3.4-3.4,8-3.7,13.3h-5.1C33.2,35.7,36.6,30.8,41.4,28.1z M58,28.1c4.8,2.7,8.2,7.6,8.8,13.3h-5.1
		C61.4,36.2,60.1,31.5,58,28.1z M32.7,44.9h5.1c0.2,5.3,1.6,9.9,3.7,13.3C36.6,55.5,33.2,50.6,32.7,44.9z M41.2,44.9H48v15.1
		C44.4,58.4,41.6,52.2,41.2,44.9z M51.4,44.9h6.8c-0.4,7.4-3.2,13.5-6.8,15.1V44.9z M61.7,44.9h5.1c-0.6,5.7-4,10.6-8.8,13.3
		C60.1,54.8,61.4,50.1,61.7,44.9z M32.6,70.6c-1,0-1.7,0.8-1.7,1.7s0.8,1.7,1.7,1.7h20.6c1,0,1.7-0.8,1.7-1.7s-0.8-1.7-1.7-1.7H32.6
		z M60,70.6c-1,0-1.7,0.8-1.7,1.7S59,74,60,74h6.9c1,0,1.7-0.8,1.7-1.7s-0.8-1.7-1.7-1.7H60z M36,77.4c-1,0-1.7,0.8-1.7,1.7
		c0,0.9,0.8,1.7,1.7,1.7h27.4c1,0,1.7-0.8,1.7-1.7c0-0.9-0.8-1.7-1.7-1.7H36z M17.1,91.1h63.4v1.7c0,0.9-0.8,1.7-1.7,1.7H17.1
		c-0.9,0-1.7-0.8-1.7-1.7C15.4,91.4,16.7,91.2,17.1,91.1z"/>
</g>
</svg>
