<?xml version="1.0" encoding="utf-8"?>
<!-- Generator: Adobe Illustrator 22.0.1, SVG Export Plug-In . SVG Version: 6.00 Build 0)  -->
<svg version="1.1" id="Layer_1" xmlns="http://www.w3.org/2000/svg" xmlns:xlink="http://www.w3.org/1999/xlink" x="0px" y="0px"
	 viewBox="0 0 100 100" style="enable-background:new 0 0 100 100;" xml:space="preserve">
<style type="text/css">
	.st0{fill:#333333;}
</style>
<title>undefined - simple-line-icons</title>
<desc>Created with Sketch.</desc>
<g id="Style">
	<g id="Icons" transform="translate(-142.000000, -965.000000)">
		<path id="undefined---simple-line-icons" class="st0" d="M192.4,967c5.6,0,10.7,1,15.1,2.9s8.2,4.6,11.2,7.9s5.3,7.2,6.9,11.7
			s2.4,9.1,2.4,14.1c0,5-1,10.1-3,15.3c-2,5.2-4.5,10.3-7.5,15.4s-6.2,9.8-9.8,14.3s-6.8,8.5-9.8,12c0,0.1-0.5,0.5-1.4,1.3
			s-2,1.2-3.3,1.2H193c-1.3,0-2.4-0.4-3.3-1.2s-1.4-1.2-1.4-1.3c-3.3-3.8-6.8-7.8-10.5-12.3s-7.3-9.1-10.5-14s-5.9-10-8.1-15.1
			c-2.2-5.2-3.2-10.4-3.2-15.6c0-4.9,1-9.6,2.9-14.1s4.6-8.3,7.9-11.7s7.2-6,11.6-7.9S187.4,967,192.4,967z M193.5,1056.5
			c4.8-5.4,8.9-10.6,12.5-15.6s6.5-9.6,8.9-14s4.2-8.6,5.3-12.5s1.8-7.5,1.8-10.9c0-3.8-0.6-7.5-1.7-11.2s-3-6.9-5.4-9.8
			s-5.5-5.2-9.2-6.9s-8.1-2.6-13.3-2.6c-4.1,0-8,0.8-11.7,2.4s-6.9,3.8-9.7,6.6s-4.9,6-6.6,9.8s-2.4,7.6-2.4,11.8
			c0,4.4,0.9,8.9,2.8,13.5s4.2,9,7.1,13.5s6,8.7,9.5,12.8s6.7,7.9,9.8,11.5l1.6,1.8l0.4,0.4c0.1-0.1,0.1-0.1,0.2-0.2
			S193.5,1056.6,193.5,1056.5z M192.1,985.1c5,0,9.2,1.8,12.8,5.3s5.2,7.8,5.2,12.7c0,5-1.7,9.2-5.2,12.8s-7.7,5.2-12.8,5.2
			c-4.9,0-9.2-1.7-12.7-5.2s-5.3-7.7-5.3-12.8c0-4.9,1.8-9.2,5.3-12.7S187.2,985.1,192.1,985.1z M192.1,1015.1
			c3.3,0,6.1-1.2,8.4-3.6s3.5-5.2,3.5-8.5s-1.2-6.1-3.5-8.5s-5.2-3.5-8.5-3.5s-6.1,1.2-8.5,3.5s-3.5,5.2-3.5,8.5s1.2,6.2,3.6,8.5
			S188.8,1015.1,192.1,1015.1z"/>
	</g>
</g>
</svg>
