<?xml version="1.0" encoding="utf-8"?>
<!-- Generator: Adobe Illustrator 22.0.1, SVG Export Plug-In . SVG Version: 6.00 Build 0)  -->
<svg version="1.1" id="Layer_1" xmlns="http://www.w3.org/2000/svg" xmlns:xlink="http://www.w3.org/1999/xlink" x="0px" y="0px"
	 viewBox="0 0 100 100" style="enable-background:new 0 0 100 100;" xml:space="preserve">
<title>plane - simple-line-icons</title>
<desc>Created with Sketch.</desc>
<g id="Style">
	<g id="Icons" transform="translate(-265.000000, -975.000000)">
		<path id="plane---simple-line-icons" d="M297.2,1065C297.2,1065.1,297.2,1065.1,297.2,1065C297.2,1065.1,297.2,1065.1,297.2,1065
			L297.2,1065z M297.2,1065.1c0,0-0.1,0-0.2,0c-0.2,0-0.2-0.1-0.1-0.1V1049l1.8-1.8l12.2-11.7l6.7-6.7l3.3,8.8
			c0.6,1.8,1.3,3.8,2.2,6c0.8,2.3,1.7,4.6,2.5,6.9c0.9,2.3,1.7,4.6,2.5,6.7c0.8,2.1,1.5,3.9,2,5.5c0.7-0.8,1.4-1.6,2.2-2.4
			c0.8-0.8,1.3-1.5,1.8-2c0.2-0.3,0.3-0.4,0.3-0.6c0-0.1,0-0.3,0-0.5c-0.1-0.3-0.2-2-0.4-5.2s-0.4-6.6-0.6-10.4
			c-0.3-4.3-0.6-8.8-0.8-13.3c-0.3-4.6-0.5-8.3-0.7-11.1l-0.2-2.6l21.7-21.7c2.1-2.1,3.3-4.1,3.4-6c0.1-1.8,0.1-3.1-0.1-3.6
			c-0.2-0.1-0.5-0.1-0.8-0.2c-0.3-0.1-0.8-0.1-1.3-0.1c-0.8,0-1.8,0.2-3.2,0.6c-1.4,0.4-2.8,1.4-4.3,2.9l-21.7,21.7l-2.7-0.2
			c-2.7-0.1-6.2-0.3-10.6-0.6c-4.4-0.3-8.6-0.6-12.8-0.9c-4-0.3-7.7-0.5-11.2-0.7c-3.4-0.2-5.4-0.3-5.7-0.3h-0.2
			c-0.1,0-0.2,0-0.3,0.1c-0.1,0.1-0.3,0.2-0.4,0.3c-0.6,0.4-1.3,1-2.1,1.7c-0.8,0.7-1.6,1.5-2.3,2.2c1.4,0.6,3.3,1.3,5.5,2.1
			c2.2,0.8,4.5,1.7,6.9,2.5c2.4,0.9,4.7,1.7,7,2.6c2.3,0.8,4.3,1.6,6,2.2l8.8,3.2l-6.7,6.7l-11.8,12.2l-1.7,1.7l-2.4,0.1h-2
			c-1.1,0-2.2,0-3.5,0c-1.3,0-2.5,0-3.7,0h-4.4c1.5,0.9,3.3,2.1,5.4,3.4c2.3,1.4,4.6,2.9,6.9,4.2l1.2,0.8l0.8,1.2
			c0.5,0.8,1.5,2.4,2.9,4.7c1.4,2.3,2.8,4.4,4,6.4c0.1,0.3,0.3,0.5,0.4,0.7C296.9,1064.7,297,1064.9,297.2,1065.1L297.2,1065.1z
			 M354.7,977c1.4,0,2.7,0.2,3.8,0.6c1.1,0.4,2,0.9,2.6,1.5c1.3,1.3,1.9,3.7,1.9,7.3c0,3.6-1.7,7.2-5.2,10.7l-19.8,19.8
			c0.1,2.8,0.3,6.4,0.6,10.8c0.3,4.4,0.5,8.8,0.8,13.1c0.3,4.3,0.5,8,0.7,11.2c0.2,3.2,0.3,4.8,0.3,4.9c0.1,0.5,0,1.2-0.1,2.1
			c-0.1,0.9-0.7,1.9-1.6,3c-0.9,1.1-2.2,2.6-3.8,4.3l-2.4,2.6c-0.5,0.5-1,0.9-1.6,1.2c-0.6,0.3-1.2,0.4-1.7,0.4h-0.5
			c-0.4-0.1-0.9-0.3-1.5-0.6c-0.6-0.3-1.1-0.9-1.5-1.9c-0.1-0.3-0.6-1.6-1.4-3.8c-0.8-2.2-1.8-4.7-2.9-7.7c-1.1-2.9-2.2-5.9-3.3-9.1
			c-1.1-3.1-2.1-5.8-2.9-7.9l-12.2,11.8c-0.1,1.7-0.1,4.2,0,7.4c0,3.3,0,5.4,0,6.5c0,0.3,0,0.9-0.1,1.7c-0.1,0.8-1,2.2-2.6,4.1
			c-0.6,0.5-1.1,0.9-1.7,1.2c-0.6,0.3-1.1,0.4-1.6,0.4h-0.1c-0.6,0-1.1-0.1-1.6-0.4c-0.5-0.3-0.9-0.7-1.2-1.2
			c-0.1-0.1-0.5-0.9-1.4-2.3c-0.9-1.4-1.9-2.9-3-4.7c-1.1-1.8-2.1-3.4-3.1-5.1c-1-1.6-1.7-2.8-2.2-3.5c-3.4-2.1-6.9-4.2-10.3-6.4
			c-3.4-2.2-5.3-3.4-5.6-3.7c-0.6-0.4-0.9-0.9-1.1-1.4c-0.2-0.5-0.2-0.9-0.2-1.3c0-0.4,0.1-0.8,0.3-1.4c0.2-0.5,0.6-1.1,1.1-1.6
			l0.3-0.3c1.8-1.5,3.1-2.3,4-2.5c0.8-0.2,1.5-0.2,1.8-0.2h0.7c1.1,0,2.9,0,5.2,0c2.3,0,4.4,0,6.2,0h1.9l11.8-12.2
			c-2.2-0.8-4.9-1.8-8-3c-3.1-1.2-6.2-2.3-9.1-3.4c-2.9-1.1-5.5-2.1-7.8-2.9c-2.2-0.8-3.5-1.3-3.7-1.4c-1-0.4-1.7-0.9-2-1.5
			c-0.3-0.6-0.5-1.1-0.5-1.5c-0.1-0.7,0-1.4,0.2-2s0.7-1.3,1.3-1.8l2.6-2.4c1.7-1.6,3.1-2.9,4.3-3.8c0.9-0.8,1.8-1.2,2.6-1.4
			c0.8-0.2,1.4-0.3,1.9-0.3h0.5c0.2,0,1.9,0.1,5.1,0.3c3.2,0.2,6.9,0.4,11.2,0.7c4.3,0.3,8.7,0.6,13.2,0.9c4.5,0.3,8.1,0.5,10.9,0.7
			l19.8-19.7c1.9-1.9,3.9-3.3,6-4.1C351,977.4,352.9,977,354.7,977z"/>
	</g>
</g>
</svg>
