<?xml version="1.0" encoding="utf-8"?>
<!-- Generator: Adobe Illustrator 22.0.1, SVG Export Plug-In . SVG Version: 6.00 Build 0)  -->
<svg version="1.1" id="Layer_1" xmlns="http://www.w3.org/2000/svg" xmlns:xlink="http://www.w3.org/1999/xlink" x="0px" y="0px"
	 viewBox="0 0 100 100" style="enable-background:new 0 0 100 100;" xml:space="preserve">
<style type="text/css">
	.st0{fill:#333333;}
</style>
<title>plus - FontAwesome</title>
<desc>Created with Sketch.</desc>
<g id="Style">
	<g id="Icons" transform="translate(-507.000000, -242.000000)">
		<path id="plus---FontAwesome" class="st0" d="M601,288v8c0,5.3-2.7,8-8,8h-24v24c0,5.3-2.7,8-8,8h-8c-5.3,0-8-2.7-8-8v-24h-24
			c-5.3,0-8-2.7-8-8v-8c0-5.3,2.7-8,8-8h24v-24c0-5.3,2.7-8,8-8h8c5.3,0,8,2.7,8,8v24h24C598.3,280,601,282.7,601,288z"/>
	</g>
</g>
</svg>
