<?xml version="1.0" encoding="UTF-8"?>
<svg width="55px" height="55px" viewBox="0 0 55 55" version="1.1" xmlns="http://www.w3.org/2000/svg" xmlns:xlink="http://www.w3.org/1999/xlink">
    <!-- Generator: sketchtool 49.3 (51167) - http://www.bohemiancoding.com/sketch -->
    <title>DBDDE787-89C9-42F8-9CF4-9DB0B0D892CF</title>
    <desc>Created with sketchtool.</desc>
    <defs></defs>
    <g id="Symbols" stroke="none" stroke-width="1" fill="none" fill-rule="evenodd">
        <g id="icon/profiles" fill="#81CA49" fill-rule="nonzero">
            <path d="M6.39291604,2 L6.39291604,3.46478873 L2,3.46478873 L2,4.1971831 L2,45.943662 L6.39291604,45.943662 L6.39291604,47.4084507 L29.8218016,47.3912848 L29.8218016,45.9264961 L7.85722139,45.943662 L7.85722139,3.46478873 L41.5362444,3.46478873 L41.5362444,28.3661972 L43.0005497,28.3661972 L43.0005497,2 L6.39291604,2 Z M3.46430535,4.92957746 L6.39291604,4.92957746 L6.39291604,44.4788732 L3.46430535,44.4788732 L3.46430535,4.92957746 Z M11.5179848,4.92957746 C11.113628,4.92957746 10.7858321,5.25748159 10.7858321,5.66197183 C10.7858321,6.06646207 11.113628,6.3943662 11.5179848,6.3943662 C11.9223415,6.3943662 12.2501374,6.06646207 12.2501374,5.66197183 C12.2501374,5.25748159 11.9223415,4.92957746 11.5179848,4.92957746 Z M11.5179848,7.85915493 C11.113628,7.85915493 10.7858321,8.18705906 10.7858321,8.5915493 C10.7858321,8.99603954 11.113628,9.32394366 11.5179848,9.32394366 C11.9223415,9.32394366 12.2501374,8.99603954 12.2501374,8.5915493 C12.2501374,8.18705906 11.9223415,7.85915493 11.5179848,7.85915493 Z M20.3038168,7.85915493 C18.2907052,7.85915493 16.6430535,9.50735059 16.6430535,11.5211268 C16.6430535,12.6349587 17.1574691,13.624526 17.9486303,14.2976455 C16.3062296,15.1536893 15.1787481,16.8709981 15.1787481,18.8450704 L16.6430535,18.8450704 C16.6430535,16.8136531 18.2730699,15.1830986 20.3038168,15.1830986 C22.3345638,15.1830986 23.9645802,16.8136531 23.9645802,18.8450704 L25.4288855,18.8450704 C25.4288855,16.8709981 24.3014041,15.1536893 22.6590034,14.2976455 C23.4501646,13.624526 23.9645802,12.6349587 23.9645802,11.5211268 C23.9645802,9.50735059 22.3169284,7.85915493 20.3038168,7.85915493 Z M28.3574962,8.5915493 L28.3574962,10.056338 L37.1433283,10.056338 L37.1433283,8.5915493 L28.3574962,8.5915493 Z M20.3038168,9.32394366 C21.5255593,9.32394366 22.5002749,10.298981 22.5002749,11.5211268 C22.5002749,12.7432725 21.5255593,13.7183099 20.3038168,13.7183099 C19.0820744,13.7183099 18.1073588,12.7432725 18.1073588,11.5211268 C18.1073588,10.298981 19.0820744,9.32394366 20.3038168,9.32394366 Z M11.5179848,10.7887324 C11.113628,10.7887324 10.7858321,11.1166365 10.7858321,11.5211268 C10.7858321,11.925617 11.113628,12.2535211 11.5179848,12.2535211 C11.9223415,12.2535211 12.2501374,11.925617 12.2501374,11.5211268 C12.2501374,11.1166365 11.9223415,10.7887324 11.5179848,10.7887324 Z M28.3574962,12.9859155 L28.3574962,14.4507042 L37.1433283,14.4507042 L37.1433283,12.9859155 L28.3574962,12.9859155 Z M11.5179848,13.7183099 C11.113628,13.7183099 10.7858321,14.046214 10.7858321,14.4507042 C10.7858321,14.8551945 11.113628,15.1830986 11.5179848,15.1830986 C11.9223415,15.1830986 12.2501374,14.8551945 12.2501374,14.4507042 C12.2501374,14.046214 11.9223415,13.7183099 11.5179848,13.7183099 Z M11.5179848,16.6478873 C11.113628,16.6478873 10.7858321,16.9757915 10.7858321,17.3802817 C10.7858321,17.7847719 11.113628,18.1126761 11.5179848,18.1126761 C11.9223415,18.1126761 12.2501374,17.7847719 12.2501374,17.3802817 C12.2501374,16.9757915 11.9223415,16.6478873 11.5179848,16.6478873 Z M28.3574962,17.3802817 L28.3574962,18.8450704 L37.1433283,18.8450704 L37.1433283,17.3802817 L28.3574962,17.3802817 Z M11.5179848,19.5774648 C11.113628,19.5774648 10.7858321,19.9053689 10.7858321,20.3098592 C10.7858321,20.7143494 11.113628,21.0422535 11.5179848,21.0422535 C11.9223415,21.0422535 12.2501374,20.7143494 12.2501374,20.3098592 C12.2501374,19.9053689 11.9223415,19.5774648 11.5179848,19.5774648 Z M11.5179848,22.5070423 C11.113628,22.5070423 10.7858321,22.8349464 10.7858321,23.2394366 C10.7858321,23.6439269 11.113628,23.971831 11.5179848,23.971831 C11.9223415,23.971831 12.2501374,23.6439269 12.2501374,23.2394366 C12.2501374,22.8349464 11.9223415,22.5070423 11.5179848,22.5070423 Z M11.5179848,25.4366197 C11.113628,25.4366197 10.7858321,25.7645238 10.7858321,26.1690141 C10.7858321,26.5735043 11.113628,26.9014085 11.5179848,26.9014085 C11.9223415,26.9014085 12.2501374,26.5735043 12.2501374,26.1690141 C12.2501374,25.7645238 11.9223415,25.4366197 11.5179848,25.4366197 Z M15.1787481,25.4366197 L15.1787481,26.9014085 L37.1433283,26.9014085 L37.1433283,25.4366197 L15.1787481,25.4366197 Z M11.5179848,28.3661972 C11.113628,28.3661972 10.7858321,28.6941013 10.7858321,29.0985915 C10.7858321,29.5030818 11.113628,29.8309859 11.5179848,29.8309859 C11.9223415,29.8309859 12.2501374,29.5030818 12.2501374,29.0985915 C12.2501374,28.6941013 11.9223415,28.3661972 11.5179848,28.3661972 Z M29.8203717,30.5462144 L15.1773182,30.5633803 L15.180178,32.028169 L29.8232315,32.0110032 L29.8203717,30.5462144 Z M34.2147176,30.5462144 C33.0103484,30.5462144 32.0182596,31.5386315 32.0182596,32.7433975 L32.0182596,37.1706643 C32.0182596,37.733639 32.2674998,38.2309253 32.6231436,38.6197183 C32.2675305,39.0083714 32.0182596,39.5045686 32.0182596,40.0673412 L32.0182596,40.0687723 L32.0354198,44.4788732 C32.0354198,45.0411888 32.2837733,45.5379528 32.6388732,45.9264961 C32.283274,46.3151478 32.0354198,46.8113589 32.0354198,47.3741197 L32.0182596,51.7842207 L32.0182596,51.785651 C32.0182596,52.9904185 33.0103484,53.9828341 34.2147176,53.9828341 L51.7863818,54 C52.990751,54 53.9828398,53.0075837 53.9828398,51.8028169 L54,47.3927159 L54,47.3912848 C54,46.8285137 53.7507284,46.3323151 53.395116,45.943662 C53.7507284,45.5550088 53.9999985,45.0588102 54,44.4960391 L54,44.494608 L53.9828398,40.084507 C53.9828398,39.5223775 53.7342784,39.0253828 53.3793857,38.6368842 C53.734777,38.2482772 53.9828398,37.7518354 53.9828398,37.1892606 L53.9828398,32.7605634 C53.9828398,31.5557966 52.990751,30.5633803 51.7863818,30.5633803 L34.2147176,30.5462144 Z M11.5179848,31.2957746 C11.113628,31.2957746 10.7858321,31.6236788 10.7858321,32.028169 C10.7858321,32.4326593 11.113628,32.7605634 11.5179848,32.7605634 C11.9223415,32.7605634 12.2501374,32.4326593 12.2501374,32.028169 C12.2501374,31.6236788 11.9223415,31.2957746 11.5179848,31.2957746 Z M34.2147176,32.0110032 L51.7863818,32.028169 C52.20007,32.028169 52.5185345,32.3467386 52.5185345,32.7605634 L52.5185345,37.1892606 C52.5185345,37.5702221 52.2380387,37.8587371 51.8678909,37.891615 C51.8408221,37.8886696 51.8136101,37.8872371 51.7863818,37.8873239 C51.382025,37.8873239 51.0542291,38.2152281 51.0542291,38.6197183 C51.0542291,39.0242085 51.382025,39.3521127 51.7863818,39.3521127 C51.7921073,39.3517032 51.7978277,39.3512264 51.803542,39.3506823 L51.803542,39.3692785 C52.2074735,39.3692785 52.5185345,39.6804399 52.5185345,40.084507 L52.5185345,40.0859374 L52.5356947,44.4960391 C52.5356932,44.9000703 52.2246352,45.2112676 51.8207014,45.2112676 L51.8207014,45.212698 C51.8092743,45.2119528 51.7978313,45.2114758 51.7863818,45.2112676 C51.382025,45.2112676 51.0542291,45.5391717 51.0542291,45.943662 C51.0542291,46.3481522 51.382025,46.6760563 51.7863818,46.6760563 C51.7978313,46.6758481 51.8092743,46.6753712 51.8207014,46.674626 L51.8207014,46.6760563 C52.2246352,46.6760563 52.5356947,46.9872199 52.5356947,47.3912848 L52.5185345,51.8013865 L52.5185345,51.8028169 C52.5185345,52.2166417 52.20007,52.5352113 51.7863818,52.5352113 L34.2147176,52.5180454 C33.8010294,52.5180454 33.482565,52.199478 33.482565,51.785651 L33.4997251,47.3755501 L33.4997251,47.3741197 C33.4997251,46.9946413 33.7780991,46.7065715 34.1460783,46.6717652 C34.1688783,46.6742703 34.1917833,46.6757023 34.2147176,46.6760563 C34.6190744,46.6760563 34.9468703,46.3481522 34.9468703,45.943662 C34.9468703,45.5391717 34.6190744,45.2112676 34.2147176,45.2112676 L34.2147176,45.1941017 C33.8107839,45.1941017 33.4997244,44.8829403 33.4997251,44.4788732 L33.4997251,44.4774429 L33.482565,40.0673412 C33.482565,39.6632748 33.7936244,39.3521127 34.1975574,39.3521127 L34.1975574,39.3506823 C34.2032717,39.3512264 34.2089922,39.3517032 34.2147176,39.3521127 C34.6190744,39.3521127 34.9468703,39.0242085 34.9468703,38.6197183 C34.9468703,38.2152281 34.6190744,37.8873239 34.2147176,37.8873239 C34.2089978,37.8872569 34.2032773,37.8872569 34.1975574,37.8873239 C33.7936244,37.8873239 33.482565,37.5758264 33.482565,37.1706643 L33.482565,32.7433975 C33.482565,32.3295727 33.8010294,32.0110046 34.2147176,32.0110032 Z M11.5179848,34.2253521 C11.113628,34.2253521 10.7858321,34.5532562 10.7858321,34.9577465 C10.7858321,35.3622367 11.113628,35.6901408 11.5179848,35.6901408 C11.9223415,35.6901408 12.2501374,35.3622367 12.2501374,34.9577465 C12.2501374,34.5532562 11.9223415,34.2253521 11.5179848,34.2253521 Z M45.1970077,34.2253521 L45.1970077,35.6901408 L45.9291604,35.6901408 L47.3934657,35.6901408 L48.1256184,35.6901408 L48.1256184,34.2253521 L47.3934657,34.2253521 L45.9291604,34.2253521 L45.1970077,34.2253521 Z M29.8203717,35.672975 L15.1773182,35.6901408 L15.180178,37.1549296 L29.8232315,37.1377637 L29.8203717,35.672975 Z M11.5179848,37.1549296 C11.113628,37.1549296 10.7858321,37.4828337 10.7858321,37.8873239 C10.7858321,38.2918142 11.113628,38.6197183 11.5179848,38.6197183 C11.9223415,38.6197183 12.2501374,38.2918142 12.2501374,37.8873239 C12.2501374,37.4828337 11.9223415,37.1549296 11.5179848,37.1549296 Z M37.1433283,37.8873239 C36.7389716,37.8873239 36.4111756,38.2152281 36.4111756,38.6197183 C36.4111756,39.0242085 36.7389716,39.3521127 37.1433283,39.3521127 C37.5476851,39.3521127 37.875481,39.0242085 37.875481,38.6197183 C37.875481,38.2152281 37.5476851,37.8873239 37.1433283,37.8873239 Z M40.071939,37.8873239 C39.6675823,37.8873239 39.3397863,38.2152281 39.3397863,38.6197183 C39.3397863,39.0242085 39.6675823,39.3521127 40.071939,39.3521127 C40.4762958,39.3521127 40.8040917,39.0242085 40.8040917,38.6197183 C40.8040917,38.2152281 40.4762958,37.8873239 40.071939,37.8873239 Z M43.0005497,37.8873239 C42.5961929,37.8873239 42.268397,38.2152281 42.268397,38.6197183 C42.268397,39.0242085 42.5961929,39.3521127 43.0005497,39.3521127 C43.4049065,39.3521127 43.7327024,39.0242085 43.7327024,38.6197183 C43.7327024,38.2152281 43.4049065,37.8873239 43.0005497,37.8873239 Z M45.9291604,37.8873239 C45.5248036,37.8873239 45.1970077,38.2152281 45.1970077,38.6197183 C45.1970077,39.0242085 45.5248036,39.3521127 45.9291604,39.3521127 C46.3335172,39.3521127 46.6613131,39.0242085 46.6613131,38.6197183 C46.6613131,38.2152281 46.3335172,37.8873239 45.9291604,37.8873239 Z M48.8577711,37.8873239 C48.4534143,37.8873239 48.1256184,38.2152281 48.1256184,38.6197183 C48.1256184,39.0242085 48.4534143,39.3521127 48.8577711,39.3521127 C49.2621278,39.3521127 49.5899238,39.0242085 49.5899238,38.6197183 C49.5899238,38.2152281 49.2621278,37.8873239 48.8577711,37.8873239 Z M11.5179848,40.084507 C11.113628,40.084507 10.7858321,40.4124112 10.7858321,40.8169014 C10.7858321,41.2213916 11.113628,41.5492958 11.5179848,41.5492958 C11.9223415,41.5492958 12.2501374,41.2213916 12.2501374,40.8169014 C12.2501374,40.4124112 11.9223415,40.084507 11.5179848,40.084507 Z M29.8203717,40.7997355 L15.1773182,40.8169014 L15.180178,42.2816901 L29.8232315,42.2645243 L29.8203717,40.7997355 Z M45.1970077,41.5492958 L45.1970077,43.0140845 L45.9291604,43.0140845 L47.3934657,43.0140845 L48.1256184,43.0140845 L48.1256184,41.5492958 L47.3934657,41.5492958 L45.9291604,41.5492958 L45.1970077,41.5492958 Z M11.5179848,43.0140845 C11.113628,43.0140845 10.7858321,43.3419886 10.7858321,43.7464789 C10.7858321,44.1509691 11.113628,44.4788732 11.5179848,44.4788732 C11.9223415,44.4788732 12.2501374,44.1509691 12.2501374,43.7464789 C12.2501374,43.3419886 11.9223415,43.0140845 11.5179848,43.0140845 Z M37.1433283,45.2112676 C36.7389716,45.2112676 36.4111756,45.5391717 36.4111756,45.943662 C36.4111756,46.3481522 36.7389716,46.6760563 37.1433283,46.6760563 C37.5476851,46.6760563 37.875481,46.3481522 37.875481,45.943662 C37.875481,45.5391717 37.5476851,45.2112676 37.1433283,45.2112676 Z M40.071939,45.2112676 C39.6675823,45.2112676 39.3397863,45.5391717 39.3397863,45.943662 C39.3397863,46.3481522 39.6675823,46.6760563 40.071939,46.6760563 C40.4762958,46.6760563 40.8040917,46.3481522 40.8040917,45.943662 C40.8040917,45.5391717 40.4762958,45.2112676 40.071939,45.2112676 Z M43.0005497,45.2112676 C42.5961929,45.2112676 42.268397,45.5391717 42.268397,45.943662 C42.268397,46.3481522 42.5961929,46.6760563 43.0005497,46.6760563 C43.4049065,46.6760563 43.7327024,46.3481522 43.7327024,45.943662 C43.7327024,45.5391717 43.4049065,45.2112676 43.0005497,45.2112676 Z M45.9291604,45.2112676 C45.5248036,45.2112676 45.1970077,45.5391717 45.1970077,45.943662 C45.1970077,46.3481522 45.5248036,46.6760563 45.9291604,46.6760563 C46.3335172,46.6760563 46.6613131,46.3481522 46.6613131,45.943662 C46.6613131,45.5391717 46.3335172,45.2112676 45.9291604,45.2112676 Z M48.8577711,45.2112676 C48.4534143,45.2112676 48.1256184,45.5391717 48.1256184,45.943662 C48.1256184,46.3481522 48.4534143,46.6760563 48.8577711,46.6760563 C49.2621278,46.6760563 49.5899238,46.3481522 49.5899238,45.943662 C49.5899238,45.5391717 49.2621278,45.2112676 48.8577711,45.2112676 Z M45.1970077,48.8732394 L45.1970077,50.3380282 L45.9291604,50.3380282 L47.3934657,50.3380282 L48.1256184,50.3380282 L48.1256184,48.8732394 L47.3934657,48.8732394 L45.9291604,48.8732394 L45.1970077,48.8732394 Z" id="icon-profiles"></path>
        </g>
    </g>
</svg>
