<?xml version="1.0" encoding="utf-8"?>
<!-- Generator: Adobe Illustrator 22.0.1, SVG Export Plug-In . SVG Version: 6.00 Build 0)  -->
<svg version="1.1" id="Layer_1" xmlns="http://www.w3.org/2000/svg" xmlns:xlink="http://www.w3.org/1999/xlink" x="0px" y="0px"
	 viewBox="0 0 100 100" style="enable-background:new 0 0 100 100;" xml:space="preserve">
<g id="surface1">
	<path d="M2,13v73.4h96V13H2z M4.8,15.8h90.4v67.8H4.8V15.8z M11.9,20.1c-0.8,0-1.4,0.6-1.4,1.4c0,0.8,0.6,1.4,1.4,1.4
		s1.4-0.6,1.4-1.4C13.3,20.7,12.7,20.1,11.9,20.1z M11.9,25.7c-0.8,0-1.4,0.6-1.4,1.4c0,0.8,0.6,1.4,1.4,1.4s1.4-0.6,1.4-1.4
		C13.3,26.3,12.7,25.7,11.9,25.7z M85.7,28.6l-8.2,7.9l-4-4.1l-2,2l5.9,6.1l10.2-9.8L85.7,28.6z M11.9,31.4c-0.8,0-1.4,0.6-1.4,1.4
		s0.6,1.4,1.4,1.4s1.4-0.6,1.4-1.4S12.7,31.4,11.9,31.4z M21.8,34.2V37h40.9v-2.8H21.8z M11.9,37c-0.8,0-1.4,0.6-1.4,1.4
		c0,0.8,0.6,1.4,1.4,1.4s1.4-0.6,1.4-1.4C13.3,37.6,12.7,37,11.9,37z M11.9,42.6c-0.8,0-1.4,0.6-1.4,1.4s0.6,1.4,1.4,1.4
		s1.4-0.6,1.4-1.4S12.7,42.6,11.9,42.6z M85.7,42.7l-8.2,7.9l-4-4.1l-2,2l5.9,6.1l10.2-9.8L85.7,42.7z M11.9,48.3
		c-0.8,0-1.4,0.6-1.4,1.4s0.6,1.4,1.4,1.4s1.4-0.6,1.4-1.4S12.7,48.3,11.9,48.3z M21.8,48.3v2.8h40.9v-2.8H21.8z M11.9,53.9
		c-0.8,0-1.4,0.6-1.4,1.4c0,0.8,0.6,1.4,1.4,1.4s1.4-0.6,1.4-1.4C13.3,54.6,12.7,53.9,11.9,53.9z M85.7,56.8l-8.2,7.9l-4-4.1l-2,2
		l5.9,6.1l10.2-9.8L85.7,56.8z M11.9,59.6c-0.8,0-1.4,0.6-1.4,1.4s0.6,1.4,1.4,1.4s1.4-0.6,1.4-1.4S12.7,59.6,11.9,59.6z M21.8,62.4
		v2.8h40.9v-2.8H21.8z M11.9,65.2c-0.8,0-1.4,0.6-1.4,1.4s0.6,1.4,1.4,1.4s1.4-0.6,1.4-1.4S12.7,65.2,11.9,65.2z M11.9,70.9
		c-0.8,0-1.4,0.6-1.4,1.4c0,0.8,0.6,1.4,1.4,1.4s1.4-0.6,1.4-1.4C13.3,71.5,12.7,70.9,11.9,70.9z M11.9,76.5c-0.8,0-1.4,0.6-1.4,1.4
		s0.6,1.4,1.4,1.4s1.4-0.6,1.4-1.4S12.7,76.5,11.9,76.5z"/>
</g>
</svg>
