<?xml version="1.0" encoding="UTF-8"?>
<svg width="40px" height="40px" viewBox="0 0 40 40" version="1.1" xmlns="http://www.w3.org/2000/svg" xmlns:xlink="http://www.w3.org/1999/xlink">
    <!-- Generator: sketchtool 49.3 (51167) - http://www.bohemiancoding.com/sketch -->
    <title>DE635E36-A0E8-4F28-A165-995C575C9597</title>
    <desc>Created with sketchtool.</desc>
    <defs></defs>
    <g id="Symbol" stroke="none" stroke-width="1" fill="none" fill-rule="evenodd">
        <g id="icon/book" fill="#9E9E9E">
            <path d="M35.1021007,11.6406297 C35.5764314,12.3236658 35.709244,13.2154075 35.4436188,14.088176 L30.2259812,31.2779202 C29.7516505,32.8906446 28.0820065,34.1428776 26.4503089,34.1428776 L8.93801982,34.1428776 C7.00275061,34.1428776 4.9346688,32.6060461 4.23265938,30.6328305 C3.92908774,29.7790352 3.92908774,28.9442132 4.19471292,28.2232306 C4.23265938,27.843766 4.30855229,27.4643015 4.32752552,27.008944 C4.34649874,26.7053724 4.1757397,26.4587204 4.21368615,26.2310417 C4.28957906,25.7756842 4.68801684,25.4531393 4.99158848,24.9408622 C5.56078531,23.9922008 6.20587505,22.4553694 6.41458055,21.4687615 C6.50944669,21.1082702 6.31971441,20.6908592 6.41458055,20.3683143 C6.50944669,20.007823 6.86993801,19.7421978 7.05967029,19.4006797 C7.57194744,18.5279113 8.2360104,16.839294 8.33087654,15.9475523 C8.36882299,15.5491145 8.17909072,15.1127303 8.29293008,14.8091587 C8.42574268,14.3727744 8.84315368,14.1830422 9.1277521,13.8035776 C9.58310956,13.1774611 10.3420387,11.3750045 10.455878,10.3694234 C10.4938245,10.0468785 10.3040922,9.72433367 10.3610119,9.38281557 C10.4369048,9.02232425 10.8922623,8.6428597 11.1958339,8.20647546 C11.9927095,7.03013535 12.1444953,4.43080317 14.5540952,5.11383937 L14.535122,5.17075905 C14.8576668,5.09486614 15.1802117,5 15.5027566,5 L29.9413828,5 C30.8331245,5 31.63,5.39843778 32.1043307,6.06250075 C32.5976346,6.74553694 32.711474,7.63727864 32.4458488,8.52902033 L27.2471844,25.7187645 C26.3554427,28.6406416 25.8621388,29.2857313 23.4525389,29.2857313 L6.96480415,29.2857313 C6.71815219,29.2857313 6.41458055,29.342651 6.2438215,29.5703297 C6.09203568,29.7980085 6.07306246,29.9687675 6.22484828,30.3861785 C6.60431283,31.4866257 7.91346553,31.7143044 8.95699305,31.7143044 L26.4692821,31.7143044 C27.1712915,31.7143044 27.9871403,31.3158667 28.1958458,30.6328305 L33.8878141,11.9062548 C34.0016535,11.5457635 34.0016535,11.166299 33.9826802,10.8247809 C34.4190645,10.9955399 34.8175023,11.2611651 35.1021007,11.6406297 Z M14.9145865,11.6785761 C14.8007471,12.0200942 14.9904794,12.2857194 15.3319975,12.2857194 L26.8677199,12.2857194 C27.1902648,12.2857194 27.5507561,12.0200942 27.6645955,11.6785761 L28.0630332,10.4642895 C28.1768726,10.1227714 27.9871403,9.85714626 27.6456222,9.85714626 L16.1098999,9.85714626 C15.787355,9.85714626 15.4268637,10.1227714 15.3130243,10.4642895 L14.9145865,11.6785761 Z M13.3398086,16.5357224 C13.2259693,16.8772405 13.4157015,17.1428657 13.7572196,17.1428657 L25.292942,17.1428657 C25.6154869,17.1428657 25.9759782,16.8772405 26.0898176,16.5357224 L26.4882553,15.3214358 C26.6020947,14.9799177 26.4123624,14.7142925 26.0708443,14.7142925 L14.535122,14.7142925 C14.2125771,14.7142925 13.8520858,14.9799177 13.7382464,15.3214358 L13.3398086,16.5357224 Z" id="book---FontAwesome"></path>
        </g>
    </g>
</svg>
