<?xml version="1.0" encoding="UTF-8"?>
<svg width="40px" height="40px" viewBox="0 0 40 40" version="1.1" xmlns="http://www.w3.org/2000/svg" xmlns:xlink="http://www.w3.org/1999/xlink">
    <!-- Generator: sketchtool 49.3 (51167) - http://www.bohemiancoding.com/sketch -->
    <title>C8194A7B-1F16-46D0-97F3-09DA34618628</title>
    <desc>Created with sketchtool.</desc>
    <defs></defs>
    <g id="Symbol" stroke="none" stroke-width="1" fill="none" fill-rule="evenodd">
        <g id="icon/wifi" fill="#9E9E9E">
            <path d="M20,32.2 C19.5234216,32.2 16.9572301,29.6709677 16.9572301,29.1832258 C16.9572301,28.2980645 19.3034623,27.8103226 20,27.8103226 C20.6965377,27.8103226 23.0427699,28.2980645 23.0427699,29.1832258 C23.0427699,29.6709677 20.4765784,32.2 20,32.2 Z M24.9490835,27.3045161 C24.6924644,27.3045161 22.694501,25.4980645 20,25.4980645 C17.287169,25.4980645 15.3258656,27.3045161 15.0509165,27.3045161 C14.610998,27.3045161 11.9531568,24.7032258 11.9531568,24.2696774 C11.9531568,24.1070968 12.0264766,23.9625806 12.1364562,23.8541935 C14.0977597,21.9393548 17.287169,20.8735484 20,20.8735484 C22.712831,20.8735484 25.9022403,21.9393548 27.8635438,23.8541935 C27.9735234,23.9625806 28.0468432,24.1070968 28.0468432,24.2696774 C28.0468432,24.7032258 25.389002,27.3045161 24.9490835,27.3045161 Z M29.9531568,22.3909677 C29.8065173,22.3909677 29.6415479,22.3187097 29.5315682,22.2464516 C26.5071283,19.9341935 23.9592668,18.5612903 20,18.5612903 C14.4643585,18.5612903 10.2484725,22.3909677 10.0468432,22.3909677 C9.62525458,22.3909677 6.98574338,19.7896774 6.98574338,19.356129 C6.98574338,19.2116129 7.05906314,19.0670968 7.16904277,18.9587097 C10.4501018,15.7251613 15.3991853,13.9367742 20,13.9367742 C24.6008147,13.9367742 29.5498982,15.7251613 32.8309572,18.9587097 C32.9409369,19.0670968 33.0142566,19.2116129 33.0142566,19.356129 C33.0142566,19.7896774 30.3747454,22.3909677 29.9531568,22.3909677 Z M34.9205703,17.4954839 C34.7739308,17.4954839 34.6272912,17.4232258 34.5173116,17.3329032 C30.2830957,13.6658065 25.7189409,11.6245161 20,11.6245161 C14.2810591,11.6245161 9.71690428,13.6658065 5.48268839,17.3329032 C5.37270876,17.4232258 5.22606925,17.4954839 5.07942974,17.4954839 C4.65784114,17.4954839 2,14.8941935 2,14.4606452 C2,14.2980645 2.07331976,14.1535484 2.18329939,14.0451613 C6.82077393,9.51096774 13.5112016,7 20,7 C26.4887984,7 33.1792261,9.51096774 37.8167006,14.0451613 C37.9266802,14.1535484 38,14.2980645 38,14.4606452 C38,14.8941935 35.3421589,17.4954839 34.9205703,17.4954839 Z" id="wifi---FontAwesome"></path>
        </g>
    </g>
</svg>
