<?xml version="1.0" encoding="UTF-8"?>
<svg width="40px" height="40px" viewBox="0 0 40 40" version="1.1" xmlns="http://www.w3.org/2000/svg" xmlns:xlink="http://www.w3.org/1999/xlink">
    <!-- Generator: sketchtool 49.3 (51167) - http://www.bohemiancoding.com/sketch -->
    <title>EB3C5981-2530-469F-A53A-6BADDCF811E2</title>
    <desc>Created with sketchtool.</desc>
    <defs></defs>
    <g id="Symbol" stroke="none" stroke-width="1" fill="none" fill-rule="evenodd">
        <g id="icon/computer" fill="#9F9F9F">
            <path d="M32.8811119,23.3148153 L32.8811119,8.83962971 L6.90888897,8.83962971 L6.90888897,23.3148153 L32.8811119,23.3148153 Z M32.8811119,6 C33.6660542,6 34.3470968,6.27703427 34.9242601,6.83111114 C35.5014235,7.385188 35.7900009,8.05468749 35.7900009,8.83962971 L35.7900009,26.154445 C35.7900009,26.9393872 35.5014235,27.6204298 34.9242601,28.1975932 C34.3470968,28.7747566 33.6660542,29.063334 32.8811119,29.063334 L22.8038894,29.063334 L25.6435191,33.3920378 L25.6435191,34.8118527 L14.1464818,34.8118527 L14.1464818,33.3920378 L16.9861115,29.063334 L6.90888897,29.063334 C6.12394675,29.063334 5.44290416,28.7747566 4.86574077,28.1975932 C4.28857737,27.6204298 4,26.9393872 4,26.154445 L4,8.83962971 C4,8.05468749 4.28857737,7.385188 4.86574077,6.83111114 C5.44290416,6.27703427 6.12394675,6 6.90888897,6 L32.8811119,6 Z" id="desktop_mac---material"></path>
        </g>
    </g>
</svg>
