<?xml version="1.0" encoding="UTF-8"?>
<svg width="40px" height="40px" viewBox="0 0 40 40" version="1.1" xmlns="http://www.w3.org/2000/svg" xmlns:xlink="http://www.w3.org/1999/xlink">
    <!-- Generator: sketchtool 49.3 (51167) - http://www.bohemiancoding.com/sketch -->
    <title>29130B11-B444-4D4F-8130-D5C4C4CB1655</title>
    <desc>Created with sketchtool.</desc>
    <defs></defs>
    <g id="Symbol" stroke="none" stroke-width="1" fill="none" fill-rule="evenodd">
        <g id="icon/library" fill="#9E9E9E" fill-rule="nonzero">
            <path d="M8.01422561,4 C7.27909811,4 6.68247289,4.59697906 6.68247289,5.33254255 L6.68247289,26.6532234 C6.68247289,27.3887869 7.27909811,27.985766 8.01422561,27.985766 L13.3412364,27.985766 C14.0763639,27.985766 14.6729892,27.3887869 14.6729892,26.6532234 L14.6729892,5.33254255 C14.6729892,4.59697906 14.0763639,4 13.3412364,4 L8.01422561,4 Z M18.6682473,4 C17.9331198,4 17.3364946,4.59697906 17.3364946,5.33254255 L17.3364946,26.6532234 C17.3364946,27.3887869 17.9331198,27.985766 18.6682473,27.985766 L23.9952581,27.985766 C24.7303856,27.985766 25.3270108,27.3887869 25.3270108,26.6532234 L25.3270108,5.33254255 C25.3270108,4.59697906 24.7303856,4 23.9952581,4 L18.6682473,4 Z M8.68010196,7.99762766 L12.6753601,7.99762766 C13.0429238,7.99762766 13.3412364,8.29611719 13.3412364,8.66389894 C13.3412364,9.03168068 13.0429238,9.33017021 12.6753601,9.33017021 L8.68010196,9.33017021 C8.31253821,9.33017021 8.01422561,9.03168068 8.01422561,8.66389894 C8.01422561,8.29611719 8.31253821,7.99762766 8.68010196,7.99762766 Z M19.3341236,7.99762766 L23.3293818,7.99762766 C23.6969455,7.99762766 23.9952581,8.29611719 23.9952581,8.66389894 C23.9952581,9.03168068 23.6969455,9.33017021 23.3293818,9.33017021 L19.3341236,9.33017021 C18.9665599,9.33017021 18.6682473,9.03168068 18.6682473,8.66389894 C18.6682473,8.29611719 18.9665599,7.99762766 19.3341236,7.99762766 Z M29.322269,7.99762766 C28.5871415,7.99762766 27.9905163,8.59460672 27.9905163,9.33017021 L27.9905163,26.6532234 C27.9905163,27.3887869 28.5871415,27.985766 29.322269,27.985766 L31.9857744,27.985766 C32.7209019,27.985766 33.3175271,27.3887869 33.3175271,26.6532234 L33.3175271,9.33017021 C33.3175271,8.59460672 32.7209019,7.99762766 31.9857744,7.99762766 L29.322269,7.99762766 Z M29.9881453,11.9952553 L31.319898,11.9952553 C31.6874618,11.9952553 31.9857744,12.2937449 31.9857744,12.6615266 C31.9857744,13.0293083 31.6874618,13.3277979 31.319898,13.3277979 L29.9881453,13.3277979 C29.6205816,13.3277979 29.322269,13.0293083 29.322269,12.6615266 C29.322269,12.2937449 29.6205816,11.9952553 29.9881453,11.9952553 Z M8.68010196,19.9905106 L12.6753601,19.9905106 C13.0429238,19.9905106 13.3412364,20.2890002 13.3412364,20.6567819 C13.3412364,21.0245637 13.0429238,21.3230532 12.6753601,21.3230532 L8.68010196,21.3230532 C8.31253821,21.3230532 8.01422561,21.0245637 8.01422561,20.6567819 C8.01422561,20.2890002 8.31253821,19.9905106 8.68010196,19.9905106 Z M19.3341236,19.9905106 L23.3293818,19.9905106 C23.6969455,19.9905106 23.9952581,20.2890002 23.9952581,20.6567819 C23.9952581,21.0245637 23.6969455,21.3230532 23.3293818,21.3230532 L19.3341236,21.3230532 C18.9665599,21.3230532 18.6682473,21.0245637 18.6682473,20.6567819 C18.6682473,20.2890002 18.9665599,19.9905106 19.3341236,19.9905106 Z M29.9881453,19.9905106 L31.319898,19.9905106 C31.6874618,19.9905106 31.9857744,20.2890002 31.9857744,20.6567819 C31.9857744,21.0245637 31.6874618,21.3230532 31.319898,21.3230532 L29.9881453,21.3230532 C29.6205816,21.3230532 29.322269,21.0245637 29.322269,20.6567819 C29.322269,20.2890002 29.6205816,19.9905106 29.9881453,19.9905106 Z M8.68010196,22.6555957 L12.6753601,22.6555957 C13.0429238,22.6555957 13.3412364,22.9540853 13.3412364,23.321867 C13.3412364,23.6896488 13.0429238,23.9881383 12.6753601,23.9881383 L8.68010196,23.9881383 C8.31253821,23.9881383 8.01422561,23.6896488 8.01422561,23.321867 C8.01422561,22.9540853 8.31253821,22.6555957 8.68010196,22.6555957 Z M19.3341236,22.6555957 L23.3293818,22.6555957 C23.6969455,22.6555957 23.9952581,22.9540853 23.9952581,23.321867 C23.9952581,23.6896488 23.6969455,23.9881383 23.3293818,23.9881383 L19.3341236,23.9881383 C18.9665599,23.9881383 18.6682473,23.6896488 18.6682473,23.321867 C18.6682473,22.9540853 18.9665599,22.6555957 19.3341236,22.6555957 Z M29.9881453,22.6555957 L31.319898,22.6555957 C31.6874618,22.6555957 31.9857744,22.9540853 31.9857744,23.321867 C31.9857744,23.6896488 31.6874618,23.9881383 31.319898,23.9881383 L29.9881453,23.9881383 C29.6205816,23.9881383 29.322269,23.6896488 29.322269,23.321867 C29.322269,22.9540853 29.6205816,22.6555957 29.9881453,22.6555957 Z M10.6569224,30.6326325 C10.5924061,30.6340317 10.5280767,30.6401205 10.4644426,30.6508511 L5.35072018,30.6508511 C4.87044232,30.6440547 4.42371194,30.896539 4.18159083,31.3116227 C3.93946972,31.7267065 3.93946972,32.2400808 4.18159083,32.6551645 C4.42371194,33.0702482 4.87044232,33.3227325 5.35072018,33.3159362 L9.34597832,33.3159362 L9.34597832,34.6484787 C9.33918599,35.1290414 9.59152062,35.5760368 10.0063583,35.8183015 C10.421196,36.0605662 10.934266,36.0605662 11.3491037,35.8183015 C11.7639414,35.5760368 12.0162761,35.1290414 12.0094837,34.6484787 L12.0094837,33.3159362 L27.9905163,33.3159362 L27.9905163,34.6484787 C27.9837239,35.1290414 28.2360586,35.5760368 28.6508963,35.8183015 C29.065734,36.0605662 29.578804,36.0605662 29.9936417,35.8183015 C30.4084794,35.5760368 30.660814,35.1290414 30.6540217,34.6484787 L30.6540217,33.3159362 L34.6492798,33.3159362 C35.1295577,33.3227325 35.5762881,33.0702482 35.8184092,32.6551645 C36.0605303,32.2400808 36.0605303,31.7267065 35.8184092,31.3116227 C35.5762881,30.896539 35.1295577,30.6440547 34.6492798,30.6508511 L29.5277544,30.6508511 C29.4529787,30.638345 29.3772724,30.63225 29.3014603,30.6326325 C29.2369441,30.6340317 29.1726148,30.6401206 29.1089808,30.6508511 L10.8832163,30.6508511 C10.8084407,30.638345 10.7327344,30.63225 10.6569224,30.6326325 Z" id="library"></path>
        </g>
    </g>
</svg>
