<?xml version="1.0" encoding="UTF-8"?>
<svg width="40px" height="40px" viewBox="0 0 40 40" version="1.1" xmlns="http://www.w3.org/2000/svg" xmlns:xlink="http://www.w3.org/1999/xlink">
    <!-- Generator: sketchtool 49.3 (51167) - http://www.bohemiancoding.com/sketch -->
    <title>B1D9536D-9EAD-4154-9F9F-1A6629242DF5</title>
    <desc>Created with sketchtool.</desc>
    <defs></defs>
    <g id="Symbol" stroke="none" stroke-width="1" fill="none" fill-rule="evenodd">
        <g id="icon/cutlery" fill="#9F9F9F">
            <path d="M19,7 L19,17 C19,18.265625 18.1875,19.40625 17,19.828125 L17,32 C17,33.09375 16.09375,34 15,34 L13,34 C11.90625,34 11,33.09375 11,32 L11,19.828125 C9.8125,19.40625 9,18.265625 9,17 L9,7 C9,6.453125 9.453125,6 10,6 C10.546875,6 11,6.453125 11,7 L11,13.5 C11,14.046875 11.453125,14.5 12,14.5 C12.546875,14.5 13,14.046875 13,13.5 L13,7 C13,6.453125 13.453125,6 14,6 C14.546875,6 15,6.453125 15,7 L15,13.5 C15,14.046875 15.453125,14.5 16,14.5 C16.546875,14.5 17,14.046875 17,13.5 L17,7 C17,6.453125 17.453125,6 18,6 C18.546875,6 19,6.453125 19,7 Z M31,7 L31,32 C31,33.09375 30.09375,34 29,34 L27,34 C25.90625,34 25,33.09375 25,32 L25,24 L21.5,24 C21.234375,24 21,23.765625 21,23.5 L21,11 C21,8.25 23.25,6 26,6 L30,6 C30.546875,6 31,6.453125 31,7 Z" id="cutlery---FontAwesome"></path>
        </g>
    </g>
</svg>
