<?xml version="1.0" encoding="UTF-8"?>
<svg width="40px" height="40px" viewBox="0 0 40 40" version="1.1" xmlns="http://www.w3.org/2000/svg" xmlns:xlink="http://www.w3.org/1999/xlink">
    <!-- Generator: sketchtool 49.3 (51167) - http://www.bohemiancoding.com/sketch -->
    <title>E62E276C-98C1-447A-A4B4-989CF5AF024A</title>
    <desc>Created with sketchtool.</desc>
    <defs></defs>
    <g id="Symbol" stroke="none" stroke-width="1" fill="none" fill-rule="evenodd">
        <g id="icon/gamepad-" fill="#9E9E9E">
            <path d="M17.4666667,21.4 L17.4666667,18.8666667 C17.4666667,18.5104167 17.1895833,18.2333333 16.8333333,18.2333333 L13.0333333,18.2333333 L13.0333333,14.4333333 C13.0333333,14.0770833 12.75625,13.8 12.4,13.8 L9.86666667,13.8 C9.51041667,13.8 9.23333333,14.0770833 9.23333333,14.4333333 L9.23333333,18.2333333 L5.43333333,18.2333333 C5.07708333,18.2333333 4.8,18.5104167 4.8,18.8666667 L4.8,21.4 C4.8,21.75625 5.07708333,22.0333333 5.43333333,22.0333333 L9.23333333,22.0333333 L9.23333333,25.8333333 C9.23333333,26.1895833 9.51041667,26.4666667 9.86666667,26.4666667 L12.4,26.4666667 C12.75625,26.4666667 13.0333333,26.1895833 13.0333333,25.8333333 L13.0333333,22.0333333 L16.8333333,22.0333333 C17.1895833,22.0333333 17.4666667,21.75625 17.4666667,21.4 Z M28.8666667,22.6666667 C28.8666667,21.2614583 27.7385417,20.1333333 26.3333333,20.1333333 C24.928125,20.1333333 23.8,21.2614583 23.8,22.6666667 C23.8,24.071875 24.928125,25.2 26.3333333,25.2 C27.7385417,25.2 28.8666667,24.071875 28.8666667,22.6666667 Z M33.9333333,17.6 C33.9333333,16.1947917 32.8052083,15.0666667 31.4,15.0666667 C29.9947917,15.0666667 28.8666667,16.1947917 28.8666667,17.6 C28.8666667,19.0052083 29.9947917,20.1333333 31.4,20.1333333 C32.8052083,20.1333333 33.9333333,19.0052083 33.9333333,17.6 Z M39,20.1333333 C39,25.734375 34.4677083,30.2666667 28.8666667,30.2666667 C26.29375,30.2666667 23.9583333,29.296875 22.1770833,27.7333333 L17.8229167,27.7333333 C16.0416667,29.296875 13.70625,30.2666667 11.1333333,30.2666667 C5.53229167,30.2666667 1,25.734375 1,20.1333333 C1,14.5322917 5.53229167,10 11.1333333,10 L28.8666667,10 C34.4677083,10 39,14.5322917 39,20.1333333 Z" id="gamepad---FontAwesome"></path>
        </g>
    </g>
</svg>
