<?xml version="1.0" encoding="UTF-8"?>
<svg width="40px" height="40px" viewBox="0 0 40 40" version="1.1" xmlns="http://www.w3.org/2000/svg" xmlns:xlink="http://www.w3.org/1999/xlink">
    <!-- Generator: sketchtool 49.3 (51167) - http://www.bohemiancoding.com/sketch -->
    <title>D477ECAB-596B-4310-9BBA-ABED9DA4AAA7</title>
    <desc>Created with sketchtool.</desc>
    <defs></defs>
    <g id="Symbol" stroke="none" stroke-width="1" fill="none" fill-rule="evenodd">
        <g id="icon/weekend" fill="#9E9E9E">
            <path d="M29.8039216,9 C30.6928149,9 31.464049,9.31372235 32.1176471,9.94117647 C32.7712451,10.5686306 33.0980392,11.3267929 33.0980392,12.2156863 L33.0980392,15.745098 C32.1307141,16.084969 31.3398724,16.6666625 30.7254902,17.4901961 C30.111108,18.3137296 29.8039216,19.2614325 29.8039216,20.3333333 L29.8039216,23.7058824 L10.1960784,23.7058824 L10.1960784,20.3333333 C10.1960784,19.2614325 9.88889196,18.3137296 9.2745098,17.4901961 C8.66012765,16.6666625 7.86928588,16.084969 6.90196078,15.745098 L6.90196078,12.2156863 C6.90196078,11.3267929 7.2287549,10.5686306 7.88235294,9.94117647 C8.53595098,9.31372235 9.3071851,9 10.1960784,9 L29.8039216,9 Z M34.7058824,17.1176471 C35.5947757,17.1176471 36.3660098,17.4444412 37.0196078,18.0980392 C37.6732059,18.7516373 38,19.5228714 38,20.4117647 L38,28.6078431 C38,29.4967365 37.6732059,30.2548988 37.0196078,30.8823529 C36.3660098,31.5098071 35.5947757,31.8235294 34.7058824,31.8235294 L5.29411765,31.8235294 C4.40522431,31.8235294 3.6339902,31.5098071 2.98039216,30.8823529 C2.32679412,30.2548988 2,29.4967365 2,28.6078431 L2,20.4117647 C2,19.5228714 2.32679412,18.7516373 2.98039216,18.0980392 C3.6339902,17.4444412 4.40522431,17.1176471 5.29411765,17.1176471 C6.18301098,17.1176471 6.9542451,17.4444412 7.60784314,18.0980392 C8.26144118,18.7516373 8.58823529,19.5228714 8.58823529,20.4117647 L8.58823529,25.3137255 L31.4117647,25.3137255 L31.4117647,20.4117647 C31.4117647,19.5228714 31.7385588,18.7516373 32.3921569,18.0980392 C33.0457549,17.4444412 33.816989,17.1176471 34.7058824,17.1176471 Z" id="weekend---material"></path>
        </g>
    </g>
</svg>
