<?xml version="1.0" encoding="utf-8"?>
<!-- Generator: Adobe Illustrator 22.0.1, SVG Export Plug-In . SVG Version: 6.00 Build 0)  -->
<svg version="1.1" id="Layer_1" xmlns="http://www.w3.org/2000/svg" xmlns:xlink="http://www.w3.org/1999/xlink" x="0px" y="0px"
	 viewBox="0 0 100 100" style="enable-background:new 0 0 100 100;" xml:space="preserve">
<style type="text/css">
	.st0{fill:#333333;}
</style>
<title>search - FontAwesome</title>
<desc>Created with Sketch.</desc>
<g id="Style">
	<g id="Icons" transform="translate(-86.000000, -239.000000)">
		<path id="search---FontAwesome" class="st0" d="M154.5,281.6c0-14.2-11.6-25.8-25.8-25.8s-25.8,11.6-25.8,25.8
			s11.6,25.8,25.8,25.8S154.5,295.9,154.5,281.6z M184,329.6c0,4-3.3,7.4-7.4,7.4c-2,0-3.9-0.8-5.2-2.2l-19.8-19.7
			c-6.8,4.7-14.8,7.2-23,7.2c-22.4,0-40.6-18.2-40.6-40.6s18.2-40.6,40.6-40.6s40.6,18.2,40.6,40.6c0,8.2-2.5,16.3-7.2,23l19.8,19.8
			C183.2,325.8,184,327.7,184,329.6z"/>
	</g>
</g>
</svg>
