<?xml version="1.0" encoding="utf-8"?>
<!-- Generator: Adobe Illustrator 22.0.1, SVG Export Plug-In . SVG Version: 6.00 Build 0)  -->
<svg version="1.1" id="Layer_1" xmlns="http://www.w3.org/2000/svg" xmlns:xlink="http://www.w3.org/1999/xlink" x="0px" y="0px"
	 viewBox="0 0 100 100" style="enable-background:new 0 0 100 100;" xml:space="preserve">
<g id="surface1">
	<path d="M6.8,16C4.2,16,2,18.2,2,20.8v57.6c0,2.6,2.2,4.8,4.8,4.8h86.4c2.6,0,4.8-2.2,4.8-4.8V20.8c0-2.6-2.2-4.8-4.8-4.8H6.8z
		 M6.8,19.2h86.4c0.9,0,1.6,0.7,1.6,1.6v0.8L51.9,52.7c-1.1,0.8-2.6,0.8-3.8,0L5.2,21.6v-0.8C5.2,19.9,5.9,19.2,6.8,19.2z M5.2,25.5
		l41,29.7c1.1,0.8,2.4,1.2,3.8,1.2s2.6-0.4,3.8-1.2l41.1-29.7v40.4L68.3,49.8c-0.8-0.5-1.7-0.2-2.2,0.5c-0.5,0.8-0.2,1.7,0.5,2.2
		l28.1,17.1v8.7c0,0.9-0.7,1.6-1.6,1.6H6.8c-0.9,0-1.6-0.7-1.6-1.6v-8.7l28.1-17.1c0.8-0.5,1-1.4,0.5-2.2c-0.5-0.8-1.4-1-2.2-0.5
		L5.2,65.9V25.5z M10,70.4c-0.9,0-1.6,0.7-1.6,1.6v3.2c0,0.9,0.7,1.6,1.6,1.6s1.6-0.7,1.6-1.6V72C11.6,71.1,10.9,70.4,10,70.4z
		 M18,70.4c-0.9,0-1.6,0.7-1.6,1.6v3.2c0,0.9,0.7,1.6,1.6,1.6s1.6-0.7,1.6-1.6V72C19.6,71.1,18.9,70.4,18,70.4z M26,70.4
		c-0.9,0-1.6,0.7-1.6,1.6v3.2c0,0.9,0.7,1.6,1.6,1.6s1.6-0.7,1.6-1.6V72C27.6,71.1,26.9,70.4,26,70.4z M34,70.4
		c-0.9,0-1.6,0.7-1.6,1.6v3.2c0,0.9,0.7,1.6,1.6,1.6s1.6-0.7,1.6-1.6V72C35.6,71.1,34.9,70.4,34,70.4z M42,70.4
		c-0.9,0-1.6,0.7-1.6,1.6v3.2c0,0.9,0.7,1.6,1.6,1.6s1.6-0.7,1.6-1.6V72C43.6,71.1,42.9,70.4,42,70.4z M50,70.4
		c-0.9,0-1.6,0.7-1.6,1.6v3.2c0,0.9,0.7,1.6,1.6,1.6s1.6-0.7,1.6-1.6V72C51.6,71.1,50.9,70.4,50,70.4z M58,70.4
		c-0.9,0-1.6,0.7-1.6,1.6v3.2c0,0.9,0.7,1.6,1.6,1.6s1.6-0.7,1.6-1.6V72C59.6,71.1,58.9,70.4,58,70.4z M66,70.4
		c-0.9,0-1.6,0.7-1.6,1.6v3.2c0,0.9,0.7,1.6,1.6,1.6s1.6-0.7,1.6-1.6V72C67.6,71.1,66.9,70.4,66,70.4z M74,70.4
		c-0.9,0-1.6,0.7-1.6,1.6v3.2c0,0.9,0.7,1.6,1.6,1.6s1.6-0.7,1.6-1.6V72C75.6,71.1,74.9,70.4,74,70.4z M82,70.4
		c-0.9,0-1.6,0.7-1.6,1.6v3.2c0,0.9,0.7,1.6,1.6,1.6s1.6-0.7,1.6-1.6V72C83.6,71.1,82.9,70.4,82,70.4z M90,70.4
		c-0.9,0-1.6,0.7-1.6,1.6v3.2c0,0.9,0.7,1.6,1.6,1.6s1.6-0.7,1.6-1.6V72C91.6,71.1,90.9,70.4,90,70.4z"/>
</g>
</svg>
