<?xml version="1.0" encoding="UTF-8"?>
<svg width="35px" height="35px" viewBox="0 0 35 35" version="1.1" xmlns="http://www.w3.org/2000/svg" xmlns:xlink="http://www.w3.org/1999/xlink">
    <!-- Generator: sketchtool 49.3 (51167) - http://www.bohemiancoding.com/sketch -->
    <title>1FD546B1-D52F-4E22-A676-CEFA855E2E46</title>
    <desc>Created with sketchtool.</desc>
    <defs></defs>
    <g id="Symbols" stroke="none" stroke-width="1" fill="none" fill-rule="evenodd">
        <g id="icon/date/primary" fill="#6EC12D">
            <path d="M29.953125,5.6953125 C30.4584986,5.6953125 30.8843163,5.86844716 31.2305908,6.21472168 C31.5768653,6.5609962 31.75,6.98681388 31.75,7.4921875 L31.75,29.953125 C31.75,30.4397811 31.5768653,30.8609194 31.2305908,31.2165527 C30.8843163,31.572186 30.4584986,31.75 29.953125,31.75 L4.796875,31.75 C4.29150138,31.75 3.8656837,31.572186 3.51940918,31.2165527 C3.17313466,30.8609194 3,30.4397811 3,29.953125 L3,7.4921875 C3,6.98681388 3.17313466,6.5609962 3.51940918,6.21472168 C3.8656837,5.86844716 4.29150138,5.6953125 4.796875,5.6953125 L11.984375,5.6953125 L11.984375,3.8984375 C11.984375,3.65510946 12.073282,3.44454028 12.2510986,3.26672363 C12.4289153,3.08890699 12.6394845,3 12.8828125,3 C13.1261405,3 13.3367097,3.08890699 13.5145264,3.26672363 C13.692343,3.44454028 13.78125,3.65510946 13.78125,3.8984375 L13.78125,5.6953125 L20.96875,5.6953125 L20.96875,3.8984375 C20.96875,3.65510946 21.057657,3.44454028 21.2354736,3.26672363 C21.4132903,3.08890699 21.6238595,3 21.8671875,3 C22.1105155,3 22.3210847,3.08890699 22.4989014,3.26672363 C22.676718,3.44454028 22.765625,3.65510946 22.765625,3.8984375 L22.765625,5.6953125 L29.953125,5.6953125 Z M29.953125,29.953125 L29.953125,7.4921875 L22.765625,7.4921875 L22.765625,8.390625 C22.765625,8.63395304 22.676718,8.84452222 22.4989014,9.02233887 C22.3210847,9.20015551 22.1105155,9.2890625 21.8671875,9.2890625 C21.6238595,9.2890625 21.4132903,9.20015551 21.2354736,9.02233887 C21.057657,8.84452222 20.96875,8.63395304 20.96875,8.390625 L20.96875,7.4921875 L13.78125,7.4921875 L13.78125,8.390625 C13.78125,8.63395304 13.692343,8.84452222 13.5145264,9.02233887 C13.3367097,9.20015551 13.1261405,9.2890625 12.8828125,9.2890625 C12.6394845,9.2890625 12.4289153,9.20015551 12.2510986,9.02233887 C12.073282,8.84452222 11.984375,8.63395304 11.984375,8.390625 L11.984375,7.4921875 L4.796875,7.4921875 L4.796875,29.953125 L29.953125,29.953125 Z M23.6640625,17.375 C23.4207345,17.375 23.2101653,17.286093 23.0323486,17.1082764 C22.854532,16.9304597 22.765625,16.7198905 22.765625,16.4765625 L22.765625,14.6796875 C22.765625,14.4363595 22.854532,14.2257903 23.0323486,14.0479736 C23.2101653,13.870157 23.4207345,13.78125 23.6640625,13.78125 L25.4609375,13.78125 C25.7042655,13.78125 25.9148347,13.870157 26.0926514,14.0479736 C26.270468,14.2257903 26.359375,14.4363595 26.359375,14.6796875 L26.359375,16.4765625 C26.359375,16.7198905 26.270468,16.9304597 26.0926514,17.1082764 C25.9148347,17.286093 25.7042655,17.375 25.4609375,17.375 L23.6640625,17.375 Z M23.6640625,24.5625 C23.4207345,24.5625 23.2101653,24.473593 23.0323486,24.2957764 C22.854532,24.1179597 22.765625,23.9073905 22.765625,23.6640625 L22.765625,21.8671875 C22.765625,21.6238595 22.854532,21.4132903 23.0323486,21.2354736 C23.2101653,21.057657 23.4207345,20.96875 23.6640625,20.96875 L25.4609375,20.96875 C25.7042655,20.96875 25.9148347,21.057657 26.0926514,21.2354736 C26.270468,21.4132903 26.359375,21.6238595 26.359375,21.8671875 L26.359375,23.6640625 C26.359375,23.9073905 26.270468,24.1179597 26.0926514,24.2957764 C25.9148347,24.473593 25.7042655,24.5625 25.4609375,24.5625 L23.6640625,24.5625 Z M18.2734375,20.96875 C18.5167655,20.96875 18.7273347,21.057657 18.9051514,21.2354736 C19.082968,21.4132903 19.171875,21.6238595 19.171875,21.8671875 L19.171875,23.6640625 C19.171875,23.9073905 19.082968,24.1179597 18.9051514,24.2957764 C18.7273347,24.473593 18.5167655,24.5625 18.2734375,24.5625 L16.4765625,24.5625 C16.2332345,24.5625 16.0226653,24.473593 15.8448486,24.2957764 C15.667032,24.1179597 15.578125,23.9073905 15.578125,23.6640625 L15.578125,21.8671875 C15.578125,21.6238595 15.667032,21.4132903 15.8448486,21.2354736 C16.0226653,21.057657 16.2332345,20.96875 16.4765625,20.96875 L18.2734375,20.96875 Z M18.2734375,13.78125 C18.5167655,13.78125 18.7273347,13.870157 18.9051514,14.0479736 C19.082968,14.2257903 19.171875,14.4363595 19.171875,14.6796875 L19.171875,16.4765625 C19.171875,16.7198905 19.082968,16.9304597 18.9051514,17.1082764 C18.7273347,17.286093 18.5167655,17.375 18.2734375,17.375 L16.4765625,17.375 C16.2332345,17.375 16.0226653,17.286093 15.8448486,17.1082764 C15.667032,16.9304597 15.578125,16.7198905 15.578125,16.4765625 L15.578125,14.6796875 C15.578125,14.4363595 15.667032,14.2257903 15.8448486,14.0479736 C16.0226653,13.870157 16.2332345,13.78125 16.4765625,13.78125 L18.2734375,13.78125 Z M11.0859375,13.78125 C11.3292655,13.78125 11.5398347,13.870157 11.7176514,14.0479736 C11.895468,14.2257903 11.984375,14.4363595 11.984375,14.6796875 L11.984375,16.4765625 C11.984375,16.7198905 11.895468,16.9304597 11.7176514,17.1082764 C11.5398347,17.286093 11.3292655,17.375 11.0859375,17.375 L9.2890625,17.375 C9.04573446,17.375 8.83516528,17.286093 8.65734863,17.1082764 C8.47953199,16.9304597 8.390625,16.7198905 8.390625,16.4765625 L8.390625,14.6796875 C8.390625,14.4363595 8.47953199,14.2257903 8.65734863,14.0479736 C8.83516528,13.870157 9.04573446,13.78125 9.2890625,13.78125 L11.0859375,13.78125 Z M11.0859375,20.96875 C11.3292655,20.96875 11.5398347,21.057657 11.7176514,21.2354736 C11.895468,21.4132903 11.984375,21.6238595 11.984375,21.8671875 L11.984375,23.6640625 C11.984375,23.9073905 11.895468,24.1179597 11.7176514,24.2957764 C11.5398347,24.473593 11.3292655,24.5625 11.0859375,24.5625 L9.2890625,24.5625 C9.04573446,24.5625 8.83516528,24.473593 8.65734863,24.2957764 C8.47953199,24.1179597 8.390625,23.9073905 8.390625,23.6640625 L8.390625,21.8671875 C8.390625,21.6238595 8.47953199,21.4132903 8.65734863,21.2354736 C8.83516528,21.057657 9.04573446,20.96875 9.2890625,20.96875 L11.0859375,20.96875 Z" id="calendar---simple-line-icons"></path>
        </g>
    </g>
</svg>
