<?xml version="1.0" encoding="utf-8"?>
<!-- Generator: Adobe Illustrator 22.0.1, SVG Export Plug-In . SVG Version: 6.00 Build 0)  -->
<svg version="1.1" id="Layer_1" xmlns="http://www.w3.org/2000/svg" xmlns:xlink="http://www.w3.org/1999/xlink" x="0px" y="0px"
	 viewBox="0 0 100 100" style="enable-background:new 0 0 100 100;" xml:space="preserve">
<style type="text/css">
	.st0{fill:#333333;}
</style>
<title>star - FontAwesome</title>
<desc>Created with Sketch.</desc>
<g id="Style">
	<g id="Icons" transform="translate(-624.000000, -239.000000)">
		<path id="star---FontAwesome" class="st0" d="M722,278.7c0,1-0.8,2-1.5,2.7l-20.9,20l5,28.2c0.1,0.4,0.1,0.7,0.1,1.1
			c0,1.5-0.7,2.8-2.4,2.8c-0.8,0-1.6-0.3-2.3-0.7L674,319.6l-25.9,13.3c-0.8,0.4-1.5,0.7-2.3,0.7c-1.7,0-2.4-1.4-2.4-2.8
			c0-0.4,0.1-0.7,0.1-1.1l5-28.2l-21-20c-0.7-0.7-1.4-1.7-1.4-2.7c0-1.7,1.8-2.4,3.2-2.6l29-4.1l13-25.7c0.5-1.1,1.5-2.3,2.8-2.3
			s2.3,1.2,2.8,2.3l13,25.7l29,4.1C720.2,276.4,722,277,722,278.7z"/>
	</g>
</g>
</svg>
