<?xml version="1.0" encoding="utf-8"?>
<!-- Generator: Adobe Illustrator 22.0.1, SVG Export Plug-In . SVG Version: 6.00 Build 0)  -->
<svg version="1.1" id="Layer_1" xmlns="http://www.w3.org/2000/svg" xmlns:xlink="http://www.w3.org/1999/xlink" x="0px" y="0px"
	 viewBox="0 0 100 100" style="enable-background:new 0 0 100 100;" xml:space="preserve">
<g id="surface1">
	<path d="M45.6,2L3.2,16.4l7.8,23.1l20.3-6.9l3.8,10.6c-0.2,0.3-0.4,0.7-0.5,1c-0.3,0.2-0.5,0.6-0.6,0.9l-2.8,14.1l-5.8,5.3H13.2
		C7,64.5,2,69.6,2,75.7V98h3.2V75.7c0-4.4,3.5-8,8-8H26c0.4,0,0.8-0.1,1.1-0.4l6.7-6c0.2-0.2,0.4-0.5,0.5-0.9L36.8,47h-1.3
		c0.8,0,1.4-0.5,1.6-1.3c0.2-1.1,1.2-1.9,2.3-1.9c1.3,0,2.4,1.1,2.4,2.4c0,0.1,0,0.3,0,0.5v0c0,0,0,0,0,0c0,0,0,0,0,0L38.9,61
		l1.5,0.3c-0.9-0.1-1.7,0.4-1.8,1.3c-0.1,0.5-0.4,1-0.7,1.3c-0.6,0.6-0.7,1.5-0.2,2.2l-1-1.1L28,72.9c-0.3,0.3-0.5,0.7-0.5,1.2V98
		h3.2V74.8l9.3-8.5c0.3-0.2,0.4-0.6,0.5-1c0.3-0.4,0.5-0.8,0.7-1.3c0.3-0.2,0.5-0.6,0.5-0.9l3.1-15.8c0,0,0,0,0-0.1c0,0,0,0,0,0l0,0
		v0c0-0.1,0-0.2,0-0.3c0-0.2,0.1-0.5,0.1-0.8c0-3.1-2.5-5.6-5.6-5.6c-0.6,0-1.2,0.1-1.8,0.3l-3.4-9.4l12.8-4.3l-2.5,7.3L63.3,41
		l-3.7,10.9c-2.8,0.3-5,2.7-5,5.5c0,0.3,0,0.5,0.1,0.8c0,0.1,0,0.2,0,0.3c0,0,0,0,0,0l0,0c0,0,0,0,0,0c0,0,0,0.1,0,0.1
		c0,0,0-0.1,0,0l3.1,15.7c0.1,0.3,0.3,0.7,0.5,0.9c0.2,0.5,0.4,0.9,0.7,1.3c0.1,0.4,0.2,0.7,0.5,1l9.3,8.5V98h3.2V85.2
		c0-0.4-0.2-0.9-0.5-1.2l-8.7-7.9l-1,1.2c0.6-0.7,0.5-1.6-0.1-2.2c-0.4-0.4-0.7-0.8-0.7-1.3c-0.2-0.9-1-1.4-1.8-1.3l1.5-0.2
		l-2.8-14.3l0,0c0,0,0,0,0,0v0c0-0.2,0-0.3,0-0.5c0-1.3,1.1-2.4,2.4-2.4c1.2,0,2.1,0.8,2.3,1.9c0.1,0.7,0.8,1.3,1.6,1.3h-1.3
		l2.7,13.4c0.1,0.3,0.2,0.6,0.5,0.9l6.7,6c0.3,0.3,0.7,0.4,1.1,0.4h12.8c4.4,0,8,3.5,8,8V98h3.2V86.8c0-6.1-5-11.2-11.2-11.2H74.2
		l-5.8-5.3l-2.8-14.1v0c-0.1-0.4-0.3-0.7-0.5-0.9c-0.5-1.2-1.3-2.2-2.4-2.8L66.3,42L87,49l7.9-23L52.4,11.6l-1.8,5.3L45.6,2z
		 M43.6,6L49,22.2c0,0.1,0.1,0.3,0.1,0.4l0.2,0.6l0,0c-0.1,0-0.3,0.1-0.4,0.1L13,35.5L7.2,18.4L43.6,6z M54.4,15.6L90.8,28L85,45
		L48.6,32.6l2.3-6.6l2.5-0.9l-0.5-1.5l-0.6-1.8L54.4,15.6z M16.3,42.2c-5.3,0-9.6,4.3-9.6,9.6s4.3,9.6,9.6,9.6s9.6-4.3,9.6-9.6
		S21.6,42.2,16.3,42.2z M16.3,45.4c3.5,0,6.4,2.8,6.4,6.4c0,3.5-2.8,6.4-6.4,6.4S10,55.3,10,51.8C10,48.3,12.8,45.4,16.3,45.4z
		 M83.2,53.4c-5.3,0-9.6,4.3-9.6,9.6s4.3,9.6,9.6,9.6s9.6-4.3,9.6-9.6S88.5,53.4,83.2,53.4z M83.2,56.6c3.5,0,6.4,2.8,6.4,6.4
		c0,3.5-2.8,6.4-6.4,6.4s-6.4-2.8-6.4-6.4C76.9,59.4,79.7,56.6,83.2,56.6z M10,75.7c-0.9,0-1.6,0.7-1.6,1.6s0.7,1.6,1.6,1.6
		c0.9,0,1.6-0.7,1.6-1.6S10.8,75.7,10,75.7z M10,82.1c-0.9,0-1.6,0.7-1.6,1.6s0.7,1.6,1.6,1.6c0.9,0,1.6-0.7,1.6-1.6
		S10.8,82.1,10,82.1z M88,82.1c-0.9,0-1.6,0.7-1.6,1.6s0.7,1.6,1.6,1.6s1.6-0.7,1.6-1.6S88.9,82.1,88,82.1z M10,88.4
		c-0.9,0-1.6,0.7-1.6,1.6s0.7,1.6,1.6,1.6c0.9,0,1.6-0.7,1.6-1.6S10.8,88.4,10,88.4z M88,88.4c-0.9,0-1.6,0.7-1.6,1.6
		s0.7,1.6,1.6,1.6s1.6-0.7,1.6-1.6S88.9,88.4,88,88.4z M10,94.8c-0.9,0-1.6,0.7-1.6,1.6S9.1,98,10,98c0.9,0,1.6-0.7,1.6-1.6
		S10.8,94.8,10,94.8z M88,94.8c-0.9,0-1.6,0.7-1.6,1.6S87.1,98,88,98s1.6-0.7,1.6-1.6S88.9,94.8,88,94.8z"/>
</g>
</svg>
