<?xml version="1.0" encoding="UTF-8"?>
<svg width="100px" height="100px" viewBox="0 0 100 100" version="1.1" xmlns="http://www.w3.org/2000/svg" xmlns:xlink="http://www.w3.org/1999/xlink">
    <!-- Generator: sketchtool 49.3 (51167) - http://www.bohemiancoding.com/sketch -->
    <title>2366F89F-E13E-4627-B3AF-182B2FA0C0E4</title>
    <desc>Created with sketchtool.</desc>
    <defs></defs>
    <g id="Symbols" stroke="none" stroke-width="1" fill="none" fill-rule="evenodd">
        <g id="icon/price/ticket">
            <g id="icons8-ticket-(1)" transform="translate(11.000000, 11.000000)">
                <g id="Group" stroke-linejoin="round" transform="translate(0.000000, 12.000000)" fill="#81CA49" fill-rule="nonzero" stroke="#81CA49" stroke-width="0.996">
                    <g id="surface1-1">
                        <path d="M75.296875,0.118534483 C77.3364857,0.118534483 79,1.79584483 79,3.85237069 L79,14.0426316 C79,15.8463471 77.7415175,17.3875261 76.0104989,17.6986807 C71.3044438,18.5543511 67.890625,22.6722675 67.890625,27.5 C67.890625,32.3277325 71.3044438,36.4456489 76.0104989,37.3013193 C77.7415175,37.6124739 79,39.1536529 79,40.9573684 L79,51.1476293 C79,53.2041552 77.3364857,54.8814655 75.296875,54.8814655 L3.703125,54.8814655 C1.66351429,54.8814655 0,53.2041552 0,51.1476293 L0,40.9573684 C0,39.1536529 1.25848254,37.6124739 2.98950107,37.3013193 C7.69555615,36.4456489 11.109375,32.3277325 11.109375,27.5 C11.109375,22.6722675 7.69555615,18.5543511 2.98950107,17.6986807 C1.25848254,17.3875293 0,15.8463471 0,14.0426316 L0,3.85237069 C0,1.79584483 1.66351429,0.118534483 3.703125,0.118534483 L75.296875,0.118534483 Z M2.46875,3.85237069 L2.46875,14.0426316 C2.46875,14.6406302 2.87377861,15.146254 3.42828337,15.2483486 C9.31085222,16.3130759 13.578125,21.4665474 13.578125,27.5 C13.578125,33.5334526 9.31085222,38.6820626 3.42828337,39.7516514 C2.87377861,39.8488876 2.46875,40.359373 2.46875,40.9573684 L2.46875,51.1476293 C2.46875,51.8331379 3.02325476,52.3922414 3.703125,52.3922414 L17.28125,52.3922414 C17.28125,51.7018713 17.8357548,51.1476293 18.515625,51.1476293 L20.984375,51.1476293 C21.6642452,51.1476293 22.21875,51.7018713 22.21875,52.3922414 L75.296875,52.3922414 C75.9767452,52.3922414 76.53125,51.8331379 76.53125,51.1476293 L76.53125,40.9573684 C76.53125,40.3593698 76.1262214,39.853746 75.5717166,39.7516514 C69.6891478,38.6869241 65.421875,33.5334526 65.421875,27.5 C65.421875,21.4665474 69.6891478,16.3179374 75.5717166,15.2483486 C76.1262214,15.1511124 76.53125,14.640627 76.53125,14.0426316 L76.53125,3.85237069 C76.53125,3.16686207 75.9767452,2.60775862 75.296875,2.60775862 L22.21875,2.60775862 C22.21875,3.29812874 21.6642452,3.85237069 20.984375,3.85237069 L18.515625,3.85237069 C17.8357548,3.85237069 17.28125,3.29812874 17.28125,2.60775862 L3.703125,2.60775862 C3.02325476,2.60775862 2.46875,3.16686207 2.46875,3.85237069 Z M27.15625,6.34159483 L27.15625,48.6584052 C27.15625,49.3487753 26.6017452,49.9030172 25.921875,49.9030172 C25.2420048,49.9030172 24.6875,49.3487753 24.6875,48.6584052 L24.6875,6.34159483 C24.6875,5.65122471 25.2420048,5.09698276 25.921875,5.09698276 C26.6017452,5.09698276 27.15625,5.65122471 27.15625,6.34159483 Z M20.984375,7.5862069 C21.6642452,7.5862069 22.21875,8.14044885 22.21875,8.83081897 C22.21875,9.52118908 21.6642452,10.075431 20.984375,10.075431 L18.515625,10.075431 C17.8357548,10.075431 17.28125,9.52118908 17.28125,8.83081897 C17.28125,8.14044885 17.8357548,7.5862069 18.515625,7.5862069 L20.984375,7.5862069 Z M20.984375,13.8092672 C21.6642452,13.8092672 22.21875,14.3635092 22.21875,15.0538793 C22.21875,15.7442494 21.6642452,16.2984914 20.984375,16.2984914 L18.515625,16.2984914 C17.8357548,16.2984914 17.28125,15.7442494 17.28125,15.0538793 C17.28125,14.3635092 17.8357548,13.8092672 18.515625,13.8092672 L20.984375,13.8092672 Z M20.984375,20.0323276 C21.6642452,20.0323276 22.21875,20.5865695 22.21875,21.2769397 C22.21875,21.9673098 21.6642452,22.5215517 20.984375,22.5215517 L18.515625,22.5215517 C17.8357548,22.5215517 17.28125,21.9673098 17.28125,21.2769397 C17.28125,20.5865695 17.8357548,20.0323276 18.515625,20.0323276 L20.984375,20.0323276 Z M58.015625,22.5215517 C58.7003167,22.5215517 59.25,23.0806552 59.25,23.7661638 C59.25,24.4516724 58.7003167,25.0107759 58.015625,25.0107759 L33.328125,25.0107759 C32.6434333,25.0107759 32.09375,24.4516724 32.09375,23.7661638 C32.09375,23.0806552 32.6434333,22.5215517 33.328125,22.5215517 L58.015625,22.5215517 Z M20.984375,26.2553879 C21.6642452,26.2553879 22.21875,26.8096299 22.21875,27.5 C22.21875,28.1903701 21.6642452,28.7446121 20.984375,28.7446121 L18.515625,28.7446121 C17.8357548,28.7446121 17.28125,28.1903701 17.28125,27.5 C17.28125,26.8096299 17.8357548,26.2553879 18.515625,26.2553879 L20.984375,26.2553879 Z M43.203125,29.9892241 C43.8878167,29.9892241 44.4375,30.5483276 44.4375,31.2338362 C44.4375,31.9193448 43.8878167,32.4784483 43.203125,32.4784483 L33.328125,32.4784483 C32.6434333,32.4784483 32.09375,31.9193448 32.09375,31.2338362 C32.09375,30.5483276 32.6434333,29.9892241 33.328125,29.9892241 L43.203125,29.9892241 Z M53.078125,29.9892241 C53.7628167,29.9892241 54.3125,30.5483276 54.3125,31.2338362 C54.3125,31.9193448 53.7628167,32.4784483 53.078125,32.4784483 L48.140625,32.4784483 C47.4559333,32.4784483 46.90625,31.9193448 46.90625,31.2338362 C46.90625,30.5483276 47.4559333,29.9892241 48.140625,29.9892241 L53.078125,29.9892241 Z M20.984375,32.4784483 C21.6642452,32.4784483 22.21875,33.0326902 22.21875,33.7230603 C22.21875,34.4134305 21.6642452,34.9676724 20.984375,34.9676724 L18.515625,34.9676724 C17.8357548,34.9676724 17.28125,34.4134305 17.28125,33.7230603 C17.28125,33.0326902 17.8357548,32.4784483 18.515625,32.4784483 L20.984375,32.4784483 Z M20.984375,38.7015086 C21.6642452,38.7015086 22.21875,39.2557506 22.21875,39.9461207 C22.21875,40.6364908 21.6642452,41.1907328 20.984375,41.1907328 L18.515625,41.1907328 C17.8357548,41.1907328 17.28125,40.6364908 17.28125,39.9461207 C17.28125,39.2557506 17.8357548,38.7015086 18.515625,38.7015086 L20.984375,38.7015086 Z M20.984375,44.924569 C21.6642452,44.924569 22.21875,45.4788109 22.21875,46.169181 C22.21875,46.8595511 21.6642452,47.4137931 20.984375,47.4137931 L18.515625,47.4137931 C17.8357548,47.4137931 17.28125,46.8595511 17.28125,46.169181 C17.28125,45.4788109 17.8357548,44.924569 18.515625,44.924569 L20.984375,44.924569 Z" id="Shape"></path>
                    </g>
                </g>
                <polygon id="Shape" points="0 79 0 0 79 0 79 79"></polygon>
                <g id="Group" transform="translate(0.000000, 12.000000)" fill="#81CA49" fill-rule="nonzero">
                    <g id="surface1">
                        <path d="M3.703125,0.118534483 C1.66351429,0.118534483 0,1.79584483 0,3.85237069 L0,14.0426316 C0,15.8463471 1.25848254,17.3875261 2.98950107,17.6986807 C7.69555615,18.5543511 11.109375,22.6722675 11.109375,27.5 C11.109375,32.3277325 7.69555615,36.4456489 2.98950107,37.3013193 C1.25848254,37.6124739 0,39.1536529 0,40.9573684 L0,51.1476293 C0,53.2041552 1.66351429,54.8814655 3.703125,54.8814655 L75.296875,54.8814655 C77.3364857,54.8814655 79,53.2041552 79,51.1476293 L79,40.9573684 C79,39.1536529 77.7415175,37.6124739 76.0104989,37.3013193 C71.3044438,36.4456489 67.890625,32.3277325 67.890625,27.5 C67.890625,22.6722675 71.3044438,18.5543511 76.0104989,17.6986807 C77.7415175,17.3875293 79,15.8463471 79,14.0426316 L79,3.85237069 C79,1.79584483 77.3364857,0.118534483 75.296875,0.118534483 L3.703125,0.118534483 Z M3.703125,2.60775862 L17.28125,2.60775862 C17.28125,3.29812874 17.8357548,3.85237069 18.515625,3.85237069 L20.984375,3.85237069 C21.6642452,3.85237069 22.21875,3.29812874 22.21875,2.60775862 L75.296875,2.60775862 C75.9767452,2.60775862 76.53125,3.16686207 76.53125,3.85237069 L76.53125,14.0426316 C76.53125,14.6406302 76.1262214,15.1511155 75.5717166,15.2483486 C69.6891478,16.3179374 65.421875,21.4665474 65.421875,27.5 C65.421875,33.5334526 69.6891478,38.6869241 75.5717166,39.7516514 C76.1262214,39.8537491 76.53125,40.359373 76.53125,40.9573684 L76.53125,51.1476293 C76.53125,51.8331379 75.9767452,52.3922414 75.296875,52.3922414 L22.21875,52.3922414 C22.21875,51.7018713 21.6642452,51.1476293 20.984375,51.1476293 L18.515625,51.1476293 C17.8357548,51.1476293 17.28125,51.7018713 17.28125,52.3922414 L3.703125,52.3922414 C3.02325476,52.3922414 2.46875,51.8331379 2.46875,51.1476293 L2.46875,40.9573684 C2.46875,40.3593698 2.87377861,39.8488845 3.42828337,39.7516514 C9.31085222,38.6820626 13.578125,33.5334526 13.578125,27.5 C13.578125,21.4665474 9.31085222,16.3130759 3.42828337,15.2483486 C2.87377861,15.1462509 2.46875,14.640627 2.46875,14.0426316 L2.46875,3.85237069 C2.46875,3.16686207 3.02325476,2.60775862 3.703125,2.60775862 Z M25.921875,5.09698276 C25.2420048,5.09698276 24.6875,5.65122471 24.6875,6.34159483 L24.6875,48.6584052 C24.6875,49.3487753 25.2420048,49.9030172 25.921875,49.9030172 C26.6017452,49.9030172 27.15625,49.3487753 27.15625,48.6584052 L27.15625,6.34159483 C27.15625,5.65122471 26.6017452,5.09698276 25.921875,5.09698276 Z M18.515625,7.5862069 C17.8357548,7.5862069 17.28125,8.14044885 17.28125,8.83081897 C17.28125,9.52118908 17.8357548,10.075431 18.515625,10.075431 L20.984375,10.075431 C21.6642452,10.075431 22.21875,9.52118908 22.21875,8.83081897 C22.21875,8.14044885 21.6642452,7.5862069 20.984375,7.5862069 L18.515625,7.5862069 Z M18.515625,13.8092672 C17.8357548,13.8092672 17.28125,14.3635092 17.28125,15.0538793 C17.28125,15.7442494 17.8357548,16.2984914 18.515625,16.2984914 L20.984375,16.2984914 C21.6642452,16.2984914 22.21875,15.7442494 22.21875,15.0538793 C22.21875,14.3635092 21.6642452,13.8092672 20.984375,13.8092672 L18.515625,13.8092672 Z M18.515625,20.0323276 C17.8357548,20.0323276 17.28125,20.5865695 17.28125,21.2769397 C17.28125,21.9673098 17.8357548,22.5215517 18.515625,22.5215517 L20.984375,22.5215517 C21.6642452,22.5215517 22.21875,21.9673098 22.21875,21.2769397 C22.21875,20.5865695 21.6642452,20.0323276 20.984375,20.0323276 L18.515625,20.0323276 Z M33.328125,22.5215517 C32.6434333,22.5215517 32.09375,23.0806552 32.09375,23.7661638 C32.09375,24.4516724 32.6434333,25.0107759 33.328125,25.0107759 L58.015625,25.0107759 C58.7003167,25.0107759 59.25,24.4516724 59.25,23.7661638 C59.25,23.0806552 58.7003167,22.5215517 58.015625,22.5215517 L33.328125,22.5215517 Z M18.515625,26.2553879 C17.8357548,26.2553879 17.28125,26.8096299 17.28125,27.5 C17.28125,28.1903701 17.8357548,28.7446121 18.515625,28.7446121 L20.984375,28.7446121 C21.6642452,28.7446121 22.21875,28.1903701 22.21875,27.5 C22.21875,26.8096299 21.6642452,26.2553879 20.984375,26.2553879 L18.515625,26.2553879 Z M33.328125,29.9892241 C32.6434333,29.9892241 32.09375,30.5483276 32.09375,31.2338362 C32.09375,31.9193448 32.6434333,32.4784483 33.328125,32.4784483 L43.203125,32.4784483 C43.8878167,32.4784483 44.4375,31.9193448 44.4375,31.2338362 C44.4375,30.5483276 43.8878167,29.9892241 43.203125,29.9892241 L33.328125,29.9892241 Z M48.140625,29.9892241 C47.4559333,29.9892241 46.90625,30.5483276 46.90625,31.2338362 C46.90625,31.9193448 47.4559333,32.4784483 48.140625,32.4784483 L53.078125,32.4784483 C53.7628167,32.4784483 54.3125,31.9193448 54.3125,31.2338362 C54.3125,30.5483276 53.7628167,29.9892241 53.078125,29.9892241 L48.140625,29.9892241 Z M18.515625,32.4784483 C17.8357548,32.4784483 17.28125,33.0326902 17.28125,33.7230603 C17.28125,34.4134305 17.8357548,34.9676724 18.515625,34.9676724 L20.984375,34.9676724 C21.6642452,34.9676724 22.21875,34.4134305 22.21875,33.7230603 C22.21875,33.0326902 21.6642452,32.4784483 20.984375,32.4784483 L18.515625,32.4784483 Z M18.515625,38.7015086 C17.8357548,38.7015086 17.28125,39.2557506 17.28125,39.9461207 C17.28125,40.6364908 17.8357548,41.1907328 18.515625,41.1907328 L20.984375,41.1907328 C21.6642452,41.1907328 22.21875,40.6364908 22.21875,39.9461207 C22.21875,39.2557506 21.6642452,38.7015086 20.984375,38.7015086 L18.515625,38.7015086 Z M18.515625,44.924569 C17.8357548,44.924569 17.28125,45.4788109 17.28125,46.169181 C17.28125,46.8595511 17.8357548,47.4137931 18.515625,47.4137931 L20.984375,47.4137931 C21.6642452,47.4137931 22.21875,46.8595511 22.21875,46.169181 C22.21875,45.4788109 21.6642452,44.924569 20.984375,44.924569 L18.515625,44.924569 Z" id="Shape"></path>
                    </g>
                </g>
            </g>
        </g>
    </g>
</svg>
