<?xml version="1.0" encoding="utf-8"?>
<!-- Generator: Adobe Illustrator 22.0.1, SVG Export Plug-In . SVG Version: 6.00 Build 0)  -->
<svg version="1.1" id="Layer_1" xmlns="http://www.w3.org/2000/svg" xmlns:xlink="http://www.w3.org/1999/xlink" x="0px" y="0px"
	 viewBox="0 0 100 100" style="enable-background:new 0 0 100 100;" xml:space="preserve">
<style type="text/css">
	.st0{fill:#333333;}
</style>
<title>twitter - FontAwesome</title>
<desc>Created with Sketch.</desc>
<g id="Style">
	<g id="Icons" transform="translate(-871.000000, -242.000000)">
		<path id="twitter---FontAwesome" class="st0" d="M969,264c-2.7,3.8-6,7.1-9.9,9.8c0.1,0.8,0.1,1.6,0.1,2.5
			c0,25.2-19.8,54.2-56,54.2c-11.1,0-21.5-3.1-30.2-8.5c1.6,0.2,3.1,0.2,4.8,0.2c9.2,0,17.7-3,24.4-8.1c-8.6-0.2-15.9-5.7-18.4-13.2
			c1.2,0.2,2.4,0.3,3.7,0.3c1.8,0,3.5-0.2,5.2-0.6c-9-1.8-15.8-9.4-15.8-18.7v-0.2c2.6,1.4,5.7,2.3,8.9,2.4
			c-5.3-3.4-8.8-9.3-8.8-15.9c0-3.5,1-6.8,2.7-9.6c9.7,11.5,24.2,19.1,40.6,19.9c-0.3-1.4-0.5-2.9-0.5-4.4c0-10.5,8.8-19,19.7-19
			c5.7,0,10.8,2.3,14.4,6c4.4-0.8,8.7-2.4,12.5-4.6c-1.5,4.4-4.6,8.1-8.6,10.5C961.6,266.5,965.5,265.4,969,264z"/>
	</g>
</g>
</svg>
