<?xml version="1.0" encoding="utf-8"?>
<!-- Generator: Adobe Illustrator 22.0.1, SVG Export Plug-In . SVG Version: 6.00 Build 0)  -->
<svg version="1.1" id="Layer_1" xmlns="http://www.w3.org/2000/svg" xmlns:xlink="http://www.w3.org/1999/xlink" x="0px" y="0px"
	 viewBox="0 0 100 100" style="enable-background:new 0 0 100 100;" xml:space="preserve">
<style type="text/css">
	.st0{fill:#333333;}
</style>
<title>user-circle-o - FontAwesome</title>
<desc>Created with Sketch.</desc>
<g id="Style">
	<g id="Icons" transform="translate(-680.000000, -233.000000)">
		<path id="user-circle-o---FontAwesome" class="st0" d="M730,235c26.5,0,48,21.5,48,48c0,26.4-21.4,48-48,48c-26.6,0-48-21.6-48-48
			C682,256.5,703.5,235,730,235z M763.2,307.4c5-6.9,8-15.3,8-24.4c0-22.7-18.5-41.1-41.1-41.1s-41.1,18.5-41.1,41.1
			c0,9.1,3,17.5,8,24.4c1.9-9.6,6.6-17.5,16.4-17.5c4.3,4.2,10.2,6.9,16.8,6.9s12.4-2.6,16.8-6.9
			C756.6,289.9,761.2,297.8,763.2,307.4z M750.6,272.7c0,11.4-9.2,20.6-20.6,20.6s-20.6-9.2-20.6-20.6c0-11.4,9.2-20.6,20.6-20.6
			S750.6,261.4,750.6,272.7z"/>
	</g>
</g>
</svg>
