<?xml version="1.0" encoding="UTF-8"?>
<svg width="35px" height="35px" viewBox="0 0 35 35" version="1.1" xmlns="http://www.w3.org/2000/svg" xmlns:xlink="http://www.w3.org/1999/xlink">
    <!-- Generator: sketchtool 49.3 (51167) - http://www.bohemiancoding.com/sketch -->
    <title>33B8BDB7-78BE-41E1-BF36-C607812617A0</title>
    <desc>Created with sketchtool.</desc>
    <defs></defs>
    <g id="Symbol" stroke="none" stroke-width="1" fill="none" fill-rule="evenodd">
        <g id="icon/profile/gray" fill="#9B9B9B" fill-rule="nonzero">
            <g id="account" transform="translate(5.000000, 3.000000)">
                <path d="M13,0 C7.9878903,0 3.9,4.0878903 3.9,9.1 C3.9,12.2332028 5.4996097,15.0160153 7.921875,16.65625 C3.2855472,18.646875 0,23.2476569 0,28.6 L2.6,28.6 C2.6,25.309375 4.1234375,22.3792972 6.5,20.475 L12.10625,25.634375 L13,26.4875 L13.89375,25.634375 L19.5,20.475 C21.8765625,22.3792972 23.4,25.309375 23.4,28.6 L26,28.6 C26,23.2476569 22.7144528,18.646875 18.078125,16.65625 C20.5003903,15.0160153 22.1,12.2332028 22.1,9.1 C22.1,4.0878903 18.0121097,0 13,0 Z M13,2.6 C16.6054694,2.6 19.5,5.4945319 19.5,9.1 C19.5,12.7054694 16.6054694,15.6 13,15.6 C9.3945319,15.6 6.5,12.7054694 6.5,9.1 C6.5,5.4945319 9.3945319,2.6 13,2.6 Z M13,18.2 C14.4878903,18.2 15.9097653,18.4945319 17.184375,19.053125 L13,22.953125 L8.815625,19.053125 C10.0902347,18.4945319 11.5121097,18.2 13,18.2 Z" id="Shape"></path>
            </g>
        </g>
    </g>
</svg>
