<?xml version="1.0" encoding="utf-8"?>
<!-- Generator: Adobe Illustrator 22.0.1, SVG Export Plug-In . SVG Version: 6.00 Build 0)  -->
<svg version="1.1" id="Layer_1" xmlns="http://www.w3.org/2000/svg" xmlns:xlink="http://www.w3.org/1999/xlink" x="0px" y="0px"
	 viewBox="0 0 100 100" style="enable-background:new 0 0 100 100;" xml:space="preserve">
<g id="surface1">
	<path d="M50,2c-6.2,0-12,3-15.6,8c-0.4,0.5-1,0.8-1.6,0.7c-1-0.2-2.1-0.3-3.2-0.3c-5.1,0-9.9,2-13.6,5.6
		c-4.4,4.4-6.4,10.6-5.4,16.7c0.1,0.6-0.1,1.2-0.6,1.6C5,38,2,43.8,2,50s3,12,8,15.6c0.5,0.4,0.8,1,0.7,1.6c-1,6.1,1,12.4,5.4,16.7
		c3.6,3.6,8.4,5.6,13.6,5.6c1.1,0,2.1-0.1,3.2-0.3c0.6-0.1,1.2,0.1,1.6,0.6C38,95,43.8,98,50,98s12-3,15.6-8c0.4-0.5,1-0.8,1.6-0.7
		c1,0.2,2.1,0.3,3.2,0.3c5.1,0,9.9-2,13.6-5.6c4.4-4.4,6.4-10.6,5.4-16.7c-0.1-0.6,0.1-1.2,0.6-1.6C95,62,98,56.2,98,50
		s-3-12-8-15.6c-0.5-0.4-0.8-1-0.7-1.6c1-6.1-1-12.4-5.4-16.7c-3.6-3.6-8.4-5.6-13.6-5.6c-1.1,0-2.1,0.1-3.2,0.3
		c-0.6,0.1-1.2-0.1-1.6-0.6C62,5,56.2,2,50,2z M50,5.2c5.2,0,10,2.5,13,6.7c1.1,1.5,2.9,2.3,4.7,1.9c0.9-0.1,1.8-0.2,2.6-0.2
		c4.3,0,8.3,1.7,11.3,4.7c3.6,3.6,5.3,8.9,4.5,14c-0.3,1.8,0.4,3.6,1.9,4.7c4.2,3,6.7,7.9,6.7,13s-2.5,10-6.7,13
		c-1.5,1.1-2.2,2.9-1.9,4.7c0.8,5.1-0.8,10.3-4.5,14c-3,3-7,4.7-11.3,4.7c-0.9,0-1.8-0.1-2.6-0.2c-1.8-0.3-3.6,0.5-4.7,1.9
		c-3,4.2-7.9,6.7-13,6.7s-10-2.5-13-6.7c-0.9-1.3-2.4-2-3.9-2c-0.3,0-0.5,0-0.8,0.1c-0.9,0.1-1.8,0.2-2.6,0.2
		c-4.3,0-8.3-1.7-11.3-4.7c-3.6-3.6-5.3-8.9-4.5-14c0.3-1.8-0.4-3.6-1.9-4.7c-4.2-3-6.7-7.9-6.7-13s2.5-10,6.7-13
		c1.5-1.1,2.2-2.9,1.9-4.7c-0.8-5.1,0.8-10.3,4.5-14c3-3,7-4.7,11.3-4.7c0.9,0,1.8,0.1,2.6,0.2c1.8,0.3,3.7-0.5,4.7-1.9
		C40,7.7,44.8,5.2,50,5.2z M50,16.4c-0.9,0-1.6,0.7-1.6,1.6v3.2c0,0.9,0.7,1.6,1.6,1.6s1.6-0.7,1.6-1.6V18
		C51.6,17.1,50.9,16.4,50,16.4z M41.9,17.5c-0.2,0-0.4,0-0.6,0c-0.8,0.2-1.4,1.1-1.1,2l0.8,3.1c0.2,0.7,0.8,1.2,1.5,1.2
		c0.1,0,0.3,0,0.4-0.1c0.9-0.2,1.4-1.1,1.1-2l-0.8-3.1C43.1,18,42.6,17.6,41.9,17.5z M58.1,17.5c-0.6,0.1-1.2,0.5-1.3,1.2l-0.8,3.1
		c-0.2,0.9,0.3,1.7,1.1,2c0.1,0,0.3,0.1,0.4,0.1c0.7,0,1.4-0.5,1.5-1.2l0.8-3.1c0.2-0.9-0.3-1.7-1.1-2
		C58.5,17.5,58.3,17.5,58.1,17.5z M33.8,20.7c-0.2,0-0.4,0.1-0.6,0.2c-0.8,0.4-1,1.4-0.6,2.2l1.6,2.8c0.3,0.5,0.8,0.8,1.4,0.8
		c0.3,0,0.6-0.1,0.8-0.2c0.8-0.4,1-1.4,0.6-2.2l-1.6-2.8C35,20.9,34.4,20.6,33.8,20.7z M66.2,20.7c-0.6-0.1-1.3,0.2-1.6,0.8L63,24.3
		c-0.4,0.8-0.2,1.7,0.6,2.2c0.2,0.1,0.5,0.2,0.8,0.2c0.5,0,1.1-0.3,1.4-0.8l1.6-2.8c0.4-0.8,0.2-1.7-0.6-2.2
		C66.6,20.8,66.4,20.7,66.2,20.7z M27.4,25.8c-0.4,0-0.8,0.1-1.1,0.5c-0.6,0.6-0.6,1.6,0,2.3l2.3,2.3c0.3,0.3,0.7,0.5,1.1,0.5
		c0.4,0,0.8-0.2,1.1-0.5c0.6-0.6,0.6-1.6,0-2.3l-2.3-2.3C28.2,25.9,27.8,25.8,27.4,25.8z M72.6,25.8c-0.4,0-0.8,0.2-1.1,0.5
		l-2.3,2.3c-0.6,0.6-0.6,1.6,0,2.3c0.3,0.3,0.7,0.5,1.1,0.5c0.4,0,0.8-0.2,1.1-0.5l2.3-2.3c0.6-0.6,0.6-1.6,0-2.3
		C73.4,25.9,73,25.8,72.6,25.8z M22.5,32.4c-0.6-0.1-1.2,0.2-1.6,0.8c-0.4,0.8-0.2,1.7,0.6,2.2l2.8,1.6c0.2,0.1,0.5,0.2,0.8,0.2
		c0.6,0,1.1-0.3,1.4-0.8c0.4-0.8,0.2-1.7-0.6-2.2l-2.8-1.6C22.9,32.5,22.7,32.4,22.5,32.4z M77.5,32.4c-0.2,0-0.4,0.1-0.6,0.2
		l-2.8,1.6c-0.8,0.4-1,1.4-0.6,2.2c0.3,0.5,0.8,0.8,1.4,0.8c0.3,0,0.6-0.1,0.8-0.2l2.8-1.6c0.8-0.4,1-1.4,0.6-2.2
		C78.8,32.6,78.1,32.3,77.5,32.4z M69.2,37.2c-0.4,0-0.8,0.2-1.1,0.5L45.2,60.5L33.5,48.9c-0.6-0.6-1.6-0.6-2.3,0s-0.6,1.6,0,2.3
		l12.8,12.8c0.3,0.3,0.7,0.5,1.1,0.5c0.4,0,0.8-0.2,1.1-0.5l24-24c0.6-0.6,0.6-1.6,0-2.3C70,37.4,69.6,37.2,69.2,37.2z M81.1,40.1
		c-0.2,0-0.4,0-0.6,0L77.4,41c-0.8,0.2-1.4,1.1-1.1,2c0.2,0.7,0.8,1.2,1.5,1.2c0.1,0,0.3,0,0.4-0.1l3.1-0.8c0.9-0.2,1.4-1.1,1.1-2
		C82.3,40.7,81.8,40.2,81.1,40.1z M18.9,40.1c-0.6,0.1-1.2,0.5-1.3,1.2c-0.2,0.9,0.3,1.7,1.1,2l3.1,0.8c0.1,0,0.3,0.1,0.4,0.1
		c0.7,0,1.4-0.5,1.5-1.2c0.2-0.9-0.3-1.7-1.1-2l-3.1-0.8C19.3,40.1,19.1,40.1,18.9,40.1z M18,48.4c-0.9,0-1.6,0.7-1.6,1.6
		s0.7,1.6,1.6,1.6h3.2c0.9,0,1.6-0.7,1.6-1.6s-0.7-1.6-1.6-1.6H18z M78.8,48.4c-0.9,0-1.6,0.7-1.6,1.6s0.7,1.6,1.6,1.6H82
		c0.9,0,1.6-0.7,1.6-1.6s-0.7-1.6-1.6-1.6H78.8z M22.4,55.9c-0.2,0-0.4,0-0.6,0l-3.1,0.8c-0.8,0.2-1.4,1.1-1.1,2
		c0.2,0.7,0.8,1.2,1.5,1.2c0.1,0,0.3,0,0.4-0.1l3.1-0.8c0.9-0.2,1.4-1.1,1.1-2C23.6,56.4,23,56,22.4,55.9z M77.6,55.9
		C77,56,76.4,56.4,76.3,57c-0.2,0.9,0.3,1.7,1.1,2l3.1,0.8c0.1,0,0.3,0.1,0.4,0.1c0.7,0,1.4-0.5,1.5-1.2c0.2-0.9-0.3-1.7-1.1-2
		l-3.1-0.8C78,55.8,77.8,55.8,77.6,55.9z M24.9,62.8c-0.2,0-0.4,0.1-0.6,0.2l-2.8,1.6c-0.8,0.4-1,1.4-0.6,2.2
		c0.3,0.5,0.8,0.8,1.4,0.8c0.3,0,0.5-0.1,0.8-0.2l2.8-1.6c0.8-0.4,1-1.4,0.6-2.2C26.1,63,25.5,62.7,24.9,62.8z M75.1,62.8
		c-0.6-0.1-1.3,0.2-1.6,0.8c-0.4,0.8-0.2,1.7,0.6,2.2l2.8,1.6c0.2,0.2,0.5,0.2,0.8,0.2c0.6,0,1.1-0.3,1.4-0.8
		c0.4-0.8,0.2-1.7-0.6-2.2L75.7,63C75.6,62.9,75.3,62.8,75.1,62.8z M29.6,68.8c-0.4,0-0.8,0.2-1.1,0.5l-2.3,2.3
		c-0.6,0.6-0.6,1.6,0,2.3c0.3,0.3,0.7,0.5,1.1,0.5c0.4,0,0.8-0.2,1.1-0.5l2.3-2.3c0.6-0.6,0.6-1.6,0-2.3
		C30.5,68.9,30,68.8,29.6,68.8z M70.4,68.8c-0.4,0-0.8,0.2-1.1,0.5c-0.6,0.6-0.6,1.6,0,2.3l2.3,2.3c0.3,0.3,0.7,0.5,1.1,0.5
		c0.4,0,0.8-0.2,1.1-0.5c0.6-0.6,0.6-1.6,0-2.3l-2.3-2.3C71.2,68.9,70.8,68.8,70.4,68.8z M35.8,73.3c-0.6-0.1-1.2,0.2-1.6,0.8
		l-1.6,2.8c-0.4,0.8-0.2,1.7,0.6,2.2c0.2,0.1,0.5,0.2,0.8,0.2c0.5,0,1.1-0.3,1.4-0.8l1.6-2.8c0.4-0.8,0.2-1.7-0.6-2.2
		C36.2,73.4,36,73.4,35.8,73.3z M64.2,73.3c-0.2,0-0.4,0.1-0.6,0.2c-0.8,0.4-1,1.4-0.6,2.2l1.6,2.8c0.3,0.5,0.8,0.8,1.4,0.8
		c0.3,0,0.6-0.1,0.8-0.2c0.8-0.4,1-1.4,0.6-2.2l-1.6-2.8C65.4,73.6,64.8,73.3,64.2,73.3z M42.3,76.2c-0.6,0.1-1.2,0.5-1.3,1.2
		l-0.8,3.1c-0.2,0.8,0.3,1.7,1.1,2c0.1,0,0.3,0.1,0.4,0.1c0.7,0,1.4-0.5,1.5-1.2l0.8-3.1c0.2-0.8-0.3-1.7-1.1-2
		C42.7,76.2,42.5,76.2,42.3,76.2z M57.7,76.2c-0.2,0-0.4,0-0.6,0c-0.9,0.2-1.4,1.1-1.1,2l0.8,3.1c0.2,0.7,0.8,1.2,1.5,1.2
		c0.1,0,0.3,0,0.4-0.1c0.8-0.2,1.4-1.1,1.1-2L59,77.4C58.8,76.8,58.3,76.3,57.7,76.2z M50,77.2c-0.9,0-1.6,0.7-1.6,1.6V82
		c0,0.9,0.7,1.6,1.6,1.6s1.6-0.7,1.6-1.6v-3.2C51.6,77.9,50.9,77.2,50,77.2z"/>
</g>
</svg>
