<?xml version="1.0" encoding="UTF-8"?>
<svg width="250px" height="185px" viewBox="0 0 250 185" version="1.1" xmlns="http://www.w3.org/2000/svg" xmlns:xlink="http://www.w3.org/1999/xlink">
    <!-- Generator: sketchtool 49.3 (51167) - http://www.bohemiancoding.com/sketch -->
    <title>7A975827-BF29-465E-9EF9-CDAC3F0C28AD</title>
    <desc>Created with sketchtool.</desc>
    <defs>
        <polygon id="path-1" points="0 184.580499 249.8125 184.580499 249.8125 0.0226530612 0 0.0226530612"></polygon>
    </defs>
    <g id="✅8.0-lead-channel" stroke="none" stroke-width="1" fill="none" fill-rule="evenodd">
        <g id="8.0.1-appointment" transform="translate(-319.000000, -698.000000)">
            <g id="appointment-pic" transform="translate(319.000000, 698.000000)">
                <path d="M208.145735,152.380137 C208.145735,154.065273 169.350127,155.430749 121.492863,155.430749 C73.6351774,155.430749 34.8395693,154.065273 34.8395693,152.380137 C34.8395693,150.695001 73.6351774,149.329525 121.492863,149.329525 C169.350127,149.329525 208.145735,150.695001 208.145735,152.380137" id="Fill-1" fill="#DFE5CB"></path>
                <polygon id="Fill-3" fill="#6EC12D" points="81.8298142 82.3573016 124.659628 82.3573016 124.659628 73.1517687 81.8298142 73.1517687"></polygon>
                <polygon id="Fill-4" fill="#6EC12D" points="81.8298142 72.165941 124.659628 72.165941 124.659628 62.9604082 81.8298142 62.9604082"></polygon>
                <polygon id="Fill-5" fill="#BBBDBF" points="80.558277 78.4244785 81.8298142 78.4244785 81.8298142 67.523322 80.558277 67.523322"></polygon>
                <polygon id="Fill-6" fill="#BBBDBF" points="124.592483 78.4244785 125.86402 78.4244785 125.86402 67.523322 124.592483 67.523322"></polygon>
                <g id="Group-62" transform="translate(0.000000, 0.396848)">
                    <path d="M33.5043497,37.5147698 C33.5043497,40.3791236 34.0018159,43.9012551 32.2083193,46.4027404 C31.8269848,46.9346678 36.5769848,47.5588855 37.8945524,48.1852007 C38.2822213,48.3693617 44.9118666,51.2106429 44.3464105,50.2655068 C42.3050253,46.8503481 43.3751267,42.000076 43.2936233,42.0529331 C42.2302787,42.743432 34.074451,37.216924 33.5043497,37.5147698" id="Fill-7" fill="#FBD2C0"></path>
                    <path d="M54.989147,15.1145 C54.8920186,15.5096701 57.1462416,23.4004864 57.3721706,26.3814615 C58.1441301,36.5631735 54.8278294,44.717017 43.5140625,44.717017 C38.5343328,44.717017 32.5271537,41.5913141 30.2104307,36.9541485 C29.2801098,35.0915635 23.8785051,33.6434456 23.992103,24.4635023 C24.0765625,17.6298288 24.8768159,15.4312234 29.8113598,10.3913367 C33.6458193,6.47445465 44.0816301,7.33652948 48.6031672,9.62826417 C50.707897,10.6954751 55.5499578,12.8315748 54.989147,15.1145" id="Fill-9" fill="#FBD2C0"></path>
                    <path d="M37.7271115,29.6835646 C38.4412162,32.225322 36.7469595,32.8168186 35.8533784,30.0158095 C33.5598818,22.8251406 23.4065878,22.7085193 29.9019426,32.9313424 C30.3060811,33.5668866 30.7993243,37.9829751 30.7993243,37.9829751 C24.3369088,40.3183379 15.4682432,12.6274875 25.119848,9.65406349 C29.104223,4.73960771 37.0581926,-2.28913379 55.1891047,5.68642177 C59.4745777,7.57165986 61.8276182,13.6611383 55.4205236,15.1809909 C44.8635135,17.6849932 34.0256757,16.5141655 37.7271115,29.6835646" id="Fill-11" fill="#333333"></path>
                    <path d="M31.7902449,47.0043469 C31.9093328,45.7458435 32.4198902,44.9601179 32.355701,43.3374875 C32.3299409,42.6830658 41.476478,46.7568413 42.5326436,47.4670567 C42.8844172,47.7032358 45.6850929,48.5854467 45.7674409,48.8216259 C46.1897382,50.0352426 46.9937922,52.37522 46.8438767,53.7088141 C46.8413429,53.7318866 40.7163429,49.9492449 40.304603,49.7764104 C38.2142314,48.9009116 36.4169341,47.9746531 34.2598395,47.2140975 C33.5558699,46.9657528 32.5423564,46.5105941 31.8480997,46.9296757 C31.7999578,46.9590408 31.7991132,46.9112177 31.7902449,47.0043469" id="Fill-13" fill="#D5DCC4"></path>
                    <path d="M38.993201,110.776322 C39.6405828,111.650562 67.8741132,114.241401 71.7651605,114.321946 C79.2254645,114.475902 98.4602618,114.414655 99.7254645,123.881957 C101.847086,139.759655 97.7997889,161.138272 102.11989,175.331254 C103.915921,181.232376 97.9294341,179.975132 93.1114443,181.213918 C84.028674,183.55012 85.4792652,180.207535 82.6055321,170.664723 C81.532897,167.102739 83.4095861,132.661277 79.4357686,132.845857 C75.9708193,133.006946 62.0839949,131.524429 57.0856841,131.524429 C48.6756334,131.524429 35.8424409,136.690166 33.2081503,125.226039 C31.1916807,116.450494 32.2212416,115.081662 38.993201,110.776322" id="Fill-15" fill="#58595B"></path>
                    <path d="M79.5471284,74.9327188 C80.5885135,75.3299864 86.492652,71.3585692 88.028125,71.7054966 C90.2160473,72.1996689 89.9660473,72.7878095 91.0880912,72.8184331 C93.9478885,72.8964603 93.4630912,72.8159161 94.2257601,75.8346463 C94.7692568,77.9871066 93.8456926,81.2126508 91.2375845,81.4358254 C88.1189189,81.7026281 79.6476351,83.3042834 79.1755068,78.7652812 C79.1543919,78.5609841 79.2177365,74.8068685 79.5471284,74.9327188" id="Fill-17" fill="#F4CBBB"></path>
                    <path d="M34.551647,58.8761451 C39.8552787,63.5724603 47.6787584,70.8067574 53.8459882,75.1372676 C55.2653294,76.1340023 72.297424,78.3946939 84.1479307,79.1275624 L85.0478463,72.4092517 C83.3337416,72.0778458 60.3168497,67.4322902 59.6977618,66.8965873 C56.5461571,64.1685714 43.8928632,53.5006576 40.1162584,50.4575964 C38.3920186,49.0677891 30.270397,54.8833333 34.551647,58.8761451" id="Fill-19" fill="#D5DCC4"></path>
                    <path d="M50.1240709,68.2813186 C55.5873311,75.5168741 54.2347128,112.858348 51.5442568,112.577702 C48.9758446,112.307543 38.2254223,113.561012 37.6532095,110.42692 C37.4268581,109.186455 38.307348,77.8220329 38.8618243,75.3834728 C40.2013514,69.4911599 42.6743243,69.5335295 48.9150338,68.2699921 C48.9201014,68.2691531 50.0961993,68.243983 50.1240709,68.2813186" id="Fill-21" fill="#D5DCC4"></path>
                    <path d="M46.7545608,52.2772245 C56.5936655,67.6758526 51.5970439,76.7253311 51.5970439,94.472746 C51.5970439,99.5055011 42.8124155,137.831544 42.6316723,137.868041 C33.4006757,139.736499 31.6202703,138.72634 22.3981419,133.435592 C22.3609797,133.303868 29.4859797,108.408154 27.4496622,100.993472 C26.2326014,96.5643787 26.0092061,79.7696508 25.1236486,75.4424966 L24.979223,74.8912721 C24.6595439,67.0822585 24.8124155,57.0054218 28.4492399,49.9372472 C29.5818412,47.7361247 29.8618243,47.1626667 30.923902,46.3639365 C33.8170608,44.1900816 41.6806588,50.1532902 46.7545608,52.2772245" id="Fill-23" fill="#DFE5CB"></path>
                    <path d="M94.3660895,69.2162188 C94.8073902,68.9808787 95.3614443,69.1474206 95.5979307,69.5853798 L101.620735,80.7378175 C101.857644,81.1757766 101.690414,81.7261621 101.249113,81.9615023 C100.807813,82.1964229 100.253758,82.0303005 100.01685,81.5923413 L93.9944679,70.4399036 C93.7579814,70.0019444 93.9252111,69.451559 94.3660895,69.2162188" id="Fill-25" fill="#404041"></path>
                    <path d="M86.3694679,75.8798685 C87.4104307,76.2771361 93.3149916,72.3057188 94.8504645,72.6526463 C97.0383868,73.1468186 96.7883868,73.7349592 97.9100084,73.7655828 C100.770228,73.84361 100.285431,73.7630658 101.0481,76.7822154 C101.591596,78.9342562 100.668032,82.1598005 98.059924,82.3829751 C94.9416807,82.6497778 86.4699747,84.2514331 85.9978463,79.7124308 C85.9767314,79.5081338 86.040076,75.7540181 86.3694679,75.8798685" id="Fill-27" fill="#FBD2C0"></path>
                    <path d="M30.4783784,60.294017 C36.7237331,65.6120329 45.9445946,73.811602 53.1815034,78.6862052 C54.8470439,79.8083707 74.6143581,82.0447313 88.3483108,82.6278379 L89.2376689,74.8305703 C87.2461149,74.4853209 60.4973818,69.6220442 59.7684966,69.0162846 C56.0586149,65.9287562 41.1696791,53.8626451 36.729223,50.4244138 C34.7013514,48.8542211 25.4319257,55.7680193 30.4783784,60.294017" id="Fill-29" fill="#DFE5CB"></path>
                    <mask id="mask-2" fill="white">
                        <use xlink:href="#path-1"></use>
                    </mask>
                    <g id="Clip-32"></g>
                    <polygon id="Fill-31" fill="#6D6E70" mask="url(#mask-2)" points="41.3255912 172.422937 47.578125 172.422937 47.578125 147.445839 41.3255912 147.445839"></polygon>
                    <polygon id="Fill-33" fill="#58595B" mask="url(#mask-2)" points="38.8644426 177.444785 50.0392736 177.444785 50.0392736 171.101508 38.8644426 171.101508"></polygon>
                    <polygon id="Fill-34" fill="#58595B" mask="url(#mask-2)" points="18.7098818 179.162222 70.1946791 179.162222 70.1946791 174.272517 18.7098818 174.272517"></polygon>
                    <path d="M18.5775338,184.580667 C20.8853885,184.580667 22.7679899,182.799465 22.7679899,180.615961 C22.7679899,178.432458 20.8853885,176.651256 18.5775338,176.651256 C16.2692568,176.651256 14.3870777,178.432458 14.3870777,180.615961 C14.3870777,182.799465 16.2692568,184.580667 18.5775338,184.580667" id="Fill-35" fill="#404041" mask="url(#mask-2)"></path>
                    <path d="M69.9318412,184.580667 C72.2396959,184.580667 74.1222973,182.799465 74.1222973,180.615961 C74.1222973,178.432458 72.2396959,176.651256 69.9318412,176.651256 C67.6235642,176.651256 65.7409628,178.432458 65.7409628,180.615961 C65.7409628,182.799465 67.6235642,184.580667 69.9318412,184.580667" id="Fill-36" fill="#404041" mask="url(#mask-2)"></path>
                    <polygon id="Fill-37" fill="#58595B" mask="url(#mask-2)" points="39.7960304 150.089116 49.1085304 150.089116 49.1085304 140.177562 39.7960304 140.177562"></polygon>
                    <path d="M12.4546453,128.578482 C3.16537162,149.460829 77.5302365,144.735568 78.8351351,138.993017 C81.5889358,126.874468 51.8659628,132.995409 24.4846284,127.471418 C24.5986486,126.324083 24.6611486,125.054253 24.6611486,123.613266 C24.6611486,112.010285 22.7481419,35.3741395 0.679307432,55.184661 C-3.41824324,58.8628469 12.3613176,79.2912937 12.4546453,128.578482" id="Fill-38" fill="#404041" mask="url(#mask-2)"></path>
                    <path d="M187.218919,12.830568 C187.315625,13.2253186 185.061824,21.1165544 184.835473,24.0975295 C184.063936,34.2792415 187.380236,42.433085 198.694426,42.433085 C203.674155,42.433085 209.680912,39.3073821 211.997635,34.6702166 C212.927956,32.8076315 218.329561,31.3590941 218.215963,22.1795703 C218.131081,15.3458968 217.33125,13.1472914 212.396706,8.10698526 C208.562247,4.19052268 198.126014,5.052178 193.604476,7.3443322 C191.500169,8.41112358 186.658108,10.5476429 187.218919,12.830568" id="Fill-39" fill="#FBD2C0" mask="url(#mask-2)"></path>
                    <path d="M189.655785,14.6339615 C185.431546,17.6149365 184.529519,12.4538141 184.001647,12.4538141 C183.985177,12.4538141 181.649029,10.9721361 184.076394,9.73796372 C183.032897,8.64977778 183.087373,7.17019728 184.276985,6.64330385 C184.967019,6.33748753 184.624958,4.78197732 185.790076,4.78197732 C186.441681,4.78197732 187.025296,3.03014059 188.583573,3.50921088 C189.768961,3.87375737 188.098775,1.05638776 192.580194,2.08374603 C192.58315,2.09717007 194.117779,0.170820862 195.506715,1.19062812 C195.741512,0.75099093 195.289654,-0.235256236 197.796833,0.101603175 C197.999958,0.128870748 199.719552,0.978780045 199.731799,0.960321995 C200.996157,-0.972319728 204.542188,0.524040816 204.365245,1.52119501 C204.365245,0.136421769 206.797677,-0.0108231293 207.956039,1.65124036 C208.831039,1.67976644 209.76685,1.89622902 210.578927,2.50660317 C211.697171,2.46549206 213.190414,3.00245351 213.08484,4.05456236 C213.08315,4.07637642 213.902829,3.82131973 214.398606,3.9945737 C217.365245,5.030322 214.834417,5.84037868 216.752914,6.21247619 C218.861022,6.62065079 217.600887,8.62544671 218.75587,9.05963039 C220.081039,9.55757823 219.915076,11.2213197 218.999113,11.4554014 C220.116512,11.7670907 220.646917,12.783542 219.88087,13.8511723 C219.816258,13.9417846 221.881715,16.126127 220.434502,16.7847438 C220.431968,16.7948118 221.168877,17.997941 220.519806,18.8579184 C220.605532,19.3449592 220.532475,20.0769887 220.141427,21.2209683 C219.485177,23.1431224 223.252069,24.1125896 220.673944,26.4169093 C220.00587,27.0138594 220.385515,30.573746 218.856799,30.6794603 C218.620313,30.6958209 218.102154,33.4674649 216.0519,34.4889501 C214.775296,35.1253333 217.108488,34.4730091 214.999113,35.2180431 C214.232221,35.4886213 215.057813,38.1490975 210.741934,36.0222268 C207.409586,34.3802993 211.24109,33.4808889 211.141005,30.9550726 C211.038809,28.3705261 214.070059,28.4137347 213.950971,23.3801406 C213.85891,19.465356 207.313725,19.4087234 207.627492,23.8638254 C207.818792,26.5893243 207.269806,25.923576 207.161275,27.3867959 C207.159586,27.4098685 205.848775,28.9842562 205.067103,26.4278163 C204.169721,23.4938254 207.215752,21.687034 205.287542,21.4512744 C202.860177,21.1546871 203.756292,19.646161 204.709417,18.6985079 C203.759671,18.0331791 204.192525,19.102068 202.603843,16.682805 C202.622424,16.6429524 202.668877,18.0482812 200.931546,16.320356 C200.111444,15.5044263 197.508404,18.6456508 196.750802,15.38361 C195.36609,14.7489048 194.098775,17.0897211 191.896917,14.5227937 C191.816258,14.4292449 189.735177,14.5777483 189.655785,14.6339615" id="Fill-40" fill="#806A50" mask="url(#mask-2)"></path>
                    <path d="M195.954392,60.405059 C195.48902,60.3127687 183.934122,60.8694467 183.863176,60.0908526 C183.79223,59.312678 162.513936,47.484424 162.513936,47.484424 C162.513936,47.484424 163.350929,44.528619 161.863176,42.4965556 C160.375422,40.4644921 157.399916,37.9705578 156.842061,38.2478481 C156.284206,38.5247188 158.236909,41.4805238 158.236909,41.4805238 C158.236909,41.4805238 153.122466,38.1551383 152.750422,37.6928481 C152.378378,37.2313968 150.937078,35.6146395 150.379223,35.4762041 C149.821368,35.3373492 149.495777,35.7530748 149.495777,35.7530748 C149.495777,35.7530748 148.42652,34.7831882 147.868666,34.9677687 C147.310811,35.1527687 147.496622,35.7069297 147.589949,35.98422 C147.682855,36.2610907 148.147804,37.0929615 148.147804,37.0929615 C148.147804,37.0929615 147.636402,36.8156712 147.496622,37.8317029 C147.357264,38.8477347 148.333615,40.2794921 148.333615,40.2794921 C148.333615,40.2794921 147.868666,40.3256372 147.77576,40.9725079 C147.682855,41.6189592 148.937922,42.5427007 149.217061,43.0968617 C149.495777,43.6510227 151.402449,45.451941 151.727618,45.8215215 C152.053209,46.191102 154.098818,48.0851497 156.005068,49.1011814 C157.911318,50.1172132 159.259291,50.6713741 159.259291,50.6713741 C175.36951,65.1089252 172.625845,66.9769637 193.987331,71.3456485 L195.954392,60.405059 Z" id="Fill-41" fill="#FCD1BD" mask="url(#mask-2)"></path>
                    <path d="M210.31951,36.7318968 C210.655659,39.5769535 210.574578,43.1326451 212.649324,45.4096973 C213.090625,45.8938016 207.601182,47.0893798 206.366385,47.8633594 C206.001943,48.091568 199.751943,51.6808197 200.201689,50.676534 C201.828801,47.0486882 199.133277,41.5624524 199.22027,41.6052415 C200.357095,42.167373 209.718581,36.5020102 210.31951,36.7318968" id="Fill-42" fill="#FBD2C0" mask="url(#mask-2)"></path>
                    <path d="M211.40701,45.0952812 C209.46951,45.0864717 204.098733,45.7157234 201.246959,48.9932857 C199.141807,51.4129683 197.537078,51.7271746 197.119848,55.3655079 C195.339443,70.8782404 200.498649,88.151619 198.103801,108.155111 C196.45473,121.931948 195.95853,114.872163 216.550169,114.872163 C223.239358,114.872163 221.962331,114.742537 224.600422,102.955814 C227.235135,91.1833537 225.043834,64.3977868 218.724155,53.2663243 C217.91799,51.8463129 214.63125,45.1103832 211.40701,45.0952812" id="Fill-43" fill="#6EC12D" mask="url(#mask-2)"></path>
                    <path d="M212.87103,111.965146 C212.892568,110.572402 161.940287,116.886734 160.653547,118.308423 C159.063176,120.065294 148.260389,168.398536 148.490541,179.550554 C148.527703,181.347278 160.555997,180.323695 162.542483,180.088355 C164.723226,179.829523 164.096537,136.204341 171.62652,134.905566 C184.98125,132.601246 189.603294,132.839103 202.760811,134.166824 C227.573733,136.671666 228.656081,110.118502 212.87103,111.965146" id="Fill-44" fill="#43525A" mask="url(#mask-2)"></path>
                    <path d="M199.66723,87.5505159 C199.413851,87.9217744 198.915118,97.405017 198.470017,99.8725227 C197.107686,107.429416 198.083193,106.964189 194.269848,113.782761 C195.406672,114.508917 199.810389,115.265697 203.779983,118.177874 C206.679054,120.304745 209.154561,123.034019 212.571791,124.257285 C218.909628,126.525527 217.719595,125.684008 223.746622,125.268702 C224.915118,125.188577 224.07897,122.748759 224.134291,120.402069 C224.253801,115.35589 224.413007,113.407727 224.267314,108.134178 C224.225929,106.639495 225.223395,91.4426474 225.1875,91.3394501 C221.035051,90.4857653 218.052365,88.3714796 211.993666,87.7938265 C210.38598,87.6407086 202.029983,86.9242007 200.222128,87.588271 L199.66723,87.5505159 Z" id="Fill-45" fill="#6EC12D" mask="url(#mask-2)"></path>
                    <path d="M66.8214949,158.572393 C66.3299409,159.671486 60.6023226,167.016112 60.879772,167.811486 C61.3637247,168.537223 66.2353463,173.662269 67.1048564,172.663856 C68.2826436,171.310965 72.2999578,176.15872 73.4836571,177.619423 C76.3683699,181.178471 80.5402449,184.580205 86.011951,182.888777 C87.808826,182.333357 79.2471706,173.743232 78.8941301,170.896917 C78.5638936,168.228051 77.6462416,163.473845 77.6462416,163.473845 C74.5613598,158.69279 73.5651605,158.577427 68.5178632,157.53245 C68.234924,157.47372 67.3392314,157.459876 67.2598395,157.829037 C67.3637247,157.871407 66.8404983,158.529604 66.8214949,158.572393" id="Fill-46" fill="#404041" mask="url(#mask-2)"></path>
                    <polygon id="Fill-47" fill="#58595B" mask="url(#mask-2)" points="99.897424 134.056579 87.4269848 125.34438 63.2116132 159.549663 75.6820524 168.261443"></polygon>
                    <polygon id="Fill-48" fill="#DFE5CB" mask="url(#mask-2)" points="73.7331081 184.580499 170.167652 184.580499 170.167652 86.4763832 73.7331081 86.4763832"></polygon>
                    <polygon id="Fill-49" fill="#A6A8AB" mask="url(#mask-2)" points="60.3019426 89.1679025 187.728885 89.1679025 187.728885 81.9604535 60.3019426 81.9604535"></polygon>
                    <path d="M54.9635557,97.9520045 C68.0100084,99.2591701 70.1991976,112.396268 66.4812922,132.708093 C65.9166807,135.793104 59.4986064,136.460111 60.4428632,131.644658 C65.5682855,105.493796 63.6155828,102.342503 31.1730152,101.433444 C26.5746199,101.304238 19.026478,101.056732 14.9348395,100.933819 C12.7397382,100.867537 10.8723395,95.0301791 13.9221706,95.0465397 C16.0399916,95.0578662 51.4272382,97.5975261 54.9635557,97.9520045" id="Fill-50" fill="#404041" mask="url(#mask-2)"></path>
                    <polygon id="Fill-51" fill="#6D6E70" mask="url(#mask-2)" points="202.234375 172.422937 208.486909 172.422937 208.486909 147.445839 202.234375 147.445839"></polygon>
                    <polygon id="Fill-52" fill="#58595B" mask="url(#mask-2)" points="199.773226 177.444785 210.948057 177.444785 210.948057 171.101508 199.773226 171.101508"></polygon>
                    <polygon id="Fill-53" fill="#58595B" mask="url(#mask-2)" points="179.618243 179.162222 231.102618 179.162222 231.102618 174.272517 179.618243 174.272517"></polygon>
                    <path d="M231.235177,184.580667 C233.543454,184.580667 235.426056,182.799465 235.426056,180.615961 C235.426056,178.432458 233.543454,176.651256 231.235177,176.651256 C228.9269,176.651256 227.044721,178.432458 227.044721,180.615961 C227.044721,182.799465 228.9269,184.580667 231.235177,184.580667" id="Fill-54" fill="#404041" mask="url(#mask-2)"></path>
                    <path d="M179.880701,184.580667 C182.1894,184.580667 184.071579,182.799465 184.071579,180.615961 C184.071579,178.432458 182.1894,176.651256 179.880701,176.651256 C177.572846,176.651256 175.690245,178.432458 175.690245,180.615961 C175.690245,182.799465 177.572846,184.580667 179.880701,184.580667" id="Fill-55" fill="#404041" mask="url(#mask-2)"></path>
                    <polygon id="Fill-56" fill="#58595B" mask="url(#mask-2)" points="200.704392 150.089116 210.016892 150.089116 210.016892 140.177562 200.704392 140.177562"></polygon>
                    <path d="M237.357644,128.578482 C246.646917,149.460829 172.282052,144.735568 170.977576,138.993017 C168.223775,126.874468 197.946748,132.995409 225.328083,127.471418 C225.21364,126.324083 225.151563,125.054253 225.151563,123.613266 C225.151563,112.010285 227.064569,35.3741395 249.133404,55.184661 C253.230954,58.8628469 237.450971,79.2912937 237.357644,128.578482" id="Fill-57" fill="#404041" mask="url(#mask-2)"></path>
                    <path d="M194.849155,97.9520045 C181.80228,99.2591701 179.613514,112.396268 183.331419,132.708093 C183.89603,135.793104 190.313682,136.460111 189.369848,131.644658 C184.244426,105.493796 186.197128,102.342503 218.639696,101.433444 C223.238091,101.304238 230.786233,101.056732 234.877872,100.933819 C237.072551,100.867537 238.939949,95.0301791 235.890118,95.0465397 C233.77272,95.0578662 198.385051,97.5975261 194.849155,97.9520045" id="Fill-58" fill="#404041" mask="url(#mask-2)"></path>
                    <path d="M210.41022,60.8228821 C204.164865,66.1404785 194.81098,72.2257619 187.574071,77.1003651 C185.908953,78.2221111 166.137838,81.3771791 152.404307,81.9607052 L151.896284,77.5123152 C153.887838,77.1670658 181.655152,70.3493333 182.384037,69.7431542 C186.093919,66.6556259 199.719341,54.3910907 204.159375,50.9528594 C206.186824,49.3826667 215.456672,56.2968844 210.41022,60.8228821" id="Fill-59" fill="#FBD2C0" mask="url(#mask-2)"></path>
                    <path d="M212.530363,53.1153878 C207.610177,45.5677234 200.337373,52.2503764 195.691681,55.7989365 C194.559079,56.6639478 186.662965,64.9260227 186.662965,64.9260227 C191.201816,70.6178141 191.544721,69.9193447 195.136782,76.8142653 C195.516427,77.5425193 204.279941,69.6076553 206.023184,68.5563855 C212.233488,64.8098209 214.380025,55.9524739 212.530363,53.1153878" id="Fill-60" fill="#6EC12D" mask="url(#mask-2)"></path>
                    <path d="M157.49603,79.0843118 C155.335557,78.3736769 144.815709,75.3004116 143.366807,75.7744478 C141.143834,76.5018628 137.008699,78.6601961 136.776014,80.0088923 C136.557686,81.2753662 135.421706,82.5863073 138.583446,82.5863073 C143.649747,82.5863073 149.262078,82.1118515 154.203378,82.321602 C156.230405,82.4080193 157.175929,80.7686088 157.49603,79.0843118" id="Fill-61" fill="#FBD2C0" mask="url(#mask-2)"></path>
                </g>
            </g>
        </g>
    </g>
</svg>
