<?xml version="1.0" encoding="UTF-8"?>
<svg width="208px" height="229px" viewBox="0 0 208 229" version="1.1" xmlns="http://www.w3.org/2000/svg" xmlns:xlink="http://www.w3.org/1999/xlink">
    <!-- Generator: sketchtool 49.3 (51167) - http://www.bohemiancoding.com/sketch -->
    <title>54A7AF38-AFB8-4EC5-998C-24482AC1D3D4</title>
    <desc>Created with sketchtool.</desc>
    <defs>
        <polygon id="path-1" points="0.345353769 0.31547361 91.4592919 0.31547361 91.4592919 111.56731 0.345353769 111.56731"></polygon>
    </defs>
    <g id="Symbols" stroke="none" stroke-width="1" fill="none" fill-rule="evenodd">
        <g id="contact-form" transform="translate(-74.000000, -246.000000)">
            <g id="consult_pic" transform="translate(74.000000, 246.000000)">
                <polygon id="Fill-1" fill="#CCD5BD" points="134.472403 0 18 5.86595559 25.5268771 156 142 150.133684"></polygon>
                <polygon id="Fill-2" fill="#D5DCC4" points="139 151.699656 23.2596175 162 10 13.3003437 125.740383 3"></polygon>
                <polygon id="Fill-3" fill="#DFE5CB" points="0 22.4148376 24.8780877 171 140 151.585162 115.121552 3"></polygon>
                <polygon id="Fill-4" fill="#794629" points="108 31.8992187 18.0024018 47 16 35.1011406 105.998318 20"></polygon>
                <g id="Group-58" transform="translate(22.000000, 52.000000)">
                    <path d="M26.8209433,44.6913534 C27.8268629,50.6675586 23.7898918,56.3269988 17.8050292,57.3307459 C11.8198073,58.3352104 6.15252788,54.3047965 5.14660823,48.3282325 C4.14104785,42.3516685 8.17765968,36.6925871 14.1628816,35.6881226 C20.1481034,34.6840168 25.8153829,38.7144307 26.8209433,44.6913534" id="Fill-5" fill="#6EC12D"></path>
                    <path d="M14.9414274,52.4325822 C14.3892494,52.5254952 13.8022234,52.389175 13.3337523,52.0103484 L9.82165571,49.1662788 C8.95512779,48.4645886 8.82220269,47.1946584 9.52490941,46.3297427 C10.2272569,45.4641095 11.4990267,45.3320942 12.3655546,46.0334257 L14.3475756,47.6384165 L19.0118094,42.1755644 C19.7353531,41.3282268 21.009997,41.2270629 21.8589213,41.9499186 C22.7078456,42.6724156 22.8091561,43.9452156 22.0852532,44.7921945 L16.1427829,51.7524162 C15.8226849,52.1272967 15.393732,52.3565299 14.9414274,52.4325822" id="Fill-7" fill="#FFFFFF"></path>
                    <polygon id="Fill-9" fill="#794629" points="89.5130529 31.6713407 34.9559232 40.8259587 34.4464968 37.7996505 89.0036265 28.6450325"></polygon>
                    <polygon id="Fill-11" fill="#794629" points="74.9280443 42.2309893 36.2834857 48.7151666 35.7744185 45.6888584 74.4186179 39.2043224"></polygon>
                    <path d="M22.0897439,16.5763553 C23.0953043,22.5529193 19.0590517,28.2120007 13.0738298,29.2161065 C7.08860796,30.2202123 1.42132853,26.1897983 0.415408888,20.2135931 C-0.5901515,14.2366704 3.44646033,8.57758899 9.43168222,7.57312446 C15.4169041,6.56901867 21.0841835,10.5997913 22.0897439,16.5763553" id="Fill-13" fill="#6EC12D"></path>
                    <path d="M10.2102281,24.3175841 C9.65805006,24.410497 9.07066484,24.2745356 8.60291221,23.895709 L5.0900971,21.0516394 C4.22392844,20.3495904 4.0913626,19.0796603 4.79371007,18.2147446 C5.49641679,17.3494701 6.76782737,17.2170961 7.63471455,17.9187863 L9.61637625,19.5237771 L14.2809693,14.060925 C15.0041537,13.2135874 16.2787976,13.1124235 17.1277219,13.8345617 C17.9766463,14.5574175 18.0779567,15.8305763 17.3540539,16.6775551 L11.4115836,23.6374181 C11.0914856,24.0122986 10.6625327,24.2418905 10.2102281,24.3175841" id="Fill-15" fill="#FFFFFF"></path>
                    <polygon id="Fill-17" fill="#794629" points="85.9854005 3.35494741 31.4282708 12.5092067 30.9192036 9.48325726 85.4756148 0.328639271"></polygon>
                    <polygon id="Fill-19" fill="#794629" points="52.0784 17.1565053 32.7557614 20.3987733 32.2466942 17.3728239 51.5686143 14.1301972"></polygon>
                    <path d="M31.4284863,72.0713346 C32.4340467,78.0478986 28.3977942,83.7073387 22.4125723,84.7107271 C16.4273504,85.7155503 10.760071,81.6844189 9.75415131,75.7085724 C8.74859093,69.7320085 12.7852028,64.0725683 18.7704246,63.0681038 C24.7556465,62.063998 30.422926,66.0951294 31.4284863,72.0713346" id="Fill-21" fill="#6EC12D"></path>
                    <path d="M19.5491502,79.8129221 C18.9966129,79.9058351 18.4095869,79.7695149 17.941475,79.3903295 L14.4290192,76.5469774 C13.5624912,75.8452872 13.4299254,74.5746396 14.1322729,73.7097239 C14.8349796,72.8448082 16.1067494,72.7120754 16.9732773,73.4134068 L18.9552983,75.0187564 L23.6195321,69.5559043 C24.3430758,68.7085667 25.6177197,68.6077615 26.4662847,69.329541 C27.3152091,70.0523968 27.4165195,71.3251968 26.6929759,72.1728931 L20.7505056,79.1327561 C20.4300484,79.5072779 20.0014547,79.7372285 19.5491502,79.8129221" id="Fill-23" fill="#FFFFFF"></path>
                    <polygon id="Fill-25" fill="#794629" points="93.4522342 59.1638219 38.8951045 68.3184399 38.3856781 65.2921317 92.9424485 56.1375137"></polygon>
                    <polygon id="Fill-27" fill="#794629" points="69.3732483 71.3163719 40.2224155 76.2081142 39.7129891 73.181806 68.8638218 68.2900638"></polygon>
                    <polygon id="Fill-29" fill="#794629" points="101.856908 84.9494667 79.2283868 88.7463427 78.7196788 85.7200345 101.347482 81.9231586"></polygon>
                    <path d="M102.689774,48.1287745 C75.756994,44.2820341 64.0423412,26.4667794 64.0423412,26.4667794 L91.8502713,22.4550198 C91.8502713,22.4550198 129.622195,51.9747975 102.689774,48.1287745" id="Fill-31" fill="#D3A97A"></path>
                    <path d="M100.933151,90.5652486 L120.524154,73.1051439 C120.524154,73.1051439 123.15212,46.73508 120.530621,37.4792981 C117.909123,28.2224399 99.8966944,17.3914424 95.5241772,14.9466475 C91.1530971,12.5004176 67.8915646,15.9894969 61.2783614,20.1795489 C55.8129844,23.6420817 60.5551771,27.2093657 64.0417664,28.212754 C67.5290743,29.2168598 86.9541011,23.8512255 92.0242954,28.3924814 C97.0952082,32.9344548 103.039115,47.7790056 96.2179025,52.7554099 C89.3956118,57.7310967 73.3098789,35.5503674 70.3370271,31.5317918 C67.3648938,27.5153687 55.8977691,30.9147636 60.193046,37.1187671 C64.4886821,43.3231292 78.2877441,63.4206708 83.4473934,69.6056612 C88.6070426,75.7906515 100.933151,90.5652486 100.933151,90.5652486" id="Fill-33" fill="#F9CBA4"></path>
                    <path d="M100.933151,90.5652486 L120.524154,73.1051439 C120.524154,73.1051439 123.15212,46.73508 120.530621,37.4792981 C117.909123,28.2224399 99.8966944,17.3914424 95.5241772,14.9466475 C91.1530971,12.5004176 67.8915646,15.9894969 61.2783614,20.1795489 C55.8129844,23.6420817 60.5551771,27.2093657 64.0417664,28.212754 C67.5290743,29.2168598 86.9541011,23.8512255 92.0242954,28.3924814 C97.0952082,32.9344548 103.039115,47.7790056 96.2179025,52.7554099 C89.3956118,57.7310967 73.3098789,35.5503674 70.3370271,31.5317918 C67.3648938,27.5153687 55.8977691,30.9147636 60.193046,37.1187671 C64.4886821,43.3231292 78.2877441,63.4206708 83.4473934,69.6056612 C88.6070426,75.7906515 100.933151,90.5652486 100.933151,90.5652486 Z" id="Stroke-35" stroke="#F9CBA4" stroke-width="0.216"></path>
                    <polygon id="Fill-37" fill="#451613" points="37.398332 26.7856611 37.8359071 23.9358517 32.8034348 24.6257036"></polygon>
                    <polygon id="Fill-39" fill="#DAC18E" points="44.3601582 30.0580989 45.4580476 22.890527 37.8356915 23.9358876 37.3984757 26.7856969"></polygon>
                    <path d="M104.923562,39.3053787 C105.712131,39.4269907 106.449327,38.8852973 106.570037,38.0978689 L107.230352,33.7826175 C107.351421,32.9944716 106.809662,32.2583426 106.020374,32.1381656 L102.803587,31.6470541 L101.706056,38.8146261 L104.923562,39.3053787 Z" id="Fill-41" fill="#F7F1E6"></path>
                    <polygon id="Fill-43" fill="#F1E4C4" points="96.2898258 37.8882945 101.705985 38.8145543 102.803515 31.6473411 97.3869967 30.7210813"></polygon>
                    <path d="M43.4941332,26.163467 C43.7502835,24.4913923 45.4578321,22.8903476 45.4578321,22.8903476 L97.3869967,30.7208661 L96.2898258,37.888438 L44.3603019,30.0579195 C44.3603019,30.0579195 43.2390607,27.8355417 43.4941332,26.163467" id="Fill-45" fill="#6EC12D"></path>
                    <polygon id="Fill-47" fill="#451613" points="99.7052104 38.4859509 100.745259 38.6785929 101.848897 31.4841156 100.808129 31.3061819"></polygon>
                    <polygon id="Fill-49" fill="#451613" points="97.4532078 38.084488 98.4778088 38.2627804 99.5818056 31.0916211 98.5363677 30.9176335"></polygon>
                    <path d="M70.3369912,31.5319353 C67.3652171,27.5155122 55.8977332,30.9145484 60.1930101,37.1185518 C60.6740552,37.8130673 61.2794033,38.6894626 61.9727693,39.6935684 L77.5099167,40.7098713 C74.1282305,36.7106675 71.3975179,32.9658085 70.3369912,31.5319353" id="Fill-51" fill="#F9CBA4"></path>
                    <path d="M70.3369912,31.5319353 C67.3652171,27.5155122 55.8977332,30.9145484 60.1930101,37.1185518 C60.6740552,37.8130673 61.2794033,38.6894626 61.9727693,39.6935684 L77.5099167,40.7098713 C74.1282305,36.7106675 71.3975179,32.9658085 70.3369912,31.5319353 Z" id="Stroke-53" stroke="#F9CBA4" stroke-width="0.216"></path>
                    <g id="Group-57" transform="translate(93.766081, 64.931457)">
                        <mask id="mask-2" fill="white">
                            <use xlink:href="#path-1"></use>
                        </mask>
                        <g id="Clip-56"></g>
                        <polygon id="Fill-55" fill="#6EC12D" mask="url(#mask-2)" points="31.4818001 0.31547361 0.345353769 29.4747202 74.6591045 111.567454 91.4593996 51.3200301"></polygon>
                    </g>
                </g>
            </g>
        </g>
    </g>
</svg>
