<?xml version="1.0" encoding="UTF-8"?>
<svg width="226px" height="137px" viewBox="0 0 226 137" version="1.1" xmlns="http://www.w3.org/2000/svg" xmlns:xlink="http://www.w3.org/1999/xlink">
    <!-- Generator: sketchtool 49.3 (51167) - http://www.bohemiancoding.com/sketch -->
    <title>5C135BE4-AFE8-450D-8D62-D825129A1125</title>
    <desc>Created with sketchtool.</desc>
    <defs>
        <linearGradient x1="50%" y1="100%" x2="50%" y2="0%" id="linearGradient-1">
            <stop stop-color="#808080" stop-opacity="0.25" offset="0%"></stop>
            <stop stop-color="#808080" stop-opacity="0.12" offset="54%"></stop>
            <stop stop-color="#808080" stop-opacity="0.1" offset="100%"></stop>
        </linearGradient>
        <linearGradient x1="31500%" y1="48174%" x2="31500%" y2="11542%" id="linearGradient-2">
            <stop stop-color="#808080" stop-opacity="0.25" offset="0%"></stop>
            <stop stop-color="#808080" stop-opacity="0.12" offset="54%"></stop>
            <stop stop-color="#808080" stop-opacity="0.1" offset="100%"></stop>
        </linearGradient>
        <linearGradient x1="50800%" y1="61650%" x2="50800%" y2="15983%" id="linearGradient-3">
            <stop stop-color="#808080" stop-opacity="0.25" offset="0%"></stop>
            <stop stop-color="#808080" stop-opacity="0.12" offset="54%"></stop>
            <stop stop-color="#808080" stop-opacity="0.1" offset="100%"></stop>
        </linearGradient>
    </defs>
    <g id="✅-7.0.1-language-school-search" stroke="none" stroke-width="1" fill="none" fill-rule="evenodd">
        <g id="7.0.1-state" transform="translate(-200.000000, -3507.000000)" fill-rule="nonzero">
            <g id="exceed_limited_pic" transform="translate(200.000000, 3507.000000)">
                <g id="Group" opacity="0.5" fill="url(#linearGradient-1)">
                    <rect id="Rectangle-path" x="0" y="0" width="98.7020408" height="81.6828208"></rect>
                </g>
                <rect id="Rectangle-path" fill="#F2F2F2" x="0.92244898" y="1.83892617" width="96.8571429" height="78.1543624"></rect>
                <rect id="Rectangle-path" fill="#6BC319" x="0.92244898" y="1.83892617" width="96.8571429" height="17.4697987"></rect>
                <rect id="Rectangle-path" fill="#000000" opacity="0.1" x="0.92244898" y="1.83892617" width="96.8571429" height="17.4697987"></rect>
                <rect id="Rectangle-path" fill="#E0E0E0" x="9.2244898" y="24.8255034" width="81.1755102" height="11.033557"></rect>
                <rect id="Rectangle-path" fill="#E0E0E0" x="9.2244898" y="43.2147651" width="59.9591837" height="3.67785235"></rect>
                <rect id="Rectangle-path" fill="#E0E0E0" x="9.2244898" y="48.7315436" width="38.7428571" height="3.67785235"></rect>
                <rect id="Rectangle-path" fill="#E0E0E0" x="9.2244898" y="55.1677852" width="50.7346939" height="3.67785235"></rect>
                <rect id="Rectangle-path" fill="#E0E0E0" x="9.2244898" y="61.6040268" width="59.9591837" height="3.67785235"></rect>
                <rect id="Rectangle-path" fill="#E0E0E0" x="9.2244898" y="68.0402685" width="19.3714286" height="3.67785235"></rect>
                <g id="Group" opacity="0.5" transform="translate(126.375510, 0.000000)" fill="url(#linearGradient-2)">
                    <rect id="Rectangle-path" x="0.205043693" y="0" width="99.4016162" height="81.6828208"></rect>
                </g>
                <rect id="Rectangle-path" fill="#F2F2F2" transform="translate(175.726531, 40.916107) rotate(-180.000000) translate(-175.726531, -40.916107) " x="127.297959" y="1.83892617" width="96.8571429" height="78.1543624"></rect>
                <rect id="Rectangle-path" fill="#6BC319" transform="translate(175.726531, 10.573826) rotate(-180.000000) translate(-175.726531, -10.573826) " x="127.297959" y="1.83892617" width="96.8571429" height="17.4697987"></rect>
                <rect id="Rectangle-path" fill="#000000" opacity="0.1" transform="translate(175.726531, 10.573826) rotate(-180.000000) translate(-175.726531, -10.573826) " x="127.297959" y="1.83892617" width="96.8571429" height="17.4697987"></rect>
                <rect id="Rectangle-path" fill="#E0E0E0" transform="translate(176.187755, 30.342282) rotate(-180.000000) translate(-176.187755, -30.342282) " x="135.6" y="24.8255034" width="81.1755102" height="11.033557"></rect>
                <rect id="Rectangle-path" fill="#E0E0E0" transform="translate(187.718367, 45.053691) rotate(-180.000000) translate(-187.718367, -45.053691) " x="157.738776" y="43.2147651" width="59.9591837" height="3.67785235"></rect>
                <rect id="Rectangle-path" fill="#E0E0E0" transform="translate(198.326531, 50.570470) rotate(-180.000000) translate(-198.326531, -50.570470) " x="178.955102" y="48.7315436" width="38.7428571" height="3.67785235"></rect>
                <rect id="Rectangle-path" fill="#E0E0E0" transform="translate(191.408163, 57.006711) rotate(-180.000000) translate(-191.408163, -57.006711) " x="166.040816" y="55.1677852" width="50.7346939" height="3.67785235"></rect>
                <rect id="Rectangle-path" fill="#E0E0E0" transform="translate(187.718367, 63.442953) rotate(-180.000000) translate(-187.718367, -63.442953) " x="157.738776" y="61.6040268" width="59.9591837" height="3.67785235"></rect>
                <rect id="Rectangle-path" fill="#E0E0E0" transform="translate(207.089796, 69.879195) rotate(-180.000000) translate(-207.089796, -69.879195) " x="197.404082" y="68.0402685" width="19.3714286" height="3.67785235"></rect>
                <g id="Group" opacity="0.5" transform="translate(51.657143, 35.859060)" fill="url(#linearGradient-3)">
                    <rect id="Rectangle-path" x="0" y="0.183290349" width="123.608163" height="100.849442"></rect>
                </g>
                <rect id="Rectangle-path" fill="#FFFFFF" x="52.5795918" y="37.6979866" width="120.840816" height="97.4630872"></rect>
                <rect id="Rectangle-path" fill="#6BC319" x="52.5795918" y="37.6979866" width="120.840816" height="22.0671141"></rect>
                <rect id="Rectangle-path" fill="#F5F5F5" x="62.7265306" y="68.0402685" width="101.469388" height="12.8724832"></rect>
                <rect id="Rectangle-path" fill="#E0E0E0" x="62.7265306" y="90.1073826" width="73.7959184" height="3.67785235"></rect>
                <rect id="Rectangle-path" fill="#E0E0E0" x="62.7265306" y="96.5436242" width="47.9673469" height="3.67785235"></rect>
                <rect id="Rectangle-path" fill="#E0E0E0" x="62.7265306" y="104.818792" width="63.6489796" height="3.67785235"></rect>
                <rect id="Rectangle-path" fill="#E0E0E0" x="62.7265306" y="112.174497" width="73.7959184" height="3.67785235"></rect>
                <rect id="Rectangle-path" fill="#E0E0E0" x="62.7265306" y="119.530201" width="24.9061224" height="3.67785235"></rect>
                <rect id="Rectangle-path" fill="#69F0AE" x="67.3387755" y="70.7986577" width="28.5959184" height="3.67785235"></rect>
            </g>
        </g>
    </g>
</svg>
