<?xml version="1.0" encoding="UTF-8"?>
<svg width="290px" height="96px" viewBox="0 0 290 96" version="1.1" xmlns="http://www.w3.org/2000/svg" xmlns:xlink="http://www.w3.org/1999/xlink">
    <!-- Generator: sketchtool 49.3 (51167) - http://www.bohemiancoding.com/sketch -->
    <title>CAED87FC-1949-46EE-A791-F1F318FC2886</title>
    <desc>Created with sketchtool.</desc>
    <defs>
        <polygon id="path-1" points="0.125305202 0.297062937 10.8679724 0.297062937 10.8679724 4.23427133 0.125305202 4.23427133"></polygon>
        <polygon id="path-3" points="0.0540068434 0.318109091 23.9287017 0.318109091 23.9287017 2.18181818 0.0540068434 2.18181818"></polygon>
    </defs>
    <g id="✅2.0-About-us" stroke="none" stroke-width="1" fill="none" fill-rule="evenodd">
        <g id="表單狀態" transform="translate(-161.000000, -788.000000)">
            <g id="failure_pic" transform="translate(161.000000, 788.000000)">
                <path d="M289.24826,87.2727273 L0.75142566,87.2727273 C0.336412325,87.2727273 0,86.9721456 0,86.6007065 L0,85.0359384 C0,84.6647804 0.336412325,84.3636364 0.75142566,84.3636364 L289.248574,84.3636364 C289.663273,84.3636364 290,84.6647804 290,85.0359384 L290,86.6007065 C290,86.9721456 289.663273,87.2727273 289.24826,87.2727273" id="Fill-1" fill="#6EC12D"></path>
                <path d="M60.9503539,49.5041237 C60.9503539,37.1535704 55.9123455,30.0359631 47.7264443,30.0359631 C39.5396022,30.0359631 34.5019074,37.1535704 34.5019074,49.5041237 C34.5019074,61.854677 39.5396022,69.6000877 47.7264443,69.6000877 C55.9123455,69.6000877 60.9503539,61.854677 60.9503539,49.5041237 M16.0301508,49.5041237 C16.0301508,27.1055884 28.8343831,14.5454545 47.7264443,14.5454545 C66.6169372,14.5454545 79.4221106,27.2100659 79.4221106,49.5041237 C79.4221106,71.902659 66.6169372,85.0909091 47.7264443,85.0909091 C28.8343831,85.0909091 16.0301508,71.902659 16.0301508,49.5041237" id="Fill-3" fill="#6EC12D"></path>
                <path d="M133.81512,49.5041237 C133.81512,37.1535704 128.777062,30.0359631 120.590452,30.0359631 C112.404156,30.0359631 107.366412,37.1535704 107.366412,49.5041237 C107.366412,61.854677 112.404156,69.6000877 120.590452,69.6000877 C128.777062,69.6000877 133.81512,61.854677 133.81512,49.5041237 M88.8944724,49.5041237 C88.8944724,27.1055884 101.699772,14.5454545 120.590452,14.5454545 C139.482387,14.5454545 152.286432,27.2100659 152.286432,49.5041237 C152.286432,71.902659 139.482387,85.0909091 120.590452,85.0909091 C101.699772,85.0909091 88.8944724,71.902659 88.8944724,49.5041237" id="Fill-5" fill="#6EC12D"></path>
                <path d="M189.641345,48.3939583 C196.802761,48.3939583 200.172598,44.8179243 200.172598,38.7178899 C200.172598,32.6181698 196.381019,30.3038217 189.641345,30.3038217 L182.058189,30.3038217 L182.058189,48.3939583 L189.641345,48.3939583 Z M163.944724,16 L190.483254,16 C205.227511,16 217.864322,21.4695058 217.864322,38.7178899 C217.864322,55.441043 204.806085,62.69778 190.483254,62.69778 L182.058189,62.69778 L182.058189,84.3636364 L163.944724,84.3636364 L163.944724,16 Z" id="Fill-7" fill="#6EC12D"></path>
                <path d="M233.976395,63.0061191 C238.803024,66.878668 244.888052,69.6000877 249.924466,69.6000877 C255.381079,69.6000877 257.688717,67.8208423 257.688717,64.7853645 C257.688717,61.5409317 254.226476,60.49428 248.455969,58.1917087 L239.957314,54.6325922 C232.612007,51.7025303 226.210891,45.5267845 226.210891,35.6883831 C226.210891,24.0701107 236.703917,14.5454545 251.603376,14.5454545 C259.367626,14.5454545 267.971644,17.4755164 274.268025,23.6512623 L265.244122,34.9557894 C260.627278,31.7104182 256.63979,30.0359631 251.603376,30.0359631 C247.196944,30.0359631 244.468168,31.6062536 244.468168,34.6414185 C244.468168,37.8858513 248.351547,39.0376062 254.540997,41.4449678 L262.830808,44.6894005 C271.32915,48.0386236 276.155779,53.9003114 276.155779,63.3198644 C276.155779,74.8339721 266.502834,85.0909091 249.504582,85.0909091 C240.900564,85.0909091 231.03752,81.950641 223.693467,75.3566724 L233.976395,63.0061191 Z" id="Fill-9" fill="#6EC12D"></path>
                <path d="M94.7236181,91.6363636 C94.7236181,92.4395257 89.5040421,93.0909091 83.0653266,93.0909091 C76.6266112,93.0909091 71.4070352,92.4395257 71.4070352,91.6363636 C71.4070352,90.8329141 76.6266112,90.1818182 83.0653266,90.1818182 C89.5040421,90.1818182 94.7236181,90.8329141 94.7236181,91.6363636" id="Fill-11" fill="#C73E3E"></path>
                <path d="M83.7939698,36.7272727 C83.7939698,38.9363544 81.9996766,40.7272727 79.7864322,40.7272727 C77.5731877,40.7272727 75.7788945,38.9363544 75.7788945,36.7272727 C75.7788945,34.5181911 77.5731877,32.7272727 79.7864322,32.7272727 C81.9996766,32.7272727 83.7939698,34.5181911 83.7939698,36.7272727" id="Fill-13" fill="#C8462D"></path>
                <path d="M89.6231156,36 C89.6231156,38.2090816 87.8288224,40 85.6155779,40 C83.4023334,40 81.6080402,38.2090816 81.6080402,36 C81.6080402,33.7909184 83.4023334,32 85.6155779,32 C87.8288224,32 89.6231156,33.7909184 89.6231156,36" id="Fill-15" fill="#C8462D"></path>
                <path d="M85.2512563,32.3634793 C85.2512563,34.1711697 83.783057,35.6363636 81.9723618,35.6363636 C80.1616666,35.6363636 78.6934673,34.1711697 78.6934673,32.3634793 C78.6934673,30.556103 80.1616666,29.0909091 81.9723618,29.0909091 C83.783057,29.0909091 85.2512563,30.556103 85.2512563,32.3634793" id="Fill-17" fill="#C8462D"></path>
                <path d="M88.8340286,73.1228066 C88.5540878,75.1743654 85.9725818,91.1590745 85.3304906,90.9061211 C84.7736652,90.687376 84.3289995,74.567089 84.6086346,72.5149025 C84.8885754,70.4630299 86.0612093,68.9358943 87.2283422,69.1034838 C88.3948639,69.271701 89.1139693,71.070934 88.8340286,73.1228066" id="Fill-19" fill="#FA968C"></path>
                <path d="M89.6227836,57.9965002 C89.6227836,61.286005 89.7048112,72.7272727 87.2902215,72.7272727 C84.8756317,72.7272727 80.879397,58.9016283 80.879397,55.612747 C80.879397,52.3232422 84.5810923,47.2727273 86.995682,47.2727273 C89.4099551,47.2727273 89.6227836,54.7073072 89.6227836,57.9965002" id="Fill-21" fill="#FA968C"></path>
                <path d="M84.9859752,87.2727273 C84.9859752,87.2727273 84.9243353,89.2990296 84.6383865,90.4097042 C84.352137,91.5200477 84.5680268,91.9869681 85.6092895,92.0614767 C86.6508529,92.1359853 89.2688934,92.5727711 89.5749879,92.2402973 C89.8810824,91.9078234 88.6597111,91.374342 87.816598,90.9739825 C86.8186336,90.5001079 86.2259888,89.0778219 86.2614693,88.1376891 L84.9859752,87.2727273 Z" id="Fill-23" fill="#FA968C"></path>
                <path d="M89.6182964,37.7635559 C90.3651455,39.7499532 92.6053881,45.3228203 91.5152687,45.7869287 C90.4248447,46.2507131 86.4170796,41.4304019 85.6702305,39.4440046 C84.9233815,37.4572832 85.2017746,35.4708859 86.2921986,35.0067774 C87.3823181,34.5426689 88.8714474,35.7768345 89.6182964,37.7635559" id="Fill-25" fill="#FAB9AF"></path>
                <path d="M90.2518055,41.2655778 L88.9844872,38.3923212 L89.0843365,37.2269293 C89.2115292,35.9872556 88.2416083,34.9090909 86.9991755,34.9090909 L79.6044886,34.9090909 C78.4809533,34.9090909 77.6907612,36.018078 78.0542127,37.0845302 L81.5480172,47.3335679 L82.6349922,50.8448465 L87.6065666,51.6363636 L88.4173431,43.7298223 L88.4907707,43.7298223 C89.7639263,43.7298223 90.6607268,42.4753539 90.2518055,41.2655778" id="Fill-27" fill="#FA968C"></path>
                <path d="M90.2518055,41.2655778 L88.9844872,38.3923212 L89.0843365,37.2269293 C89.2115292,35.9872556 88.2416083,34.9090909 86.9991755,34.9090909 L85.8006765,34.9090909 C85.9060559,35.9576662 85.288219,37.0947016 83.9348767,37.0947016 C83.9281177,37.0947016 83.9228948,37.0928522 83.916443,37.0928522 C83.9093768,37.0928522 83.9038466,37.0947016 83.8967804,37.0947016 C82.5409802,37.0947016 81.9246795,35.9576662 82.0312879,34.9090909 L79.6044886,34.9090909 C78.4809533,34.9090909 77.6907612,36.018078 78.0542127,37.0845302 L81.5480172,47.3335679 L82.6349922,50.8448465 L87.6065666,51.6363636 L88.4173431,43.7298223 L88.4907707,43.7298223 C89.7639263,43.7298223 90.6607268,42.4753539 90.2518055,41.2655778" id="Fill-29" fill="#FFFFFF"></path>
                <path d="M83.7335235,73.12275 C83.4535709,75.1745938 80.8722613,91.1587644 80.230143,90.9061284 C79.673294,90.6870726 79.2283039,74.567012 79.5082565,72.5148544 C79.7882091,70.4630106 80.9608926,68.9358965 82.1277692,69.1034836 C83.2943402,69.2716984 84.0134761,71.0709062 83.7335235,73.12275" id="Fill-31" fill="#FAB9AF"></path>
                <path d="M84.5222846,57.9965002 C84.5222846,61.2856933 84.6039956,72.7272727 82.1897216,72.7272727 C79.7751308,72.7272727 75.7788945,58.9013166 75.7788945,55.6124353 C75.7788945,52.3232422 79.4805913,47.2727273 81.8948653,47.2727273 C84.3094561,47.2727273 84.5222846,54.7069955 84.5222846,57.9965002" id="Fill-33" fill="#FAB9AF"></path>
                <path d="M88.7837027,71.0213976 C89.6616383,67.4780437 89.6200388,60.7101206 89.6200388,58.2883697 C89.6200388,54.9479364 89.7789861,49.3756934 87.8120131,47.3965057 C86.7729572,47.3965057 82.6493299,47.2727273 81.7738779,47.2727273 C79.4073636,47.2727273 75.7788945,52.4027237 75.7788945,55.7431571 C75.7788945,58.192766 77.8846359,66.3887307 79.9410168,70.5914973 C79.6504412,71.1410606 88.9268174,71.5627302 88.7837027,71.0213976" id="Fill-35" fill="#373C41"></path>
                <path d="M80.1770552,87.2727273 C80.1770552,87.2727273 80.1064429,89.865897 79.7816946,90.906018 C79.4572874,91.9461389 76.9889271,95.2727273 78.3936683,95.2727273 C78.3936683,95.2727273 81.4330671,92.9468754 82.0808582,92.1613577 C82.8964814,91.1727156 81.4890112,90.239894 81.6240956,88.0827439 L80.1770552,87.2727273 Z" id="Fill-37" fill="#FAB9AF"></path>
                <path d="M87.8164652,90.8103285 C87.7614386,90.7810868 87.7124259,90.7377796 87.6598049,90.7022454 C87.3170166,90.9402502 86.9104816,91.0920106 86.4215572,91.0920106 C85.637053,91.0920106 85.0461942,90.7274155 84.6378551,90.1818182 C84.3524989,91.4210717 84.5683954,91.9429795 85.6093894,92.0258925 C86.6506842,92.1091757 89.2688052,92.5974001 89.5749092,92.2257721 C89.8813139,91.8541441 88.6596042,91.2578367 87.8164652,90.8103285" id="Fill-39" fill="#AA321E"></path>
                <path d="M81.788306,89.4545455 C81.7620444,89.6814766 81.7013356,89.9017051 81.6215274,90.1149118 C81.4905601,91.3373396 80.5949348,92.469761 78.9230555,92.4972097 C78.2119441,93.8099631 77.4752531,95.2727273 78.3940705,95.2727273 C78.3940705,95.2727273 81.4329208,92.8789392 82.080595,92.0701579 C82.6699478,91.3351054 82.0996944,90.6271825 81.788306,89.4545455" id="Fill-41" fill="#AA321E"></path>
                <path d="M80.717136,39.0695241 C80.236702,41.0848502 77.9015075,46.8013041 76.654501,46.5365578 C75.4071629,46.2721245 75.720821,40.1266315 76.2012551,38.1109924 C76.6813576,36.0953533 78.0818775,34.6758628 79.3288839,34.940922 C80.5758904,35.2053553 81.1972385,37.054198 80.717136,39.0695241" id="Fill-43" fill="#FA968C"></path>
                <path d="M87.5434162,25.5097053 C86.9486913,25.3621982 86.391742,25.5207432 85.9829896,25.8635884 C85.3362827,26.4054509 84.5662398,26.7656892 83.7345289,26.7656892 L83.2947811,26.7656892 C82.6513029,26.7656892 82.0665868,27.1530206 81.7969911,27.7587695 L80.879397,29.8181818 L86.5828805,29.8181818 L86.5828805,29.0863328 C86.7475438,29.1381777 86.9186644,29.1739674 87.0994712,29.1739674 C88.2320961,29.1739674 89.1199863,28.0868974 88.8436103,26.8646962 C88.6944448,26.2044266 88.1797913,25.6682502 87.5434162,25.5097053" id="Fill-45" fill="#C8462D"></path>
                <polygon id="Fill-47" fill="#FA968C" points="85.2512563 35.6363636 81.6080402 35.2952199 83.504983 32 85.2512563 32.3159183"></polygon>
                <path d="M88.8944724,28.7271092 C88.8944724,29.7312701 88.0790079,30.5454545 87.0728643,30.5454545 C86.0667207,30.5454545 85.2512563,29.7312701 85.2512563,28.7271092 C85.2512563,27.7232754 86.0667207,26.9090909 87.0728643,26.9090909 C88.0790079,26.9090909 88.8944724,27.7232754 88.8944724,28.7271092" id="Fill-49" fill="#C8462D"></path>
                <path d="M88.1658291,31.6365271 C88.1658291,32.640361 87.3503647,33.4545455 86.3442211,33.4545455 C85.3380775,33.4545455 84.5226131,32.640361 84.5226131,31.6365271 C84.5226131,30.6323663 85.3380775,29.8181818 86.3442211,29.8181818 C87.3503647,29.8181818 88.1658291,30.6323663 88.1658291,31.6365271" id="Fill-51" fill="#C8462D"></path>
                <path d="M87.4371859,29.0075222 C87.4371859,32.0455892 84.8949391,32.7272727 83.1907992,32.7272727 C81.4869918,32.7272727 81.6099984,30.2143938 81.6099984,28.9090495 C81.6099984,27.6033736 82.978696,26.9090909 84.6828358,26.9090909 C86.3866432,26.9090909 87.4371859,27.7018464 87.4371859,29.0075222" id="Fill-53" fill="#C8462D"></path>
                <path d="M86.7085427,29.6170588 C86.7085427,31.3766696 86.1655257,34.1818182 84.9218903,34.1818182 C83.6782548,34.1818182 82.3366834,32.1723141 82.3366834,30.4127033 C82.3366834,28.6534161 83.0608065,27.6363636 84.3041406,27.6363636 C85.5477761,27.6363636 86.7085427,27.8577716 86.7085427,29.6170588" id="Fill-55" fill="#FAB9AF"></path>
                <path d="M82.3366834,29.8181818 L85.5285438,29.8181818 C85.8650756,29.8181818 86.4514104,29.5701059 86.7085427,29.3772681 C86.7085427,28.0892578 86.1222079,27.4469064 84.287163,27.6853901 C83.2100781,27.8253049 82.5089193,28.4574025 82.3366834,29.8181818" id="Fill-57" fill="#FF9669"></path>
                <path d="M86.6589326,29.8181818 L82.3366834,29.8181818 L82.3366834,28.3887743 C82.3366834,27.9734229 82.6830668,27.6363636 83.1102039,27.6363636 L87.4371859,27.6363636 L87.4371859,29.0608779 C87.4371859,29.4791077 87.088732,29.8181818 86.6589326,29.8181818" id="Fill-59" fill="#C8462D"></path>
                <path d="M83.0653266,31.2727273 L83.0653266,29.0909091 L83.7939698,29.0909091 L83.7939698,30.320575 C83.7939698,30.8460638 83.4675868,31.2727273 83.0653266,31.2727273" id="Fill-61" fill="#C8462D"></path>
                <path d="M83.7939698,30.9090909 C83.7939698,31.5116532 83.5933315,32 83.0740115,32 C82.555046,32 82.3366834,31.3029838 82.3366834,30.7004215 C82.3366834,30.0981941 82.555046,29.8181818 83.0740115,29.8181818 C83.5933315,29.8181818 83.7939698,30.3065286 83.7939698,30.9090909" id="Fill-63" fill="#FAB9AF"></path>
                <path d="M92.2559571,42.8122339 C93.2823151,41.9055933 100.037577,36.5531558 100.524555,37.1350055 C101.011534,37.7175004 95.0457305,44.014315 94.0193725,44.9209556 C92.9933283,45.8279188 91.7664681,46.0907833 91.2794893,45.508611 C90.7925106,44.9264387 91.2295991,43.7191971 92.2559571,42.8122339" id="Fill-65" fill="#FA968C"></path>
                <path d="M101.253344,37.1952697 C101.253344,37.1952697 100.046966,37.1453106 99.9092828,37.4958564 C99.7713124,37.8464022 99.745443,38.1059115 100.265994,38.3187924 C100.786831,38.5313958 101.606318,38.5838527 102.10416,38.5200162 C102.602003,38.4567348 103.389871,38.0098791 103.44161,37.9082958 C103.629595,37.5383216 102.740261,37.7448188 102.304505,37.8250308 C101.868749,37.9046877 101.368319,37.9527038 101.388152,37.7395454 C101.407698,37.5261094 102.253916,37.4339627 102.35998,37.196935 C102.466045,36.9593521 101.253344,37.1952697 101.253344,37.1952697" id="Fill-67" fill="#FA968C"></path>
                <path d="M69.5827753,35.5985824 C69.5827753,35.5985824 70.7667111,36.1948701 70.673122,36.5635351 C70.5795328,36.9322001 70.4378401,37.1651293 69.8039861,37.0693323 C69.1701321,36.973256 68.3540083,36.5836441 67.9194403,36.2666481 C67.4848724,35.949652 67.0195444,35.1556258 67.0355789,35.0425127 C67.0934994,34.6308368 67.8101439,35.2760006 68.1746835,35.5737255 C68.5395504,35.8717297 68.9862261,36.1772747 69.1046851,35.9870771 C69.2228169,35.7966002 68.4741035,35.270694 68.5251521,35.0143043 C68.5762008,34.7579145 69.5827753,35.5985824 69.5827753,35.5985824" id="Fill-69" fill="#FAB9AF"></path>
                <path d="M74.3644164,45.1294747 C73.6301201,44.0178606 69.3888724,36.7800724 70.0120252,36.3810473 C70.635178,35.9817146 75.8867074,42.5730082 76.6210037,43.6843149 C77.3549877,44.7956215 77.4449016,46.0200571 76.822061,46.4190823 C76.1989082,46.8181074 75.0987126,46.2407813 74.3644164,45.1294747" id="Fill-71" fill="#FAB9AF"></path>
                <path d="M212.763819,7.63651355 C212.763819,9.44385174 211.295752,10.9090909 209.484925,10.9090909 C207.674098,10.9090909 206.20603,9.44385174 206.20603,7.63651355 C206.20603,5.82917536 207.674098,4.36363636 209.484925,4.36363636 C211.295752,4.36363636 212.763819,5.82917536 212.763819,7.63651355" id="Fill-73" fill="#FFA50A"></path>
                <path d="M204.831725,16.5732169 C204.251772,15.0178619 205.329189,11.6395261 205.329189,11.6395261 L202.740101,7.61780411 C202.453127,7.05161149 202.518549,6.36899053 202.907292,5.86850815 L203.065001,5.66627372 C203.581744,5.0021537 203.919603,4.18077567 203.865242,3.33834485 C203.829844,2.79065318 204.045707,2.2254175 204.541274,1.8286042 C205.047272,1.42413533 205.74606,1.33992414 206.331702,1.61392947 C207.410067,2.11760167 207.682819,3.4493505 206.997305,4.3306971 C206.887951,4.47136805 206.757738,4.58269269 206.61994,4.6803011 L207.163864,5.11092648 L204.7505,8.21366203 C205.704973,7.61939901 206.938203,7.53869663 207.953991,8.06278366 C209.34651,8.78208752 209.947639,10.2525934 209.70428,11.623258 C210.506417,11.8232596 211.268099,12.27111 211.865119,13.0041301 C212.94222,14.3256715 213.062003,16.2523213 212.165683,17.7052832 C210.8743,19.7984415 208.115177,20.2482058 206.247,18.7681304 C205.519136,18.1914114 205.134186,17.3837496 204.831725,16.5732169" id="Fill-75" fill="#FAC855"></path>
                <g id="Group-79" transform="translate(206.206030, 0.000000)">
                    <mask id="mask-2" fill="white">
                        <use xlink:href="#path-1"></use>
                    </mask>
                    <g id="Clip-78"></g>
                    <path d="M8.63917972,3.24003357 C7.64297443,3.4410965 2.76610109,4.16042517 0.125305202,4.23427133 C0.301465415,3.78918042 0.394688886,3.3064951 0.40047517,2.82582378 C2.95479826,1.80641119 7.17814292,0.570495105 8.11037762,0.382187413 C9.4794768,0.106271329 10.7077764,0.521823776 10.8537193,1.31097063 C10.9996623,2.10011748 10.0082789,2.96378182 8.63917972,3.24003357" id="Fill-77" fill="#39AE96" mask="url(#mask-2)"></path>
                </g>
                <path d="M211.613686,9.71731963 C212.238916,7.85988153 215.729048,0.370026132 216.797989,0.740554662 C217.867246,1.11108319 216.110993,9.20164878 215.485447,11.0590869 C214.860218,12.916525 213.486224,14.1217817 212.417283,13.7512532 C211.348026,13.3807247 210.988456,11.5747577 211.613686,9.71731963" id="Fill-80" fill="#39AE96"></path>
                <path d="M221.83615,16.935221 C223.290925,14.9945272 228.284953,8.1949373 230.236745,9.65944967 C232.188537,11.1233254 229.908689,20.9070065 227.849985,23.6440945 C225.077893,27.3306806 221.169219,26.3191134 219.217427,24.8552377 C217.265636,23.3907253 220.381693,18.8755964 221.83615,16.935221" id="Fill-82" fill="#FAB9AF"></path>
                <path d="M205.667059,13.0193196 L212.434522,9.55426137 C213.571692,8.9720812 215.588026,11.129202 215.588026,11.129202 L218.371158,13.8467775 C219.308389,14.7620818 219.072041,16.3307252 217.906622,16.9270742 L217.839453,16.961709 L220.778894,24.5766508 L215.861098,26.1818182 L213.231137,23.4780967 L205.261218,15.7365803 C204.43196,14.9308479 204.638804,13.5460841 205.667059,13.0193196" id="Fill-84" fill="#55C7A6"></path>
                <path d="M209.352148,13.8191339 C211.194371,14.8181048 218.431883,19.8523395 217.828731,20.8928444 C217.22526,21.9330416 209.009534,18.5857047 207.16731,17.5864262 C205.325087,16.5874554 204.320787,14.9340925 204.923939,13.8935876 C205.52741,12.8530826 207.509606,12.8198554 209.352148,13.8191339" id="Fill-86" fill="#39AE96"></path>
                <path d="M233.892507,14.4722351 C235.943456,14.4024186 250.842116,13.2979908 250.651452,14.1225207 C250.504051,14.7622421 248.438887,14.8393246 246.958693,15.3536291 C242.981638,16.7351116 235.531227,18.8545641 234.036818,18.9054259 C231.986178,18.9752424 230.291526,18.0391956 230.251972,16.8150373 C230.212109,15.5908789 231.841867,14.5420516 233.892507,14.4722351" id="Fill-88" fill="#FA968C"></path>
                <path d="M216.916596,18.1981573 C217.588811,17.0206392 222.221773,9.83071275 222.883218,10.1952049 C223.544979,10.5600083 219.984646,18.340717 219.312431,19.5182351 C218.640216,20.6957533 217.559033,21.355014 216.897589,20.9905219 C216.236144,20.6260298 216.244697,19.3756754 216.916596,18.1981573" id="Fill-90" fill="#FAB9AF"></path>
                <path d="M216.88449,18.1120505 C217.299948,17.3113642 219.332427,13.8140509 220.844397,11.6363636 C221.103465,12.0815811 221.825768,12.7617478 222.236181,13.0303528 C221.355707,15.5788944 219.523834,18.7111229 219.128853,19.4714223 C218.499137,20.6839909 217.48631,21.3628755 216.866684,20.9875337 C216.247059,20.612192 216.254774,19.3246191 216.88449,18.1120505" id="Fill-92" fill="#39AE96"></path>
                <path d="M222.405634,19.4470928 C224.830151,18.0212309 233.222005,12.9914508 234.476569,15.0217272 C235.730815,17.0516944 228.617925,25.8229706 225.191088,27.832533 C220.575917,30.539259 217.120243,28.3361603 215.865679,26.3061931 C214.611116,24.2759167 219.981116,20.8732638 222.405634,19.4470928" id="Fill-94" fill="#FA968C"></path>
                <path d="M226.300491,11.6363636 C224.512009,13.3973339 222.700408,15.8452946 221.925461,16.875934 C221.116606,17.9517581 219.780947,19.8455157 219.144405,21.5321004 C217.029175,23.090201 215.060673,24.9993276 215.860589,26.3219764 C217.080961,28.3405297 220.442149,30.5309074 224.931849,27.8398104 C226.987587,26.6075308 230.404259,22.8203229 232.437186,19.6232812 C229.450526,17.924094 227.261315,15.0313569 226.300491,11.6363636" id="Fill-96" fill="#0073AA"></path>
                <path d="M232.292461,11.251439 C233.399479,12.8015838 241.749641,25.1620396 241.150149,25.4500891 C240.630547,25.6996277 230.123017,15.3924641 229.016,13.8420062 C227.908982,12.2915482 227.744865,10.4552325 228.649677,9.73980513 C229.55449,9.02437777 231.185444,9.70098106 232.292461,11.251439" id="Fill-98" fill="#FAB9AF"></path>
                <path d="M239.412063,22.5454545 C239.412063,22.5454545 241.038087,24.2097702 241.876897,24.7053584 C242.715089,25.2009467 246.297718,25.9565842 245.413492,26.7714054 C245.413492,26.7714054 242.081424,27.0045531 241.194727,26.8640667 C240.078167,26.6868147 240.395772,25.2574401 238.994975,23.9174389 L239.412063,22.5454545 Z" id="Fill-100" fill="#FAB9AF"></path>
                <path d="M243.537745,25.5575524 C244.754849,25.9195183 245.97966,26.3438649 245.408039,26.7881315 C245.408039,26.7881315 241.944592,26.9928349 241.022933,26.8696459 C240.253492,26.766639 240.137562,26.1803119 239.723618,25.4545455 C240.753821,26.0757324 242.145623,26.2594674 243.537745,25.5575524" id="Fill-102" fill="#C8462D"></path>
                <path d="M248.467337,13.5421165 C248.467337,13.5421165 250.706205,12.9530908 251.538105,12.4774651 C252.369702,12.0015418 254.712331,9.32428717 255.025126,10.4600741 C255.025126,10.4600741 253.679868,13.3935951 253.141705,14.0784604 C252.464085,14.9401227 251.339357,13.9942288 249.494052,14.5454545 L248.467337,13.5421165 Z" id="Fill-104" fill="#FA968C"></path>
                <path d="M252.685988,11.341885 C253.709297,10.5294174 254.807177,9.74517537 255.025126,10.4653791 C255.025126,10.4653791 253.518126,13.4569713 252.915122,14.1553231 C252.411433,14.7377381 251.686405,14.5110242 250.653266,14.4554838 C251.876899,13.9410526 252.784963,12.8857857 252.685988,11.341885" id="Fill-106" fill="#C8462D"></path>
                <path d="M224.039906,5.81760578 L224.376876,5.78654421 C224.40751,5.78354704 224.426951,5.76992354 224.42106,5.7557551 L224.141822,5.11163614 C224.135341,5.09774017 224.105886,5.08847619 224.075841,5.09147336 L223.738281,5.12280741 C223.708237,5.12553211 223.688207,5.1391556 223.694687,5.15332404 L223.973925,5.797443 C223.979816,5.81161144 224.009272,5.82060295 224.039906,5.81760578" id="Fill-108" fill="#C8E6EB"></path>
                <path d="M222.807915,10.8496567 C222.636675,10.9784829 222.383446,10.8866529 222.344355,10.6821826 L221.512367,6.33710536 C221.492994,6.23701729 221.532777,6.13527761 221.616149,6.07152514 L223.773091,4.42453144 C223.942256,4.29504457 224.194793,4.38291066 224.237689,4.58572938 L225.145093,8.90173815 C225.166541,9.00347784 225.126066,9.10852076 225.040272,9.17293387 L222.807915,10.8496567 Z" id="Fill-110" fill="#C8E6EB"></path>
                <path d="M221.511945,6.01806551 C221.494175,5.92538813 221.530985,5.83118143 221.607144,5.77214931 L223.403862,4.38749432 C223.434642,4.36394265 223.475578,4.3572136 223.512705,4.37005997 C223.549516,4.38290633 223.576806,4.41349293 223.584422,4.45080857 L224.416776,8.44664086 C224.436768,8.54145929 224.39964,8.63841878 224.320943,8.6983685 L222.363974,10.1818182 C222.321769,10.1463377 222.286546,10.1019872 222.275122,10.0414257 L221.511945,6.01806551 Z" id="Fill-112" fill="#FFFFFF"></path>
                <path d="M221.995364,8.54401631 C222.053183,8.85708808 221.986204,9.18196843 221.8179,9.45126199 C221.625552,9.75886148 221.430628,10.1600657 221.538251,10.3956615 C221.730313,10.8155867 221.935827,11.0618391 222.553516,10.8034901 C223.171491,10.5448531 223.896802,9.89394028 224.25402,9.41583621 C224.611237,8.93802015 225.194005,7.50831617 225.148208,7.37669354 C224.980763,6.89743741 224.103462,8.20588729 223.812078,8.6451094 C223.520407,9.0840435 222.994599,9.65229611 222.824291,9.45126199 C222.653983,9.25051589 222.508578,7.7750176 222.192005,7.78653818 C221.916936,7.79661868 221.93182,8.200127 221.995364,8.54401631" id="Fill-114" fill="#FAB9AF"></path>
                <path d="M222.983523,6.65584432 C223.047179,7.0526353 223.253314,7.32507038 223.44428,7.26423165 C223.634976,7.20339291 223.738179,6.83185575 223.674794,6.43506477 C223.611139,6.03827379 223.405004,5.76583871 223.214037,5.82667744 C223.023071,5.88789881 222.920139,6.25905334 222.983523,6.65584432" id="Fill-116" fill="#C8E6EB"></path>
                <path d="M210.32599,10.5201492 C210.32599,10.5201492 212.338953,12.1764717 211.995809,12.7898546 C211.560539,13.5675815 208.377548,12.5928305 208.377548,12.5928305 L206.934673,8.99014839 L208.283496,8 L210.32599,10.5201492 Z" id="Fill-118" fill="#FA968C"></path>
                <path d="M207.695261,3.29721831 C208.486459,3.9171456 208.624387,5.06021829 208.002895,5.84984087 C207.382058,6.63979042 206.237032,6.77744305 205.445506,6.15718879 C204.654308,5.5372615 204.51638,4.39418881 205.137545,3.60456623 C205.758709,2.81461669 206.904063,2.67729102 207.695261,3.29721831" id="Fill-120" fill="#FAC855"></path>
                <path d="M207.100376,4.06847066 C209.216289,5.93863864 208.304814,8.34583136 207.375433,9.67831365 C206.446344,11.0104655 204.763711,9.3676655 203.854291,8.5642765 C202.945458,7.76055702 203.207892,6.26316682 204.136981,4.93068452 C205.066069,3.5985327 206.190955,3.26508165 207.100376,4.06847066" id="Fill-122" fill="#FAC855"></path>
                <path d="M207.400541,4.82704691 C208.6987,5.82007596 210.431502,7.82389315 209.657284,8.78465986 C208.88337,9.74542656 206.564969,9.64715961 205.26681,8.65383457 C203.968044,7.66050953 203.667955,6.5268877 204.442173,5.56612099 C205.216087,4.60535428 206.102079,3.83372187 207.400541,4.82704691" id="Fill-124" fill="#FAB9AF"></path>
                <path d="M204.69962,8.72727273 L206.550882,6.07595605 C206.74622,5.79634389 206.916889,5.15971828 206.934673,4.83011779 C206.056084,4.05513737 205.277889,4.15511404 204.376066,5.82311183 C203.84656,6.80191564 203.870941,7.76491669 204.69962,8.72727273" id="Fill-126" fill="#FF9669"></path>
                <path d="M206.765271,5.06184689 L204.042992,8.72727273 L202.864534,7.74976205 C202.5221,7.46527934 202.462061,6.94128258 202.731181,6.5786628 L205.456477,2.90909091 L206.631012,3.88373124 C206.97586,4.16980859 207.0359,4.69731354 206.765271,5.06184689" id="Fill-128" fill="#FAC855"></path>
                <path d="M206.051597,8.72727273 L204.748744,7.792497 L205.19512,7.27272727 L205.929481,7.79932941 C206.243495,8.02479914 206.298322,8.4400582 206.051597,8.72727273" id="Fill-130" fill="#FAC855"></path>
                <path d="M206.321257,8.30044432 C206.83432,8.60761713 207.123303,8.98009875 206.795523,9.29889431 C206.46738,9.61768988 205.736401,9.39602734 205.223339,9.08885453 C204.710638,8.78140499 204.609839,8.50467273 204.937981,8.18587716 C205.265761,7.86735833 205.808194,7.99299478 206.321257,8.30044432" id="Fill-132" fill="#FAB9AF"></path>
                <path d="M209.120603,13.8181818 C209.120603,16.2283425 207.163273,18.1818182 204.749056,18.1818182 C202.334527,18.1818182 200.376884,16.2283425 200.376884,13.8181818 C200.376884,11.4080211 202.334527,9.45454545 204.749056,9.45454545 C207.163273,9.45454545 209.120603,11.4080211 209.120603,13.8181818" id="Fill-134" fill="#FAC855"></path>
                <path d="M204.748744,9.45454545 C204.748744,10.6597068 203.769998,11.6363636 202.562654,11.6363636 C201.35531,11.6363636 200.376884,10.6597068 200.376884,9.45454545 C200.376884,8.24938413 201.35531,7.27272727 202.562654,7.27272727 C203.769998,7.27272727 204.748744,8.24938413 204.748744,9.45454545" id="Fill-136" fill="#FAC855"></path>
                <path d="M138.453173,30.9649545 C140.109465,30.4012613 148.234074,27.2603877 147.904843,26.4099449 C147.575613,25.5592049 138.917074,27.3210062 137.260782,27.8849966 C135.604807,28.4486898 134.529025,29.595391 134.858255,30.4458338 C135.187486,31.2962765 136.796881,31.5286477 138.453173,30.9649545" id="Fill-138" fill="#FAB9AF"></path>
                <path d="M148.126777,34.0489876 C145.99667,32.8555284 135.619887,28.6855445 134.845477,30.1118026 C134.071385,31.5383846 143.192539,38.0217884 145.322328,39.2152476 C147.452435,40.4087068 149.806579,40.2196183 150.580989,38.7930363 C151.3554,37.3664544 150.256884,35.2427705 148.126777,34.0489876" id="Fill-140" fill="#FAB9AF"></path>
                <path d="M141.356784,36.2974717 C143.130167,37.6440424 144.809428,38.7957064 145.56575,39.2305961 C147.601698,40.4006715 149.852085,40.2152879 150.591959,38.8169748 C151.332138,37.4180268 150.282181,35.3359529 148.246232,34.16556 C147.462801,33.7154334 145.513664,32.8345437 143.368973,32 C141.50421,33.3424441 141.356784,36.2974717 141.356784,36.2974717" id="Fill-142" fill="#51946F"></path>
                <g id="Group-146" transform="translate(141.356784, 93.818182)">
                    <mask id="mask-4" fill="white">
                        <use xlink:href="#path-3"></use>
                    </mask>
                    <g id="Clip-145"></g>
                    <path d="M0.0540068434,1.25010909 C0.0540068434,1.76465455 5.39869112,2.18210909 11.9911961,2.18210909 C18.5840174,2.18210909 23.9287017,1.76465455 23.9287017,1.25010909 C23.9287017,0.735563636 18.5840174,0.318109091 11.9911961,0.318109091 C5.39869112,0.318109091 0.0540068434,0.735563636 0.0540068434,1.25010909" id="Fill-144" fill="#C73E3E" mask="url(#mask-4)"></path>
                </g>
                <path d="M147.24646,75.0356172 C147.526322,76.9507568 150.107563,91.8693669 150.749831,91.6335992 C151.306595,91.4293513 151.751546,76.3834014 151.471684,74.4682618 C151.191822,72.5534373 150.019099,71.1281145 148.852295,71.2844524 C147.685491,71.4411056 146.966269,73.1204775 147.24646,75.0356172" id="Fill-147" fill="#FAB9AF"></path>
                <path d="M147.701361,58.9790674 C147.31319,61.7645949 146.465716,77.5459716 148.452276,77.8150986 C150.438836,78.0839082 154.744124,60.6934823 155.132295,57.9076374 C155.520466,55.1221098 154.224631,52.6453801 152.238071,52.3762531 C150.25151,52.1074435 148.089211,56.1932224 147.701361,58.9790674" id="Fill-149" fill="#695A6E"></path>
                <path d="M150.902489,88.9641554 L150.88833,92.7373026 L151.547536,94.8811883 C151.592975,95.0287379 151.481681,95.1779233 151.326264,95.1779233 L149.823131,95.1779233 L149.823131,94.7005955 L149.093131,95.1779233 C149.093131,95.1779233 145.203095,95.3912322 145.070727,95.1779233 C144.570231,94.3734345 146.832998,94.0639403 148.488256,93.4272851 C150.143514,92.7906299 149.001264,86.5454545 149.001264,86.5454545 L150.902489,88.9641554 Z" id="Fill-151" fill="#FAB9AF"></path>
                <path d="M155.261536,75.0356522 C155.541397,76.9507878 158.122638,91.8693664 158.764906,91.6335992 C159.32167,91.4293517 159.766621,76.3834336 159.486759,74.468298 C159.206897,72.5534776 158.034174,71.1278425 156.867371,71.2844953 C155.700567,71.4411481 154.981345,73.1205166 155.261536,75.0356522" id="Fill-153" fill="#FAB9AF"></path>
                <path d="M149.465143,89.4545455 L151.347104,89.4545455 C151.61377,84.8394647 151.611491,75.6848169 151.42883,74.4363424 C151.15207,72.5406956 149.990659,71.1290238 148.835434,71.2844201 C147.680535,71.4395042 146.96845,73.1020567 147.24586,74.9980155 C147.423312,76.2146619 148.519929,85.0014137 149.465143,89.4545455" id="Fill-155" fill="#695A6E"></path>
                <path d="M153.746745,57.3257303 C153.681855,60.1102689 154.660682,77.7737622 156.671602,77.8180859 C158.682199,77.862724 160.96333,62.3104253 161.028219,59.526201 C161.093108,56.7416624 159.515428,52.4086211 157.505154,52.3642974 C155.494234,52.3196592 153.811634,54.541506 153.746745,57.3257303" id="Fill-157" fill="#695A6E"></path>
                <path d="M158.917564,88.9641554 L158.903406,92.7373026 L159.562611,94.8811883 C159.608051,95.0287379 159.496756,95.1779233 159.341339,95.1779233 L157.838206,95.1779233 L157.838206,94.7005955 L157.108207,95.1779233 C157.108207,95.1779233 153.21817,95.3912322 153.085802,95.1779233 C152.585306,94.3734345 154.848074,94.0639403 156.503331,93.4272851 C158.158589,92.7903027 157.016339,86.5454545 157.016339,86.5454545 L158.917564,88.9641554 Z" id="Fill-159" fill="#FAB9AF"></path>
                <path d="M150.98032,92.3636364 C150.482783,92.646847 149.875268,92.8151131 149.15547,92.8151131 C148.909501,92.8151131 148.679666,92.7918049 148.459709,92.7547672 C146.806741,93.3687627 144.572929,93.672408 145.070795,94.4530732 C145.203165,94.6609313 149.093237,94.4530732 149.093237,94.4530732 L149.822913,93.9872284 L149.822913,94.4530732 L151.32639,94.4530732 C151.481479,94.4530732 151.592774,94.3074767 151.547664,94.1634767 L150.98032,92.3636364 Z" id="Fill-161" fill="#415050"></path>
                <path d="M158.919211,92.3636364 C158.373934,92.7216538 157.666983,92.9420385 156.798031,92.9420385 C156.692004,92.9420385 156.591576,92.9348551 156.490489,92.9288211 C154.836219,93.4848112 152.586622,93.757778 153.085801,94.4623194 C153.218498,94.6493735 157.108206,94.4623194 157.108206,94.4623194 L157.838206,94.0431 L157.838206,94.4623194 L159.341339,94.4623194 C159.496756,94.4623194 159.608051,94.3312954 159.562611,94.2014207 L158.919211,92.3636364 Z" id="Fill-163" fill="#415050"></path>
                <path d="M157.834397,34.1895959 L147.515294,33.4623721 C145.45861,33.317424 143.860462,35.209199 144.365322,37.1916054 L148.822984,54.7070518 C149.355074,56.7980917 151.280613,58.2416759 153.454045,58.17991 C155.720748,58.1153506 157.607789,56.4355662 157.916715,54.2076481 L160.276377,37.174224 C160.485457,35.6667013 159.365251,34.297919 157.834397,34.1895959" id="Fill-165" fill="#FA968C"></path>
                <path d="M157.834397,34.1895959 L154.675035,33.9670524 C154.906024,35.1421566 154.296938,36.5016274 152.743861,36.602191 C150.93945,36.7195152 150.174805,34.9950358 150.585767,33.678708 L147.515294,33.4623721 C145.45861,33.317424 143.860462,35.209199 144.365322,37.1916054 L148.822984,54.7070518 C149.355074,56.7980917 151.280613,58.2416759 153.454045,58.17991 C155.720748,58.1153506 159.569323,57.3012201 159.877623,55.0736123 L160.276377,37.174224 C160.485457,35.6667013 159.365251,34.2976086 157.834397,34.1895959" id="Fill-167" fill="#51946F"></path>
                <path d="M147.976042,28.0086673 C148.746894,31.5369929 151.934827,32.3222394 153.920753,31.8938408 C155.907286,31.4654422 155.074145,27.9455698 154.742955,26.4297212 C154.412069,24.9135707 152.640354,24.4513591 150.654124,24.8794558 C148.668199,25.3078544 147.644852,26.4928187 147.976042,28.0086673" id="Fill-169" fill="#69280F"></path>
                <polygon id="Fill-171" fill="#FA968C" points="150.829146 34.1818182 154.472362 34.1818182 154.032458 27.6363636 151.825113 29.4925185"></polygon>
                <path d="M160.463427,42.4684117 C163.521383,45.7403478 167.351058,47.0970042 168.128435,46.3417456 C168.941019,45.552012 167.030739,41.9972529 164.146617,38.7744756 C161.159389,35.4361431 158.230315,33.3606184 157.054662,34.4935063 C155.879637,35.626075 157.405471,39.1967948 160.463427,42.4684117" id="Fill-173" fill="#FAB9AF"></path>
                <path d="M163.944724,38.9053129 C161.037848,35.4718768 158.187562,33.3372238 157.043532,34.5023858 C155.959151,35.6071393 157.241749,38.9673629 159.915231,42.1818182 C159.915231,42.1818182 163.421651,40.7438329 163.944724,38.9053129" id="Fill-175" fill="#51946F"></path>
                <path d="M162.271257,45.6732937 C160.523196,46.1400582 152.761169,48.8058525 153.021471,49.8127579 C153.281456,50.8196633 161.546924,49.506969 163.269559,48.9500194 C166.433232,47.9269517 168.555061,46.6608045 168.295076,45.6538991 C168.035092,44.6469936 164.019636,45.206206 162.271257,45.6732937" id="Fill-177" fill="#FAB9AF"></path>
                <path d="M148.75714,30.5018083 C149.334069,33.2170609 150.131971,34.4392636 151.498267,34.1367797 C153.162038,33.7677946 154.866905,31.4383138 154.391452,29.20116 C153.915682,26.9633605 152.672359,25.8841679 151.008588,26.2528302 C149.344818,26.6214924 148.281686,28.2640088 148.75714,30.5018083" id="Fill-179" fill="#FAB9AF"></path>
                <path d="M153.743719,28.1790414 L149.828389,29.0448821 C149.415708,29.1358343 149.005964,29.0882639 148.643216,28.9350813 C148.746313,27.5148512 149.612796,26.5158733 150.827048,26.2475046 C152.157907,25.9534059 153.197687,26.6555926 153.743719,28.1790414" id="Fill-181" fill="#FF9669"></path>
                <path d="M148.83542,29.0647407 L154.472362,27.7222133 L154.056738,25.6201155 C153.935741,25.0086082 153.386112,24.6205235 152.829224,24.7533156 L147.18593,26.0975028 L147.600041,28.192629 C147.721643,28.8081201 148.274599,29.1981966 148.83542,29.0647407" id="Fill-183" fill="#69280F"></path>
                <path d="M153.743719,29.0688736 L153.25971,26.9090909 L152.286432,27.1140028 L152.558833,28.330738 C152.675743,28.8512255 153.205931,29.1815186 153.743719,29.0688736" id="Fill-185" fill="#69280F"></path>
                <path d="M153.068288,29.2986383 C153.194187,30.0820809 153.478599,30.6633447 153.950848,30.5250299 C154.422844,30.386715 154.553041,29.2204307 154.427142,28.4369881 C154.301243,27.6538871 153.967281,27.549724 153.495031,27.6880389 C153.022782,27.8263537 152.942389,28.5151958 153.068288,29.2986383" id="Fill-187" fill="#FAB9AF"></path>
                <path d="M151.61144,50.1818182 L146.515008,50.1818182 C146.17269,50.1818182 145.884879,49.9187725 145.844747,49.5695831 L145.004676,42.2286075 C144.957656,41.8166564 145.271223,41.4545455 145.675236,41.4545455 L150.771368,41.4545455 C151.113686,41.4545455 151.401796,41.7175912 151.441928,42.0667805 L152.2817,49.4074485 C152.329019,49.8197073 152.015452,50.1818182 151.61144,50.1818182" id="Fill-189" fill="#A5C8CD"></path>
                <path d="M151.61144,50.1818182 L146.515008,50.1818182 C146.172989,50.1818182 145.884879,49.9187632 145.844747,49.5695615 L145.004676,42.2283271 C144.957656,41.8166691 145.271223,41.4545455 145.675236,41.4545455 L150.771368,41.4545455 C151.113686,41.4545455 151.401796,41.7176005 151.441928,42.0668021 L152.2817,49.4074212 C152.329019,49.8196945 152.015452,50.1818182 151.61144,50.1818182" id="Fill-191" fill="#C8E6EB"></path>
                <path d="M153.271144,47.978922 C153.271144,47.978922 154.661249,49.0437084 154.450637,49.5440779 C154.240025,50.0441395 153.999469,50.3446692 153.201273,50.08848 C152.40341,49.8322908 151.439853,49.1280784 150.953416,48.5996881 C150.466979,48.070682 150.056402,46.8657921 150.104314,46.7099848 C150.279325,46.1424887 151.051568,47.1863366 151.452163,47.6746973 C151.852758,48.1630579 152.357828,48.6782076 152.557127,48.4331035 C152.756759,48.1883074 151.913646,47.3058094 152.042076,46.9557047 C152.170173,46.6049841 153.271144,47.978922 153.271144,47.978922" id="Fill-193" fill="#FAB9AF"></path>
                <path d="M157.470349,89.4545455 L159.333367,89.4545455 C159.601147,84.8397707 159.64496,75.6844818 159.461862,74.4360901 C159.183619,72.540569 158.01768,71.1293028 156.857626,71.2843767 C155.697572,71.4394506 154.982838,73.1018928 155.261081,74.9977259 C155.439601,76.2146037 156.521511,85.001709 157.470349,89.4545455" id="Fill-195" fill="#695A6E"></path>
            </g>
        </g>
    </g>
</svg>
