<?xml version="1.0" encoding="UTF-8"?>
<svg width="117px" height="260px" viewBox="0 0 117 260" version="1.1" xmlns="http://www.w3.org/2000/svg" xmlns:xlink="http://www.w3.org/1999/xlink">
    <!-- Generator: sketchtool 49.3 (51167) - http://www.bohemiancoding.com/sketch -->
    <title>4AF63D85-1FB4-496F-940B-97C2AF98CE9B</title>
    <desc>Created with sketchtool.</desc>
    <defs>
        <polygon id="path-1" points="0.157955432 0.0583008357 39.0551142 0.0583008357 39.0551142 47.4984513 0.157955432 47.4984513"></polygon>
    </defs>
    <g id="✅8.0-lead-channel" stroke="none" stroke-width="1" fill="none" fill-rule="evenodd">
        <g id="8.0.2-request-info-step1" transform="translate(-338.000000, -712.000000)">
            <g id="request-pic" transform="translate(338.000000, 712.000000)">
                <path d="M23.4658691,120.356245 C24.1140585,123.218418 27.0131671,125.120618 29.8470947,124.383348 L56.8925265,117.348139 C59.7260919,116.611231 61.5670947,113.829811 60.9196295,110.967276 C60.2721643,108.104379 57.4038357,106.29995 54.5394903,106.941259 L27.4933343,113.976106 C24.6514401,114.7141 22.818766,117.49371 23.4658691,120.356245" id="Fill-1" fill="#F0BD94"></path>
                <path d="M22.2449554,103.463162 C21.9552618,106.383635 24.1062368,109.103496 27.0274345,109.299401 L54.910805,111.165752 C57.8320028,111.361657 60.457351,109.304109 60.7470446,106.383635 C61.036376,103.462799 58.885039,100.845056 55.9642033,100.54812 L28.0808329,98.6817688 C25.1513064,98.4851393 22.5350111,100.542688 22.2449554,103.463162" id="Fill-3" fill="#F0BD94"></path>
                <polygon id="Fill-5" fill="#F0BD94" points="62.9435014 69.7528579 68.9032228 103.791493 45.4981532 118.661103 27.9173733 114.919348 44.9173175 73.4906295"></polygon>
                <path d="M62.5661755,78.230415 C70.7210501,70.6759304 63.6246435,54.8362089 56.2066769,51.8690223 C48.7897967,48.9011114 40.0385153,54.8028942 35.3118022,64.9497744 C30.5861755,75.0970167 35.493585,85.1783538 39.4345042,86.6351504 C43.3754234,88.0923092 54.411663,85.7852618 62.5661755,78.230415" id="Fill-7" fill="#F9CBA4"></path>
                <path d="M62.5661755,78.230415 C70.7210501,70.6759304 63.6246435,54.8362089 56.2066769,51.8690223 C48.7897967,48.9011114 40.0385153,54.8028942 35.3118022,64.9497744 C30.5861755,75.0970167 35.493585,85.1783538 39.4345042,86.6351504 C43.3754234,88.0923092 54.411663,85.7852618 62.5661755,78.230415 Z" id="Stroke-9" stroke="#F9CBA4" stroke-width="0.216"></path>
                <path d="M62.7978217,64.0141365 C59.8632256,64.0101532 56.8601894,66.4787047 57.4558719,69.3416017 L64.7304401,104.296031 C65.3261226,107.159652 67.1233092,109.635084 70.0586295,109.639067 C72.9932256,109.642688 75.3893538,107.246198 75.4002173,104.310515 L68.1260111,69.3560864 C67.528156,66.4816017 65.7331421,64.0170334 62.7978217,64.0141365" id="Fill-11" fill="#F9CBA4"></path>
                <path d="M62.7978217,64.0141365 C59.8632256,64.0101532 56.8601894,66.4787047 57.4558719,69.3416017 L64.7304401,104.296031 C65.3261226,107.159652 67.1233092,109.635084 70.0586295,109.639067 C72.9932256,109.642688 75.3893538,107.246198 75.4002173,104.310515 L68.1260111,69.3560864 C67.528156,66.4816017 65.7331421,64.0170334 62.7978217,64.0141365 Z" id="Stroke-13" stroke="#F9CBA4" stroke-width="0.216"></path>
                <path d="M55.3022897,128.513039 C57.8595599,129.952454 61.075883,128.997189 62.5688914,126.480838 L74.5629304,106.860616 C76.0892535,104.364181 75.0894485,101.033791 72.5310919,99.5940139 C69.9738217,98.1542368 66.7111476,99.071117 65.2655766,101.625852 L53.2700891,121.246799 C51.7390585,123.751201 52.7442953,127.073624 55.3022897,128.513039" id="Fill-15" fill="#F9CBA4"></path>
                <path d="M26.5825738,137.682674 C27.6667521,140.410501 30.826585,141.838329 33.5116825,140.670501 L59.1365292,129.522006 C61.8219889,128.354178 63.2088969,125.320362 62.1247187,122.593259 C61.0409025,119.865794 57.9270585,118.528134 55.1963343,119.606518 L29.5707632,130.754652 C26.8780613,131.925738 25.4987577,134.955209 26.5825738,137.682674" id="Fill-17" fill="#FDD5B5"></path>
                <path d="M58.8421281,107.376234 C58.6849694,104.674479 56.8197047,94.7781838 52.5264457,90.2506351 C48.8426295,86.3662061 42.7692033,87.1342563 41.2805404,91.8182396 C39.4764735,97.4918886 34.3144958,85.8067354 37.4717939,76.7469304 C39.9602618,69.6070696 50.7803175,65.1034206 50.7803175,65.1034206 L67.2305682,77.8991866 C67.2305682,77.8991866 74.0014318,97.846039 58.8421281,107.376234" id="Fill-19" fill="#F9CBA4"></path>
                <path d="M58.8421281,107.376234 C58.6849694,104.674479 56.8197047,94.7781838 52.5264457,90.2506351 C48.8426295,86.3662061 42.7692033,87.1342563 41.2805404,91.8182396 C39.4764735,97.4918886 34.3144958,85.8067354 37.4717939,76.7469304 C39.9602618,69.6070696 50.7803175,65.1034206 50.7803175,65.1034206 L67.2305682,77.8991866 C67.2305682,77.8991866 74.0014318,97.846039 58.8421281,107.376234 Z" id="Stroke-21" stroke="#F9CBA4" stroke-width="0.216"></path>
                <polygon id="Fill-23" fill="#F9CBA4" points="36.6309582 66.8085209 36.8163621 20.9800808 53.9535487 15.313312 66.3133259 32.8615014 66.1724624 65.2974067"></polygon>
                <polygon id="Stroke-25" stroke="#F9CBA4" stroke-width="0.216" points="36.6309582 66.8085209 36.8163621 20.9800808 53.9535487 15.313312 66.3133259 32.8615014 66.1724624 65.2974067"></polygon>
                <g id="Group-29" transform="translate(31.866295, 0.303816)">
                    <mask id="mask-2" fill="white">
                        <use xlink:href="#path-1"></use>
                    </mask>
                    <g id="Clip-28"></g>
                    <polygon id="Fill-27" fill="#322632" mask="url(#mask-2)" points="0.157955432 47.1841337 0.162662953 0.0582284123 39.0547521 0.0582284123 39.0551142 47.4984513"></polygon>
                </g>
                <path d="M106.447766,259.941554 L0.000217270195,259.941554 L0.000217270195,240.519409 L106.447766,240.519772 C111.78863,240.519772 116.158295,244.889437 116.158295,250.230663 L116.158295,250.231387 C116.158295,255.572613 111.78863,259.941554 106.447766,259.941554" id="Fill-30" fill="#E18B0C"></path>
                <path d="M106.447766,257.674086 L0.000217270195,257.673724 L0.000217270195,242.787819 L106.447766,242.787819 C110.537153,242.788181 113.890719,246.141022 113.890719,250.230409 C113.890719,254.319797 110.537515,257.674086 106.447766,257.674086" id="Fill-32" fill="#DFE5CB"></path>
                <path d="M116.15844,104.689905 L116.15844,250.230518 C116.15844,244.889292 111.788774,240.519989 106.447911,240.519989 L0,240.519627 L0,94.9782897 L106.448273,94.9786518 C111.788774,94.9786518 116.15844,99.3486797 116.15844,104.689181 L116.15844,104.689905 Z" id="Fill-34" fill="#6EC12D"></path>
                <polygon id="Fill-36" fill="#E18B0C" points="106.448128 94.978507 101.841638 94.978507 101.841276 242.787783 106.447766 242.787783"></polygon>
                <polygon id="Fill-38" fill="#FDD9C8" points="13.8621643 223.005947 88.6357019 222.779624 88.6360641 177.255 13.8628886 177.481323"></polygon>
                <polygon id="Fill-40" fill="#FDD9C8" points="13.8628524 170.071468 88.63639 169.845145 88.63639 155.201858 13.8628524 155.428543"></polygon>
                <polygon id="Fill-42" fill="#FDD9C8" points="13.8635766 125.720429 88.6374763 125.493744 88.6374763 120.439677 13.8643008 120.666"></polygon>
                <path d="M41.1683928,66.8670752 C37.8810947,65.832507 34.1107326,67.6177437 33.3122646,70.9618942 L24.7261086,107.826128 C23.9461086,111.174262 25.5329053,114.648774 28.8202033,115.682618 C32.1078635,116.717549 35.6345209,114.873287 36.6763315,111.587799 L45.2624875,74.7228412 C46.0442981,71.3663788 44.4556908,67.9009192 41.1683928,66.8670752" id="Fill-44" fill="#F9CBA4"></path>
                <path d="M41.1683928,66.8670752 C37.8810947,65.832507 34.1107326,67.6177437 33.3122646,70.9618942 L24.7261086,107.826128 C23.9461086,111.174262 25.5329053,114.648774 28.8202033,115.682618 C32.1078635,116.717549 35.6345209,114.873287 36.6763315,111.587799 L45.2624875,74.7228412 C46.0442981,71.3663788 44.4556908,67.9009192 41.1683928,66.8670752 Z" id="Stroke-46" stroke="#F9CBA4" stroke-width="0.216"></path>
            </g>
        </g>
    </g>
</svg>
