<?xml version="1.0" encoding="UTF-8"?>
<svg width="126px" height="207px" viewBox="0 0 126 207" version="1.1" xmlns="http://www.w3.org/2000/svg" xmlns:xlink="http://www.w3.org/1999/xlink">
    <!-- Generator: sketchtool 49.3 (51167) - http://www.bohemiancoding.com/sketch -->
    <title>77674B52-C79B-40EA-9E3E-10C104CE5338</title>
    <desc>Created with sketchtool.</desc>
    <defs>
        <polygon id="path-1" points="0 206 125 206 125 0 0 0"></polygon>
    </defs>
    <g id="✅2.0-About-us" stroke="none" stroke-width="1" fill="none" fill-rule="evenodd">
        <g id="表單狀態" transform="translate(-244.000000, -149.000000)">
            <g id="success_pic" transform="translate(245.000000, 149.750000)">
                <path d="M34.0136054,66.6967213 C33.4918098,66.2518512 26.6013944,47.56964 10.2040816,33.7704918 L10.4032182,66.0837113 L34.0136054,66.6967213 Z" id="Fill-1" fill="#D3A97A"></path>
                <path d="M0.144373654,46.0083478 L3.81043516,62.759821 C3.81043516,62.759821 4.1654312,64.0401278 4.93041856,65.4077479 C5.72741375,66.8327124 7.01791163,67.9245608 8.55923458,68.4916649 L28.9115646,75.9836066 L24.0088366,65.3411823 L13.6810708,62.0909954 C13.6810708,62.0909954 12.2928035,61.635122 12.492998,58.4927079 L12.3803886,50.1590431 C12.3408153,47.2330392 14.1809751,44.5813662 16.9770053,43.6350399 C17.4821472,43.4641595 18.004166,43.3532168 18.5288035,43.3336218 L9.6891113,31.2377049 L2.86213018,38.3146923 C2.86213018,38.3146923 -0.757665451,41.6959932 0.144373654,46.0083478" id="Fill-3" fill="#F9CBA4"></path>
                <path d="M0.144373654,46.0083478 L3.81043516,62.759821 C3.81043516,62.759821 4.1654312,64.0401278 4.93041856,65.4077479 C5.72741375,66.8327124 7.01791163,67.9245608 8.55923458,68.4916649 L28.9115646,75.9836066 L24.0088366,65.3411823 L13.6810708,62.0909954 C13.6810708,62.0909954 12.2928035,61.635122 12.492998,58.4927079 L12.3803886,50.1590431 C12.3408153,47.2330392 14.1809751,44.5813662 16.9770053,43.6350399 C17.4821472,43.4641595 18.004166,43.3532168 18.5288035,43.3336218 L9.6891113,31.2377049 L2.86213018,38.3146923 C2.86213018,38.3146923 -0.757665451,41.6959932 0.144373654,46.0083478 Z" id="Stroke-5" stroke="#F9CBA4" stroke-width="0.216"></path>
                <mask id="mask-2" fill="white">
                    <use xlink:href="#path-1"></use>
                </mask>
                <g id="Clip-8"></g>
                <polygon id="Fill-7" fill="#DFE5CB" mask="url(#mask-2)" points="10.2040816 159.565574 99.4897959 159.565574 99.4897959 45.5901639 10.2040816 45.5901639"></polygon>
                <polygon id="Fill-9" fill="#D6D6D6" mask="url(#mask-2)" points="18.707483 89.4918033 92.6870748 89.4918033 92.6870748 88.647541 18.707483 88.647541"></polygon>
                <polygon id="Fill-10" fill="#D6D6D6" mask="url(#mask-2)" points="18.707483 86.1147541 92.6870748 86.1147541 92.6870748 85.2704918 18.707483 85.2704918"></polygon>
                <polygon id="Fill-11" fill="#D6D6D6" mask="url(#mask-2)" points="18.707483 83.5819672 92.6870748 83.5819672 92.6870748 82.7377049 18.707483 82.7377049"></polygon>
                <polygon id="Fill-12" fill="#D6D6D6" mask="url(#mask-2)" points="18.707483 79.3606557 92.6870748 79.3606557 92.6870748 78.5163934 18.707483 78.5163934"></polygon>
                <polygon id="Fill-13" fill="#D6D6D6" mask="url(#mask-2)" points="18.707483 75.9836066 92.6870748 75.9836066 92.6870748 75.1393443 18.707483 75.1393443"></polygon>
                <polygon id="Fill-14" fill="#D6D6D6" mask="url(#mask-2)" points="18.707483 73.4508197 92.6870748 73.4508197 92.6870748 72.6065574 18.707483 72.6065574"></polygon>
                <polygon id="Fill-15" fill="#D6D6D6" mask="url(#mask-2)" points="18.707483 69.2295082 92.6870748 69.2295082 92.6870748 68.3852459 18.707483 68.3852459"></polygon>
                <polygon id="Fill-16" fill="#D6D6D6" mask="url(#mask-2)" points="18.707483 65.852459 92.6870748 65.852459 92.6870748 65.0081967 18.707483 65.0081967"></polygon>
                <polygon id="Fill-17" fill="#D6D6D6" mask="url(#mask-2)" points="18.707483 63.3196721 92.6870748 63.3196721 92.6870748 62.4754098 18.707483 62.4754098"></polygon>
                <polygon id="Fill-18" fill="#D6D6D6" mask="url(#mask-2)" points="18.707483 59.942623 92.6870748 59.942623 92.6870748 59.0983607 18.707483 59.0983607"></polygon>
                <polygon id="Fill-19" fill="#D6D6D6" mask="url(#mask-2)" points="18.707483 56.5655738 92.6870748 56.5655738 92.6870748 55.7213115 18.707483 55.7213115"></polygon>
                <polygon id="Fill-20" fill="#D6D6D6" mask="url(#mask-2)" points="18.707483 92.8688525 92.6870748 92.8688525 92.6870748 92.0245902 18.707483 92.0245902"></polygon>
                <polygon id="Fill-21" fill="#D6D6D6" mask="url(#mask-2)" points="18.707483 97.0901639 92.6870748 97.0901639 92.6870748 96.2459016 18.707483 96.2459016"></polygon>
                <polygon id="Fill-22" fill="#D6D6D6" mask="url(#mask-2)" points="18.707483 99.6229508 92.6870748 99.6229508 92.6870748 98.7786885 18.707483 98.7786885"></polygon>
                <polygon id="Fill-23" fill="#D6D6D6" mask="url(#mask-2)" points="18.707483 103 92.6870748 103 92.6870748 102.155738 18.707483 102.155738"></polygon>
                <polygon id="Fill-24" fill="#D6D6D6" mask="url(#mask-2)" points="18.707483 107.221311 92.6870748 107.221311 92.6870748 106.377049 18.707483 106.377049"></polygon>
                <polygon id="Fill-25" fill="#D6D6D6" mask="url(#mask-2)" points="18.707483 109.754098 92.6870748 109.754098 92.6870748 108.909836 18.707483 108.909836"></polygon>
                <polygon id="Fill-26" fill="#D6D6D6" mask="url(#mask-2)" points="18.707483 113.131148 92.6870748 113.131148 92.6870748 112.286885 18.707483 112.286885"></polygon>
                <polygon id="Fill-27" fill="#D6D6D6" mask="url(#mask-2)" points="18.707483 115.663934 92.6870748 115.663934 92.6870748 114.819672 18.707483 114.819672"></polygon>
                <polygon id="Fill-28" fill="#D6D6D6" mask="url(#mask-2)" points="18.707483 119.885246 92.6870748 119.885246 92.6870748 119.040984 18.707483 119.040984"></polygon>
                <polygon id="Fill-29" fill="#D6D6D6" mask="url(#mask-2)" points="18.707483 123.262295 92.6870748 123.262295 92.6870748 122.418033 18.707483 122.418033"></polygon>
                <polygon id="Fill-30" fill="#D6D6D6" mask="url(#mask-2)" points="18.707483 126.639344 92.6870748 126.639344 92.6870748 125.795082 18.707483 125.795082"></polygon>
                <polygon id="Fill-31" fill="#D6D6D6" mask="url(#mask-2)" points="18.707483 130.016393 92.6870748 130.016393 92.6870748 129.172131 18.707483 129.172131"></polygon>
                <polygon id="Fill-32" fill="#D6D6D6" mask="url(#mask-2)" points="18.707483 132.54918 92.6870748 132.54918 92.6870748 131.704918 18.707483 131.704918"></polygon>
                <polygon id="Fill-33" fill="#D6D6D6" mask="url(#mask-2)" points="18.707483 136.770492 92.6870748 136.770492 92.6870748 135.92623 18.707483 135.92623"></polygon>
                <polygon id="Fill-34" fill="#D6D6D6" mask="url(#mask-2)" points="18.707483 139.303279 92.6870748 139.303279 92.6870748 138.459016 18.707483 138.459016"></polygon>
                <polygon id="Fill-35" fill="#D6D6D6" mask="url(#mask-2)" points="18.707483 143.52459 92.6870748 143.52459 92.6870748 142.680328 18.707483 142.680328"></polygon>
                <polygon id="Fill-36" fill="#D6D6D6" mask="url(#mask-2)" points="18.707483 146.901639 92.6870748 146.901639 92.6870748 146.057377 18.707483 146.057377"></polygon>
                <polygon id="Fill-37" fill="#D6D6D6" mask="url(#mask-2)" points="18.707483 151.122951 92.6870748 151.122951 92.6870748 150.278689 18.707483 150.278689"></polygon>
                <path d="M23.4132398,49.1882529 C23.8273317,50.240917 25.1611851,54.5232479 24.9228548,58.4909597 L24.5960749,66.6281657 C24.5960749,66.6281657 24.604607,69.3670498 27.0928553,70.5881056 C27.2077544,70.644524 27.3283416,70.6879892 27.4520572,70.7199405 C28.1673326,70.9035882 30.6880028,71.3796906 32.644416,69.6048131 C32.8634069,69.4059094 33.0349024,69.1592227 33.1449666,68.8828876 C33.3926823,68.2605579 33.7484713,66.9237867 33.7814622,64.3391897 L34.8639027,42.2119423 C34.8639027,42.2119423 34.8875083,36.6247915 33.8263979,32.8303648 C33.8099025,32.7722193 33.7962511,32.7134981 33.7851594,32.6539133 C33.678508,32.0730338 33.0531042,28.7616179 32.3918655,27.2190346 C32.2840765,26.9674545 32.2289022,26.6960128 32.230893,26.4219805 L32.2556362,23.0820675 C32.2559206,23.0253612 32.2112692,22.9793054 32.155526,22.9787297 L14.5793756,22.795082 L14.5594673,24.7561978 C14.5546325,25.2271189 14.3825682,25.6804812 14.074559,26.0336721 L9.3537415,31.4466742 L17.3907065,42.6825756 C17.5752845,42.9407762 17.7976882,43.274969 17.9859635,43.5300033 C18.1546149,43.7582676 20.6010558,42.0372179 23.4132398,49.1882529" id="Fill-39" fill="#F9CBA4" mask="url(#mask-2)"></path>
                <path d="M23.4132398,49.1882529 C23.8273317,50.240917 25.1611851,54.5232479 24.9228548,58.4909597 L24.5960749,66.6281657 C24.5960749,66.6281657 24.604607,69.3670498 27.0928553,70.5881056 C27.2077544,70.644524 27.3283416,70.6879892 27.4520572,70.7199405 C28.1673326,70.9035882 30.6880028,71.3796906 32.644416,69.6048131 C32.8634069,69.4059094 33.0349024,69.1592227 33.1449666,68.8828876 C33.3926823,68.2605579 33.7484713,66.9237867 33.7814622,64.3391897 L34.8639027,42.2119423 C34.8639027,42.2119423 34.8875083,36.6247915 33.8263979,32.8303648 C33.8099025,32.7722193 33.7962511,32.7134981 33.7851594,32.6539133 C33.678508,32.0730338 33.0531042,28.7616179 32.3918655,27.2190346 C32.2840765,26.9674545 32.2289022,26.6960128 32.230893,26.4219805 L32.2556362,23.0820675 C32.2559206,23.0253612 32.2112692,22.9793054 32.155526,22.9787297 L14.5793756,22.795082 L14.5594673,24.7561978 C14.5546325,25.2271189 14.3825682,25.6804812 14.074559,26.0336721 L9.3537415,31.4466742 L17.3907065,42.6825756 C17.5752845,42.9407762 17.7976882,43.274969 17.9859635,43.5300033 C18.1546149,43.7582676 20.6010558,42.0372179 23.4132398,49.1882529 Z" id="Stroke-40" stroke="#F9CBA4" stroke-width="0.216" mask="url(#mask-2)"></path>
                <path d="M90.9863946,139.303279 C91.5084725,139.748145 98.3988044,158.43019 114.795918,172.229508 L114.596784,139.916283 L90.9863946,139.303279 Z" id="Fill-41" fill="#D3A97A" mask="url(#mask-2)"></path>
                <path d="M124.005296,159.14739 L120.339233,142.395917 C120.339233,142.395917 119.984237,141.115898 119.21925,139.748278 C118.422254,138.323025 117.131756,137.231465 115.590141,136.664073 L95.2380952,129.172131 L100.140534,139.814844 L110.468594,143.06503 C110.468594,143.06503 111.856571,143.520616 111.656667,146.663318 L111.768986,154.996695 C111.808559,157.922698 109.96869,160.574372 107.172368,161.520698 C106.667226,161.691866 106.145498,161.802521 105.62086,161.822404 L114.460264,173.918033 L121.287248,166.841045 C121.287248,166.841045 124.907335,163.460033 124.005296,159.14739" id="Fill-42" fill="#F9CBA4" mask="url(#mask-2)"></path>
                <path d="M124.005296,159.14739 L120.339233,142.395917 C120.339233,142.395917 119.984237,141.115898 119.21925,139.748278 C118.422254,138.323025 117.131756,137.231465 115.590141,136.664073 L95.2380952,129.172131 L100.140534,139.814844 L110.468594,143.06503 C110.468594,143.06503 111.856571,143.520616 111.656667,146.663318 L111.768986,154.996695 C111.808559,157.922698 109.96869,160.574372 107.172368,161.520698 C106.667226,161.691866 106.145498,161.802521 105.62086,161.822404 L114.460264,173.918033 L121.287248,166.841045 C121.287248,166.841045 124.907335,163.460033 124.005296,159.14739 Z" id="Stroke-43" stroke="#F9CBA4" stroke-width="0.216" mask="url(#mask-2)"></path>
                <path d="M88.1968337,116.508197 L79.9319728,124.71569 C79.9319728,124.71569 79.9363519,124.71656 79.9439424,124.71772 C80.0484574,124.736275 80.8294006,124.882977 81.9995018,125.307138 C82.1063523,125.345698 82.2161223,125.386577 82.3288116,125.429776 C85.2134846,126.53874 90.0658425,129.227507 93.25647,135.389578 C93.256762,135.390448 93.2544264,135.393927 93.2547184,135.394797 C93.4827246,135.834903 93.6978854,136.297914 93.9118785,136.770202 L93.9121704,136.770492 L100.340136,130.386918 C99.8598925,130.178462 99.3980412,129.960438 98.9545822,129.734006 C92.7482001,126.565703 90.0369403,121.749175 88.9182209,118.886453 C88.3968136,117.552218 88.2213568,116.642432 88.1994612,116.521533 C88.1977095,116.512836 88.1968337,116.508197 88.1968337,116.508197" id="Fill-44" fill="#804F31" mask="url(#mask-2)"></path>
                <path d="M90.1360544,102.955451 L65.405701,127.483607 L65.0520077,127.13252 C64.4837979,126.569241 64.4837979,125.655731 65.0520077,125.092167 L87.7700473,102.559587 C88.3132397,102.021121 89.1940224,102.021121 89.7369273,102.559587 L90.1360544,102.955451 Z" id="Fill-45" fill="#2A2426" mask="url(#mask-2)"></path>
                <path d="M107.327805,131.521425 C107.197204,131.391758 107.063212,131.267424 106.926109,131.148423 C103.752971,128.39427 98.927539,128.518884 95.9033756,131.521425 C92.8794948,134.523685 92.7539827,139.314615 95.52797,142.465066 C95.6475457,142.601468 95.7727751,142.734222 95.9033756,142.86417 C99.0581395,145.996096 104.173041,145.996096 107.327805,142.86417 C110.482569,139.731682 110.482569,134.653352 107.327805,131.521425" id="Fill-46" fill="#71452C" mask="url(#mask-2)"></path>
                <path d="M98.6394558,129.799357 C98.1782591,129.599102 97.7350056,129.389655 97.3091347,129.172131 C96.0491846,129.532535 94.860727,130.205717 93.868243,131.191676 C92.8768804,132.176521 92.1995241,133.355216 91.8367347,134.605211 C91.8370151,134.605768 91.8375758,134.606604 91.8378561,134.60744 C92.0568194,135.030232 92.2662504,135.472243 92.4717563,135.92623 C92.7734265,134.478485 93.5034911,133.086166 94.6417637,131.955098 C95.7803167,130.824309 97.1734391,130.107121 98.6394558,129.799357" id="Fill-47" fill="#000000" mask="url(#mask-2)"></path>
                <path d="M92.3587747,112.711691 L75.2575039,129.69044 C72.5521967,132.376411 68.1658992,132.376411 65.4602997,129.69044 L63.7755102,128.017692 L90.673693,101.311475 L92.3587747,102.984223 C95.0640819,105.670194 95.0640819,110.02543 92.3587747,112.711691" id="Fill-48" fill="#804F31" mask="url(#mask-2)"></path>
                <path d="M88.5375365,117.360612 L88.5293315,117.352459 L79.9319728,125.895282 C79.9319728,125.895282 79.9362273,125.896188 79.9444323,125.897698 C80.0529211,125.916722 80.8658275,126.069521 82.0841234,126.511308 C82.1950434,126.551772 82.3093061,126.594048 82.4269116,126.639344 L89.2857143,119.823808 C88.7429663,118.434127 88.5603283,117.486535 88.5375365,117.360612" id="Fill-49" fill="#000000" mask="url(#mask-2)"></path>
                <path d="M100.736448,155.967485 C100.32265,154.915109 98.9885418,150.63249 99.2268669,146.664778 L99.5536395,138.527572 C99.5536395,138.527572 99.5451076,135.788688 97.0569147,134.56792 C96.9420181,134.511502 96.8214336,134.467748 96.6977208,134.435797 C95.9824613,134.25215 93.4621315,133.776047 91.5054773,135.550925 C91.2862069,135.749828 91.1149997,135.996803 91.0049379,136.273138 C90.7572278,136.89518 90.4014466,138.231951 90.3687409,140.816548 L89.2857556,162.943795 C89.2857556,162.943795 89.262435,168.530946 90.3238061,172.325373 C90.3397324,172.383806 90.3536679,172.44224 90.364475,172.501824 C90.4714084,173.082992 91.0967983,176.39412 91.7580222,177.936991 C91.8660933,178.188571 91.920982,178.459725 91.9189912,178.734045 L91.8942486,182.07367 C91.8939642,182.130376 91.9386146,182.176432 91.9946409,182.177008 L109.570116,182.360656 L109.590024,180.399828 C109.594859,179.928619 109.766919,179.475256 110.074921,179.122066 L114.795918,173.709063 L106.759132,162.473162 C106.574274,162.214961 106.351875,161.881057 106.163604,161.625734 C105.994956,161.397758 103.548854,163.118808 100.736448,155.967485" id="Fill-50" fill="#F9CBA4" mask="url(#mask-2)"></path>
                <path d="M100.736448,155.967485 C100.32265,154.915109 98.9885418,150.63249 99.2268669,146.664778 L99.5536395,138.527572 C99.5536395,138.527572 99.5451076,135.788688 97.0569147,134.56792 C96.9420181,134.511502 96.8214336,134.467748 96.6977208,134.435797 C95.9824613,134.25215 93.4621315,133.776047 91.5054773,135.550925 C91.2862069,135.749828 91.1149997,135.996803 91.0049379,136.273138 C90.7572278,136.89518 90.4014466,138.231951 90.3687409,140.816548 L89.2857556,162.943795 C89.2857556,162.943795 89.262435,168.530946 90.3238061,172.325373 C90.3397324,172.383806 90.3536679,172.44224 90.364475,172.501824 C90.4714084,173.082992 91.0967983,176.39412 91.7580222,177.936991 C91.8660933,178.188571 91.920982,178.459725 91.9189912,178.734045 L91.8942486,182.07367 C91.8939642,182.130376 91.9386146,182.176432 91.9946409,182.177008 L109.570116,182.360656 L109.590024,180.399828 C109.594859,179.928619 109.766919,179.475256 110.074921,179.122066 L114.795918,173.709063 L106.759132,162.473162 C106.574274,162.214961 106.351875,161.881057 106.163604,161.625734 C105.994956,161.397758 103.548854,163.118808 100.736448,155.967485 Z" id="Stroke-51" stroke="#F9CBA4" stroke-width="0.216" mask="url(#mask-2)"></path>
                <path d="M32.5325639,98.2383332 C29.379725,98.835195 27.290766,101.935852 27.8761995,105.150238 C28.4613477,108.364624 31.5029199,110.494362 34.6557587,109.8975 L77.1613101,101.851791 C80.3141489,101.254929 82.4028226,98.1545631 81.8176744,94.9398862 C81.232241,91.7255001 78.1912393,89.5960529 75.0381152,90.1929148 L32.5325639,98.2383332 Z M77.4197909,103.272392 L34.9142396,111.31781 C33.0218516,111.675869 31.1003631,111.2576 29.5038301,110.139502 C27.9072971,109.021404 26.8342877,107.343385 26.4830846,105.414055 C26.1315963,103.484726 26.5421415,101.525727 27.6388307,99.8977371 C28.7352347,98.269747 30.3814097,97.1763729 32.2737977,96.8180231 L74.7796343,88.7723138 C76.671737,88.4142548 78.5935109,88.8328144 80.1900439,89.9509123 C81.7865769,91.0690102 82.8595863,92.7470297 83.2107893,94.6763594 C83.5622776,96.6056892 83.1517324,98.5646875 82.0553285,100.192387 C80.958354,101.820086 79.3121789,102.914042 77.4197909,103.272392 Z" id="Fill-52" fill="#6EC12D" mask="url(#mask-2)"></path>
                <g id="Group-2" mask="url(#mask-2)" fill="#6EC12D" stroke="#6EC12D" stroke-width="0.3">
                    <g transform="translate(48.319328, 94.111675)">
                        <path d="M6.24063484,6.02620956 C5.80012458,3.8788239 4.5573282,2.77766975 3.09355831,3.10540492 C1.6185817,3.43524095 0.928362757,4.96947372 1.36887301,7.11685938 C1.80708445,9.2525402 3.05045554,10.4146195 4.52543215,10.0844833 C5.9894894,9.75704828 6.67884628,8.16189038 6.24063484,6.02620956 M0.307395592,7.35425729 C-0.255526516,4.61142605 0.843593986,2.61980464 2.89959587,2.15971488 C4.95559775,1.699325 6.7394775,3.04568029 7.30211226,5.78851152 C7.86474702,8.53104263 6.77539647,10.5694834 4.71968195,11.0298732 C2.66339271,11.489963 0.870030348,10.0967884 0.307395592,7.35425729" id="Fill-53"></path>
                        <polygon id="Fill-54" points="7.44940833 1.54408853 8.41913443 1.30841629 9.24140426 5.65999024 9.27277223 5.65238791 11.64092 0.525072161 12.7251258 0.261727434 10.9610126 4.14104462 14.7380381 8.83837256 13.6538323 9.10202138 10.5170351 5.13968675 9.53846163 7.23276037 10.0569715 9.97628938 9.08724542 10.2119616"></polygon>
                    </g>
                </g>
                <polygon id="Fill-55" fill="#DFE5CB" mask="url(#mask-2)" points="33.1632653 21.1978497 33.1486699 22.795082 11.9047619 22.7039814 11.9193573 21.1065574"></polygon>
                <polygon id="Fill-56" fill="#322632" mask="url(#mask-2)" points="9.39478168 21.1065574 9.39478168 21.0776008 9.3537415 0 37.3736408 0 37.414966 21.0054878"></polygon>
                <polygon id="Fill-57" fill="#58474D" mask="url(#mask-2)" points="23.8095238 21.0558144 9.39566951 21.1065574 9.37367929 21.1065574 9.3537415 0 23.767889 0"></polygon>
                <path d="M12.1520177,16.8464477 C12.365199,16.9439206 12.6177267,16.8514128 12.7160269,16.6397426 C12.8141956,16.4280723 12.7210275,16.1773345 12.5078462,16.0798617 C12.2945334,15.9822582 12.0421373,16.0747659 11.943837,16.2864362 C11.8456684,16.4982371 11.9388365,16.7488442 12.1520177,16.8464477" id="Fill-58" fill="#FFFFFF" mask="url(#mask-2)"></path>
                <path d="M12.1520177,14.313581 C12.3653306,14.4111845 12.6177267,14.3186767 12.7160269,14.1070065 C12.8141956,13.8953362 12.7210275,13.6445984 12.5078462,13.5469949 C12.2945334,13.449522 12.0421373,13.5420298 11.943837,13.7537001 C11.8456684,13.9653703 11.9388365,14.2161081 12.1520177,14.313581" id="Fill-59" fill="#FFFFFF" mask="url(#mask-2)"></path>
                <path d="M12.1520177,10.9366117 C12.365199,11.0340845 12.6177267,10.9415768 12.7160269,10.7299065 C12.8141956,10.5182362 12.7210275,10.2674984 12.5078462,10.1700256 C12.2945334,10.0724221 12.0421373,10.1649298 11.943837,10.3766001 C11.8456684,10.5882704 11.9388365,10.8390082 12.1520177,10.9366117" id="Fill-60" fill="#FFFFFF" mask="url(#mask-2)"></path>
                <polygon id="Fill-61" fill="#DFE5CB" mask="url(#mask-2)" points="90.9863946 183.113626 91.0009902 181.516393 112.244898 181.607686 112.230583 183.204918"></polygon>
                <polygon id="Fill-62" fill="#322632" mask="url(#mask-2)" points="114.795918 206 86.7771573 206 86.7346939 183.31075 114.754025 183.204918 114.754025 183.235323"></polygon>
                <polygon id="Fill-63" fill="#58474D" mask="url(#mask-2)" points="101.233214 206 101.190476 183.257612 115.580982 183.204918 115.602936 183.204918 115.646259 206"></polygon>
                <path d="M111.147286,187.465108 C110.934092,187.367504 110.681548,187.460012 110.583373,187.671682 C110.485067,187.883352 110.578241,188.13409 110.791567,188.231694 C111.004762,188.329166 111.257174,188.236659 111.35548,188.024988 C111.453655,187.813318 111.360481,187.56258 111.147286,187.465108" id="Fill-64" fill="#FFFFFF" mask="url(#mask-2)"></path>
                <path d="M111.147209,189.997872 C110.934014,189.900266 110.681602,189.992907 110.583295,190.204583 C110.48512,190.416259 110.578294,190.667004 110.791489,190.764479 C111.004684,190.861955 111.257228,190.769445 111.355402,190.557769 C111.453709,190.346092 111.360535,190.095348 111.147209,189.997872" id="Fill-65" fill="#FFFFFF" mask="url(#mask-2)"></path>
                <path d="M111.147286,192.530679 C110.934092,192.433075 110.681548,192.525583 110.583373,192.737385 C110.485067,192.949056 110.578241,193.199663 110.791567,193.297267 C111.004762,193.39474 111.257174,193.302232 111.35548,193.090561 C111.453655,192.878891 111.360481,192.628152 111.147286,192.530679" id="Fill-66" fill="#FFFFFF" mask="url(#mask-2)"></path>
            </g>
        </g>
    </g>
</svg>
