<svg version="1" xmlns="http://www.w3.org/2000/svg" width="346.667" height="346.667" viewBox="0 0 260.000000 260.000000"><path d="M114.3 93.3c-4.8 1.1-4.5-.2-4.5 15.9v7.6l-6.7-.2c-7-.3-13.2 1.3-16.4 4.2-4.4 3.8-5.7 9-5.7 22.3 0 11.3.2 13 2.3 17 3.1 5.9 7.4 8.2 15.6 8.5 3.5.2 7.3-.2 8.3-.7 1.2-.7 3.5-.7 6.1-.2 8.3 1.7 7.7 4.9 7.7-37.8 0-29.7-.3-37.9-1.2-37.8-.7.1-3.2.6-5.5 1.2zm-7 34.3c.9.3 1.8 1.3 1.9 2.2.4 4 .5 24.8.1 25.9-.6 1.6-5.9 3.6-9.5 3.5-1.7 0-4-1-5.1-2.1-1.8-1.8-2.1-3.4-2.1-14.1l-.1-12.2 2.9-2.5c2.9-2.5 5.3-2.6 11.9-.7zM39.2 118.6c-7.6 3.8-9 7.3-9.1 23.2-.1 11.4.1 13.2 2.1 17.1 3.2 6.1 8 8.5 17.8 8.8 7 .1 17-1.4 18.5-2.8.3-.4.3-2.4-.1-4.4-.7-3.7-.7-3.7-4.3-3-2 .4-6.6.9-10.2 1.2-5.9.4-6.9.2-9.4-1.9-2.1-1.8-2.8-3.4-2.9-6.4l-.1-3.9 12-.2c6.6 0 13.1-.2 14.4-.2 2.3-.1 2.3-.2 1.9-9.5-.3-7.9-.8-9.9-2.8-12.9-3.6-5.2-7.2-6.9-15.5-7.3-6.1-.3-8 .1-12.3 2.2zm16.1 7.5c2.8 1.3 4.7 4.8 4.7 8.4 0 2.5-.1 2.5-9.5 2.5H41v-3.3c.1-6.9 7.4-10.8 14.3-7.6zM162.8 118.7l-3.8 1.6v47.9l5.3-.4 5.2-.3.2-16.9c.2-14.9.4-17.3 2.1-19.5 2.2-3 7.3-4.3 11.4-2.9 5 1.8 5.8 4.9 5.8 23.3V168h11v-17.3c0-19.4.4-20.9 6.7-22.6 4.7-1.3 10.4 1.1 11.4 4.9.4 1.4.7 9.8.8 18.7l.1 16.3h11.2l-.4-19.8c-.3-18.8-.4-19.9-2.7-23.6-3-4.8-8.8-7.5-15.8-7.6-5 0-13.4 2.8-14.7 4.9-.4.6-2 .1-4.2-1.4-5.3-3.6-10.7-4.1-20.6-2-1.4.4-2.9.1-3.3-.4-.8-1.3-1-1.3-5.7.6zM135.6 125.1c-3.3 2.6-3.4 6.8-.3 9.7 2.9 2.8 5.7 2.8 9.1.1 3.3-2.6 3.4-6.8.3-9.7-2.9-2.8-5.7-2.8-9.1-.1zM136.9 151.7c-1.8.4-3.9 4.4-3.9 7.2 0 2.3 4.1 6.1 6.7 6.1 1.1 0 3.3-1 4.8-2.2 2.3-1.8 2.6-2.6 2.2-5.6-.9-5.1-4.3-7-9.8-5.5z"/></svg>
