<?xml version="1.0" encoding="UTF-8"?>
<svg width="29px" height="28px" viewBox="0 0 29 28" version="1.1" xmlns="http://www.w3.org/2000/svg" xmlns:xlink="http://www.w3.org/1999/xlink">
    <!-- Generator: Sketch 51.2 (57519) - http://www.bohemiancoding.com/sketch -->
    <title>icon/chat/primary</title>
    <desc>Created with Sketch.</desc>
    <defs></defs>
    <g id="💡Demo-(0917)-" stroke="none" stroke-width="1" fill="none" fill-rule="evenodd">
        <g id="1.0-homepage-mobile" transform="translate(-48.000000, -475.000000)" fill="#6EC12D">
            <g id="icon/chat/primary" transform="translate(48.000000, 474.000000)">
                <path d="M11.71875,19.6828265 L11.1121324,19.6828265 C10.9099255,19.6828265 10.7123171,19.6781531 10.5193015,19.6688061 C10.3262858,19.6594591 10.1011042,19.6360919 9.84375,19.5987039 C9.71507289,19.748256 9.43474481,20.0006214 9.00275735,20.3558076 C8.5707699,20.7109938 8.06066471,21.0848684 7.47242647,21.4774427 C6.88418824,21.8700169 6.26379003,22.2251978 5.61121324,22.542996 C4.95863644,22.8607942 4.34742932,23.0664253 3.77757353,23.1598953 L3.75,23.1598953 L3.69485294,23.1739158 C3.65808805,23.1832628 3.62132371,23.1879362 3.58455882,23.1879362 C3.40073437,23.1879362 3.24908148,23.1225081 3.12959559,22.99165 C3.0101097,22.860792 2.95036765,22.7018953 2.95036765,22.5149551 C2.95036765,22.4588731 2.95496319,22.4121388 2.96415441,22.3747507 C2.97334563,22.3373627 2.98713226,22.2999753 3.00551471,22.2625872 L2.97794118,22.2625872 C3.19853051,21.888707 3.50643185,21.3138748 3.90165441,20.5380733 C4.29687698,19.7622718 4.49448529,19.0472366 4.49448529,18.3929462 L4.49448529,18.3368644 C3.74080506,17.9442902 3.07904697,17.4582531 2.50919118,16.8787388 C1.93933539,16.2992244 1.47059007,15.6636376 1.10294118,14.9719591 C0.735292279,14.2802807 0.459559743,13.5512252 0.275735294,12.7847707 C0.0919108456,12.0183162 0,11.2612201 0,10.5134596 C0,9.29834886 0.298710248,8.15803125 0.896139706,7.09247258 C1.49356916,6.02691391 2.31617123,5.10157421 3.36397059,4.31642572 C4.41176994,3.53127723 5.63418419,2.90971066 7.03125,2.45170738 C8.42831581,1.99370409 9.92646259,1.76470588 11.5257353,1.76470588 C13.1066256,1.76470588 14.5909857,1.99370409 15.9788603,2.45170738 C17.3667349,2.90971066 18.5753625,3.53127723 19.6047794,4.31642572 C20.6341963,5.10157421 21.4476073,6.02691391 22.0450368,7.09247258 C22.6424662,8.15803125 22.9411765,9.29834886 22.9411765,10.5134596 C22.9595589,11.8781225 22.6838264,13.125929 22.1139706,14.2569167 C21.5441148,15.3879045 20.7536815,16.3553051 19.7426471,17.1591476 C18.7316126,17.9629901 17.5367716,18.5845566 16.1580882,19.0238659 C14.7794049,19.4631752 13.2996403,19.6828265 11.71875,19.6828265 Z M9.12683824,17.748006 L10.0919118,17.8321286 C10.514708,17.8882106 10.9007335,17.9162512 11.25,17.9162512 L11.7738971,17.9162512 C13.1158155,17.9162512 14.3612075,17.7339874 15.5101103,17.3694541 C16.6590131,17.0049209 17.6516502,16.4908433 18.4880515,15.8272059 C19.3244527,15.1635685 19.9816153,14.3784318 20.4595588,13.4717722 C20.9375024,12.5651126 21.1764706,11.5790183 21.1764706,10.5134596 C21.1764706,9.54137101 20.9237158,8.63472504 20.4181985,7.79349452 C19.9126813,6.95226399 19.2279455,6.21853504 18.3639706,5.59228564 C17.4999957,4.96603625 16.4797853,4.47065237 15.3033088,4.10611914 C14.1268324,3.74158591 12.8676538,3.55932203 11.5257353,3.55932203 C10.1838168,3.55932203 8.92004269,3.74158591 7.734375,4.10611914 C6.54870731,4.47065237 5.51011475,4.96603625 4.61856618,5.59228564 C3.7270176,6.21853504 3.02849517,6.95226399 2.52297794,7.79349452 C2.01746071,8.63472504 1.76470588,9.54137101 1.76470588,10.5134596 C1.76470588,11.6724883 2.0496295,12.8408466 2.61948529,14.0185693 C3.18934108,15.196292 4.08087629,16.102938 5.29411765,16.7385344 L6.25919118,17.2432702 L6.17647059,18.3368644 L6.12132353,18.8275798 C6.08455864,19.154725 5.90992803,19.7482509 5.59742647,20.6081755 C6.09375248,20.3090713 6.58547551,19.9585638 7.07261029,19.5566426 C7.55974508,19.1547213 7.86764642,18.8696419 7.99632353,18.7013958 L9.12683824,17.748006 Z M28.2352941,17.748006 C28.2352941,19.0565868 27.9227972,20.2109247 27.2977941,21.2110543 C26.672791,22.211184 25.7077271,23.0477284 24.4025735,23.7207129 L24.4025735,23.7767946 C24.4025735,24.356309 24.5128665,25.0292833 24.7334559,25.7957378 C24.9540452,26.5621923 25.1562491,27.1043105 25.3400735,27.4221087 C25.358456,27.4594967 25.3722426,27.4968842 25.3814338,27.5342722 C25.390625,27.5716602 25.3952206,27.6090477 25.3952206,27.6464357 C25.3952206,27.8146818 25.3400741,27.9548848 25.2297794,28.0670489 C25.1194847,28.1792129 24.9816185,28.2352941 24.8161765,28.2352941 L24.6507353,28.2352941 C23.6764657,28.067048 22.6930197,27.5623173 21.7003676,26.7210867 C20.7077156,25.8798562 20.1102951,25.3283911 19.9080882,25.066675 C19.6874989,25.085369 19.4944861,25.0993893 19.3290441,25.1087363 C19.1636021,25.1180833 18.9889715,25.1227567 18.8051471,25.1227567 L18.28125,25.1227567 C17.3805102,25.1227567 16.5303349,25.0433084 15.7306985,24.8844093 C14.9310622,24.7255102 14.1819888,24.4918385 13.4834559,24.1833873 C12.784923,23.8749361 12.1507381,23.5010615 11.5808824,23.0617522 C11.0110266,22.622443 10.5055169,22.1317325 10.0643382,21.5896062 C10.1011031,21.5522182 10.5836351,21.5335244 11.5119485,21.5335244 C12.440262,21.5335244 12.8033098,21.5428713 12.6011029,21.5615653 C13.3547832,22.1597737 14.1911719,22.6037498 15.1102941,22.893507 C16.0294164,23.1832642 17.0863911,23.3281406 18.28125,23.3281406 L18.8189338,23.3281406 C19.1773915,23.3281406 19.4485285,23.3094468 19.6323529,23.2720588 L20.5698529,23.1318544 L21.0799632,23.8328764 C21.4200385,24.3002267 22.0220545,24.8516917 22.8860294,25.4872881 C22.8124996,25.206878 22.7573531,24.6554129 22.7205882,23.8328764 L22.6654412,22.5990778 L23.5202206,22.1784646 C24.5680199,21.6363383 25.3216889,21.0054248 25.78125,20.2857054 C26.2408111,19.5659859 26.4705882,18.7200946 26.4705882,17.748006 C26.4705882,16.9628575 26.3373175,16.2805363 26.0707721,15.7010219 C25.8042266,15.1215076 25.2941214,14.5606956 24.5404412,14.0185693 C24.6323534,13.7194651 24.7196687,13.4016717 24.8023897,13.0651795 C24.8851107,12.7286873 24.9448528,12.401547 24.9816176,12.0837488 C26.1397117,12.7754272 26.9715048,13.5886045 27.4770221,14.5233051 C27.9825393,15.4580057 28.2352941,16.5328952 28.2352941,17.748006 Z" id="bubbles---simple-line-icons"></path>
            </g>
        </g>
    </g>
</svg>
