<svg id="圖層_1" data-name="圖層 1" xmlns="http://www.w3.org/2000/svg" viewBox="0 0 50 50"><defs><style>.cls-1{fill:#6bc319;}</style></defs><title>icons8-discount</title><g id="surface1"><path class="cls-1" d="M25,4.05,23.93,5.13l-4.11,4L14.21,8.3,12.7,8.06l-.25,1.51-1,5.57-5,2.68-1.37.73.68,1.32L8.25,25,5.76,30.13l-.68,1.32,1.37.73,5,2.68,1,5.57.25,1.51,1.51-.24,5.61-.78,4.11,3.95L25,46l1.07-1.08,4.11-3.95,5.61.78,1.51.24.25-1.51,1-5.57,5-2.68,1.37-.73-.68-1.32L41.75,25l2.49-5.13.68-1.32-1.37-.73-5-2.68-1-5.57L37.3,8.06l-1.51.24-5.61.78L26.07,5.13ZM25,8.4l3.56,3.47.54.53.73-.1,4.89-.73.88,4.89.14.73.69.39,4.29,2.29-2.15,4.45-.29.68.29.68,2.15,4.45-4.29,2.29-.69.39-.14.73-.88,4.89-4.89-.73-.73-.1-.54.53L25,41.6l-3.56-3.47-.54-.53-.73.1-4.89.73-.88-4.89-.14-.73-.69-.39L9.28,30.13l2.15-4.45.29-.68-.29-.68L9.28,19.87l4.29-2.29.69-.39.14-.73.88-4.89,4.89.73.73.1.54-.53Zm3.12,7.22L18.75,34.38h3.13l9.37-18.76Zm-8.59,3.13a2.35,2.35,0,1,0,2.35,2.34A2.34,2.34,0,0,0,19.53,18.75Zm10.94,7.81a2.35,2.35,0,1,0,2.34,2.35A2.35,2.35,0,0,0,30.47,26.56Z"/></g></svg>
