<?xml version="1.0" encoding="UTF-8"?>
<svg width="26px" height="26px" viewBox="0 0 26 26" version="1.1" xmlns="http://www.w3.org/2000/svg" xmlns:xlink="http://www.w3.org/1999/xlink">
    <!-- Generator: Sketch 51.2 (57519) - http://www.bohemiancoding.com/sketch -->
    <title>icon/book/primary copy 2</title>
    <desc>Created with Sketch.</desc>
    <defs></defs>
    <g id="💡Demo-(0917)-" stroke="none" stroke-width="1" fill="none" fill-rule="evenodd">
        <g id="1.0-homepage-mobile" transform="translate(-53.000000, -612.000000)" fill="#6EC12D">
            <g id="icon/book/primary-copy-2" transform="translate(50.000000, 609.000000)">
                <path d="M11.2804659,26.1572431 C11.2810494,26.158121 11.281633,26.1589977 11.2822165,26.159873 C11.2873105,26.159873 11.2895842,26.1594701 11.2890378,26.1586643 L11.2804659,26.1572431 Z M11.2890378,26.1586643 C11.2878569,26.1569232 11.2735072,26.1533007 11.2459885,26.147797 C11.2057349,26.1397462 11.193659,26.1276703 11.2097604,26.1115689 L11.2097604,22.0298742 L11.6686491,21.5709854 L14.8084143,18.5519805 L16.5232091,16.8371856 L17.3685305,19.1074774 C17.5295449,19.5583177 17.7147087,20.0735561 17.9240274,20.6532079 C18.1333462,21.2328598 18.3507123,21.8245788 18.5761325,22.4283828 C18.8015527,23.0321869 19.0148936,23.6078047 19.2161616,24.1552537 C19.4174296,24.7027027 19.5905175,25.1696374 19.7354304,25.556072 C19.9125463,25.3628547 20.09771,25.1575644 20.2909273,24.940195 C20.4841446,24.7228255 20.637106,24.5497376 20.7498161,24.4209261 C20.7981204,24.3565204 20.8262975,24.3082168 20.8343482,24.2760139 C20.8423989,24.243811 20.8464242,24.203558 20.8464242,24.1552537 C20.8303228,24.0747465 20.7981204,23.6319635 20.7498161,22.8268915 C20.7015118,22.0218195 20.6532082,21.1282029 20.6049038,20.1460151 C20.5243966,19.0350157 20.4519412,17.8918306 20.3875355,16.7164255 C20.3231297,15.5410203 20.2667755,14.5910496 20.2184712,13.8664848 L20.1701671,13.1902277 L25.7492883,7.61110648 C26.2967373,7.06365751 26.5865589,6.55244444 26.6187617,6.07745195 C26.6509646,5.60245947 26.642914,5.29251139 26.5946097,5.14759843 C26.5463054,5.13149699 26.4778753,5.11539579 26.3893174,5.09929435 C26.3007594,5.08319291 26.1920763,5.07514231 26.0632648,5.07514231 C25.8700475,5.07514231 25.5963272,5.1274712 25.2420955,5.23213056 C24.8878638,5.33678993 24.5175362,5.58233321 24.1311016,5.96876778 L18.5519805,11.547889 L17.8515713,11.4995849 C17.1592094,11.467382 16.253517,11.4150531 15.1344668,11.3425966 C14.0154167,11.2701401 12.9165099,11.1936594 11.8377134,11.1131522 C10.8072212,11.0487465 9.84919992,10.988367 8.9636207,10.9320119 C8.07804148,10.8756569 7.58695492,10.8474798 7.49034628,10.8474798 L7.4420422,10.8474798 C7.42594076,10.8474798 7.40178896,10.8555304 7.36958608,10.8716318 C7.3373832,10.8877333 7.3051808,10.9118851 7.27297792,10.944088 C7.12806496,11.056798 6.95095177,11.2057341 6.74163305,11.3909007 C6.53231432,11.5760673 6.33104934,11.7652563 6.13783205,11.9584736 C6.50816518,12.1033866 6.97509995,12.2804998 7.53865036,12.4898185 C8.10220077,12.6991372 8.68989453,12.9165034 9.30174926,13.1419236 C9.91360399,13.3673437 10.5133736,13.5887352 11.1010762,13.8061047 C11.6887788,14.0234741 12.1999918,14.2126632 12.6347307,14.3736776 L14.9050225,15.1948469 L13.1902277,16.9096418 L10.1470706,20.0494069 L9.71233393,20.4841436 L9.0843809,20.5082957 L8.57718807,20.5082957 C8.30346358,20.5082957 8.0055914,20.5042704 7.6835626,20.4962197 C7.36153379,20.4881689 7.04756041,20.4841436 6.74163305,20.4841436 L5.62330844,20.4841436 C6.00497457,20.7274962 6.46630318,21.0173183 7.00730548,21.3536171 C7.60305878,21.7239502 8.19075253,22.0862272 8.77040438,22.4404589 L9.0843809,22.6578272 L9.30174926,22.9718037 C9.43056078,23.1811225 9.68012936,23.5836524 10.0504625,24.1794057 C10.4207956,24.775159 10.7669714,25.3225998 11.0890002,25.8217444 C11.1212031,25.8861502 11.1534055,25.9465297 11.1856084,26.0028847 C11.2172277,26.0582186 11.2488466,26.1096709 11.2804659,26.1572431 L11.2890378,26.1586643 Z M26.0632648,3.52941176 C26.4335979,3.52941176 26.7596472,3.57771536 27.0414224,3.674324 C27.3231976,3.77093264 27.5445891,3.89974224 27.7056035,4.06075664 C28.0276323,4.38278544 28.1926696,5.0107322 28.2007203,5.94461574 C28.2087711,6.87849927 27.7619628,7.79626761 26.8602821,8.69794826 L21.7642018,13.7940286 C21.7964046,14.502492 21.8487335,15.4283109 21.92119,16.5715132 C21.9936465,17.7147155 22.0620766,18.8377741 22.1264823,19.9407228 C22.1908881,21.0436714 22.2472423,22.0016927 22.2955466,22.8148155 C22.3438509,23.6279382 22.3680027,24.0505947 22.3680027,24.0827976 C22.3841042,24.2116091 22.3760536,24.3887223 22.3438507,24.6141424 C22.3116478,24.8395626 22.1747876,25.0971818 21.933266,25.3870077 C21.6917444,25.6768336 21.3656951,26.0431359 20.9551084,26.4859255 L20.3392314,27.1501066 C20.2104199,27.2789181 20.0695344,27.3795506 19.9165707,27.4520071 C19.763607,27.5244636 19.6146709,27.5606913 19.469758,27.5606913 L19.3489978,27.5606913 C19.2523891,27.5445898 19.1276048,27.4962862 18.9746412,27.415779 C18.8216775,27.3352718 18.6968932,27.1742599 18.6002845,26.9327383 C18.5680817,26.852231 18.4473227,26.5302071 18.238004,25.9666567 C18.0286852,25.4031063 17.7831419,24.7469824 17.5013667,23.9982654 C17.2195915,23.2495485 16.9337953,22.4726656 16.6439693,21.6675936 C16.3541434,20.8625216 16.1045748,20.1862712 15.8952561,19.6388223 L12.7554909,22.6819793 C12.7393895,23.1167181 12.7353642,23.7527155 12.7434149,24.5899904 C12.7514656,25.4272653 12.7474403,25.9827567 12.7313389,26.2564811 C12.7313389,26.3369883 12.719263,26.4859244 12.6951108,26.7032939 C12.6709587,26.9206633 12.4495672,27.2708644 12.0309297,27.7539076 C11.8860168,27.8827191 11.741106,27.9833516 11.596193,28.0558081 C11.4512801,28.1282646 11.3144199,28.1644923 11.1856084,28.1644923 L11.1614563,28.1644923 C11.0165434,28.1644923 10.8837085,28.1282646 10.7629477,28.0558081 C10.6421869,27.9833516 10.5415544,27.8827191 10.4610472,27.7539076 C10.4449457,27.7217047 10.3241867,27.5284903 10.0987666,27.1742586 C9.8733464,26.820027 9.61975252,26.417497 9.33797732,25.9666567 C9.05620211,25.5158163 8.78650703,25.081084 8.52888399,24.6624465 C8.27126094,24.2438091 8.08609715,23.9459369 7.97338707,23.768821 C7.08780786,23.2374735 6.20224192,22.6900328 5.3166627,22.1264823 C4.43108349,21.5629319 3.94804752,21.2489586 3.86754032,21.1845528 C3.72262736,21.0718427 3.63004546,20.9510837 3.58979186,20.8222722 C3.54953826,20.6934607 3.52941176,20.5807523 3.52941176,20.4841436 C3.52941176,20.387535 3.55356356,20.2708013 3.60186788,20.1339391 C3.6501722,19.9970768 3.7467794,19.8561913 3.89169236,19.7112784 L3.96414848,19.6388223 C4.43109025,19.2523877 4.77324072,19.0390468 4.99061017,18.9987932 C5.20797961,18.9585396 5.3649663,18.9384131 5.46157494,18.9384131 L5.63063922,18.9384131 C5.92046515,18.9384131 6.36727341,18.9424384 6.97107742,18.9504891 C7.57488144,18.9585398 8.1102463,18.9625651 8.57718807,18.9625651 L9.06022886,18.9625651 L12.1033859,15.8228 C11.5398355,15.6134813 10.8555345,15.3598874 10.0504625,15.0620107 C9.24539047,14.7641341 8.46448233,14.4743125 7.70771464,14.1925373 C6.95094694,13.9107621 6.28677249,13.6611935 5.71517136,13.4438241 C5.14357023,13.2264546 4.82557155,13.1097209 4.76116579,13.0936195 C4.50354275,12.9970109 4.33448016,12.8682013 4.25397296,12.7071869 C4.17346575,12.5461725 4.13321276,12.4173629 4.13321276,12.3207542 C4.10100988,12.1436384 4.12113638,11.9705505 4.19359286,11.8014854 C4.26604934,11.6324202 4.37473243,11.4754336 4.51964539,11.3305206 L5.18382649,10.7146436 C5.62661609,10.3040569 5.99291837,9.97800758 6.28274429,9.73648597 C6.5242659,9.54326869 6.74565738,9.4225097 6.94692538,9.37420538 C7.14819339,9.32590106 7.31323068,9.30174926 7.4420422,9.30174926 L7.5628024,9.30174926 C7.61110672,9.30174926 8.04583909,9.32590106 8.86701254,9.37420538 C9.688186,9.4225097 10.6502326,9.48288919 11.7531813,9.55534567 C12.85613,9.62780216 13.9872392,9.70428285 15.1465429,9.78479005 C16.3058466,9.86529725 17.2397161,9.92165145 17.9481795,9.95385433 L23.0442599,4.88192599 C23.5434045,4.38278134 24.0586429,4.03258027 24.5899904,3.83131226 C25.1213379,3.63004426 25.6124245,3.52941176 26.0632648,3.52941176 Z" id="plane---simple-line-icons"></path>
            </g>
        </g>
    </g>
</svg>
