<?xml version="1.0" encoding="UTF-8"?>
<svg width="32px" height="30px" viewBox="0 0 32 30" version="1.1" xmlns="http://www.w3.org/2000/svg" xmlns:xlink="http://www.w3.org/1999/xlink">
    <!-- Generator: Sketch 51.2 (57519) - http://www.bohemiancoding.com/sketch -->
    <title>icon/social/line/primary</title>
    <desc>Created with Sketch.</desc>
    <defs></defs>
    <g id="💡Demo-(0917)-" stroke="none" stroke-width="1" fill="none" fill-rule="evenodd">
        <g id="1.0-homepage-mobile" transform="translate(-168.000000, -612.000000)">
            <g id="icon/social/line/primary" transform="translate(169.000000, 613.000000)">
                <g id="Line" transform="translate(5.000000, 8.000000)" fill="#6EC12D">
                    <path d="M6.51082222,8.16311982 L6.57507513,8.16311982 C6.99870474,8.16311982 7.3452073,7.81008037 7.3452073,7.37843667 L7.3452073,1.55972281 C7.3452073,1.12819905 6.99870474,0.775239563 6.57507513,0.775239563 L6.51082222,0.775239563 C6.08715337,0.775239563 5.74053306,1.12819905 5.74053306,1.55972281 L5.74053306,7.37843667 C5.74053306,7.81008037 6.08715337,8.16311982 6.51082222,8.16311982" id="Fill-4"></path>
                    <path d="M14.0983569,7.9291862 L14.0985532,7.92890633 C14.2358904,7.78685093 14.3212207,7.59237937 14.3212207,7.37855661 L14.3212207,1.55980277 C14.3212207,1.12831899 13.9747182,0.775359508 13.5508923,0.775359508 L13.4867179,0.775359508 C13.0630098,0.775359508 12.716468,1.12831899 12.716468,1.55980277 L12.716468,4.97552942 L9.93267239,1.17209909 C9.79969202,0.93552667 9.54927445,0.775359508 9.26396327,0.775359508 L9.19967111,0.775359508 C8.77600225,0.775359508 8.42938194,1.12831899 8.42938194,1.55980277 L8.42938194,7.37855661 C8.42938194,7.81016033 8.77592375,8.16323977 9.19967111,8.16323977 L9.26396327,8.16323977 C9.68763212,8.16323977 10.0341347,7.81016033 10.0341347,7.37855661 L10.0341347,3.89905896 L12.8380265,7.80000495 C12.8552967,7.82735252 12.8740191,7.85362057 12.8944293,7.87864919 L12.8945471,7.8788491 C12.9716349,7.98576048 13.0769437,8.05924706 13.1943024,8.10406668 C13.2846176,8.1420494 13.3832931,8.16311982 13.4865217,8.16311982 L13.5508138,8.16311982 C13.6805757,8.16311982 13.8030369,8.12985495 13.9106223,8.07144151 C13.9876316,8.03409849 14.052591,7.98588042 14.0983569,7.9291862" id="Fill-4"></path>
                    <path d="M19.8260113,4.51581848 L19.8260113,4.45044821 C19.8260113,4.01880451 19.4795087,3.66584502 19.0558006,3.66584502 L16.9119436,3.66584502 L16.9119436,2.42368991 L19.0558006,2.42368991 C19.4795087,2.42368991 19.8260113,2.07061047 19.8260113,1.6391267 L19.8260113,1.57371644 C19.8260113,1.14211272 19.4795087,0.789113253 19.0558006,0.789113253 L16.1416152,0.789113253 L16.1269355,0.789113253 L16.0774015,0.789113253 C15.6537719,0.789113253 15.3072694,1.14211272 15.3072694,1.57371644 L15.3072694,7.39235034 C15.3072694,7.82395406 15.6537719,8.17703349 16.0774015,8.17703349 L16.1269355,8.17703349 L16.1416152,8.17703349 L19.0558006,8.17703349 C19.4795087,8.17703349 19.8260113,7.82395406 19.8260113,7.39235034 L19.8260113,7.32694008 C19.8260113,6.89533636 19.4795087,6.54237688 19.0558006,6.54237688 L16.9119436,6.54237688 L16.9119436,5.30022176 L19.0558006,5.30022176 C19.4795087,5.30038169 19.8260113,4.94734224 19.8260113,4.51581848" id="Fill-4"></path>
                    <path d="M1.3704324,8.16311982 L1.41996641,8.16311982 L1.43468531,8.16311982 L4.34883151,8.16311982 C4.77242186,8.16311982 5.11904217,7.81008037 5.11904217,7.37843667 L5.11904217,7.31302641 C5.11904217,6.88142269 4.77242186,6.5284632 4.34883151,6.5284632 L2.20485672,6.5284632 L2.20485672,1.55960286 C2.20485672,1.12811909 1.85835416,0.775119617 1.43468531,0.775119617 L1.3704324,0.775119617 C0.946763544,0.775119617 0.600260983,1.12811909 0.600260983,1.55960286 L0.600260983,7.37831672 C0.600260983,7.81008037 0.946763544,8.16311982 1.3704324,8.16311982" id="Fill-4"></path>
                </g>
                <path d="M30,11.9778771 C30,14.2885707 29.1800325,16.4460397 27.7605282,18.2756701 C27.6902806,18.379874 27.5985041,18.4948918 27.4828069,18.6219959 C26.9891997,19.2100459 26.443166,19.7531305 25.8428319,20.2544699 C21.6947538,24.0779681 14.8671395,28.6299788 13.9660005,27.9277061 C13.1826319,27.3171932 15.2562124,24.3313413 12.8638863,23.8344945 C12.6969585,23.8152917 12.5305888,23.7948167 12.3654551,23.7715587 C5.33590881,22.7756386 0,17.8743998 0,11.9778771 C-0.000199340581,5.36266186 6.71566458,0 14.9999402,0 C23.2841759,0 30,5.36266186 30,11.9778771 Z" id="Fill-1" stroke="#6EC12D" stroke-width="1.5"></path>
            </g>
        </g>
    </g>
</svg>
