<?xml version="1.0" encoding="UTF-8"?>
<svg width="28px" height="28px" viewBox="0 0 28 28" version="1.1" xmlns="http://www.w3.org/2000/svg" xmlns:xlink="http://www.w3.org/1999/xlink">
    <!-- Generator: Sketch 51.2 (57519) - http://www.bohemiancoding.com/sketch -->
    <title>icon/primary/smile</title>
    <desc>Created with Sketch.</desc>
    <defs></defs>
    <g id="💡Demo-(0917)-" stroke="none" stroke-width="1" fill="none" fill-rule="evenodd">
        <g id="1.0-homepage-mobile" transform="translate(-299.000000, -611.000000)" fill="#6EC12D">
            <g id="icon/primary/smile" transform="translate(298.000000, 610.000000)">
                <path d="M21.9536994,17.4557675 C22.160502,17.5591687 22.3069849,17.7142683 22.3931526,17.9210708 C22.4793203,18.1278733 22.4707036,18.3346727 22.3673024,18.5414752 C22.3500688,18.5931758 22.2035859,18.8689083 21.9278493,19.3686811 C21.6521126,19.8684538 21.2169722,20.4069939 20.622415,20.9843176 C20.0278578,21.5616412 19.265285,22.0915647 18.3346737,22.5741039 C17.4040624,23.056643 16.2752824,23.297909 14.9482996,23.297909 C14.9310661,23.297909 14.9138328,23.3022173 14.8965993,23.3108341 C14.8793657,23.3194509 14.8621324,23.3237592 14.8448989,23.3237592 C13.5868503,23.3237592 12.5054618,23.0824932 11.6007008,22.599954 C10.6959399,22.1174149 9.95060036,21.5874914 9.36465993,21.0101677 C8.7787195,20.4328441 8.34357909,19.8899956 8.05922564,19.3816062 C7.7748722,18.8732167 7.62408097,18.6017925 7.60684743,18.5673254 C7.50344617,18.3432893 7.49052121,18.1278733 7.56807215,17.9210708 C7.64562309,17.7142683 7.79641432,17.5591687 8.02045037,17.4557675 C8.22725287,17.3695998 8.43405227,17.3652914 8.64085478,17.4428424 C8.84765728,17.5203933 9.00275684,17.6625679 9.10615809,17.8693704 C9.12339163,17.9038375 9.24833294,18.1235619 9.48098575,18.5285501 C9.71363857,18.9335383 10.0626126,19.3643704 10.5279182,19.8210593 C10.9932238,20.2777481 11.5834638,20.6999636 12.2986558,21.0877183 C13.0138478,21.475473 13.8712036,21.6693474 14.8707491,21.6693474 L14.8965993,21.6564223 C14.9138328,21.6478056 14.9310661,21.6434972 14.9482996,21.6434972 C15.9995457,21.6434972 16.8999848,21.4453145 17.6496438,21.048943 C18.3993029,20.6525715 19.0110845,20.2217395 19.4850069,19.7564338 C19.9589293,19.2911282 20.3079033,18.8646044 20.5319393,18.4768497 C20.7559754,18.089095 20.8679917,17.8866039 20.8679917,17.8693704 C20.9541594,17.6625679 21.1049507,17.5203933 21.3203699,17.4428424 C21.5357892,17.3652914 21.7468969,17.3695998 21.9536994,17.4557675 Z M15,1.76470588 C16.8267555,1.76470588 18.5457755,2.10937155 20.1571117,2.79871324 C21.7684479,3.48805492 23.1729605,4.43157719 24.3706916,5.62930836 C25.5684228,6.82703954 26.5119451,8.23155215 27.2012868,9.84288833 C27.8906284,11.4542245 28.2352941,13.1732445 28.2352941,15 C28.2352941,16.8267555 27.8906284,18.5457755 27.2012868,20.1571117 C26.5119451,21.7684479 25.5684228,23.1729605 24.3706916,24.3706916 C23.1729605,25.5684228 21.7684479,26.5119451 20.1571117,27.2012868 C18.5457755,27.8906284 16.8267555,28.2352941 15,28.2352941 C13.1732445,28.2352941 11.4542245,27.8906284 9.84288833,27.2012868 C8.23155215,26.5119451 6.82703954,25.5684228 5.62930836,24.3706916 C4.43157719,23.1729605 3.48805492,21.7684479 2.79871324,20.1571117 C2.10937155,18.5457755 1.76470588,16.8267555 1.76470588,15 C1.76470588,13.1732445 2.10937155,11.4542245 2.79871324,9.84288833 C3.48805492,8.23155215 4.43157719,6.82703954 5.62930836,5.62930836 C6.82703954,4.43157719 8.23155215,3.48805492 9.84288833,2.79871324 C11.4542245,2.10937155 13.1732445,1.76470588 15,1.76470588 Z M15,26.5808824 C16.6027194,26.5808824 18.1063234,26.2749916 19.5108571,25.6632008 C20.9153908,25.0514101 22.1389539,24.2242125 23.1815832,23.1815832 C24.2242125,22.1389539 25.0514101,20.9153908 25.6632008,19.5108571 C26.2749916,18.1063234 26.5808824,16.6027194 26.5808824,15 C26.5808824,13.3972806 26.2749916,11.8936766 25.6632008,10.4891429 C25.0514101,9.08460925 24.2242125,7.86104611 23.1815832,6.81841682 C22.1389539,5.77578753 20.9153908,4.94858992 19.5108571,4.33679917 C18.1063234,3.72500843 16.6027194,3.41911765 15,3.41911765 C13.3972806,3.41911765 11.8936766,3.72500843 10.4891429,4.33679917 C9.08460925,4.94858992 7.86104611,5.77578753 6.81841682,6.81841682 C5.77578753,7.86104611 4.94858992,9.08460925 4.33679917,10.4891429 C3.72500843,11.8936766 3.41911765,13.3972806 3.41911765,15 C3.41911765,16.6027194 3.72500843,18.1063234 4.33679917,19.5108571 C4.94858992,20.9153908 5.77578753,22.1389539 6.81841682,23.1815832 C7.86104611,24.2242125 9.08460925,25.0514101 10.4891429,25.6632008 C11.8936766,26.2749916 13.3972806,26.5808824 15,26.5808824 Z M10.8639706,14.1727941 C10.398665,14.1727941 10.0066078,14.0090779 9.68778722,13.6816406 C9.3689667,13.3542033 9.20955882,12.9664544 9.20955882,12.5183824 C9.20955882,12.0703103 9.3689667,11.6825614 9.68778722,11.3551241 C10.0066078,11.0276868 10.398665,10.8639706 10.8639706,10.8639706 C11.3120427,10.8639706 11.6954832,11.0276868 12.0143038,11.3551241 C12.3331243,11.6825614 12.4925322,12.0703103 12.4925322,12.5183824 C12.4925322,12.9664544 12.3331243,13.3542033 12.0143038,13.6816406 C11.6954832,14.0090779 11.3120427,14.1727941 10.8639706,14.1727941 Z M19.1360294,14.1727941 C18.6707238,14.1727941 18.2786666,14.0090779 17.959846,13.6816406 C17.6410255,13.3542033 17.4816176,12.9664544 17.4816176,12.5183824 C17.4816176,12.0703103 17.6410255,11.6825614 17.959846,11.3551241 C18.2786666,11.0276868 18.6707238,10.8639706 19.1360294,10.8639706 C19.5841015,10.8639706 19.9675421,11.0276868 20.2863626,11.3551241 C20.6051831,11.6825614 20.764591,12.0703103 20.764591,12.5183824 C20.764591,12.9664544 20.6051831,13.3542033 20.2863626,13.6816406 C19.9675421,14.0090779 19.5841015,14.1727941 19.1360294,14.1727941 Z" id="emotsmile---simple-line-icons"></path>
            </g>
        </g>
    </g>
</svg>
