<?xml version="1.0" encoding="UTF-8"?>
<svg width="100px" height="100px" viewBox="0 0 100 100" version="1.1" xmlns="http://www.w3.org/2000/svg" xmlns:xlink="http://www.w3.org/1999/xlink">
    <!-- Generator: sketchtool 49.3 (51167) - http://www.bohemiancoding.com/sketch -->
    <title>CC702A6F-79D6-43C1-B78A-DCDB54A5D447</title>
    <desc>Created with sketchtool.</desc>
    <defs></defs>
    <g id="Symbols" stroke="none" stroke-width="1" fill="none" fill-rule="evenodd">
        <g id="icon/price/bread">
            <g id="icon-bread" transform="translate(10.000000, 10.000000)">
                <g id="Group" stroke-linejoin="round" transform="translate(0.000000, 8.000000)" fill="#81CA49" fill-rule="nonzero" stroke="#81CA49" stroke-width="0.996">
                    <g id="surface1-1">
                        <path d="M30.3466794,0.218146542 L50.1953111,0.218146542 C57.7783175,0.0813013084 65.3808571,1.38134374 72.5927714,4.13782224 C76.3085905,5.5600486 79.0234349,8.8785757 79.6728476,12.8080256 C79.9218698,14.2840133 79.6972635,15.7551138 79.0380825,17.0844789 L78.1591778,18.8390473 C77.7294889,19.7041121 77.4999968,20.6718125 77.4999968,21.6395129 L77.4999968,61.5058379 C77.4999968,64.9563264 74.6972635,67.7616791 71.2499968,67.7616791 L8.74999683,67.7616791 C5.30273333,67.7616791 2.49999683,64.9563264 2.49999683,61.5058379 L2.49999683,21.6395129 C2.49999683,20.6718125 2.27050476,19.7041121 1.84081587,18.8439344 L0.966793651,17.089366 C0.302730159,15.7600009 0.0781206349,14.2840133 0.322263492,12.8226869 C0.97655873,8.8834628 3.70116825,5.56004542 7.42187302,4.14270617 L7.5488254,4.09871907 C13.9453079,1.66480523 20.6103492,0.364762804 27.421873,0.213256262 C28.3935524,0.19370785 29.3652317,0.19370785 30.3466794,0.218143364 L30.3466794,0.218146542 Z M51.25,2.72048299 L50.185546,2.72048299 C43.6621079,2.84266692 37.1533175,4.07428673 30.9374984,6.43488766 L30.8154286,6.47887477 C27.9150381,7.58342355 25.7958984,10.1688439 25.2880857,13.2283419 C25.1318349,14.1667196 25.2734381,15.1148684 25.7031238,15.9701591 L26.577146,17.7198404 C27.1826159,18.9319086 27.4999968,20.2857123 27.4999968,21.6395161 L27.4999968,61.5058411 C27.4999968,63.5732 29.1845683,65.2593458 31.2499968,65.2593458 L71.2499968,65.2593458 C73.3154254,65.2593458 74.9999968,63.5732 74.9999968,61.5058411 L74.9999968,21.6395161 C74.9999968,20.2857123 75.3173778,18.9319086 75.9228476,17.7198404 L76.7968698,15.9701591 C77.2265587,15.1148684 77.3681587,14.1667164 77.2119079,13.2283419 C76.7040952,10.1639568 74.5898381,7.58342355 71.6992127,6.47398766 C65.1464794,3.96676411 58.2519492,2.71070879 51.3622984,2.70093458 C51.3232349,2.70093458 51.2890571,2.72048299 51.2499937,2.72048299 L51.25,2.72048299 Z M8.43750159,6.43489084 L8.31543175,6.47887794 C5.41504127,7.58342673 3.29590159,10.1688471 2.78808889,13.228345 C2.6318381,14.1667228 2.77344127,15.1148716 3.20312698,15.9701622 L4.07714921,17.7198436 C4.27734286,18.1206082 4.43359365,18.5409213 4.57031429,18.9661247 L20.0000032,18.9661247 C20.6884794,18.9661247 21.2500032,19.5281733 21.2500032,20.2172929 C21.2500032,20.9064125 20.6884794,21.4684611 20.0000032,21.4684611 L4.9902381,21.4684611 C4.9902381,21.5271095 5.00000317,21.5808708 5.00000317,21.6395193 L5.00000317,61.5058443 C5.00000317,63.5732032 6.6845746,65.259349 8.75000317,65.259349 L26.2841841,65.259349 C25.4882857,64.2085615 25.0000032,62.9182964 25.0000032,61.5058443 L25.0000032,21.6395193 C25.0000032,20.6718189 24.7705111,19.7041185 24.3408222,18.8439407 L23.4619175,17.0893723 C22.8027397,15.7600073 22.5781302,14.2840196 22.8222698,12.8226933 C23.4765651,8.88346916 26.2011746,5.56005178 29.9218794,4.14271252 L30.0439492,4.09872542 C31.4013714,3.58066393 32.7685587,3.13102505 34.1455111,2.72048617 L30.3125048,2.72048617 C29.3701238,2.69605065 28.4375048,2.69605065 27.5000063,2.71559907 C20.9668032,2.8573314 14.5654349,4.10849963 8.43750794,6.43489084 L8.43750159,6.43489084 Z M50,13.9614486 C50.6884762,13.9614486 51.25,14.5234972 51.25,15.2126168 C51.25,15.9017364 50.6884762,16.463785 50,16.463785 L47.5,16.463785 C46.8115238,16.463785 46.25,15.9017364 46.25,15.2126168 C46.25,14.5234972 46.8115238,13.9614486 47.5,13.9614486 L50,13.9614486 Z M66.25,21.4684579 C66.9384762,21.4684579 67.5,22.0305065 67.5,22.7196262 C67.5,23.4087458 66.9384762,23.9707944 66.25,23.9707944 L63.75,23.9707944 C63.0615238,23.9707944 62.5,23.4087458 62.5,22.7196262 C62.5,22.0305065 63.0615238,21.4684579 63.75,21.4684579 L66.25,21.4684579 Z M55,23.9707944 C55.6884762,23.9707944 56.25,24.532843 56.25,25.2219626 C56.25,25.9110822 55.6884762,26.4731308 55,26.4731308 L52.5,26.4731308 C51.8115238,26.4731308 51.25,25.9110822 51.25,25.2219626 C51.25,24.532843 51.8115238,23.9707944 52.5,23.9707944 L55,23.9707944 Z M40,30.2266355 C40.6884762,30.2266355 41.25,30.7886841 41.25,31.4778037 C41.25,32.1669234 40.6884762,32.728972 40,32.728972 L37.5,32.728972 C36.8115238,32.728972 36.25,32.1669234 36.25,31.4778037 C36.25,30.7886841 36.8115238,30.2266355 37.5,30.2266355 L40,30.2266355 Z M52.5,37.7336449 C53.1884762,37.7336449 53.75,38.2956935 53.75,38.9848131 C53.75,39.6739327 53.1884762,40.2359813 52.5,40.2359813 L50,40.2359813 C49.3115238,40.2359813 48.75,39.6739327 48.75,38.9848131 C48.75,38.2956935 49.3115238,37.7336449 50,37.7336449 L52.5,37.7336449 Z M63.75,48.9941589 C64.4384762,48.9941589 65,49.5562075 65,50.2453271 C65,50.9344467 64.4384762,51.4964953 63.75,51.4964953 L61.25,51.4964953 C60.5615238,51.4964953 60,50.9344467 60,50.2453271 C60,49.5562075 60.5615238,48.9941589 61.25,48.9941589 L63.75,48.9941589 Z M45,53.9988318 C45.6884762,53.9988318 46.25,54.5608804 46.25,55.25 C46.25,55.9391196 45.6884762,56.5011682 45,56.5011682 L42.5,56.5011682 C41.8115238,56.5011682 41.25,55.9391196 41.25,55.25 C41.25,54.5608804 41.8115238,53.9988318 42.5,53.9988318 L45,53.9988318 Z M10,59.0035047 L10,61.5058411 C10,62.1949607 9.43847619,62.7570093 8.75,62.7570093 C8.06152381,62.7570093 7.5,62.1949607 7.5,61.5058411 L7.5,59.0035047 C7.5,58.314385 8.06152381,57.7523364 8.75,57.7523364 C9.43847619,57.7523364 10,58.314385 10,59.0035047 Z M16.25,59.0035047 L16.25,61.5058411 C16.25,62.1949607 15.6884762,62.7570093 15,62.7570093 C14.3115238,62.7570093 13.75,62.1949607 13.75,61.5058411 L13.75,59.0035047 C13.75,58.314385 14.3115238,57.7523364 15,57.7523364 C15.6884762,57.7523364 16.25,58.314385 16.25,59.0035047 Z M22.5,59.0035047 L22.5,61.5058411 C22.5,62.1949607 21.9384762,62.7570093 21.25,62.7570093 C20.5615238,62.7570093 20,62.1949607 20,61.5058411 L20,59.0035047 C20,58.314385 20.5615238,57.7523364 21.25,57.7523364 C21.9384762,57.7523364 22.5,58.314385 22.5,59.0035047 Z" id="Shape"></path>
                    </g>
                </g>
                <polygon id="Shape" points="0 80 0 0 80 0 80 80"></polygon>
                <g id="Group" transform="translate(0.000000, 8.000000)" fill="#81CA49" fill-rule="nonzero">
                    <g id="surface1">
                        <path d="M27.4218762,0.213259439 C20.6103524,0.364769159 13.9453143,1.66480841 7.54882857,4.09872224 L7.42187619,4.14270935 C3.7011746,5.5600486 0.976565079,8.8834628 0.322266667,12.8226901 C0.0781269841,14.2840164 0.302736508,15.7600041 0.966796825,17.0893692 L1.84081905,18.8439376 C2.27050794,19.7041153 2.5,20.6718157 2.5,21.6395161 L2.5,61.5058411 C2.5,64.9563295 5.30273651,67.7616822 8.75,67.7616822 L71.25,67.7616822 C74.6972667,67.7616822 77.5,64.9563295 77.5,61.5058411 L77.5,21.6395161 C77.5,20.6718157 77.7294921,19.7041153 78.159181,18.8390505 L79.0380857,17.0844821 C79.6972667,15.755117 79.921873,14.2840164 79.6728508,12.8080288 C79.0234381,8.87857888 76.3085937,5.5600486 72.5927746,4.13782542 C65.3808603,1.38134692 57.7783206,0.0813013084 50.1953143,0.21814972 L30.3466825,0.21814972 C29.3652381,0.193714206 28.3935587,0.193714206 27.4218762,0.213262617 L27.4218762,0.213259439 Z M51.3623048,2.70093458 C58.2519524,2.71070879 65.1464857,3.96676411 71.699219,6.47398766 C74.5898444,7.58342355 76.7041016,10.1639568 77.2119143,13.2283419 C77.3681651,14.1667196 77.2265619,15.1148684 76.7968762,15.9701591 L75.922854,17.7198404 C75.3173841,18.9319086 75.0000032,20.2857123 75.0000032,21.6395161 L75.0000032,61.5058411 C75.0000032,63.5732 73.3154317,65.2593458 71.2500032,65.2593458 L31.2500032,65.2593458 C29.1845746,65.2593458 27.5000032,63.5732 27.5000032,61.5058411 L27.5000032,21.6395161 C27.5000032,20.2857123 27.1826222,18.9319086 26.5771524,17.7198404 L25.7031302,15.9701591 C25.2734413,15.1148684 25.1318413,14.1667164 25.2880921,13.2283419 C25.7959048,10.1688439 27.9150444,7.58342355 30.8154349,6.47887477 L30.9375048,6.43488766 C37.1533238,4.07428355 43.6621143,2.84266692 50.1855524,2.72048299 L51.2500063,2.72048299 C51.2890698,2.72048299 51.3232476,2.70093458 51.3623111,2.70093458 L51.3623048,2.70093458 Z M27.5,2.71559589 C28.4375016,2.69604748 29.3701175,2.69604748 30.3125016,2.72048299 L34.1455079,2.72048299 C32.7685556,3.13102187 31.4013683,3.58066075 30.043946,4.09872224 L29.9218762,4.14270935 C26.2011746,5.5600486 23.4765651,8.8834628 22.8222667,12.8226901 C22.578127,14.2840164 22.8027365,15.7600041 23.4619143,17.0893692 L24.340819,18.8439376 C24.7705079,19.7041153 25,20.6718157 25,21.6395161 L25,61.5058411 C25,62.9182933 25.4882825,64.2085583 26.284181,65.2593458 L8.75,65.2593458 C6.68457143,65.2593458 5,63.5732 5,61.5058411 L5,21.6395161 C5,21.5808677 4.99023492,21.5271064 4.99023492,21.4684579 L20,21.4684579 C20.6884762,21.4684579 21.25,20.9064093 21.25,20.2172897 C21.25,19.5281701 20.6884762,18.9661215 20,18.9661215 L4.57031111,18.9661215 C4.43359365,18.5409181 4.27734286,18.120605 4.07714603,17.7198404 L3.20312381,15.9701591 C2.77343492,15.1148684 2.63183492,14.1667164 2.78808571,13.2283419 C3.29589841,10.1688439 5.4150381,7.58342355 8.31542857,6.47887477 L8.43749841,6.43488766 C14.5654286,4.10849645 20.9667968,2.85732822 27.5,2.71559589 Z M47.5,13.9614486 C46.8115238,13.9614486 46.25,14.5234972 46.25,15.2126168 C46.25,15.9017364 46.8115238,16.463785 47.5,16.463785 L50,16.463785 C50.6884762,16.463785 51.25,15.9017364 51.25,15.2126168 C51.25,14.5234972 50.6884762,13.9614486 50,13.9614486 L47.5,13.9614486 Z M63.75,21.4684579 C63.0615238,21.4684579 62.5,22.0305065 62.5,22.7196262 C62.5,23.4087458 63.0615238,23.9707944 63.75,23.9707944 L66.25,23.9707944 C66.9384762,23.9707944 67.5,23.4087458 67.5,22.7196262 C67.5,22.0305065 66.9384762,21.4684579 66.25,21.4684579 L63.75,21.4684579 Z M52.5,23.9707944 C51.8115238,23.9707944 51.25,24.532843 51.25,25.2219626 C51.25,25.9110822 51.8115238,26.4731308 52.5,26.4731308 L55,26.4731308 C55.6884762,26.4731308 56.25,25.9110822 56.25,25.2219626 C56.25,24.532843 55.6884762,23.9707944 55,23.9707944 L52.5,23.9707944 Z M37.5,30.2266355 C36.8115238,30.2266355 36.25,30.7886841 36.25,31.4778037 C36.25,32.1669234 36.8115238,32.728972 37.5,32.728972 L40,32.728972 C40.6884762,32.728972 41.25,32.1669234 41.25,31.4778037 C41.25,30.7886841 40.6884762,30.2266355 40,30.2266355 L37.5,30.2266355 Z M50,37.7336449 C49.3115238,37.7336449 48.75,38.2956935 48.75,38.9848131 C48.75,39.6739327 49.3115238,40.2359813 50,40.2359813 L52.5,40.2359813 C53.1884762,40.2359813 53.75,39.6739327 53.75,38.9848131 C53.75,38.2956935 53.1884762,37.7336449 52.5,37.7336449 L50,37.7336449 Z M61.25,48.9941589 C60.5615238,48.9941589 60,49.5562075 60,50.2453271 C60,50.9344467 60.5615238,51.4964953 61.25,51.4964953 L63.75,51.4964953 C64.4384762,51.4964953 65,50.9344467 65,50.2453271 C65,49.5562075 64.4384762,48.9941589 63.75,48.9941589 L61.25,48.9941589 Z M42.5,53.9988318 C41.8115238,53.9988318 41.25,54.5608804 41.25,55.25 C41.25,55.9391196 41.8115238,56.5011682 42.5,56.5011682 L45,56.5011682 C45.6884762,56.5011682 46.25,55.9391196 46.25,55.25 C46.25,54.5608804 45.6884762,53.9988318 45,53.9988318 L42.5,53.9988318 Z M8.75,57.7523364 C8.06152381,57.7523364 7.5,58.314385 7.5,59.0035047 L7.5,61.5058411 C7.5,62.1949607 8.06152381,62.7570093 8.75,62.7570093 C9.43847619,62.7570093 10,62.1949607 10,61.5058411 L10,59.0035047 C10,58.314385 9.43847619,57.7523364 8.75,57.7523364 Z M15,57.7523364 C14.3115238,57.7523364 13.75,58.314385 13.75,59.0035047 L13.75,61.5058411 C13.75,62.1949607 14.3115238,62.7570093 15,62.7570093 C15.6884762,62.7570093 16.25,62.1949607 16.25,61.5058411 L16.25,59.0035047 C16.25,58.314385 15.6884762,57.7523364 15,57.7523364 Z M21.25,57.7523364 C20.5615238,57.7523364 20,58.314385 20,59.0035047 L20,61.5058411 C20,62.1949607 20.5615238,62.7570093 21.25,62.7570093 C21.9384762,62.7570093 22.5,62.1949607 22.5,61.5058411 L22.5,59.0035047 C22.5,58.314385 21.9384762,57.7523364 21.25,57.7523364 Z" id="Shape"></path>
                    </g>
                </g>
            </g>
        </g>
    </g>
</svg>
