<?xml version="1.0" encoding="UTF-8"?>
<svg width="100px" height="100px" viewBox="0 0 100 100" version="1.1" xmlns="http://www.w3.org/2000/svg" xmlns:xlink="http://www.w3.org/1999/xlink">
    <!-- Generator: sketchtool 49.3 (51167) - http://www.bohemiancoding.com/sketch -->
    <title>288A455F-2E30-424C-B57C-4678AEDD407C</title>
    <desc>Created with sketchtool.</desc>
    <defs></defs>
    <g id="Symbols" stroke="none" stroke-width="1" fill="none" fill-rule="evenodd">
        <g id="icon/price/bus">
            <g id="icons8-bus" transform="translate(12.000000, 12.000000)">
                <g id="Group" stroke-linejoin="round" transform="translate(2.000000, 0.000000)" fill="#81CA49" fill-rule="nonzero" stroke="#81CA49" stroke-width="0.996">
                    <g id="surface1-1">
                        <path d="M55.1489051,-9.81180569e-15 C60.9091664,-9.81180569e-15 65.6740022,4.48352056 66.0042382,10.2077647 L66.5231793,19.25 L69.1084559,19.25 C71.1040244,19.25 72.7316176,20.8714 72.7316176,22.859375 L72.7316176,32.484375 C72.7316176,34.47235 71.1040244,36.09375 69.1084559,36.09375 L67.48558,36.09375 L67.7025924,39.8159178 C67.8346856,42.109375 67.9007322,44.4404308 67.9007322,46.7479864 L67.9007322,61.359375 C67.9007322,64.2637936 65.8202445,66.6935439 63.0698499,67.2528083 L63.0698499,72.1875 C63.0698499,73.066345 62.8150983,73.8840942 62.3952256,74.59375 L71.523894,74.59375 C72.1890835,74.59375 72.7316146,75.1295172 72.7316146,75.796875 C72.7316146,76.4642328 72.1890835,77 71.523894,77 L1.47609987,77 C0.810910378,77 0.268379286,76.4642328 0.268379286,75.796875 C0.268379286,75.1295172 0.810910378,74.59375 1.47609987,74.59375 L10.6047683,74.59375 C10.1848956,73.8840942 9.93014399,73.066345 9.93014399,72.1875 L9.93014399,67.2528083 C7.17974937,66.6935439 5.09926164,64.2637936 5.09926164,61.359375 L5.09926164,46.7479864 C5.09926164,44.4404308 5.16530824,42.109375 5.2974045,39.8159178 L5.51441693,36.09375 L3.89154105,36.09375 C1.89597256,36.09375 0.268379286,34.47235 0.268379286,32.484375 L0.268379286,22.859375 C0.268379286,20.8714 1.89597256,19.25 3.89154105,19.25 L6.47681765,19.25 L6.99576176,10.2077647 C7.32599782,4.48352361 12.0908336,-1.41540113e-14 17.8510949,-1.41540113e-14 L55.1489051,-9.81180569e-15 Z M9.48668739,9.625 L27.0410955,9.625 C27.0458129,9.625 27.0505303,9.62969944 27.0599651,9.62969944 C27.5600366,8.22918861 28.8856982,7.21875 30.4613971,7.21875 L42.5386029,7.21875 C44.1190192,7.21875 45.4541156,8.2385875 45.9494697,9.64849722 C45.9872119,9.64379778 46.0202337,9.625 46.0626933,9.625 L63.51803,9.625 C62.9236045,5.52215583 59.385362,2.40625 55.1489021,2.40625 L17.8510949,2.40625 C13.614638,2.40625 10.0763924,5.52215583 9.48668739,9.625 Z M29.2536765,10.828125 C29.2536765,11.4907833 29.7962076,12.03125 30.4613971,12.03125 L42.5386029,12.03125 C43.2037924,12.03125 43.7463235,11.4907833 43.7463235,10.828125 C43.7463235,10.1654667 43.2037924,9.625 42.5386029,9.625 L30.4613971,9.625 C29.7962076,9.625 29.2536765,10.1654667 29.2536765,10.828125 Z M42.5386029,14.4375 L37.7077206,14.4375 L37.7077206,30.078125 C37.7077206,30.7454828 37.1651895,31.28125 36.5,31.28125 C35.8348105,31.28125 35.2922794,30.7454828 35.2922794,30.078125 L35.2922794,14.4375 L30.4613971,14.4375 C28.8856982,14.4375 27.5600366,13.4270614 27.0599651,12.0265506 C27.0505303,12.0265506 27.0458129,12.03125 27.0410955,12.03125 L9.30741718,12.03125 L7.71284874,39.9522078 C7.6892587,40.2952886 7.67982391,40.6477653 7.66567172,40.9908431 C7.77889534,41.0096408 7.89211895,41.0284417 8.00062517,41.0801356 L11.2652434,42.6874372 C12.0908336,43.0963133 13.0154951,43.3124969 13.9401567,43.3124969 L46.2844231,43.3124969 C46.8458238,40.5725681 49.284855,38.4999969 52.2003676,38.4999969 C55.1158803,38.4999969 57.5549115,40.5725681 58.1163122,43.3124969 L59.1777843,43.3124969 C60.093008,43.3124969 61.0129522,43.1010097 61.8338249,42.7015356 L65.0559836,41.1318325 C65.1456202,41.084835 65.2446886,41.0754361 65.3390426,41.0566383 C65.320173,40.6853608 65.3107382,40.3187858 65.2918656,39.9522078 L63.6925797,12.03125 L46.0626902,12.03125 C46.0202306,12.03125 45.9872088,12.0124522 45.9494666,12.0077528 C45.4541125,13.4176656 44.1190161,14.4375 42.5385999,14.4375 L42.5386029,14.4375 Z M2.68382353,22.859375 L2.68382353,32.484375 C2.68382353,33.1470333 3.22635462,33.6875 3.89154412,33.6875 L5.64651319,33.6875 L6.34001013,21.65625 L3.89154412,21.65625 C3.22635462,21.65625 2.68382353,22.1967167 2.68382353,22.859375 Z M67.3534868,33.6875 L69.1084559,33.6875 C69.7736454,33.6875 70.3161765,33.1470333 70.3161765,32.484375 L70.3161765,22.859375 C70.3161765,22.1967167 69.7736454,21.65625 69.1084559,21.65625 L66.6599899,21.65625 L67.3534868,33.6875 Z M37.7077206,34.890625 L37.7077206,39.703125 C37.7077206,40.3704828 37.1651895,40.90625 36.5,40.90625 C35.8348105,40.90625 35.2922794,40.3704828 35.2922794,39.703125 L35.2922794,34.890625 C35.2922794,34.2232672 35.8348105,33.6875 36.5,33.6875 C37.1651895,33.6875 37.7077206,34.2232672 37.7077206,34.890625 Z M48.8036531,43.3125 L55.6017996,43.3125 C55.1017281,41.9166886 53.7760665,40.90625 52.2003676,40.90625 C50.6293862,40.90625 49.2990072,41.9166886 48.8036531,43.3125 Z M7.51470588,46.7479864 L7.51470588,61.359375 C7.51470588,63.34735 9.14229916,64.96875 11.1378676,64.96875 L61.8621324,64.96875 C63.8577008,64.96875 65.4852941,63.34735 65.4852941,61.359375 L65.4852941,46.7479864 C65.4852941,45.7093511 65.4664245,44.6613169 65.4428345,43.6179822 L62.8953001,44.8587058 C61.7441913,45.4226697 60.456272,45.7187531 59.1777843,45.7187531 L13.9401567,45.7187531 C12.6475168,45.7187531 11.3501627,45.4179733 10.1943365,44.8446075 L7.5618829,43.5521869 C7.52885807,44.6190219 7.51470588,45.6811544 7.51470588,46.7479864 Z M13.5533088,49.328125 L13.5533088,51.734375 C13.5533088,52.4017328 13.0107777,52.9375 12.3455882,52.9375 C11.6803987,52.9375 11.1378676,52.4017328 11.1378676,51.734375 L11.1378676,49.328125 C11.1378676,48.6607672 11.6803987,48.125 12.3455882,48.125 C13.0107777,48.125 13.5533088,48.6607672 13.5533088,49.328125 Z M19.5919118,49.328125 L19.5919118,51.734375 C19.5919118,52.4017328 19.0493807,52.9375 18.3841912,52.9375 C17.7190017,52.9375 17.1764706,52.4017328 17.1764706,51.734375 L17.1764706,49.328125 C17.1764706,48.6607672 17.7190017,48.125 18.3841912,48.125 C19.0493807,48.125 19.5919118,48.6607672 19.5919118,49.328125 Z M25.6305147,49.328125 L25.6305147,51.734375 C25.6305147,52.4017328 25.0879836,52.9375 24.4227941,52.9375 C23.7576046,52.9375 23.2150735,52.4017328 23.2150735,51.734375 L23.2150735,49.328125 C23.2150735,48.6607672 23.7576046,48.125 24.4227941,48.125 C25.0879836,48.125 25.6305147,48.6607672 25.6305147,49.328125 Z M31.6691176,49.328125 L31.6691176,51.734375 C31.6691176,52.4017328 31.1265866,52.9375 30.4613971,52.9375 C29.7962076,52.9375 29.2536765,52.4017328 29.2536765,51.734375 L29.2536765,49.328125 C29.2536765,48.6607672 29.7962076,48.125 30.4613971,48.125 C31.1265866,48.125 31.6691176,48.6607672 31.6691176,49.328125 Z M37.7077206,49.328125 L37.7077206,51.734375 C37.7077206,52.4017328 37.1651895,52.9375 36.5,52.9375 C35.8348105,52.9375 35.2922794,52.4017328 35.2922794,51.734375 L35.2922794,49.328125 C35.2922794,48.6607672 35.8348105,48.125 36.5,48.125 C37.1651895,48.125 37.7077206,48.6607672 37.7077206,49.328125 Z M43.7463235,49.328125 L43.7463235,51.734375 C43.7463235,52.4017328 43.2037924,52.9375 42.5386029,52.9375 C41.8734134,52.9375 41.3308824,52.4017328 41.3308824,51.734375 L41.3308824,49.328125 C41.3308824,48.6607672 41.8734134,48.125 42.5386029,48.125 C43.2037924,48.125 43.7463235,48.6607672 43.7463235,49.328125 Z M49.7849265,49.328125 L49.7849265,51.734375 C49.7849265,52.4017328 49.2423954,52.9375 48.5772059,52.9375 C47.9120164,52.9375 47.3694853,52.4017328 47.3694853,51.734375 L47.3694853,49.328125 C47.3694853,48.6607672 47.9120164,48.125 48.5772059,48.125 C49.2423954,48.125 49.7849265,48.6607672 49.7849265,49.328125 Z M55.8235294,49.328125 L55.8235294,51.734375 C55.8235294,52.4017328 55.2809983,52.9375 54.6158088,52.9375 C53.9506193,52.9375 53.4080882,52.4017328 53.4080882,51.734375 L53.4080882,49.328125 C53.4080882,48.6607672 53.9506193,48.125 54.6158088,48.125 C55.2809983,48.125 55.8235294,48.6607672 55.8235294,49.328125 Z M61.8621324,49.328125 L61.8621324,51.734375 C61.8621324,52.4017328 61.3196013,52.9375 60.6544118,52.9375 C59.9892223,52.9375 59.4466912,52.4017328 59.4466912,51.734375 L59.4466912,49.328125 C59.4466912,48.6607672 59.9892223,48.125 60.6544118,48.125 C61.3196013,48.125 61.8621324,48.6607672 61.8621324,49.328125 Z M12.6475199,54.3192131 L17.3510265,54.9066772 C20.0070671,55.2356567 22.007356,57.4915153 22.007356,60.15625 C22.007356,61.4815667 20.9222938,62.5625 19.5919148,62.5625 L12.3455913,62.5625 C11.0152123,62.5625 9.93015013,61.4815667 9.93015013,60.15625 L9.93015013,56.7066653 C9.93015013,56.0158072 10.2273644,55.3578483 10.7463055,54.9019778 C11.1378707,54.5588969 11.62379,54.3521122 12.1332963,54.3098142 C12.3031317,54.2910164 12.4729671,54.2957158 12.6475199,54.3192131 Z M62.2536976,54.9019778 C62.7726387,55.3578483 63.0698529,56.0158072 63.0698529,56.7066653 L63.0698529,60.15625 C63.0698529,61.4815667 61.9847908,62.5625 60.6544118,62.5625 L53.4080882,62.5625 C52.0777092,62.5625 50.9926471,61.4815667 50.9926471,60.15625 C50.9926471,57.4915153 52.9929329,55.2356567 55.6489766,54.9066772 L60.3524832,54.3192131 C60.527036,54.2957128 60.6968714,54.2910133 60.8667068,54.3098142 C61.3762131,54.3521122 61.8621324,54.5588969 62.2536976,54.9019778 Z M12.3455882,60.15625 L19.5919118,60.15625 C19.5919118,58.7040422 18.5021322,57.4727175 17.0538122,57.2941294 L12.3455882,56.7066653 L12.3455882,60.15625 Z M55.9461878,57.2941294 C54.4978678,57.4727175 53.4080882,58.7040422 53.4080882,60.15625 L60.6544118,60.15625 L60.6544118,56.7066653 L55.9461878,57.2941294 Z M47.5723455,57.75 C48.237535,57.75 48.7800661,58.2857672 48.7800661,58.953125 C48.7800661,59.6204828 48.237535,60.15625 47.5723455,60.15625 L25.5314463,60.15625 C24.8662568,60.15625 24.3237258,59.6204828 24.3237258,58.953125 C24.3237258,58.2857672 24.8662568,57.75 25.5314463,57.75 L47.5723455,57.75 Z M12.3455882,72.1875 C12.3455882,73.5128167 13.4306504,74.59375 14.7610294,74.59375 L17.1764706,74.59375 C18.5068496,74.59375 19.5919118,73.5128167 19.5919118,72.1875 L19.5919118,67.375 L12.3455882,67.375 L12.3455882,72.1875 Z M22.0073529,72.1875 C22.0073529,73.066345 21.7526013,73.8840942 21.3327287,74.59375 L51.6672744,74.59375 C51.2474017,73.8840942 50.9926501,73.066345 50.9926501,72.1875 L50.9926501,67.375 L22.007356,67.375 L22.0073529,72.1875 Z M53.4080882,72.1875 C53.4080882,73.5128167 54.4931504,74.59375 55.8235294,74.59375 L58.2389706,74.59375 C59.5693496,74.59375 60.6544118,73.5128167 60.6544118,72.1875 L60.6544118,67.375 L53.4080882,67.375 L53.4080882,72.1875 Z" id="Shape"></path>
                    </g>
                </g>
                <polygon id="Shape" points="0 77 0 0 77 0 77 77"></polygon>
                <g id="Group" transform="translate(2.000000, 0.000000)" fill="#81CA49" fill-rule="nonzero">
                    <g id="surface1">
                        <path d="M17.8510949,-9.81180569e-15 C12.0908336,-9.81180569e-15 7.32599782,4.48352056 6.99576176,10.2077647 L6.47681765,19.25 L3.89154105,19.25 C1.89597256,19.25 0.268379286,20.8714 0.268379286,22.859375 L0.268379286,32.484375 C0.268379286,34.47235 1.89597256,36.09375 3.89154105,36.09375 L5.51441693,36.09375 L5.2974045,39.8159178 C5.1653113,42.109375 5.09926164,44.4404308 5.09926164,46.7479864 L5.09926164,61.359375 C5.09926164,64.2637936 7.17974937,66.6935439 9.93014399,67.2528083 L9.93014399,72.1875 C9.93014399,73.066345 10.1848987,73.8840942 10.6047683,74.59375 L1.47609987,74.59375 C0.810910378,74.59375 0.268379286,75.1295172 0.268379286,75.796875 C0.268379286,76.4642328 0.810910378,77 1.47609987,77 L71.523894,77 C72.1890835,77 72.7316146,76.4642328 72.7316146,75.796875 C72.7316146,75.1295172 72.1890835,74.59375 71.523894,74.59375 L62.3952256,74.59375 C62.8150983,73.8840942 63.0698499,73.066345 63.0698499,72.1875 L63.0698499,67.2528083 C65.8202445,66.6935439 67.9007322,64.2637936 67.9007322,61.359375 L67.9007322,46.7479864 C67.9007322,44.4404308 67.8346856,42.109375 67.7025924,39.8159178 L67.48558,36.09375 L69.1084559,36.09375 C71.1040244,36.09375 72.7316176,34.47235 72.7316176,32.484375 L72.7316176,22.859375 C72.7316176,20.8714 71.1040244,19.25 69.1084559,19.25 L66.5231793,19.25 L66.0042382,10.2077647 C65.6740022,4.48352361 60.9091664,-1.41540113e-14 55.1489051,-1.41540113e-14 L17.8510949,-9.81180569e-15 Z M17.8510949,2.40625 L55.1489021,2.40625 C59.3853589,2.40625 62.9236045,5.52215583 63.51803,9.625 L46.0626933,9.625 C46.0202337,9.625 45.9872119,9.64379778 45.9494697,9.64849722 C45.4541156,8.23858444 44.1190192,7.21875 42.5386029,7.21875 L30.4613971,7.21875 C28.8856982,7.21875 27.5600366,8.22918861 27.0599651,9.62969944 C27.0505303,9.62969944 27.0458129,9.625 27.0410955,9.625 L9.48668739,9.625 C10.0763955,5.52215583 13.614638,2.40625 17.8510949,2.40625 Z M30.4613971,9.625 L42.5386029,9.625 C43.2037924,9.625 43.7463235,10.1654667 43.7463235,10.828125 C43.7463235,11.4907833 43.2037924,12.03125 42.5386029,12.03125 L30.4613971,12.03125 C29.7962076,12.03125 29.2536765,11.4907833 29.2536765,10.828125 C29.2536765,10.1654667 29.7962076,9.625 30.4613971,9.625 Z M45.9494697,12.0077528 C45.9872119,12.0124522 46.0202337,12.03125 46.0626933,12.03125 L63.6925828,12.03125 L65.2918687,39.9522078 C65.3107382,40.3187858 65.320173,40.6853608 65.3390457,41.0566383 C65.2446916,41.0754361 65.1456233,41.0848381 65.0559866,41.1318325 L61.833828,42.7015356 C61.0129553,43.1010097 60.0930111,43.3124969 59.1777874,43.3124969 L58.1163153,43.3124969 C57.5549146,40.5725681 55.1158834,38.4999969 52.2003707,38.4999969 C49.2848581,38.4999969 46.8458268,40.5725681 46.2844262,43.3124969 L13.9401597,43.3124969 C13.0154982,43.3124969 12.0908366,43.0963103 11.2652465,42.6874372 L8.00062824,41.0801356 C7.89212202,41.0284386 7.7788984,41.0096408 7.66567479,40.9908431 C7.67982697,40.6477622 7.68926176,40.2952856 7.71285181,39.9522078 L9.30742025,12.03125 L27.0410986,12.03125 C27.045816,12.03125 27.0505334,12.0265506 27.0599682,12.0265506 C27.5600397,13.4270614 28.8857013,14.4375 30.4614001,14.4375 L35.2922825,14.4375 L35.2922825,30.078125 C35.2922825,30.7454828 35.8348136,31.28125 36.5000031,31.28125 C37.1651926,31.28125 37.7077237,30.7454828 37.7077237,30.078125 L37.7077237,14.4375 L42.538606,14.4375 C44.1190223,14.4375 45.4541187,13.4176625 45.9494727,12.0077528 L45.9494697,12.0077528 Z M3.89154412,21.65625 L6.34001013,21.65625 L5.64651319,33.6875 L3.89154412,33.6875 C3.22635462,33.6875 2.68382353,33.1470333 2.68382353,32.484375 L2.68382353,22.859375 C2.68382353,22.1967167 3.22635462,21.65625 3.89154412,21.65625 Z M66.6599899,21.65625 L69.1084559,21.65625 C69.7736454,21.65625 70.3161765,22.1967167 70.3161765,22.859375 L70.3161765,32.484375 C70.3161765,33.1470333 69.7736454,33.6875 69.1084559,33.6875 L67.3534868,33.6875 L66.6599899,21.65625 Z M36.5,33.6875 C35.8348105,33.6875 35.2922794,34.2232672 35.2922794,34.890625 L35.2922794,39.703125 C35.2922794,40.3704828 35.8348105,40.90625 36.5,40.90625 C37.1651895,40.90625 37.7077206,40.3704828 37.7077206,39.703125 L37.7077206,34.890625 C37.7077206,34.2232672 37.1651895,33.6875 36.5,33.6875 Z M52.2003676,40.90625 C53.7760665,40.90625 55.1017281,41.9166886 55.6017996,43.3125 L48.8036531,43.3125 C49.2990072,41.9166886 50.6293862,40.90625 52.2003676,40.90625 Z M7.5618829,43.5521839 L10.1943365,44.8446044 C11.3501627,45.4179672 12.6475199,45.71875 13.9401567,45.71875 L59.1777843,45.71875 C60.4562689,45.71875 61.7441913,45.4226667 62.8953001,44.8587028 L65.4428345,43.6179792 C65.4664215,44.6613139 65.4852941,45.7093511 65.4852941,46.7479833 L65.4852941,61.3593719 C65.4852941,63.3473469 63.8577008,64.9687469 61.8621324,64.9687469 L11.1378676,64.9687469 C9.14229916,64.9687469 7.51470588,63.3473469 7.51470588,61.3593719 L7.51470588,46.7479833 C7.51470588,45.6811483 7.52885807,44.6190158 7.5618829,43.5521839 Z M12.3455882,48.125 C11.6803987,48.125 11.1378676,48.6607672 11.1378676,49.328125 L11.1378676,51.734375 C11.1378676,52.4017328 11.6803987,52.9375 12.3455882,52.9375 C13.0107777,52.9375 13.5533088,52.4017328 13.5533088,51.734375 L13.5533088,49.328125 C13.5533088,48.6607672 13.0107777,48.125 12.3455882,48.125 Z M18.3841912,48.125 C17.7190017,48.125 17.1764706,48.6607672 17.1764706,49.328125 L17.1764706,51.734375 C17.1764706,52.4017328 17.7190017,52.9375 18.3841912,52.9375 C19.0493807,52.9375 19.5919118,52.4017328 19.5919118,51.734375 L19.5919118,49.328125 C19.5919118,48.6607672 19.0493807,48.125 18.3841912,48.125 Z M24.4227941,48.125 C23.7576046,48.125 23.2150735,48.6607672 23.2150735,49.328125 L23.2150735,51.734375 C23.2150735,52.4017328 23.7576046,52.9375 24.4227941,52.9375 C25.0879836,52.9375 25.6305147,52.4017328 25.6305147,51.734375 L25.6305147,49.328125 C25.6305147,48.6607672 25.0879836,48.125 24.4227941,48.125 Z M30.4613971,48.125 C29.7962076,48.125 29.2536765,48.6607672 29.2536765,49.328125 L29.2536765,51.734375 C29.2536765,52.4017328 29.7962076,52.9375 30.4613971,52.9375 C31.1265866,52.9375 31.6691176,52.4017328 31.6691176,51.734375 L31.6691176,49.328125 C31.6691176,48.6607672 31.1265866,48.125 30.4613971,48.125 Z M36.5,48.125 C35.8348105,48.125 35.2922794,48.6607672 35.2922794,49.328125 L35.2922794,51.734375 C35.2922794,52.4017328 35.8348105,52.9375 36.5,52.9375 C37.1651895,52.9375 37.7077206,52.4017328 37.7077206,51.734375 L37.7077206,49.328125 C37.7077206,48.6607672 37.1651895,48.125 36.5,48.125 Z M42.5386029,48.125 C41.8734134,48.125 41.3308824,48.6607672 41.3308824,49.328125 L41.3308824,51.734375 C41.3308824,52.4017328 41.8734134,52.9375 42.5386029,52.9375 C43.2037924,52.9375 43.7463235,52.4017328 43.7463235,51.734375 L43.7463235,49.328125 C43.7463235,48.6607672 43.2037924,48.125 42.5386029,48.125 Z M48.5772059,48.125 C47.9120164,48.125 47.3694853,48.6607672 47.3694853,49.328125 L47.3694853,51.734375 C47.3694853,52.4017328 47.9120164,52.9375 48.5772059,52.9375 C49.2423954,52.9375 49.7849265,52.4017328 49.7849265,51.734375 L49.7849265,49.328125 C49.7849265,48.6607672 49.2423954,48.125 48.5772059,48.125 Z M54.6158088,48.125 C53.9506193,48.125 53.4080882,48.6607672 53.4080882,49.328125 L53.4080882,51.734375 C53.4080882,52.4017328 53.9506193,52.9375 54.6158088,52.9375 C55.2809983,52.9375 55.8235294,52.4017328 55.8235294,51.734375 L55.8235294,49.328125 C55.8235294,48.6607672 55.2809983,48.125 54.6158088,48.125 Z M60.6544118,48.125 C59.9892223,48.125 59.4466912,48.6607672 59.4466912,49.328125 L59.4466912,51.734375 C59.4466912,52.4017328 59.9892223,52.9375 60.6544118,52.9375 C61.3196013,52.9375 61.8621324,52.4017328 61.8621324,51.734375 L61.8621324,49.328125 C61.8621324,48.6607672 61.3196013,48.125 60.6544118,48.125 Z M12.1332932,54.3098142 C11.6237869,54.3521122 11.1378676,54.5588969 10.7463024,54.9019778 C10.2273613,55.3578483 9.93014706,56.0158072 9.93014706,56.7066653 L9.93014706,60.15625 C9.93014706,61.4815667 11.0152092,62.5625 12.3455882,62.5625 L19.5919118,62.5625 C20.9222908,62.5625 22.0073529,61.4815667 22.0073529,60.15625 C22.0073529,57.4915153 20.0070671,55.2356567 17.3510234,54.9066772 L12.6475168,54.3192131 C12.472964,54.2957128 12.3031286,54.2910133 12.1332932,54.3098142 Z M60.8667068,54.3098142 C60.6968714,54.2910164 60.527036,54.2957158 60.3524832,54.3192131 L55.6489766,54.9066772 C52.992936,55.2356567 50.9926471,57.4915153 50.9926471,60.15625 C50.9926471,61.4815667 52.0777092,62.5625 53.4080882,62.5625 L60.6544118,62.5625 C61.9847908,62.5625 63.0698529,61.4815667 63.0698529,60.15625 L63.0698529,56.7066653 C63.0698529,56.0158072 62.7726387,55.3578483 62.2536976,54.9019778 C61.8621324,54.5588969 61.3762131,54.3521122 60.8667068,54.3098142 Z M12.3455882,56.7066653 L17.0538122,57.2941294 C18.5021322,57.4727175 19.5919118,58.7040422 19.5919118,60.15625 L12.3455882,60.15625 L12.3455882,56.7066653 Z M60.6544118,56.7066653 L60.6544118,60.15625 L53.4080882,60.15625 C53.4080882,58.7040422 54.4978678,57.4727175 55.9461878,57.2941294 L60.6544118,56.7066653 Z M25.5314433,57.75 C24.8662538,57.75 24.3237227,58.2857672 24.3237227,58.953125 C24.3237227,59.6204828 24.8662538,60.15625 25.5314433,60.15625 L47.5723455,60.15625 C48.237535,60.15625 48.7800661,59.6204828 48.7800661,58.953125 C48.7800661,58.2857672 48.237535,57.75 47.5723455,57.75 L25.5314433,57.75 Z M12.3455882,67.375 L19.5919118,67.375 L19.5919118,72.1875 C19.5919118,73.5128167 18.5068496,74.59375 17.1764706,74.59375 L14.7610294,74.59375 C13.4306504,74.59375 12.3455882,73.5128167 12.3455882,72.1875 L12.3455882,67.375 Z M22.0073529,67.375 L50.9926471,67.375 L50.9926471,72.1875 C50.9926471,73.066345 51.2474017,73.8840942 51.6672713,74.59375 L21.3327256,74.59375 C21.7525983,73.8840942 22.0073499,73.066345 22.0073499,72.1875 L22.0073529,67.375 Z M53.4080882,67.375 L60.6544118,67.375 L60.6544118,72.1875 C60.6544118,73.5128167 59.5693496,74.59375 58.2389706,74.59375 L55.8235294,74.59375 C54.4931504,74.59375 53.4080882,73.5128167 53.4080882,72.1875 L53.4080882,67.375 Z" id="Shape"></path>
                    </g>
                </g>
            </g>
        </g>
    </g>
</svg>
