<?xml version="1.0" encoding="UTF-8"?>
<svg width="100px" height="100px" viewBox="0 0 100 100" version="1.1" xmlns="http://www.w3.org/2000/svg" xmlns:xlink="http://www.w3.org/1999/xlink">
    <!-- Generator: sketchtool 49.3 (51167) - http://www.bohemiancoding.com/sketch -->
    <title>6F5CB115-6634-4936-AEC2-9C48C7DA0CF6</title>
    <desc>Created with sketchtool.</desc>
    <defs></defs>
    <g id="Symbols" stroke="none" stroke-width="1" fill="none" fill-rule="evenodd">
        <g id="icon/price/hamburger" fill="#81CA49" fill-rule="nonzero">
            <g id="icon-hamburger" transform="translate(7.000000, 17.000000)">
                <path d="M23.9802121,0 C12.8130881,0 3.79374492,8.86667395 3.47927184,19.9383224 L0.321163555,24.3215461 C-0.207418557,25.0765826 -0.0468364374,26.1189346 0.695854369,26.6735197 C1.55898099,27.3216484 2.47563659,27.8227796 3.42574459,28.2236842 L3.42574459,35.1726974 C1.37832778,36.3553655 0,38.5202504 0,41.0526316 C0,43.5850128 1.37832778,45.7498976 3.42574459,46.9325658 L3.42574459,56.4473684 C3.42574459,61.1446345 7.28639772,65 11.990106,65 L73.6535086,65 C78.3572169,65 82.21787,61.1446345 82.21787,56.4473684 L82.21787,46.9325658 C84.2652886,45.7498976 85.6436146,43.5850128 85.6436146,41.0526316 C85.6436146,38.5202504 84.2652886,36.3553655 82.21787,35.1726974 L82.21787,28.3840461 C83.3084884,27.9697788 84.3455795,27.4085124 85.3224511,26.6735197 C85.6837609,26.3995687 85.9246336,25.9919828 85.9848513,25.5376242 C86.0450691,25.0832657 85.9246336,24.6289071 85.6436146,24.2680921 L82.1643428,19.8848684 C81.8164156,8.83994697 72.8104551,0 61.6634025,0 L23.9802121,0 Z M23.4626581,3.25 L60.8992466,3.25 C69.7930961,3.25 76.9719873,9.96370528 77.8095238,18.6875 L6.55238095,18.6875 C7.38991912,9.96370528 14.5688104,3.25 23.4626581,3.25 Z M29.4857143,4.875 C28.1291667,4.875 27.0285714,5.96679687 27.0285714,7.3125 C27.0285714,8.65820312 28.1291667,9.75 29.4857143,9.75 C30.8422619,9.75 31.9428571,8.65820312 31.9428571,7.3125 C31.9428571,5.96679687 30.8422619,4.875 29.4857143,4.875 Z M21.2952381,6.5 C19.9386905,6.5 18.8380952,7.59179687 18.8380952,8.9375 C18.8380952,10.2832031 19.9386905,11.375 21.2952381,11.375 C22.6517857,11.375 23.752381,10.2832031 23.752381,8.9375 C23.752381,7.59179687 22.6517857,6.5 21.2952381,6.5 Z M26.2095238,12.1875 C24.8529762,12.1875 23.752381,13.2792969 23.752381,14.625 C23.752381,15.9707031 24.8529762,17.0625 26.2095238,17.0625 C27.5660714,17.0625 28.6666667,15.9707031 28.6666667,14.625 C28.6666667,13.2792969 27.5660714,12.1875 26.2095238,12.1875 Z M5.92351993,21.9375 L79.8613881,21.9375 L81.9047619,24.3982297 C78.6380533,25.9682261 74.8403343,25.7567576 71.7954388,23.5779865 C71.2442665,23.1870897 70.504887,23.14864 69.913384,23.4754561 L67.1709613,24.9621469 C67.150796,24.9621469 67.1373536,24.9621469 67.1171883,24.9621469 C63.8437568,26.8076942 60.0796471,26.7756539 57.0078652,24.9621469 C56.9876999,24.9621469 56.9742575,24.9621469 56.9540922,24.9621469 L54.2116695,23.4754561 C53.7142701,23.2063146 53.1093231,23.1870897 52.5984796,23.4241909 L47.4900451,25.8849206 L47.4362721,25.8849206 C44.6602417,27.1216931 41.4473043,27.1216931 38.6712739,25.8849206 L38.6175009,25.8849206 L33.5090664,23.4241909 C32.9982229,23.1870897 32.3932776,23.2063146 31.8958765,23.4754561 L29.0996808,24.9621469 C25.8262493,26.8076942 22.0621396,26.7756539 18.9903577,24.9621469 C18.9701924,24.9621469 18.95675,24.9621469 18.9365847,24.9621469 L16.194162,23.4754561 C15.602659,23.14864 14.8632812,23.1870897 14.3121072,23.5779865 C11.2403252,25.7759824 7.38211199,25.9618184 4.0952381,24.3469645 L5.92351993,21.9375 Z M15.0792517,26.8125 L17.0098639,27.8048664 L16.9562358,27.8544847 C21.0990088,30.2299622 26.2942314,30.1989512 30.5777778,27.8544847 L32.50839,26.8621183 L36.8522676,28.8468511 C36.8723785,28.8654584 36.8857847,28.8778622 36.9058957,28.8964695 C40.6263468,30.5276722 44.9300024,30.5276722 48.6504535,28.8964695 C48.6705645,28.8778622 48.6839707,28.8654584 48.7040816,28.8468511 L53.0479592,26.8621183 L54.9249433,27.8544847 L54.9785714,27.8544847 C59.1146396,30.2051531 64.2227187,30.1865458 68.4928571,27.8544847 L70.4234694,26.8125 C72.9372878,28.2452294 75.8197983,28.8282439 78.6285714,28.5987595 L78.6285714,33.3125 L6.55238095,33.3125 L6.55238095,28.5987595 C9.46170721,28.9150767 12.458177,28.3072515 15.0792517,26.8125 Z M6.73043478,38.1875 L79.2695652,38.1875 C81.3272689,38.1875 82.7238095,39.5014652 82.7238095,41.4375 C82.7238095,43.3735347 81.3272689,44.6875 79.2695652,44.6875 L6.73043478,44.6875 C4.67273109,44.6875 3.27619048,43.3735347 3.27619048,41.4375 C3.27619048,39.5014652 4.67273109,38.1875 6.73043478,38.1875 Z M6.55238095,47.9375 L78.6285714,47.9375 L78.6285714,56.5703125 C78.6285714,59.4299316 76.3225624,61.75 73.4802721,61.75 L11.7006803,61.75 C8.85839002,61.75 6.55238095,59.4299316 6.55238095,56.5703125 L6.55238095,47.9375 Z" id="Shape"></path>
            </g>
        </g>
    </g>
</svg>
