<?xml version="1.0" encoding="utf-8"?>
<!-- Generator: Adobe Illustrator 22.0.1, SVG Export Plug-In . SVG Version: 6.00 Build 0)  -->
<svg version="1.1" id="Layer_1" xmlns="http://www.w3.org/2000/svg" xmlns:xlink="http://www.w3.org/1999/xlink" x="0px" y="0px"
	 viewBox="0 0 120 63" style="enable-background:new 0 0 120 63;" xml:space="preserve">
<style type="text/css">
	.st0{fill:#FFFFFF;}
</style>
<g>
	<g>
		<path class="st0" d="M65.8,18.4c-2.2,0-4,1.8-4,4s1.8,4,4,4c2.2,0,4-1.8,4-4l0,0C69.8,20.2,68,18.4,65.8,18.4"/>
		<path class="st0" d="M65.8,35c-2.2,0-3.9,1.8-3.9,4s1.8,3.9,4,3.9c2.2,0,3.9-1.8,3.9-3.9C69.8,36.8,68,35,65.8,35L65.8,35"/>
		<path class="st0" d="M113.4,26.8v18.1c0,0,0,0,0,0.1c0,0.2,0.2,0.3,0.4,0.4h5.8c0.2,0,0.4-0.2,0.4-0.4V26.4c0-0.5,0-0.9-0.1-1.4
			c0-2.1-0.7-4.2-1.9-6c0-0.1-0.1-0.1-0.1-0.2c-0.1-0.1-0.2-0.3-0.4-0.5l-0.2-0.2c-2-2-4.6-3.1-7.4-3.1h-1.4c-0.2,0-0.4,0-0.7,0
			c-2.3,0.1-4.6,0.7-6.6,1.9c-0.7,0.4-1.4,0.9-2,1.4c-0.1,0.1-0.3,0.1-0.4,0l0,0c-0.8-0.9-1.8-1.6-2.9-2.1c-1.5-0.7-3.1-1.1-4.8-1.1
			h-1.4c-0.7,0-1.4,0.1-2.1,0.2l0,0L87,15.4h-0.1c-1,0.2-2,0.6-3,1.1c-0.1,0-0.2,0-0.3,0l-0.1-0.1l-0.7-1.1v-0.1
			C82.7,15,82.5,15,82.3,15l-4.9,2c-0.1,0.1-0.2,0.2-0.2,0.4v27.5c0,0.2,0.2,0.4,0.4,0.4h5.7c0.2,0,0.4-0.2,0.4-0.4v-0.1v-0.1V26.8
			c0-3.5,2-4.8,3.6-5.3c0.6-0.2,1.3-0.3,2-0.3h0.3c0.8,0,1.6,0.1,2.3,0.4c2.9,1,3.3,3.9,3.3,4.8v18.4c0,0,0,0,0,0.1
			c0,0.2,0.2,0.3,0.4,0.4h5.9c0.2,0,0.4-0.2,0.4-0.4v-0.1v-0.1V26.8c0-3.5,2-4.8,3.6-5.3c0.6-0.2,1.3-0.3,2-0.3h0.2
			c0.8,0,1.6,0.1,2.3,0.4c2.9,1,3.3,3.9,3.3,4.8L113.4,26.8z"/>
		<path class="st0" d="M17.5,26.7L17.5,26.7V27H6.4v-0.7l0,0V25c0-3.8,2.9-5.1,5.5-5.2H12c2.6,0,5.5,1.4,5.5,5.2V26.7z M11.9,14.4
			C4.1,14.4,0,18.4,0,25.8v8.8c0,7.5,3.9,11.2,12.1,11.2c3.6,0,7.1-0.6,10.5-1.7c0.2-0.1,0.3-0.2,0.3-0.4l-0.7-4l0,0L22.1,39
			c0-0.1-0.1-0.1-0.2-0.1s-0.1,0-0.2,0L21.5,39c-2.4,0.7-4.8,1.1-7.3,1.4c-0.4,0-0.8,0-1.1,0c-2.4,0-4.1-0.5-5.2-1.5
			c-1.2-1.2-1.4-3.2-1.4-4.2V33c0-0.2,0.1-0.3,0.3-0.3l0,0H23c0.2,0,0.4-0.2,0.4-0.4v-6.2C23.4,18.3,19.5,14.4,11.9,14.4"/>
		<path class="st0" d="M41.7,40.2c-1.2,0.1-2.4-0.4-3.2-1.3l-0.1-0.1c-0.1-0.1-0.1-0.2-0.2-0.3l-0.1-0.2c-0.5-0.9-0.8-2-0.8-3.1
			v-9.7c-0.1-1.4,0.4-2.7,1.3-3.8c0.9-0.9,2.2-1.4,3.6-1.3c1.3,0,2.7,0.3,3.9,0.8c0.1,0,0.2,0.1,0.3,0.1c0.5,0.3,1.2,1,1.2,2.7v12.6
			c0.1,0.7-0.1,1.3-0.6,1.9c-0.3,0.3-0.7,0.5-1.1,0.7C44.6,39.9,43.1,40.2,41.7,40.2 M54.1,0.1C54,0,53.9,0,53.8,0l-5.9,1.3
			c-0.2,0-0.3,0.2-0.3,0.4v3.8v0.1v9.1c0,0.1,0,0.2-0.1,0.3s-0.2,0.1-0.3,0.1c-1.6-0.4-3.2-0.6-4.8-0.6c-7.8,0-11.9,3.9-11.9,11.4
			v8.8c0,7.2,3.6,10.9,10.9,11.2c1.2,0,2.4-0.1,3.6-0.3c0.7-0.2,1.3-0.4,2-0.7l0,0c0.6-0.2,1.4-0.6,1.4-0.6l0.3,0.8
			c0.1,0.2,0.2,0.3,0.4,0.3h4.8c0.2,0,0.4-0.2,0.4-0.4l0,0V0.4C54.3,0.3,54.2,0.1,54.1,0.1"/>
	</g>
	<g>
		<path class="st0" d="M0.7,54.4H3v6.2h4v2H0.7V54.4z"/>
		<path class="st0" d="M12.1,62.8c-0.6,0-1.2-0.1-1.8-0.3c-0.5-0.2-1-0.5-1.4-0.9c-0.8-0.8-1.3-1.9-1.3-3l0,0c0-0.6,0.1-1.2,0.4-1.7
			c0.2-0.5,0.5-1,0.9-1.4s0.9-0.7,1.4-0.9c1.1-0.4,2.4-0.4,3.5,0c0.5,0.2,1,0.5,1.4,0.9c0.8,0.8,1.3,1.9,1.3,3l0,0
			c0,0.6-0.1,1.1-0.3,1.7c-0.2,0.5-0.5,1-0.9,1.4s-0.9,0.7-1.4,0.9C13.3,62.7,12.7,62.8,12.1,62.8z M12.1,60.8
			c0.3,0,0.6-0.1,0.9-0.2c0.2-0.1,0.5-0.3,0.7-0.5s0.3-0.5,0.4-0.7c0.1-0.3,0.2-0.6,0.2-0.8l0,0c0-0.3,0-0.6-0.2-0.9
			c-0.1-0.3-0.2-0.5-0.4-0.7s-0.4-0.4-0.7-0.5s-0.6-0.2-0.9-0.2c-0.3,0-0.6,0.1-0.9,0.2c-0.5,0.2-0.9,0.6-1.1,1.2
			C10,58,10,58.2,10,58.5l0,0c0,0.3,0.1,0.6,0.2,0.8c0.1,0.3,0.2,0.5,0.4,0.7s0.4,0.4,0.7,0.5C11.5,60.7,11.8,60.8,12.1,60.8
			L12.1,60.8z"/>
		<path class="st0" d="M17.1,54.4h2.5l1.9,5.2l1.9-5.2h2.5l-3.3,8.3h-2.1L17.1,54.4z"/>
		<path class="st0" d="M26.7,54.4h6.6v1.9h-4.4v1.2h3.9v1.8h-3.9v1.3h4.4v1.9h-6.7v-8.1H26.7z"/>
		<path class="st0" d="M40.1,59.6L37,54.4h2.6l1.7,3l1.7-3h2.6l-3.1,5.1v3.1h-2.3L40.1,59.6z"/>
		<path class="st0" d="M50.4,62.8c-0.6,0-1.2-0.1-1.8-0.3c-0.5-0.2-1-0.5-1.4-0.9s-0.7-0.8-0.9-1.4c-0.2-0.5-0.3-1.1-0.3-1.7l0,0
			c0-0.6,0.1-1.2,0.3-1.7s0.5-1,0.9-1.4s0.9-0.7,1.4-0.9c0.6-0.2,1.2-0.3,1.8-0.3s1.2,0.1,1.8,0.3c0.5,0.2,1,0.5,1.4,0.9
			s0.7,0.9,0.9,1.4s0.3,1.1,0.3,1.7l0,0c0,1.1-0.5,2.2-1.3,3c-0.4,0.4-0.9,0.7-1.4,0.9C51.6,62.7,51,62.8,50.4,62.8z M50.4,60.8
			c0.3,0,0.6-0.1,0.9-0.2c0.3-0.1,0.5-0.3,0.7-0.5s0.3-0.5,0.4-0.7c0.1-0.3,0.2-0.6,0.2-0.8l0,0c0-0.3,0-0.6-0.2-0.9
			c-0.1-0.3-0.2-0.5-0.4-0.7s-0.4-0.4-0.7-0.5c-0.5-0.2-1.2-0.2-1.7,0c-0.2,0.1-0.5,0.3-0.7,0.5s-0.3,0.5-0.4,0.7
			c-0.1,0.3-0.1,0.5-0.1,0.8l0,0c0,0.6,0.2,1.1,0.6,1.6c0.2,0.2,0.4,0.4,0.7,0.5C49.8,60.7,50.1,60.8,50.4,60.8L50.4,60.8z"/>
		<path class="st0" d="M59.7,62.8c-0.5,0-1.1-0.1-1.6-0.2c-0.4-0.1-0.9-0.4-1.2-0.7s-0.6-0.7-0.8-1.2s-0.3-1.1-0.3-1.7v-4.6h2.3V59
			c0,0.5,0.1,0.9,0.4,1.3c0.3,0.3,0.7,0.4,1.1,0.4c0.4,0,0.8-0.1,1.1-0.4c0.3-0.4,0.5-0.8,0.4-1.3v-4.7h2.3V59
			c0,0.6-0.1,1.1-0.3,1.7c-0.3,0.9-1.1,1.6-2,1.9C60.8,62.8,60.3,62.8,59.7,62.8z"/>
		<path class="st0" d="M64.9,54.4h3.9c0.5,0,1.1,0.1,1.6,0.2c0.4,0.1,0.8,0.4,1.1,0.7c0.5,0.5,0.8,1.2,0.7,1.9l0,0
			c0,0.6-0.1,1.1-0.5,1.6c-0.3,0.4-0.7,0.8-1.2,1l2,2.9h-2.6l-1.7-2.5h-1v2.5h-2.3V54.4z M68.7,58.4c0.3,0,0.6-0.1,0.9-0.3
			c0.2-0.2,0.3-0.4,0.3-0.7l0,0c0-0.3-0.1-0.5-0.3-0.7c-0.3-0.2-0.6-0.3-0.9-0.2h-1.5v1.9H68.7z"/>
		<path class="st0" d="M76.6,54.4h3.2c0.7,0,1.3,0.1,2,0.3c0.5,0.2,1,0.5,1.4,0.8c0.4,0.4,0.7,0.8,0.9,1.3c0.2,0.5,0.3,1.1,0.3,1.6
			l0,0c0,0.6-0.1,1.1-0.3,1.7c-0.2,0.5-0.5,0.9-0.9,1.3c-0.4,0.4-0.9,0.7-1.5,0.9s-1.3,0.3-2,0.3h-3.1V54.4z M79.8,60.7
			c0.6,0,1.2-0.2,1.7-0.5c0.4-0.4,0.7-1,0.6-1.5l0,0c0-0.6-0.2-1.1-0.6-1.5c-0.5-0.4-1.1-0.6-1.7-0.6h-0.9v4.2L79.8,60.7z"/>
		<path class="st0" d="M85.6,54.4h3.9c0.5,0,1.1,0.1,1.6,0.2c0.4,0.1,0.8,0.4,1.1,0.7c0.5,0.5,0.8,1.2,0.7,1.9l0,0
			c0,0.6-0.1,1.1-0.5,1.6c-0.3,0.4-0.7,0.8-1.2,1l2,2.9h-2.6l-1.7-2.5h-1v2.5h-2.3V54.4z M89.4,58.4c0.3,0,0.6-0.1,0.9-0.3
			c0.2-0.2,0.3-0.4,0.3-0.7l0,0c0-0.3-0.1-0.5-0.3-0.7c-0.3-0.2-0.6-0.3-0.9-0.2h-1.5v1.9H89.4z"/>
		<path class="st0" d="M94.1,54.4h6.6v1.9h-4.4v1.2h3.9v1.8h-3.9v1.3h4.4v1.9H94L94.1,54.4L94.1,54.4z"/>
		<path class="st0" d="M104.8,54.4h2.2l3.5,8.3H108l-0.6-1.5h-3.2l-0.6,1.5h-2.4L104.8,54.4z M106.8,59.4l-0.9-2.3l-0.9,2.3H106.8z"
			/>
		<path class="st0" d="M111.3,54.4h2.4l2,3.2l2-3.2h2.4v8.2h-2.3v-4.7l-2.1,3.2l0,0l-2.1-3.2v4.7h-2.2v-8.2H111.3z"/>
	</g>
</g>
</svg>
