<?xml version="1.0" encoding="UTF-8"?>
<svg width="100px" height="100px" viewBox="0 0 100 100" version="1.1" xmlns="http://www.w3.org/2000/svg" xmlns:xlink="http://www.w3.org/1999/xlink">
    <!-- Generator: sketchtool 49.3 (51167) - http://www.bohemiancoding.com/sketch -->
    <title>05DE81B7-4BA0-4207-91FF-277BE43F4584</title>
    <desc>Created with sketchtool.</desc>
    <defs></defs>
    <g id="Symbols" stroke="none" stroke-width="1" fill="none" fill-rule="evenodd">
        <g id="icon/price/milk" fill="#81CA49" fill-rule="nonzero">
            <path d="M36.2000253,9 C35.1838641,9.00010291 34.3601281,9.83442105 34.3600265,10.8636364 L34.3600265,17.753995 L27.3090943,28.4662633 C27.3078948,28.4674754 27.306697,28.4686893 27.3055008,28.4699048 C27.2827161,28.5055466 27.2611406,28.5419665 27.240812,28.5791009 C27.228357,28.6018971 27.2163754,28.6249554 27.204875,28.6482604 C27.2012016,28.6579363 27.1976079,28.6676431 27.1940944,28.6773797 C27.1422809,28.781153 27.1001698,28.88961 27.0683121,29.0013319 C27.0658393,29.0110187 27.0634435,29.0207254 27.0611251,29.0304512 C27.0500744,29.0725632 27.0404852,29.1150548 27.0323751,29.1578475 C27.021489,29.2132448 27.0130948,29.2691147 27.0072186,29.3252841 C27.0071999,29.330137 27.0071999,29.3349899 27.0072186,29.3398428 C27.0025561,29.3930994 27.0001582,29.4465346 27.0000316,29.5 C26.9999895,29.5072799 26.9999895,29.51456 27.0000316,29.52184 L27.0000316,89.1363636 C27.0001332,90.165579 27.8238692,90.9998971 28.8400303,91 L60.1200088,91 L71.1600012,91 C72.1761624,90.9998971 72.9998983,90.165579 72.9999999,89.1363636 L72.9999999,29.5 C73.0000675,29.2106628 72.9336261,28.9252829 72.8059371,28.6664588 L67.4800037,17.881392 L67.4800037,10.8636364 C67.4799021,9.83442105 66.6561662,9.00010291 65.640005,9 L36.2000253,9 Z M38.040024,12.7272727 L63.8000063,12.7272727 L63.8000063,16.4545455 L38.040024,16.4545455 L38.040024,12.7272727 Z M37.1847116,20.1818182 L62.6643811,20.1818182 L58.9843837,27.6363636 L32.2792474,27.6363636 L37.1847116,20.1818182 Z M65.640005,22.485884 L69.3200025,29.9404295 L69.3200025,87.2727273 L61.9600075,87.2727273 L61.9600075,29.9404295 L65.640005,22.485884 Z M30.6800291,31.3636364 L58.2800101,31.3636364 L58.2800101,87.2727273 L30.6800291,87.2727273 L30.6800291,31.3636364 Z" id="icon-tetra-pak"></path>
        </g>
    </g>
</svg>
