<?xml version="1.0" encoding="UTF-8"?>
<svg width="55px" height="55px" viewBox="0 0 55 55" version="1.1" xmlns="http://www.w3.org/2000/svg" xmlns:xlink="http://www.w3.org/1999/xlink">
    <!-- Generator: sketchtool 49.3 (51167) - http://www.bohemiancoding.com/sketch -->
    <title>9E4442B3-6C65-4200-9390-F2322DD07D45</title>
    <desc>Created with sketchtool.</desc>
    <defs></defs>
    <g id="Symbols" stroke="none" stroke-width="1" fill="none" fill-rule="evenodd">
        <g id="icon/rating" fill="#81CA49" fill-rule="nonzero">
            <path d="M27.5,2 C13.4413391,2 2,13.4379045 2,27.5 C2,41.5620963 13.4413391,53 27.5,53 C41.5586609,53 53,41.5620963 53,27.5 C53,13.4379045 41.5586609,2 27.5,2 Z M27.5,3.75862069 C40.590046,3.75862069 51.2413793,14.409954 51.2413793,27.5 C51.2413793,40.590046 40.590046,51.2413793 27.5,51.2413793 C14.409954,51.2413793 3.75862069,40.590046 3.75862069,27.5 C3.75862069,14.409954 14.409954,3.75862069 27.5,3.75862069 Z M27.1153017,7.28273212 C21.9356142,7.38577586 16.9139282,9.48444257 13.1974677,13.1974677 C5.3145876,21.0837823 5.3145876,33.9127831 13.1974677,41.7990977 C13.3692084,41.9708376 13.5959052,42.0567084 13.8191673,42.0567084 C14.045865,42.0567084 14.2725617,41.9708376 14.4443025,41.7990977 C14.7877831,41.4556171 14.7877831,40.8991781 14.4443025,40.5556975 C7.24151445,33.3563441 7.24494903,21.6436559 14.4443025,14.4443025 C18.617592,10.2675783 24.5975891,8.33034774 30.4367594,9.26804957 C30.9141976,9.34705033 31.367592,9.01730895 31.4431573,8.53987069 C31.5221581,8.05899784 31.1924167,7.60560345 30.7149784,7.53003816 C29.5162314,7.33768902 28.3106142,7.25525367 27.1153017,7.28273212 Z M34.2356544,8.49521843 C33.8921738,8.50895766 33.5761717,8.72535066 33.4490841,9.06539579 C33.2773442,9.52222566 33.5074755,10.0271415 33.9643054,10.1988822 C34.5928742,10.432449 35.2111393,10.7037989 35.8122306,11.0026264 C35.9393182,11.0678879 36.0732759,11.098801 36.2072335,11.098801 C36.5266703,11.098801 36.8358032,10.9236265 36.9938039,10.6144935 C37.2101969,10.1817084 37.0350216,9.65274784 36.6022364,9.43292026 C35.9496228,9.10317888 35.2660962,8.807786 34.579135,8.55017533 C34.4657866,8.50895766 34.3490037,8.49178384 34.2356544,8.49521843 Z M39.3122982,11.3873247 C39.089036,11.4148031 38.8760776,11.5247169 38.7249461,11.7170661 C38.4261178,12.0983297 38.4913793,12.6513333 38.8760776,12.9501616 C39.4634296,13.4104261 40.0267378,13.9119073 40.5556975,14.4443025 C47.7584864,21.6436559 47.7584864,33.3563441 40.5556975,40.5556975 C40.2122169,40.9026136 40.2122169,41.4556171 40.5556975,41.8025323 C40.7274383,41.9708376 40.954135,42.060143 41.1808327,42.060143 C41.4040948,42.060143 41.6307925,41.9708376 41.8025323,41.8025323 C49.6854124,33.9162177 49.6854124,21.0837823 41.8025323,13.1974677 C41.2220503,12.6204203 40.6037852,12.0708513 39.9614763,11.5659346 C39.7691272,11.4182386 39.5321258,11.3598462 39.3122982,11.3873247 Z M27.4347385,15.423222 C27.0775186,15.423222 26.7546473,15.6430496 26.6206897,15.9727909 L23.9621502,22.4851832 L16.7387529,23.1446659 C16.3884023,23.175579 16.0895748,23.4125813 15.979661,23.7491918 C15.8731818,24.0823678 15.9727909,24.4498922 16.2372708,24.6834591 L21.6917428,29.4509698 L20.0155574,36.2931034 C19.9331221,36.6400186 20.0670797,37.0041085 20.3556034,37.2136315 C20.6441272,37.4231544 21.03226,37.4368936 21.3345229,37.2514146 L27.4347385,33.4765625 L33.534954,37.2514146 C33.6757817,37.3372845 33.8372169,37.3785022 33.998653,37.3785022 C34.1772629,37.3785022 34.3593074,37.3269798 34.5138744,37.2136315 C34.8023981,37.0041085 34.9363548,36.6400186 34.8504849,36.2931034 L33.1777342,29.4509698 L38.6322061,24.6834591 C38.8966869,24.4498922 38.996296,24.0823678 38.8898168,23.7491918 C38.779903,23.4125813 38.4810747,23.175579 38.1341595,23.1446659 L30.9073276,22.4851832 L28.2487882,15.9727909 C28.1148305,15.6430496 27.7919583,15.423222 27.4347385,15.423222 Z M27.4347385,18.6313313 L29.4784483,23.6427126 C29.6055359,23.948411 29.8871904,24.1579339 30.2169318,24.188847 L35.9290144,24.7075029 L31.6183327,28.4754849 C31.3710266,28.6918779 31.2645474,29.0319239 31.3435482,29.3513607 L32.6350352,34.6203527 L27.8984375,31.6904634 C27.7541761,31.6045934 27.5961746,31.5599412 27.4347385,31.5599412 C27.2733032,31.5599412 27.1153017,31.6045934 26.9744749,31.6904634 L22.2378772,34.6203527 L23.5293642,29.3513607 C23.6049304,29.0319239 23.4984512,28.6918779 23.2545797,28.4754849 L18.9404634,24.7075029 L24.6559806,24.188847 C24.9822874,24.1579339 25.2639411,23.948411 25.3875941,23.6427126 L27.4347385,18.6313313 Z M19.0366379,41.9158807 C18.6931573,41.874663 18.3462421,42.0326646 18.1676322,42.3486667 L17.2883219,43.8737206 C17.0444504,44.2927665 17.1887127,44.8285962 17.6077586,45.0724677 C17.7451509,45.1514684 17.8962823,45.1926861 18.0474138,45.1926861 C18.3496767,45.1926861 18.6450705,45.0346846 18.8065057,44.7530309 L19.6858161,43.2279771 C19.9296875,42.8089303 19.7888607,42.2696659 19.3663793,42.0257945 C19.2599001,41.967403 19.1499863,41.9296199 19.0366379,41.9158807 Z M35.9633621,41.9158807 C35.8500137,41.9296199 35.7366653,41.967403 35.6336207,42.0257945 C35.2111393,42.2696659 35.0703125,42.8089303 35.3141839,43.2314116 L36.1934943,44.7530309 C36.3549304,45.0346846 36.6503233,45.1926861 36.9525862,45.1926861 C37.1037177,45.1926861 37.2548491,45.154903 37.3922414,45.0724677 C37.8147227,44.8320317 37.9555496,44.2927665 37.7116781,43.8737206 L36.8323678,42.3521013 C36.6503233,42.0360991 36.3034081,41.874663 35.9633621,41.9158807 Z M22.9420122,43.6298491 C22.601967,43.6779369 22.3065733,43.9218074 22.2103987,44.2755927 L21.7570043,45.9758219 C21.6299167,46.4429555 21.9115704,46.9238283 22.378704,47.0509159 C22.4542702,47.0715252 22.5298354,47.081829 22.6088362,47.081829 C22.9935345,47.081829 23.3507543,46.8207837 23.4572335,46.4292163 L23.9140625,44.7289871 C24.0377155,44.2618534 23.7594964,43.777546 23.2923628,43.653893 C23.175579,43.6195445 23.0553614,43.6161099 22.9420122,43.6298491 Z M32.0614224,43.6298491 C31.948074,43.6161099 31.8278556,43.6195445 31.7076372,43.653893 C31.2405036,43.777546 30.9622845,44.2618534 31.0859375,44.7289871 L31.5427665,46.4292163 C31.6492457,46.8207837 32.0030309,47.081829 32.3911638,47.081829 C32.4701646,47.081829 32.5457298,47.0715252 32.621296,47.0509159 C33.0884296,46.9238283 33.3700833,46.4429555 33.2429957,45.9758219 L32.7896013,44.2755927 C32.6934267,43.9218074 32.3980338,43.6779369 32.0614224,43.6298491 Z M27.5,44.2068966 C27.012258,44.2068966 26.6206897,44.6018995 26.6206897,45.0862069 L26.6206897,46.8448276 C26.6206897,47.329135 27.012258,47.7241379 27.5,47.7241379 C27.9877429,47.7241379 28.3793103,47.329135 28.3793103,46.8448276 L28.3793103,45.0862069 C28.3793103,44.6018995 27.9877429,44.2068966 27.5,44.2068966 Z" id="icons-rating"></path>
        </g>
    </g>
</svg>
