<?xml version="1.0" encoding="UTF-8"?>
<svg width="100px" height="100px" viewBox="0 0 100 100" version="1.1" xmlns="http://www.w3.org/2000/svg" xmlns:xlink="http://www.w3.org/1999/xlink">
    <!-- Generator: sketchtool 49.3 (51167) - http://www.bohemiancoding.com/sketch -->
    <title>AF654A06-6FD0-472B-849E-5B9098F39AE8</title>
    <desc>Created with sketchtool.</desc>
    <defs></defs>
    <g id="Symbols" stroke="none" stroke-width="1" fill="none" fill-rule="evenodd">
        <g id="icon/price/subway">
            <g id="icons8-subway">
                <g id="Group" stroke-linejoin="round" transform="translate(10.000000, 10.000000)" fill="#81CA49" fill-rule="nonzero" stroke="#81CA49" stroke-width="0.996">
                    <g id="surface1-1">
                        <path d="M78.9217822,40.1100478 L78.9217822,78.8897129 C78.9265926,79.3392751 78.6956075,79.7595211 78.3106272,79.9891849 C77.9256508,80.213968 77.4540521,80.213968 77.0690718,79.9891849 C76.6840954,79.7595172 76.4531065,79.3392751 76.4579169,78.8897129 L76.4579169,75.1368421 C75.7793929,75.1368421 75.2259862,74.5748884 75.2259862,73.8858852 C75.2259862,73.1968819 75.7793929,72.6349282 76.4579169,72.6349282 L76.4579169,40.1100478 C76.4579169,19.3666402 59.92791,2.58133971 39.4999961,2.58133971 C19.0720822,2.58133971 2.5420753,19.3666402 2.5420753,40.1100478 L2.5420753,72.6349282 C3.22059926,72.6349282 3.77400599,73.1968819 3.77400599,73.8858852 C3.77400599,74.5748884 3.22059926,75.1368421 2.5420753,75.1368421 L2.5420753,78.8897129 C2.54688569,79.3392751 2.31590064,79.7595211 1.93092035,79.9891849 C1.54594396,80.213968 1.07434525,80.213968 0.68936495,79.9891849 C0.304388564,79.7595172 0.073399604,79.3392751 0.07821,78.8897129 L0.07821,40.1100478 C0.07821,18.0179537 17.7439045,0.0794258373 39.4999922,0.0794258373 C61.2560799,0.0794258373 78.9217744,18.0179537 78.9217744,40.1100478 L78.9217822,40.1100478 Z M47.5075495,16.341866 C49.1677697,16.341866 50.4189498,17.4364533 51.140783,18.8437799 L53.6335185,18.8437799 C57.0020785,18.8437799 59.9519776,21.1648928 60.7893033,24.4730861 L65.3705446,42.4555921 L65.3705446,57.623445 C66.0490685,57.623445 66.6024752,58.1853987 66.6024752,58.8744019 C66.6024752,59.5634052 66.0490685,60.1253589 65.3705446,60.1253589 L65.3705446,62.6272727 C65.3705446,68.1979389 61.3523347,72.8255026 56.111815,73.7148575 L60.269581,80.7466056 C60.5101947,81.132643 60.5294402,81.6212985 60.3177046,82.0219939 C60.1011546,82.427578 59.6873041,82.6767924 59.2397652,82.6816771 C58.7874159,82.6816771 58.3735654,82.4324627 58.1522011,82.036652 L53.3399709,73.8858852 L25.6600291,73.8858852 L20.8477989,82.036652 C20.6264385,82.4324627 20.2125841,82.6816771 19.7602348,82.6816771 C19.3126959,82.6767924 18.8988454,82.427578 18.6822954,82.0219939 C18.4705559,81.6212985 18.4898053,81.132643 18.730419,80.7466056 L22.888185,73.7148575 C17.6476692,72.8255066 13.6294554,68.1979428 13.6294554,62.6272727 L13.6294554,60.1253589 C12.9509315,60.1253589 12.3975248,59.5634052 12.3975248,58.8744019 C12.3975248,58.1853987 12.9509315,57.623445 13.6294554,57.623445 L13.6294554,42.4555921 L18.2106967,24.4730861 C19.0528367,21.1648928 22.0027319,18.8437799 25.3664815,18.8437799 L27.859217,18.8437799 C28.5810502,17.4364533 29.8322303,16.341866 31.4924505,16.341866 L47.5075495,16.341866 Z M29.6830533,20.3439513 L29.4809384,21.3456938 L25.3664815,21.3456938 C23.1143597,21.3456938 21.1557815,22.8849586 20.5927501,25.0985646 L16.0933168,42.7683313 L16.0933168,62.6272727 C16.0933168,67.4796156 19.9382899,71.3839713 24.7168317,71.3839713 L54.2831683,71.3839713 C59.0617101,71.3839713 62.9066832,67.4796156 62.9066832,62.6272727 L62.9066832,42.7683313 L58.4072499,25.0985646 C57.8442185,22.8849586 55.8904546,21.3456938 53.6335185,21.3456938 L49.5190616,21.3456938 L49.3169467,20.3439513 C49.1485203,19.4888051 48.4170585,18.8437799 47.5075495,18.8437799 L31.4924505,18.8437799 C30.5877519,18.8437799 29.8514797,19.4888051 29.6830533,20.3439513 Z M53.3929048,25.0985646 C53.9751856,25.0985646 54.4756546,25.513922 54.5959614,26.0905337 L57.7142869,41.102017 C57.7912846,41.4733963 57.6998518,41.854545 57.4640525,42.1477376 C57.2330674,42.4409301 56.8817716,42.6119617 56.5112303,42.6119617 L22.4887697,42.6119617 C22.1182284,42.6119617 21.7669365,42.4409341 21.5359475,42.1477376 C21.3001482,41.854545 21.2087154,41.4733923 21.2857131,41.102017 L24.4040386,26.0905337 C24.5243454,25.513922 25.0248144,25.0985646 25.6070952,25.0985646 L53.3929048,25.0985646 Z M24.0094336,40.1100478 L54.9905664,40.1100478 L52.3967735,27.6004785 L26.6032265,27.6004785 L24.0094336,40.1100478 Z M38.2680693,38.8590909 C38.2680693,38.1700877 38.821476,37.608134 39.5,37.608134 C40.178524,37.608134 40.7319307,38.1700877 40.7319307,38.8590909 C40.7319307,39.5480942 40.178524,40.1100478 39.5,40.1100478 C38.821476,40.1100478 38.2680693,39.5480942 38.2680693,38.8590909 Z M40.7319307,28.8514354 C40.7319307,29.5404387 40.178524,30.1023923 39.5,30.1023923 C38.821476,30.1023923 38.2680693,29.5404387 38.2680693,28.8514354 C38.2680693,28.1624322 38.821476,27.6004785 39.5,27.6004785 C40.178524,27.6004785 40.7319307,28.1624322 40.7319307,28.8514354 Z M40.7319307,33.8552632 C40.7319307,34.5442664 40.178524,35.1062201 39.5,35.1062201 C38.821476,35.1062201 38.2680693,34.5442664 38.2680693,33.8552632 C38.2680693,33.1662599 38.821476,32.6043062 39.5,32.6043062 C40.178524,32.6043062 40.7319307,33.1662599 40.7319307,33.8552632 Z M30.8764851,61.3763158 C30.8764851,64.1274441 28.6580478,66.3801435 25.9487624,66.3801435 C23.2394769,66.3801435 21.0210396,64.1274441 21.0210396,61.3763158 C21.0210396,58.6251875 23.2394769,56.372488 25.9487624,56.372488 C28.6580478,56.372488 30.8764851,58.6251875 30.8764851,61.3763158 Z M57.9789604,61.3763158 C57.9789604,64.1274441 55.7605231,66.3801435 53.0512376,66.3801435 C50.3419522,66.3801435 48.1235149,64.1274441 48.1235149,61.3763158 C48.1235149,58.6251875 50.3419522,56.372488 53.0512376,56.372488 C55.7605231,56.372488 57.9789604,58.6251875 57.9789604,61.3763158 Z M23.484901,61.3763158 C23.484901,62.773869 24.572465,63.8782297 25.9487624,63.8782297 C27.3250597,63.8782297 28.4126238,62.773869 28.4126238,61.3763158 C28.4126238,59.9787626 27.3250597,58.8744019 25.9487624,58.8744019 C24.572465,58.8744019 23.484901,59.9787626 23.484901,61.3763158 Z M50.5873762,61.3763158 C50.5873762,62.773869 51.6749403,63.8782297 53.0512376,63.8782297 C54.427535,63.8782297 55.515099,62.773869 55.515099,61.3763158 C55.515099,59.9787626 54.427535,58.8744019 53.0512376,58.8744019 C51.6749403,58.8744019 50.5873762,59.9787626 50.5873762,61.3763158 Z M35.8042079,61.3763158 C35.8042079,62.065319 35.2508012,62.6272727 34.5722772,62.6272727 C33.8937533,62.6272727 33.3403465,62.065319 33.3403465,61.3763158 C33.3403465,60.6873125 33.8937533,60.1253589 34.5722772,60.1253589 C35.2508012,60.1253589 35.8042079,60.6873125 35.8042079,61.3763158 Z M40.7319307,61.3763158 C40.7319307,62.065319 40.178524,62.6272727 39.5,62.6272727 C38.821476,62.6272727 38.2680693,62.065319 38.2680693,61.3763158 C38.2680693,60.6873125 38.821476,60.1253589 39.5,60.1253589 C40.178524,60.1253589 40.7319307,60.6873125 40.7319307,61.3763158 Z M45.6596535,61.3763158 C45.6596535,62.065319 45.1062467,62.6272727 44.4277228,62.6272727 C43.7491988,62.6272727 43.1957921,62.065319 43.1957921,61.3763158 C43.1957921,60.6873125 43.7491988,60.1253589 44.4277228,60.1253589 C45.1062467,60.1253589 45.6596535,60.6873125 45.6596535,61.3763158 Z M11.1655941,63.8782297 C11.1655941,64.5672329 10.6121873,65.1291866 9.93366337,65.1291866 C9.25513941,65.1291866 8.70173267,64.5672329 8.70173267,63.8782297 C8.70173267,63.1892264 9.25513941,62.6272727 9.93366337,62.6272727 C10.6121873,62.6272727 11.1655941,63.1892264 11.1655941,63.8782297 Z M70.2982673,63.8782297 C70.2982673,64.5672329 69.7448606,65.1291866 69.0663366,65.1291866 C68.3878127,65.1291866 67.8344059,64.5672329 67.8344059,63.8782297 C67.8344059,63.1892264 68.3878127,62.6272727 69.0663366,62.6272727 C69.7448606,62.6272727 70.2982673,63.1892264 70.2982673,63.8782297 Z M7.46980198,68.8820574 C7.46980198,69.5710607 6.91639525,70.1330144 6.23787129,70.1330144 C5.55934733,70.1330144 5.00594059,69.5710607 5.00594059,68.8820574 C5.00594059,68.1930542 5.55934733,67.6311005 6.23787129,67.6311005 C6.91639525,67.6311005 7.46980198,68.1930542 7.46980198,68.8820574 Z M73.9940594,68.8820574 C73.9940594,69.5710607 73.4406527,70.1330144 72.7621287,70.1330144 C72.0836048,70.1330144 71.530198,69.5710607 71.530198,68.8820574 C71.530198,68.1930542 72.0836048,67.6311005 72.7621287,67.6311005 C73.4406527,67.6311005 73.9940594,68.1930542 73.9940594,68.8820574 Z M52.6036987,77.638756 L54.0810535,80.1406699 L24.9333816,80.1406699 L26.3962974,77.638756 L52.6036987,77.638756 Z" id="Shape"></path>
                    </g>
                </g>
                <polygon id="Shape" points="0 100 0 0 100 0 100 100"></polygon>
                <g id="Group" transform="translate(10.000000, 10.000000)" fill="#81CA49" fill-rule="nonzero">
                    <g id="surface1">
                        <path d="M39.5,0.0794258373 C17.7439123,0.0794258373 0.0782178218,18.0179537 0.0782178218,40.1100478 L0.0782178218,78.8897129 C0.0734074257,79.3392751 0.304392475,79.7595211 0.689372772,79.9891849 C1.07435307,80.213968 1.54594787,80.213968 1.93092817,79.9891849 C2.31590847,79.7595172 2.54689351,79.3392751 2.54208312,78.8897129 L2.54208312,75.1368421 C3.22060708,75.1368421 3.77401381,74.5748884 3.77401381,73.8858852 C3.77401381,73.1968819 3.22060708,72.6349282 2.54208312,72.6349282 L2.54208312,40.1100478 C2.54208312,19.3666402 19.07209,2.58133971 39.5000039,2.58133971 C59.9279178,2.58133971 76.4579247,19.3666402 76.4579247,40.1100478 L76.4579247,72.6349282 C75.7794007,72.6349282 75.225994,73.1968819 75.225994,73.8858852 C75.225994,74.5748884 75.7794007,75.1368421 76.4579247,75.1368421 L76.4579247,78.8897129 C76.4531143,79.3392751 76.6840994,79.7595211 77.0690797,79.9891849 C77.45406,80.213968 77.9256548,80.213968 78.310635,79.9891849 C78.6956153,79.7595172 78.9266004,79.3392751 78.92179,78.8897129 L78.92179,40.1100478 C78.92179,18.0179537 61.2560955,0.0794258373 39.5000078,0.0794258373 L39.5,0.0794258373 Z M31.4924505,16.341866 C29.8322303,16.341866 28.5810502,17.4364533 27.859217,18.8437799 L25.3664815,18.8437799 C22.0027319,18.8437799 19.0528367,21.1648928 18.2106967,24.4730861 L13.6294554,42.4555921 L13.6294554,57.623445 C12.9509315,57.623445 12.3975248,58.1853987 12.3975248,58.8744019 C12.3975248,59.5634052 12.9509315,60.1253589 13.6294554,60.1253589 L13.6294554,62.6272727 C13.6294554,68.1979389 17.6476653,72.8255026 22.888185,73.7148575 L18.730419,80.7466056 C18.4898092,81.132643 18.4705598,81.6212985 18.6822954,82.0219939 C18.8988454,82.427578 19.3126959,82.6767924 19.7602348,82.6816771 C20.2125841,82.6816771 20.6264346,82.4324627 20.8477989,82.036652 L25.6600291,73.8858852 L53.3399709,73.8858852 L58.1522011,82.036652 C58.3735654,82.4324627 58.7874159,82.6816771 59.2397652,82.6816771 C59.6873041,82.6767924 60.1011546,82.427578 60.3177046,82.0219939 C60.5294441,81.6212985 60.5101947,81.132643 60.269581,80.7466056 L56.111815,73.7148575 C61.3523308,72.8255066 65.3705446,68.1979428 65.3705446,62.6272727 L65.3705446,60.1253589 C66.0490685,60.1253589 66.6024752,59.5634052 66.6024752,58.8744019 C66.6024752,58.1853987 66.0490685,57.623445 65.3705446,57.623445 L65.3705446,42.4555921 L60.7893033,24.4730861 C59.9519776,21.1648928 57.0020785,18.8437799 53.6335185,18.8437799 L51.140783,18.8437799 C50.4189498,17.4364533 49.1677697,16.341866 47.5075495,16.341866 L31.4924505,16.341866 Z M31.4924505,18.8437799 L47.5075495,18.8437799 C48.4170624,18.8437799 49.1485203,19.4888051 49.3169467,20.3439513 L49.5190616,21.3456938 L53.6335185,21.3456938 C55.8904546,21.3456938 57.8442185,22.8849586 58.4072499,25.0985646 L62.9066832,42.7683313 L62.9066832,62.6272727 C62.9066832,67.4796156 59.0617101,71.3839713 54.2831683,71.3839713 L24.7168317,71.3839713 C19.9382899,71.3839713 16.0933168,67.4796156 16.0933168,62.6272727 L16.0933168,42.7683313 L20.5927501,25.0985646 C21.1557815,22.8849586 23.1143597,21.3456938 25.3664815,21.3456938 L29.4809384,21.3456938 L29.6830533,20.3439513 C29.8514797,19.4888051 30.5877519,18.8437799 31.4924505,18.8437799 Z M25.6070952,25.0985646 C25.0248144,25.0985646 24.5243454,25.513922 24.4040386,26.0905337 L21.2857131,41.102017 C21.2087154,41.4733963 21.3001482,41.854545 21.5359475,42.1477376 C21.7669365,42.4409301 22.1182284,42.6119617 22.4887697,42.6119617 L56.5112303,42.6119617 C56.8817716,42.6119617 57.2330635,42.4409341 57.4640525,42.1477376 C57.6998518,41.854545 57.7912846,41.4733923 57.7142869,41.102017 L54.5959614,26.0905337 C54.4756546,25.513922 53.9751856,25.0985646 53.3929048,25.0985646 L25.6070952,25.0985646 Z M26.6032265,27.6004785 L52.3967774,27.6004785 L54.9905703,40.1100478 L24.0094375,40.1100478 L26.6032265,27.6004785 Z M39.5,40.1100478 C40.178524,40.1100478 40.7319307,39.5480942 40.7319307,38.8590909 C40.7319307,38.1700877 40.178524,37.608134 39.5,37.608134 C38.821476,37.608134 38.2680693,38.1700877 38.2680693,38.8590909 C38.2680693,39.5480942 38.821476,40.1100478 39.5,40.1100478 Z M39.5,27.6004785 C38.821476,27.6004785 38.2680693,28.1624322 38.2680693,28.8514354 C38.2680693,29.5404387 38.821476,30.1023923 39.5,30.1023923 C40.178524,30.1023923 40.7319307,29.5404387 40.7319307,28.8514354 C40.7319307,28.1624322 40.178524,27.6004785 39.5,27.6004785 Z M39.5,32.6043062 C38.821476,32.6043062 38.2680693,33.1662599 38.2680693,33.8552632 C38.2680693,34.5442664 38.821476,35.1062201 39.5,35.1062201 C40.178524,35.1062201 40.7319307,34.5442664 40.7319307,33.8552632 C40.7319307,33.1662599 40.178524,32.6043062 39.5,32.6043062 Z M25.9487624,56.372488 C23.2394769,56.372488 21.0210396,58.6251875 21.0210396,61.3763158 C21.0210396,64.1274441 23.2394769,66.3801435 25.9487624,66.3801435 C28.6580478,66.3801435 30.8764851,64.1274441 30.8764851,61.3763158 C30.8764851,58.6251875 28.6580478,56.372488 25.9487624,56.372488 Z M53.0512376,56.372488 C50.3419522,56.372488 48.1235149,58.6251875 48.1235149,61.3763158 C48.1235149,64.1274441 50.3419522,66.3801435 53.0512376,66.3801435 C55.7605231,66.3801435 57.9789604,64.1274441 57.9789604,61.3763158 C57.9789604,58.6251875 55.7605231,56.372488 53.0512376,56.372488 Z M25.9487624,58.8744019 C27.3250597,58.8744019 28.4126238,59.9787626 28.4126238,61.3763158 C28.4126238,62.773869 27.3250597,63.8782297 25.9487624,63.8782297 C24.572465,63.8782297 23.484901,62.773869 23.484901,61.3763158 C23.484901,59.9787626 24.572465,58.8744019 25.9487624,58.8744019 Z M53.0512376,58.8744019 C54.427535,58.8744019 55.515099,59.9787626 55.515099,61.3763158 C55.515099,62.773869 54.427535,63.8782297 53.0512376,63.8782297 C51.6749403,63.8782297 50.5873762,62.773869 50.5873762,61.3763158 C50.5873762,59.9787626 51.6749403,58.8744019 53.0512376,58.8744019 Z M34.5722772,60.1253589 C33.8937533,60.1253589 33.3403465,60.6873125 33.3403465,61.3763158 C33.3403465,62.065319 33.8937533,62.6272727 34.5722772,62.6272727 C35.2508012,62.6272727 35.8042079,62.065319 35.8042079,61.3763158 C35.8042079,60.6873125 35.2508012,60.1253589 34.5722772,60.1253589 Z M39.5,60.1253589 C38.821476,60.1253589 38.2680693,60.6873125 38.2680693,61.3763158 C38.2680693,62.065319 38.821476,62.6272727 39.5,62.6272727 C40.178524,62.6272727 40.7319307,62.065319 40.7319307,61.3763158 C40.7319307,60.6873125 40.178524,60.1253589 39.5,60.1253589 Z M44.4277228,60.1253589 C43.7491988,60.1253589 43.1957921,60.6873125 43.1957921,61.3763158 C43.1957921,62.065319 43.7491988,62.6272727 44.4277228,62.6272727 C45.1062467,62.6272727 45.6596535,62.065319 45.6596535,61.3763158 C45.6596535,60.6873125 45.1062467,60.1253589 44.4277228,60.1253589 Z M9.93366337,62.6272727 C9.25513941,62.6272727 8.70173267,63.1892264 8.70173267,63.8782297 C8.70173267,64.5672329 9.25513941,65.1291866 9.93366337,65.1291866 C10.6121873,65.1291866 11.1655941,64.5672329 11.1655941,63.8782297 C11.1655941,63.1892264 10.6121873,62.6272727 9.93366337,62.6272727 Z M69.0663366,62.6272727 C68.3878127,62.6272727 67.8344059,63.1892264 67.8344059,63.8782297 C67.8344059,64.5672329 68.3878127,65.1291866 69.0663366,65.1291866 C69.7448606,65.1291866 70.2982673,64.5672329 70.2982673,63.8782297 C70.2982673,63.1892264 69.7448606,62.6272727 69.0663366,62.6272727 Z M6.23787129,67.6311005 C5.55934733,67.6311005 5.00594059,68.1930542 5.00594059,68.8820574 C5.00594059,69.5710607 5.55934733,70.1330144 6.23787129,70.1330144 C6.91639525,70.1330144 7.46980198,69.5710607 7.46980198,68.8820574 C7.46980198,68.1930542 6.91639525,67.6311005 6.23787129,67.6311005 Z M72.7621287,67.6311005 C72.0836048,67.6311005 71.530198,68.1930542 71.530198,68.8820574 C71.530198,69.5710607 72.0836048,70.1330144 72.7621287,70.1330144 C73.4406527,70.1330144 73.9940594,69.5710607 73.9940594,68.8820574 C73.9940594,68.1930542 73.4406527,67.6311005 72.7621287,67.6311005 Z M26.3963013,77.638756 L24.9333855,80.1406699 L54.0810574,80.1406699 L52.6037026,77.638756 L26.3963013,77.638756 Z" id="Shape"></path>
                    </g>
                </g>
            </g>
        </g>
    </g>
</svg>
