<?xml version="1.0" encoding="UTF-8"?>
<svg width="100px" height="100px" viewBox="0 0 100 100" version="1.1" xmlns="http://www.w3.org/2000/svg" xmlns:xlink="http://www.w3.org/1999/xlink">
    <!-- Generator: sketchtool 49.3 (51167) - http://www.bohemiancoding.com/sketch -->
    <title>185E9ADC-C2C2-4779-A657-239244620895</title>
    <desc>Created with sketchtool.</desc>
    <defs></defs>
    <g id="Symbols" stroke="none" stroke-width="1" fill="none" fill-rule="evenodd">
        <g id="icon/price/water" fill="#81CA49" fill-rule="nonzero">
            <path d="M46.3214286,6 C44.0199494,6 42.1428571,7.87408412 42.1428571,10.171875 L42.1428571,11.5625 C42.1428571,13.094361 43.3942529,14.34375 44.9285714,14.34375 L44.9285714,17.1956173 C37.1318363,17.9017948 31,24.4583747 31,32.421875 L31,37.4140018 C31,39.0490723 31.6420208,40.5863651 32.8063616,41.74884 C33.4375,42.3789669 33.7857143,43.226379 33.7857143,44.1172482 L33.7857143,59.6640018 C33.7857143,60.5277107 33.4592634,61.3479611 32.8607708,61.9726562 L32.8009211,62.0378418 C31.6365789,63.1948849 31,64.7321777 31,66.3672482 L31,90.828125 C31,93.1259159 32.8770923,95 35.1785714,95 L65.8214286,95 C68.1229077,95 70,93.1259159 70,90.828125 L70,66.3672482 C70,64.7321777 69.3634211,63.1948849 68.1990789,62.0378418 L68.1555521,61.988953 C67.5461771,61.358826 67.2142857,60.5385742 67.2142857,59.6640018 L67.2142857,44.1172482 C67.2142857,43.226379 67.5625,42.3789669 68.1990789,41.7434082 C69.3579806,40.5863651 70,39.0490723 70,37.4140018 L70,32.421875 C70,24.4583747 63.8681637,17.9017948 56.0714286,17.1956173 L56.0714286,14.34375 C57.6057485,14.34375 58.8571429,13.094361 58.8571429,11.5625 L58.8571429,10.171875 C58.8571429,7.87408412 56.9800506,6 54.6785714,6 L46.3214286,6 Z M46.3214286,8.78125 L54.6785714,8.78125 C55.4457307,8.78125 56.0714286,9.40594517 56.0714286,10.171875 L56.0714286,11.5625 L44.9285714,11.5625 L44.9285714,10.171875 C44.9285714,9.40594517 45.5542693,8.78125 46.3214286,8.78125 Z M47.7142857,14.34375 L53.2857143,14.34375 L53.2857143,17.125 L47.7142857,17.125 L47.7142857,14.34375 Z M46.3214286,19.90625 L54.6785714,19.90625 C61.5884494,19.90625 67.2142857,25.5176388 67.2142857,32.421875 L67.2142857,37.4140018 C67.2142857,38.304871 66.8660714,39.1522831 66.2294925,39.7878418 C65.0705922,40.9448849 64.4285714,42.4821777 64.4285714,44.1172482 L64.4285714,59.6640018 C64.4285714,61.2990723 65.0651503,62.8363651 66.2294925,63.9934082 L66.2730193,64.042297 C66.8823943,64.672424 67.2142857,65.4926758 67.2142857,66.3672482 L67.2142857,90.828125 C67.2142857,91.5940548 66.5885878,92.21875 65.8214286,92.21875 L35.1785714,92.21875 C34.4114122,92.21875 33.7857143,91.5940548 33.7857143,90.828125 L33.7857143,66.3672482 C33.7857143,65.5035407 34.1121652,64.6832889 34.7106592,64.0585938 L34.7705075,63.9934082 C35.9348497,62.8363651 36.5714286,61.2990723 36.5714286,59.6640018 L36.5714286,44.1172482 C36.5714286,42.4821777 35.9294092,40.9448849 34.765067,39.78241 C34.1339286,39.1522831 33.7857143,38.304871 33.7857143,37.4140018 L33.7857143,32.421875 C33.7857143,25.5176388 39.411552,19.90625 46.3214286,19.90625 Z M40.75,44.9375 C39.9828407,44.9375 39.3571429,45.5567634 39.3571429,46.328125 C39.3571429,47.099488 39.9828407,47.71875 40.75,47.71875 L60.25,47.71875 C61.0171592,47.71875 61.6428571,47.099488 61.6428571,46.328125 C61.6428571,45.5567634 61.0171592,44.9375 60.25,44.9375 L40.75,44.9375 Z M40.75,50.5 C39.9828408,50.5 39.3571429,51.1192634 39.3571429,51.890625 C39.3571429,52.661988 39.9828408,53.28125 40.75,53.28125 L51.8928571,53.28125 C52.6600164,53.28125 53.2857143,52.661988 53.2857143,51.890625 C53.2857143,51.1192634 52.6600164,50.5 51.8928571,50.5 L40.75,50.5 Z M57.4642857,50.5 C56.6971265,50.5 56.0714286,51.1192634 56.0714286,51.890625 C56.0714286,52.661988 56.6971265,53.28125 57.4642857,53.28125 L60.25,53.28125 C61.0171592,53.28125 61.6428571,52.661988 61.6428571,51.890625 C61.6428571,51.1192634 61.0171592,50.5 60.25,50.5 L57.4642857,50.5 Z M40.75,56.0625 C39.9828407,56.0625 39.3571429,56.6817634 39.3571429,57.453125 C39.3571429,58.224488 39.9828407,58.84375 40.75,58.84375 L60.25,58.84375 C61.0171592,58.84375 61.6428571,58.224488 61.6428571,57.453125 C61.6428571,56.6817634 61.0171592,56.0625 60.25,56.0625 L40.75,56.0625 Z M36.5714286,83.875 C35.8042693,83.875 35.1785714,84.4942634 35.1785714,85.265625 L35.1785714,88.046875 C35.1785714,88.818238 35.8042693,89.4375 36.5714286,89.4375 C37.3385878,89.4375 37.9642857,88.818238 37.9642857,88.046875 L37.9642857,85.265625 C37.9642857,84.4942634 37.3385878,83.875 36.5714286,83.875 Z M43.5357143,83.875 C42.768555,83.875 42.1428571,84.4942634 42.1428571,85.265625 L42.1428571,88.046875 C42.1428571,88.818238 42.768555,89.4375 43.5357143,89.4375 C44.3028735,89.4375 44.9285714,88.818238 44.9285714,88.046875 L44.9285714,85.265625 C44.9285714,84.4942634 44.3028735,83.875 43.5357143,83.875 Z M50.5,83.875 C49.7328408,83.875 49.1071429,84.4942634 49.1071429,85.265625 L49.1071429,88.046875 C49.1071429,88.818238 49.7328408,89.4375 50.5,89.4375 C51.2671593,89.4375 51.8928571,88.818238 51.8928571,88.046875 L51.8928571,85.265625 C51.8928571,84.4942634 51.2671593,83.875 50.5,83.875 Z M57.4642857,83.875 C56.6971265,83.875 56.0714286,84.4942634 56.0714286,85.265625 L56.0714286,88.046875 C56.0714286,88.818238 56.6971265,89.4375 57.4642857,89.4375 C58.231445,89.4375 58.8571429,88.818238 58.8571429,88.046875 L58.8571429,85.265625 C58.8571429,84.4942634 58.231445,83.875 57.4642857,83.875 Z M64.4285714,83.875 C63.6614122,83.875 63.0357143,84.4942634 63.0357143,85.265625 L63.0357143,88.046875 C63.0357143,88.818238 63.6614122,89.4375 64.4285714,89.4375 C65.1957307,89.4375 65.8214286,88.818238 65.8214286,88.046875 L65.8214286,85.265625 C65.8214286,84.4942634 65.1957307,83.875 64.4285714,83.875 Z" id="icon-water-bottle"></path>
        </g>
    </g>
</svg>
