<?xml version="1.0" encoding="UTF-8"?>
<svg width="31px" height="31px" viewBox="0 0 31 31" version="1.1" xmlns="http://www.w3.org/2000/svg" xmlns:xlink="http://www.w3.org/1999/xlink">
    <!-- Generator: Sketch 51.2 (57519) - http://www.bohemiancoding.com/sketch -->
    <title>icon/big/clock</title>
    <desc>Created with Sketch.</desc>
    <defs></defs>
    <g id="Symbols" stroke="none" stroke-width="1" fill="none" fill-rule="evenodd">
        <g id="mobile/footer/demo" transform="translate(-27.000000, -325.000000)" fill="#FFFFFF">
            <g id="footer" transform="translate(24.000000, 57.000000)">
                <g id="contact-info">
                    <g id="icon/big/clock" transform="translate(1.000000, 266.000000)">
                        <path d="M17.5,2 C19.6393336,2 21.6524971,2.4036418 23.5395508,3.2109375 C25.4266045,4.0182332 27.0714448,5.12320262 28.4741211,6.52587891 C29.8767974,7.92855519 30.9817668,9.57339551 31.7890625,11.4604492 C32.5963582,13.3475029 33,15.3606664 33,17.5 C33,19.6393336 32.5963582,21.6524971 31.7890625,23.5395508 C30.9817668,25.4266045 29.8767974,27.0714448 28.4741211,28.4741211 C27.0714448,29.8767974 25.4266045,30.9817668 23.5395508,31.7890625 C21.6524971,32.5963582 19.6393336,33 17.5,33 C15.3606664,33 13.3475029,32.5963582 11.4604492,31.7890625 C9.57339551,30.9817668 7.92855519,29.8767974 6.52587891,28.4741211 C5.12320262,27.0714448 4.0182332,25.4266045 3.2109375,23.5395508 C2.4036418,21.6524971 2,19.6393336 2,17.5 C2,15.3606664 2.4036418,13.3475029 3.2109375,11.4604492 C4.0182332,9.57339551 5.12320262,7.92855519 6.52587891,6.52587891 C7.92855519,5.12320262 9.57339551,4.0182332 11.4604492,3.2109375 C13.3475029,2.4036418 15.3606664,2 17.5,2 Z M17.5,31.0927734 C19.3769625,31.0927734 21.1378498,30.7345413 22.7827148,30.0180664 C24.4275798,29.3015915 25.8605082,28.3278056 27.081543,27.0966797 C28.3025777,25.8655537 29.271318,24.4275798 29.987793,22.7827148 C30.7042679,21.1378498 31.0625,19.3769625 31.0625,17.5 C31.0625,15.6230375 30.7042679,13.8621502 29.987793,12.2172852 C29.271318,10.5724202 28.3025777,9.13949178 27.081543,7.91845703 C25.8605082,6.69742228 24.4275798,5.72868197 22.7827148,5.01220703 C21.1378498,4.29573209 19.3769625,3.9375 17.5,3.9375 C15.6230375,3.9375 13.8621502,4.29573209 12.2172852,5.01220703 C10.5724202,5.72868197 9.13949178,6.69742228 7.91845703,7.91845703 C6.69742228,9.13949178 5.72868197,10.5724202 5.01220703,12.2172852 C4.29573209,13.8621502 3.9375,15.6230375 3.9375,17.5 C3.9375,19.3769625 4.29573209,21.1378498 5.01220703,22.7827148 C5.72868197,24.4275798 6.69742228,25.8655537 7.91845703,27.0966797 C9.13949178,28.3278056 10.5724202,29.3015915 12.2172852,30.0180664 C13.8621502,30.7345413 15.6230375,31.0927734 17.5,31.0927734 Z M18.46875,17.1064453 L23.0400391,21.6777344 C23.2216806,21.8593759 23.3125,22.0864244 23.3125,22.3588867 C23.3125,22.631349 23.2216806,22.8583975 23.0400391,23.0400391 C22.8583975,23.241863 22.631349,23.3427734 22.3588867,23.3427734 C22.0864244,23.3427734 21.8593759,23.241863 21.6777344,23.0400391 L16.8642578,18.2568359 C16.8642578,18.2366535 16.8592123,18.221517 16.8491211,18.2114258 L16.8339844,18.1962891 C16.7330724,18.1155595 16.6573896,18.014649 16.6069336,17.8935547 C16.5564776,17.7724603 16.53125,17.6412767 16.53125,17.5 L16.53125,7.8125 C16.53125,7.5501289 16.6271149,7.32308039 16.8188477,7.13134766 C17.0105804,6.93961493 17.2376289,6.84375 17.5,6.84375 C17.7623711,6.84375 17.9894196,6.93961493 18.1811523,7.13134766 C18.3728851,7.32308039 18.46875,7.5501289 18.46875,7.8125 L18.46875,17.1064453 Z" id="clock---simple-line-icons"></path>
                    </g>
                </g>
            </g>
        </g>
    </g>
</svg>
