<?xml version="1.0" encoding="UTF-8"?>
<svg width="25px" height="33px" viewBox="0 0 25 33" version="1.1" xmlns="http://www.w3.org/2000/svg" xmlns:xlink="http://www.w3.org/1999/xlink">
    <!-- Generator: Sketch 51.2 (57519) - http://www.bohemiancoding.com/sketch -->
    <title>icon/big/location</title>
    <desc>Created with Sketch.</desc>
    <defs></defs>
    <g id="Symbols" stroke="none" stroke-width="1" fill="none" fill-rule="evenodd">
        <g id="mobile/footer/demo" transform="translate(-31.000000, -58.000000)" fill="#FFFFFF">
            <g id="footer" transform="translate(24.000000, 57.000000)">
                <g id="contact-info">
                    <g id="icon/big/address" transform="translate(2.000000, 0.000000)">
                        <path d="M17.2513021,1 C19.1458428,1 20.8403788,1.32627712 22.3349609,1.97884115 C23.8295431,2.63140517 25.0872887,3.52077345 26.1082357,4.64697266 C27.1291826,5.77317186 27.9080377,7.08354287 28.4448242,8.578125 C28.9816108,10.0727071 29.25,11.6514674 29.25,13.3144531 C29.25,14.9984893 28.9184603,16.719338 28.2553711,18.4770508 C27.5922818,20.2347636 26.7555389,21.9608748 25.7451172,23.6554362 C24.7346955,25.3499976 23.6400884,26.9550705 22.461263,28.4707031 C21.2824377,29.9863357 20.1773055,31.3335445 19.1458333,32.5123698 C19.1458333,32.5334202 18.9879573,32.6755087 18.6722005,32.9386393 C18.3564437,33.20177 17.9880663,33.3333333 17.5670573,33.3333333 L17.4723307,33.3333333 C17.0302712,33.3333333 16.6566313,33.20177 16.3513997,32.9386393 C16.0461682,32.6755087 15.8935547,32.5334202 15.8935547,32.5123698 C14.7989312,31.2493426 13.614861,29.8705587 12.3413086,28.3759766 C11.0677562,26.8813944 9.88894856,25.3078967 8.80485026,23.6554362 C7.72075196,22.0029757 6.81559608,20.3031771 6.08935547,18.5559896 C5.36311486,16.808802 5,15.0616407 5,13.3144531 C5,11.6514674 5.32627712,10.0727071 5.97884115,8.578125 C6.63140517,7.08354287 7.51551091,5.77317186 8.6311849,4.64697266 C9.74685888,3.52077345 11.0467048,2.63140517 12.5307617,1.97884115 C14.0148186,1.32627712 15.5883163,1 17.2513021,1 Z M17.6302083,31.1546224 C19.2300427,29.323233 20.6298768,27.5760717 21.8297526,25.9130859 C23.0296284,24.2501002 24.0295099,22.6766025 24.8294271,21.1925456 C25.6293443,19.7084887 26.2292732,18.3086546 26.6292318,16.9930013 C27.0291904,15.677348 27.2291667,14.4511776 27.2291667,13.3144531 C27.2291667,12.0303755 27.0344529,10.7726299 26.6450195,9.54117839 C26.2555862,8.30972692 25.6503947,7.20985727 24.8294271,6.24153646 C24.0084594,5.27321564 22.9717402,4.49436059 21.7192383,3.90494792 C20.4667364,3.31553525 18.9774392,3.02083333 17.2513021,3.02083333 C15.8619722,3.02083333 14.5463387,3.29448511 13.304362,3.84179687 C12.0623853,4.38910864 10.9783032,5.13112596 10.0520833,6.06787109 C9.12586342,7.00461623 8.38910864,8.09922334 7.84179687,9.35172526 C7.29448511,10.6042272 7.02083333,11.9251233 7.02083333,13.3144531 C7.02083333,14.8090353 7.33658538,16.3246451 7.96809896,17.8613281 C8.59961253,19.3980112 9.39951773,20.9083585 10.3678385,22.3924154 C11.3361594,23.8764723 12.3991913,25.3078816 13.5569661,26.6866862 C14.714741,28.0654908 15.8093481,29.3548117 16.8408203,30.5546875 L17.3776042,31.1546224 L17.5039062,31.2809245 C17.5249567,31.259874 17.5512694,31.2388239 17.5828451,31.2177734 C17.6144207,31.196723 17.6302083,31.1756728 17.6302083,31.1546224 Z M17.1565755,7.09407552 C18.8406117,7.09407552 20.272021,7.68874188 21.4508464,8.87809245 C22.6296717,10.067443 23.2190755,11.4935898 23.2190755,13.1565755 C23.2190755,14.8406117 22.6296717,16.272021 21.4508464,17.4508464 C20.272021,18.6296717 18.8406117,19.2190755 17.1565755,19.2190755 C15.4935898,19.2190755 14.067443,18.6296717 12.8780924,17.4508464 C11.6887419,16.272021 11.0940755,14.8406117 11.0940755,13.1565755 C11.0940755,11.4935898 11.6887419,10.067443 12.8780924,8.87809245 C14.067443,7.68874188 15.4935898,7.09407552 17.1565755,7.09407552 Z M17.1565755,17.1982422 C18.2722495,17.1982422 19.2195057,16.7982896 19.9983724,15.9983724 C20.7772391,15.1984552 21.1666667,14.240674 21.1666667,13.125 C21.1666667,12.009326 20.7719766,11.0568073 19.9825846,10.2674154 C19.1931927,9.4780234 18.240674,9.08333333 17.125,9.08333333 C16.009326,9.08333333 15.0568073,9.4780234 14.2674154,10.2674154 C13.4780234,11.0568073 13.0833333,12.009326 13.0833333,13.125 C13.0833333,14.240674 13.4832859,15.1984552 14.2832031,15.9983724 C15.0831203,16.7982896 16.0409015,17.1982422 17.1565755,17.1982422 Z" id="undefined---simple-line-icons"></path>
                    </g>
                </g>
            </g>
        </g>
    </g>
</svg>
