<?xml version="1.0" encoding="UTF-8"?>
<svg width="30px" height="30px" viewBox="0 0 30 30" version="1.1" xmlns="http://www.w3.org/2000/svg" xmlns:xlink="http://www.w3.org/1999/xlink">
    <!-- Generator: Sketch 51.2 (57519) - http://www.bohemiancoding.com/sketch -->
    <title>icon/big/location copy</title>
    <desc>Created with Sketch.</desc>
    <defs></defs>
    <g id="Symbols" stroke="none" stroke-width="1" fill="none" fill-rule="evenodd">
        <g id="mobile/footer/demo" transform="translate(-27.000000, -191.000000)" fill="#FFFFFF">
            <g id="footer" transform="translate(24.000000, 57.000000)">
                <g id="contact-info">
                    <g id="icon/big/contact" transform="translate(0.000000, 132.000000)">
                        <path d="M9.07700893,23.8805804 C8.84263276,24.1149565 8.55803739,24.2321429 8.22321429,24.2321429 L4.20535714,24.2321429 C3.87053404,24.2321429 3.58593867,24.1149565 3.3515625,23.8805804 C3.11718633,23.6462042 3,23.3616088 3,23.0267857 C3,22.6919626 3.11718633,22.4073672 3.3515625,22.1729911 C3.58593867,21.9386149 3.87053404,21.8214286 4.20535714,21.8214286 L8.22321429,21.8214286 C8.55803739,21.8214286 8.84263276,21.9386149 9.07700893,22.1729911 C9.3113851,22.4073672 9.42857143,22.6919626 9.42857143,23.0267857 C9.42857143,23.3616088 9.3113851,23.6462042 9.07700893,23.8805804 Z M4.20535714,12.2455357 C3.87053404,12.2455357 3.58593867,12.1283494 3.3515625,11.8939732 C3.11718633,11.659597 3,11.3750017 3,11.0401786 C3,10.7053555 3.11718633,10.4207601 3.3515625,10.1863839 C3.58593867,9.95200776 3.87053404,9.83482143 4.20535714,9.83482143 L8.22321429,9.83482143 C8.55803739,9.83482143 8.84263276,9.95200776 9.07700893,10.1863839 C9.3113851,10.4207601 9.42857143,10.7053555 9.42857143,11.0401786 C9.42857143,11.3750017 9.3113851,11.659597 9.07700893,11.8939732 C8.84263276,12.1283494 8.55803739,12.2455357 8.22321429,12.2455357 L4.20535714,12.2455357 Z M30.5892857,2 C31.2589319,2 31.8281227,2.23437266 32.296875,2.703125 C32.7656273,3.17187734 33,3.74106808 33,4.41071429 L33,29.5892857 C33,30.2589319 32.7656273,30.8281227 32.296875,31.296875 C31.8281227,31.7656273 31.2589319,32 30.5892857,32 L7.55357143,32 C6.88392522,32 6.31473449,31.7656273 5.84598214,31.296875 C5.3772298,30.8281227 5.14285714,30.2589319 5.14285714,29.5892857 L5.14285714,27.7142857 C5.14285714,27.3794626 5.26004347,27.0948672 5.49441964,26.8604911 C5.72879581,26.6261149 6.01339118,26.5089286 6.34821429,26.5089286 C6.68303739,26.5089286 6.96763276,26.6261149 7.20200893,26.8604911 C7.4363851,27.0948672 7.55357143,27.3794626 7.55357143,27.7142857 L7.55357143,29.5892857 L30.5892857,29.5892857 L30.5892857,4.41071429 L7.55357143,4.41071429 L7.55357143,6.28571429 C7.55357143,6.62053739 7.4363851,6.90513276 7.20200893,7.13950893 C6.96763276,7.3738851 6.68303739,7.49107143 6.34821429,7.49107143 C6.01339118,7.49107143 5.72879581,7.3738851 5.49441964,7.13950893 C5.26004347,6.90513276 5.14285714,6.62053739 5.14285714,6.28571429 L5.14285714,4.41071429 C5.14285714,3.74106808 5.3772298,3.17187734 5.84598214,2.703125 C6.31473449,2.23437266 6.88392522,2 7.55357143,2 L30.5892857,2 Z M4.20535714,18.2388393 C3.87053404,18.2388393 3.58593867,18.121653 3.3515625,17.8872768 C3.11718633,17.6529006 3,17.3683052 3,17.0334821 C3,16.698659 3.11718633,16.4140637 3.3515625,16.1796875 C3.58593867,15.9453113 3.87053404,15.828125 4.20535714,15.828125 L8.22321429,15.828125 C8.55803739,15.828125 8.84263276,15.9453113 9.07700893,16.1796875 C9.3113851,16.4140637 9.42857143,16.698659 9.42857143,17.0334821 C9.42857143,17.3683052 9.3113851,17.6529006 9.07700893,17.8872768 C8.84263276,18.121653 8.55803739,18.2388393 8.22321429,18.2388393 L4.20535714,18.2388393 Z M24.6283545,24.722237 C24.3902065,24.722237 24.1795402,24.6489618 23.9963494,24.5024092 C23.8131586,24.3558565 23.7032457,24.1635091 23.6666076,23.925361 C23.4650977,22.9178116 22.97049,22.0843059 22.1827695,21.424819 C21.395049,20.7653321 20.4836885,20.4355936 19.4486604,20.4355936 C18.4136324,20.4355936 17.5022718,20.7653321 16.7145513,21.424819 C15.9268309,22.0843059 15.4322231,22.9178116 15.2307132,23.925361 C15.1940751,24.1635091 15.0841623,24.3558565 14.9009714,24.5024092 C14.7177806,24.6489618 14.5071144,24.722237 14.2689663,24.722237 C14.2140091,24.722237 14.1498933,24.7130776 14.076617,24.6947585 C13.8201498,24.6581204 13.6140633,24.525309 13.4583511,24.2963205 C13.3026389,24.067332 13.2522622,23.8154485 13.3072194,23.5406622 C13.5820056,22.0751358 14.296439,20.8615149 15.4505411,19.8997632 C16.6046432,18.9380115 17.9373363,18.4571429 19.4486604,18.4571429 C20.9599845,18.4571429 22.2926777,18.9380115 23.4467797,19.8997632 C24.6008818,20.8615149 25.3244746,22.0751358 25.6175799,23.5406622 C25.6542181,23.8154485 25.5992616,24.067332 25.452709,24.2963205 C25.3061564,24.525309 25.0954901,24.6581204 24.8207039,24.6947585 C24.7657466,24.7130776 24.7016308,24.722237 24.6283545,24.722237 Z M21.3950311,11.7192547 C20.8583824,11.182606 20.2124261,10.9142857 19.4571429,10.9142857 C18.7018596,10.9142857 18.0559033,11.182606 17.5192547,11.7192547 C16.982606,12.2559033 16.7142857,12.9018596 16.7142857,13.6571429 C16.7142857,14.4124261 16.982606,15.0583824 17.5192547,15.5950311 C18.0559033,16.1316797 18.7018596,16.4 19.4571429,16.4 C20.2124261,16.4 20.8583824,16.1316797 21.3950311,15.5950311 C21.9316797,15.0583824 22.2,14.4124261 22.2,13.6571429 C22.2,12.9018596 21.9316797,12.2559033 21.3950311,11.7192547 Z M22.7207667,16.9351917 C21.7879397,17.858402 20.6724108,18.3200001 19.3741464,18.3200001 C18.0758821,18.3200001 16.9651614,17.858402 16.0419512,16.9351917 C15.118741,16.0119815 14.6571429,14.8964526 14.6571429,13.5885715 C14.6571429,12.2806904 15.118741,11.1651614 16.0419512,10.2419512 C16.9651614,9.31874103 18.0758821,8.85714286 19.3741464,8.85714286 C20.6724108,8.85714286 21.7879397,9.31874103 22.7207667,10.2419512 C23.6535936,11.1651614 24.1200001,12.2806904 24.1200001,13.5885715 C24.1200001,14.8964526 23.6535936,16.0119815 22.7207667,16.9351917 Z" id="contacts---anticon"></path>
                    </g>
                </g>
            </g>
        </g>
    </g>
</svg>
