<svg id="Layer_1" data-name="Layer 1" xmlns="http://www.w3.org/2000/svg" viewBox="0 0 1440 860.31"><defs><style>.cls-1{fill:#f2f2f2;}.cls-2{opacity:0.7;}.cls-3{fill:#e6e7e8;}</style></defs><title>pattern-gray14092</title><rect class="cls-1" x="-34.7" y="-18.93" width="1505.4" height="900.44"/><g class="cls-2"><path class="cls-3" d="M735.3,865.59c-5.31-1.71-9.3-5.65-13.52-9.87-1.89-1.83-3.83-3.71-5.83-5.37-7.3-6.28-14.9-13.24-20.72-22-10-15-11.76-32-5.59-53.48,4.34-14.9,10.44-29.17,16.32-43.1,1.72-3.94,3.43-7.94,5.08-12,9-21.86,19.12-46.69,23.12-73.29A76.67,76.67,0,0,0,717,585c-13.07-15.18-30.88-23.63-50.23-23.74h-7a80.29,80.29,0,0,1-14.44-1c-11.08-1.89-17.87-8.51-20.78-20a63.79,63.79,0,0,1-2-18,298.2,298.2,0,0,0-3.09-48.63c-5-33.79-23-57-54.91-70.89-6.74-2.86-13.53-5.54-20.32-8.22-11.36-4.51-23.06-9.14-34.25-14.67A156.8,156.8,0,0,1,444.42,321c-2.28-3.71-4.45-7.42-6.68-11.07-5.94-10-12-20.32-19.18-29.8-10.22-13.92-21.46-20.72-34.3-20.72-8.34,0-17.3,2.86-27.4,8.79-38.13,22.38-60.62,57.54-66.84,104.58-2.92,22.77-1.66,46,3.93,70.89.86,3.88,1.77,7.65,2.69,11.53,2.45,10.5,5,21.35,6.5,32.19,2.17,15.76,1.37,32.54-2.45,51.38-6.28,31.1-14.5,54.9-26,74.88-13.76,24-33.62,37.79-59.08,41.22a179.38,179.38,0,0,1-24.71,1.71c-29.23,0-58.51-7-89.56-21.35-4.4-2-8.74-4.11-13.13-6.16-13.53-6.51-27.46-13.25-42.24-17.36a159.1,159.1,0,0,0-36.36-5.93c-2.23-.12-4.4-.34-6.62-.63a69,69,0,0,0-9-.74h0a3,3,0,0,1-2.23-1v-60.9A3.24,3.24,0,0,1-6.29,542a15.57,15.57,0,0,1,3.08.51,12.36,12.36,0,0,0,1.83.4c39,7.42,72.09,22,101.37,44.64,14.62,11.24,27.23,20.2,41.1,27.51,17,9.08,34.19,14,51.2,14.78,1.32,0,2.63.06,3.94.06,26.32,0,46.52-11.13,60-33.17,13.7-22.43,21-48.17,21.87-76.43.62-18.55-3.2-36.36-7.14-52.91-6.34-26-8.79-47.72-7.76-68.1,1.37-30.36,4.85-65.81,20.6-98.4,6.34-13.42,14.9-26.49,26.83-41,4.17-5.08,8.28-10.16,12.39-15.24,12.73-15.76,25.91-32,40.13-46.87a190.87,190.87,0,0,1,23.91-21.92c16.73-12.38,31.17-28,44.3-47.72,14.9-22.14,30.19-41.09,46.86-57.82,11.3-11.13,23.92-21,36.19-30.42l5.71-4.46C534,24.57,543.4,12.29,548.82-2.15a12.66,12.66,0,0,1,3-3.88l.23-.28h70a7.62,7.62,0,0,1,2.63,4.51c4.22,17.4,14.21,30.48,23.46,40.92,23.75,26.66,41.16,54.34,53.26,84.48,7.7,19.35,16.72,39.67,30.54,56.8a238.81,238.81,0,0,0,40.18,39l9.82,7.65c15.07,11.7,30.71,23.8,46.92,34.42,11.41,7.42,23.29,11.53,35.39,12.27.8.06,1.6.06,2.4.06,13.93,0,26.37-5.77,36.93-17.13,9-9.36,16.61-20.83,24.71-37.16s14.9-33.9,21.41-50.8c2.34-6.05,4.68-12.16,7.08-18.21a379.72,379.72,0,0,1,19.58-42.81c6.79-12.5,9-24.77,6.73-37.56-3.59-20.49-4.22-41.38-4.45-59.19a66,66,0,0,1,.57-7.42,49.2,49.2,0,0,0,.68-7.25A3.66,3.66,0,0,1,981-6.31h61.42a9.66,9.66,0,0,1,4.06,5.13,137.5,137.5,0,0,0,13.07,24.66c13.47,19.64,32.53,31.05,58.22,34.76a103.8,103.8,0,0,0,16.78,1c3.54,0,7.08.06,10.62.29,6.28.46,12.67.74,18.95,1,13.82.51,28.08,1.08,41.84,4.17,25.06,5.59,41.72,25,44.69,51.94,1.83,16.15,1.78,29.23-.28,41.21-5.42,32.08-26.43,54.86-56.11,61a97.83,97.83,0,0,1-20.21,2.12c-15.41,0-30.87-3.77-46-11.31-10.22-5.08-20.15-11.3-29.73-17.29-3.83-2.46-7.71-4.91-11.65-7.25a157.46,157.46,0,0,0-20.09-10.22,56.7,56.7,0,0,0-22-4.56c-11.3,0-22.54,3.48-34.47,10.61-13.42,8-24.95,19.81-36.31,37.16-10.21,15.76-18.44,33.05-26.31,49.83-2.29,4.91-4.62,9.82-7,14.79a107.58,107.58,0,0,1-15.13,23.91c-8.68,10-20.15,15.19-36.24,16.16-1.89.11-3.71.17-5.49.17-23.46,0-45.26-9.36-66.61-28.6L785.42,265.9c-18.84-16.84-37.56-33.62-56.28-50.57-18.78-17.18-34.82-38.81-47.61-64.33l-.68-1.37c-8.73-17.47-17.75-35.5-32.14-49.2C630,82.27,612,73.48,592,72.69h-1.54c-13.76,0-25.8,6.22-36.76,19.17a160.44,160.44,0,0,0-16,23.29A623.72,623.72,0,0,1,481.92,194c-10.79,13.13-17.64,27.51-20.32,42.81-3,17.13-1.08,34.54,6,54.86,10.62,30.82,32.31,52.11,66.33,65.07,10.45,4,21.18,7.19,31.62,10.27,7.48,2.23,15.25,4.51,22.78,7.08,23.8,8.22,42.47,25.23,57.08,51.94,3.88,7.2,7.42,14.73,10.85,22,2.56,5.48,5.13,11,7.87,16.32,9.14,18,22.66,33.74,42.53,49.55,22.89,18.49,39.21,33.79,53,49.66a529.46,529.46,0,0,1,43.61,58c9,13.87,17.12,19.69,27,19.69,7.37.06,15.36-3.31,24.95-8.22,18.66-9.59,33.56-25.74,45.72-49.32C913.74,559,923,538.23,930,518.49a228.55,228.55,0,0,0,12.44-61.59c.57-10,.85-20,1.14-29.74.23-8.74.52-17.47,1-26.15.52-8.84,1.37-19.29,4.29-29.17,5-17.18,16.66-27.28,34.47-30a161.22,161.22,0,0,1,24.66-2.05c19.63,0,36.53,4.5,51.6,13.81,17.24,10.62,31.85,26.14,43.44,46.12,15.36,26.37,24.49,55.82,27.11,87.51l.63,7.59c1.31,16.66,2.74,33.9,8.51,50.17,4.91,13.81,11.93,29.11,27.45,37.9a48.72,48.72,0,0,0,14.61,5.94,25,25,0,0,0,5.77.68c9.47,0,17-5.59,21.12-15.64,4.56-11.07,6.51-22.94,8.45-34.47l.45-3c3.82-22.32,8.85-48.06,20.78-71.47,9.25-18,19.47-33.05,31.17-45.89,11.52-12.56,24.14-24.37,36.35-35.73l10.11-9.42c14-13.19,27.4-28.31,43.61-49,18.49-23.81,34.47-43.27,52.51-61.08,9.14-9,19.52-18.55,32.54-30,.46-.4.91-.91,1.49-1.37.91-.91,1.82-1.82,2.62-1.94V340.05c-4.91,8.85-12.44,15.13-19.87,20.55-16,11.93-33.33,21.18-49.54,29.34-4.28,2.17-8.56,4.22-12.79,6.34-17.58,8.61-35.67,17.52-52.34,28.76-31.23,21.18-50.51,47.1-59.19,79.4-3.2,11.88-4.8,22.49-4.8,32.54v5.82c0,10.5,0,21.41,2.06,32.2,4.22,22.37,16.49,38.24,36.41,47,11.25,5.08,23.12,8.44,34.6,11.64,3.42.92,6.79,1.89,10.15,2.86,17.81,5.19,41.16,12.67,63.08,24.77,26.43,14.61,41.56,37.61,46.18,70.44,3.08,22-.57,42.69-10.85,61.65-6,11.07-15.52,19.06-30.53,25.91-10.28,4.68-21.35,7.65-32.09,10.5-2.68.69-5.36,1.37-8,2.11l-.56.18c-8.4,2.34-17,4.79-25.24,8.33-8.79,3.88-16.32,10.39-23.17,20.32a27.23,27.23,0,0,1-4.22,4.85h-45.21c-1.54-1.77-1.83-4.22-2-7l-.29-2a134.33,134.33,0,0,0-6.17-27.57c-3-8.5-8.73-13.81-17.29-16.21-9.82-2.74-19.86-3.82-29.91-4.91-15.42-1.71-30.82-3-45.21-4.22-5.25-.4-10.39-.63-15.07-.63-28.43,0-50.35,7.37-69.07,23.24-9.7,8.27-17.75,19.06-25.34,34-1.25,2.45-2.28,4.33-4,5.36h-47.66c-.58-.8-.35-1.77.56-4.11,5.6-15.12,11.88-26.31,19.76-35.33,24.54-28,51.48-45.55,82.42-53.66a103.26,103.26,0,0,1,24.32-3.2h5.42c3.37,0,6.68,0,10,.06s6.62.12,10,.12a173.78,173.78,0,0,0,23-1.32c10.33-1.48,22-3.93,30.48-14.72,2.91-3.77,5.82-8,7-13.24,4.06-18.89,9.25-65.82-30.42-93.56l-6.4-4.4c-9.35-6.5-19-13.12-28-20.54-23.46-19.52-38.07-45.55-43.39-77.4-2.5-14.85-3.08-29.57-3.53-43.39-.4-18.15-1.37-39.15-8.11-59.07-7.87-23.46-19.24-40.65-34.82-52.52-11.07-8.56-23-12.9-35.22-12.9a55.37,55.37,0,0,0-11.7,1.26c-15.07,3.36-26.14,13.41-32.65,30-5.14,12.9-6.5,26.49-7.19,36.88a877.61,877.61,0,0,1-13.24,109.37c-2.85,15.29-4.23,31.1-5.6,46.4l-.57,6.34c-2.68,29.79-11.64,53.42-27.39,72.49-5.26,6.28-11.08,12.1-16.79,17.81-3.54,3.54-7.07,7.13-10.56,10.84-12.5,13.36-20.83,29.06-25.51,48.07-1.6,6.16-3.09,12.44-4.57,18.72-2.11,9-4.28,18.38-6.85,27.51-4.22,15.53-9.93,30.82-15.41,45.66-1.71,4.69-3.42,9.37-5.14,14.11a7.43,7.43,0,0,1-3.08,3.76H735.3m-.34,2.34H837.71a10,10,0,0,0,4.56-5.31c7.19-19.92,15-39.44,20.66-59.93,4.23-15.36,7.43-30.88,11.36-46.3,4.51-18.14,12.56-33.73,25-47,9.07-9.71,18.89-18.62,27.45-28.77,17.58-21.24,25.46-46.3,28-73.75,1.54-17.64,2.86-35.28,6-52.58a884.72,884.72,0,0,0,13.36-109.59c.74-12.39,2.4-24.66,7-36.25,5.82-14.72,15.81-25.11,31-28.48a53.52,53.52,0,0,1,11.13-1.2c12.16,0,23.52,4.45,33.85,12.39,16.78,12.84,27.06,30.94,33.91,51.43,6.39,18.83,7.65,38.64,8.1,58.39.41,14.56,1,29.17,3.49,43.67,5.42,32.19,19.92,58.68,44.23,78.82,11,9.2,22.84,17,34.48,25.06,31.73,22.21,36.36,59.37,29.51,91.22-1.08,4.68-3.71,8.56-6.56,12.27-7.65,9.76-18,12.27-29,13.88a168.22,168.22,0,0,1-22.66,1.25c-6.68,0-13.3-.23-20-.23-1.83,0-3.6.06-5.42.12a106.86,106.86,0,0,0-24.89,3.19c-33.22,8.79-60.5,28.08-83.68,54.45-9.08,10.39-15.24,22.84-20.15,36-1,2.63-1.83,5.14.63,7.31h49.26c2.79-1.37,4.17-3.93,5.54-6.62,6.5-12.67,14.15-24.2,24.83-33.28,20.26-17.18,43.26-22.66,67.52-22.66,4.91,0,9.88.23,14.84.63,15.07,1.26,30.14,2.57,45.21,4.17,9.93,1.14,19.75,2.17,29.45,4.85,7.65,2.11,12.9,6.79,15.76,14.78a134.46,134.46,0,0,1,6,27.06c.57,4,.46,8.16,3.65,11.07h47a28.25,28.25,0,0,0,5.48-6.1c5.82-8.4,12.79-15.25,22-19.24,8.28-3.65,17-6.05,25.52-8.45,13.7-3.76,27.45-6.73,40.47-12.73,12.84-5.82,24.31-13.53,31.62-26.88,10.67-19.64,14.27-40.76,11.13-63.13-4.63-32.37-19.58-56.85-47.38-72.16-20.26-11.18-41.72-18.6-63.53-24.94-14.95-4.39-30.14-7.93-44.52-14.38-19.18-8.51-30.88-23.46-35-45.38-2.4-12.5-1.94-25-2-37.56a121.21,121.21,0,0,1,4.79-32c9.25-34.59,30.42-59.19,58.22-78,20.55-13.87,42.93-23.91,64.85-34.93,17.29-8.73,34.24-17.92,49.89-29.57,8.1-5.93,15.75-12.5,20.83-21.86V228.8a4.39,4.39,0,0,0-2.23-.63c-2.4,0-4,2.46-5.7,3.83-11.13,9.76-22.15,19.75-32.71,30.14-19.07,18.83-36.14,39.95-52.69,61.3-13.53,17.3-27.62,33.85-43.38,48.75s-31.85,29.17-46.58,45.26c-12.67,13.93-22.83,29.51-31.51,46.47-11.52,22.6-16.78,47.26-21,72.15-2.11,12.55-3.94,25.11-8.79,36.93-3.77,9.13-10.45,14.1-19,14.1a24.72,24.72,0,0,1-5.25-.57,44.53,44.53,0,0,1-13.93-5.72c-14-7.87-21.12-21.57-26.43-36.64-6.56-18.38-7.36-37.9-9.07-57.14-2.63-31.9-11.65-61.42-27.41-88.53-11.18-19.29-25.57-35.45-44.17-46.92-16.78-10.33-34.59-14.15-52.86-14.15a161.73,161.73,0,0,0-25,2.11c-17.52,2.68-30.82,12.67-36.35,31.62-2.86,9.65-3.83,19.75-4.4,29.74-.91,18.61-1,37.22-2.11,55.82a225.26,225.26,0,0,1-12.33,61c-7.93,22.55-18,43.9-28.94,64.9-10.56,20.67-24.37,37.9-44.64,48.35-9.58,5-17.12,8-23.92,8-8.78,0-16.26-5.25-25.05-18.72a535.84,535.84,0,0,0-43.72-58.23c-16.1-18.6-34.37-34.7-53.32-50-16.9-13.41-31.79-28.77-42-48.74-6.45-12.68-11.93-25.92-18.72-38.42-13.65-25-31.91-43.95-58.4-53.09-17.92-6.1-36.42-10.5-54.28-17.29-30-11.47-53.54-30.54-65-63.65-6.05-17.4-9.13-35.21-5.94-53.71,2.8-15.92,9.94-29.68,19.87-41.72a629.28,629.28,0,0,0,55.94-79.12,160.15,160.15,0,0,1,15.81-23c9.36-11,20.72-18.32,35-18.32H592c21.81.85,39.5,11.93,55.14,27.05,14.44,13.82,23.35,32,32.31,50,12.45,24.77,28.26,46.8,48.18,65,29.16,26.49,58.62,52.63,87.84,78.94,19.75,17.81,42.13,29.23,68.21,29.23,1.89,0,3.72-.06,5.66-.17,14.38-.86,27.51-4.91,37.78-17a108.37,108.37,0,0,0,15.53-24.49c10.56-21.75,20.09-44.13,33.22-64.33,9.59-14.67,20.66-27.57,35.51-36.42,10.78-6.51,21.86-10.27,33.27-10.27a53.57,53.57,0,0,1,21.07,4.39A158.06,158.06,0,0,1,1085.55,187c13.7,8.33,27,17.46,41.44,24.66,15.18,7.53,30.88,11.53,47,11.53a99.21,99.21,0,0,0,20.67-2.17c30.82-6.34,52.4-29.86,58-62.85,2.34-13.93,1.83-28,.23-41.9-3.08-28.59-21.24-48.29-46.46-53.94-20.27-4.51-40.76-3.65-61.14-5.19-9.07-.63-18.21.23-27.23-1.2-23-3.37-42.58-13.24-56.62-33.79a138.88,138.88,0,0,1-12.9-24.26A11.71,11.71,0,0,0,1043-8.65H980c-1.37,1.42-2.51,2.79-2.51,5,0,4.85-1.26,9.71-1.14,14.73.17,19.92,1,39.9,4.45,59.53,2.28,13-.34,24.78-6.51,36a388.39,388.39,0,0,0-19.69,43.1c-9.19,23.06-17.36,46.63-28.43,68.84-6.56,13.24-14.15,26-24.26,36.58-9.81,10.57-21.63,16.39-35.27,16.39-.75,0-1.49,0-2.28-.06-12.22-.74-23.63-5-34.2-11.87-19.69-12.85-38-27.57-56.62-42a236,236,0,0,1-39.79-38.7c-13.47-16.67-22.26-36.3-30.19-56.17-12.9-32.13-31.28-60-53.66-85.16-10.22-11.59-19.12-24.14-23-40a9.9,9.9,0,0,0-4.16-6.27H551.05c-1.66,1.76-3.43,3.25-4.4,5.65-5.76,15.29-15.64,26.94-28,36.53-14.44,11.24-29,22.09-42.12,35.05a392.31,392.31,0,0,0-47.15,58.16c-12.16,18.32-26.32,34.25-43.73,47.15a194.32,194.32,0,0,0-24.26,22.2c-18.78,19.64-35.33,41.22-52.63,62.22-10.38,12.67-19.92,26.32-27.11,41.56-15,31.05-19.29,64.95-20.83,99.26-1.2,23.35,2.34,46.23,7.82,68.78,4.11,17.13,7.7,34.31,7.08,52.29-.8,27.17-7.6,52.4-21.52,75.23s-34.14,32.08-58,32.08c-1.25,0-2.57,0-3.82-.12-17.58-.68-34.48-6-50.23-14.44-14.5-7.64-27.74-17.29-40.76-27.34-30.76-23.74-65.18-38-102.34-45-1.72-.29-3.54-1-5.37-1a5.76,5.76,0,0,0-4.28,1.83v62.91c1.31,1.42,2.62,2.51,4.57,2.51h.4c5.08,0,10,1.14,15.06,1.31A156.55,156.55,0,0,1,45.31,614c19.24,5.25,36.88,15.07,55,23.4,29.22,13.47,59.3,21.52,90.53,21.52a177.85,177.85,0,0,0,25.06-1.77c26.65-3.54,46.86-18.15,60.79-42.35,13.41-23.29,20.94-49.09,26.25-75.58,3.48-17.12,4.91-34.59,2.51-52.11-2.05-14.9-6-29.4-9.24-43.9-5.2-23.17-7-46.35-3.88-70.15,6.05-46,27.85-80.65,65.7-102.86,9.3-5.42,18-8.45,26.2-8.45,11.7,0,22.37,6,32.42,19.75,9.64,12.9,17.35,27.06,25.74,40.7A157.85,157.85,0,0,0,508.86,382c17.87,8.85,36.59,15.18,54.69,22.94C593.06,417.74,612,439.71,617,474a290.48,290.48,0,0,1,3.08,48.29,68.11,68.11,0,0,0,2.11,18.61c3.15,12.44,10.56,19.69,22.66,21.81a87.19,87.19,0,0,0,14.85,1h7c40.81.17,71.58,39.32,65.13,82.48-3.89,25.63-13.36,49.14-23,72.77-7.54,18.22-15.82,36.08-21.47,55.31-5.59,19.42-5.71,38,5.88,55.43,5.88,8.85,13.36,15.81,21.12,22.49,6.68,5.54,11.93,13.19,20.55,15.81Z"/><path class="cls-3" d="M-5.43,337.37a3.63,3.63,0,0,1-2.8-1v-35.9a4.6,4.6,0,0,1,3.42-1.14,22,22,0,0,1,2.63.22l2,.18,3.59.11c6.28.28,12.56.51,18.78.51,10.79,0,25-.62,39.39-5.65,26.31-9.36,46.23-27.05,61-54.17,10.22-18.89,15.87-40.7,17.75-68.49,1-17,.34-33.57-.51-50.46-.75-18.21-1.66-34.65-5.43-51.15-3.48-15-12.1-25-25.63-29.74-16-5.48-32.76-7.42-47.26-8.84-11.3-1-22.49-1.2-32.93-1.2l-8.51.05H11.63A84.24,84.24,0,0,0-2,31.42a15,15,0,0,1-2.74.28,4.67,4.67,0,0,1-3.48-1.25V20.57c.06-8.39.11-16.78-.06-25.17a11.27,11.27,0,0,0,0-1.66,10.05,10.05,0,0,1,1.54-.11c59.42.06,119,.06,178.44.06A43.41,43.41,0,0,0,193.32-.38,46.41,46.41,0,0,0,205.88-2.2c2.28-.63,4.62-1.09,7-1.55a74.88,74.88,0,0,0,10.22-2.56h55c.4,1.14-.17,2.22-1.88,4.45a124.64,124.64,0,0,1-30.6,29.45c-3.65,2.46-7.42,4.91-11.13,7.31-9.88,6.39-20,13-29.45,20.66-13,10.56-21.81,25.34-27.86,46.52-5.25,18.21-6.91,37.16-8.56,55.54l-.17,1.66c-2.57,28.54-7,58.79-21.75,86.65a182,182,0,0,1-17.58,26.54c-25,31.62-58.11,51.6-98.41,59.42-10,1.88-21,3.59-34.76,5.36a5.07,5.07,0,0,1-1.31.12m0,2.34a7.92,7.92,0,0,0,1.65-.12c11.65-1.54,23.29-3.25,34.88-5.42,39.84-7.7,73.52-27.05,99.77-60.28A180.7,180.7,0,0,0,148.68,247c14.45-27.17,19.3-57,22-87.51,1.71-19.12,3.31-38.24,8.62-56.79C184.42,85,192.18,69,206.45,57.39c12.79-10.45,26.88-18.78,40.41-27.86A126.58,126.58,0,0,0,278-.49c1.65-2.17,3.88-4.91,1.31-8.16H222.66C217-6.6,211.07-6,205.25-4.43a43.38,43.38,0,0,1-11.93,1.71,40.92,40.92,0,0,1-21-5.93q-89.47,0-179.07-.06c-3.19,0-3.94.74-3.88,4.17.23,11.93.06,23.91.06,35.84A6.77,6.77,0,0,0-4.75,34a18.76,18.76,0,0,0,3.08-.28A79.55,79.55,0,0,1,11.63,33c5.65,0,11.31,0,17,0,11,0,21.86.17,32.7,1.2C77.11,35.7,92.86,37.69,108,42.89c12.9,4.51,20.78,13.81,24.09,28,3.82,16.72,4.68,33.79,5.37,50.74.85,16.78,1.54,33.39.51,50.17-1.6,23.92-6.16,46.7-17.47,67.53-13.81,25.4-33.16,43.67-59.76,53.09C48.05,296.9,35.15,298,22.19,298c-7.36,0-14.84-.34-22.26-.63-1.6-.11-3.19-.39-4.74-.39a6.87,6.87,0,0,0-5.76,2.56V337.2a6,6,0,0,0,5.14,2.51Z"/><path class="cls-3" d="M302.29,865.59c1.77-14.32,6-29.05,13.64-47.32,8.73-21.12,20.43-40.87,31.79-59.93,3.49-5.83,7-11.76,10.39-17.64l1.2-2.11c9.36-16.44,19.12-33.57,30.54-48.86,25.63-34.25,54.91-53.43,89.5-58.45A93.57,93.57,0,0,1,494,630.14c20.09,0,36.08,6.85,48.92,20.89,8,8.9,12.27,20.49,15.93,31.62,6.73,19.58,10.67,40.41,14.44,60.62l.91,4.68c5.71,31.16,14.5,58.62,26.83,84a140.18,140.18,0,0,1,11.3,33.62H561.61a7.8,7.8,0,0,1-2.34-4.62l-.58-3.77c-3.08-21.41-6.27-43.55-7.7-65.52l-.52-7.54c-.91-14.5-1.88-29.51-4-44.18-2.8-18.72-7.42-40.3-21.06-58.34-10.62-14.15-24.83-21.92-42.36-23.17-1.77-.12-3.48-.18-5.19-.18-19.07,0-37.28,8.28-55.71,25.18-15.41,14.16-25.63,32.36-34.71,49.77-7.93,15-16.27,30.08-24.37,44.64-5.08,9.24-10.22,18.49-15.24,27.74-11,20.49-17.47,37-20.95,53.54-.68,3.43-1.37,5.37-3.2,6.45h-21.4m-2.63,2.34h24.6c3.37-1.6,4.23-4.9,4.91-8.33,4-19,11.76-36.19,20.72-52.86,13.19-24.26,26.77-48.06,39.62-72.43,9.36-17.87,19.4-35.51,34.25-49.15,15.69-14.44,33.22-24.54,54.11-24.54a47.57,47.57,0,0,1,5,.23c16.38,1.14,30.25,8.33,40.64,22.14,12.67,16.78,17.58,36.65,20.61,57.31,2.51,17.06,3.37,34.25,4.51,51.54,1.54,23.35,5,46.41,8.27,69.47a10.81,10.81,0,0,0,3.72,6.62h54.51a141.92,141.92,0,0,0-12-37c-12.84-26.42-21.29-54.22-26.66-83.39-4.16-22.09-8.1-44.41-15.41-65.7-3.88-11.7-8.28-23.29-16.44-32.37-14.38-15.81-31.91-21.74-50.63-21.74a103.08,103.08,0,0,0-15,1.2c-38.07,5.53-67.41,27.8-91,59.42-12,16.1-21.92,33.68-31.91,51.14-14.73,25.57-30.83,50.23-42.3,77.86-6.73,16.1-12.27,32.77-14.1,50.57Z"/><path class="cls-3" d="M83.16,865.59a21.75,21.75,0,0,1-5.48-4.05c-9.08-9.53-20.55-14.73-35.11-16-3.31-.28-6.79-.4-10.62-.4-6.79,0-13.75.46-20.43.91l-5.82.35a24.83,24.83,0,0,0-3.48.34c-1.49.11-3,.34-4.46.34a9.08,9.08,0,0,1-6-1.82v-78l6.62-1.08,26.31-4.51a87.34,87.34,0,0,1,14.73-1.31c17.07,0,33.51,5.42,48.69,16.09,24.95,17.47,43.67,40,55.65,66.73,3.2,7.14,5.26,14.61,7.37,22.49h-68m-.58,2.34h71.64c-2.4-8.79-4.62-17.52-8.33-25.8-12.73-28.42-32.08-50.57-56.4-67.7C74,763.59,57.24,758,39.43,758a91.15,91.15,0,0,0-15.12,1.25c-11.65,2-23.29,4-34.88,5.94v81a11.09,11.09,0,0,0,8.33,3.09c2.69,0,5.43-.52,8.05-.69,8.73-.45,17.47-1.2,26.14-1.2,3.49,0,7,.11,10.45.4C55.19,849,66.66,853.38,76,863.14a24.22,24.22,0,0,0,6.62,4.79Z"/><path class="cls-3" d="M1448.24,141.52c-3.08-3.82-5.76-8-8.45-12-1.83-2.8-3.65-5.59-5.54-8.33l-3.94-5.48c-6.61-9.48-13.46-19.24-21.68-27.8-13.14-13.53-29.69-24-49.21-31.05-8.22-2.91-16.44-5.6-24.77-8.28-7.65-2.51-15.41-5-23.06-7.76-19.92-7.14-32.77-25.12-34-47.09h47.26c3.43,1.59,6.28,4.16,9.42,7.13,8.5,7.94,18.66,12,30.08,16.21q6.42,2.4,12.85,4.63c13.75,4.85,28,9.87,41,17.63,9.76,5.71,18.44,13.25,26.15,19.87A12.69,12.69,0,0,1,1447,63.5c.35.91.8,1.82,1.26,2.74v75.28m2.34,6.23V65.61c-1.66-2.74-2.23-6.11-4.74-8.22-8.45-7.31-16.78-14.5-26.43-20.09-17.18-10.28-35.9-15.59-54.28-22.44C1354.74,11,1344.35,7,1335.85-.89c-3.25-3.08-6.45-6-10.45-7.76h-50.23c.4,23.86,13.93,43.83,35.62,51.65,15.87,5.6,32,10.39,47.83,16,18.15,6.57,34.59,16.33,48.35,30.48,9.65,10,17.29,21.64,25.4,33,6,8.44,11,17.75,18.21,25.23Z"/><path class="cls-3" d="M154.79,865.59a5.58,5.58,0,0,1-2.57-3.76c-5.59-21.52-16.15-40.93-32.36-59.48-15.18-17.3-31.22-29.63-49-37.62A75.3,75.3,0,0,0,40,758.62a139.81,139.81,0,0,0-20.95,1.77c-4.22.69-8.44,1.49-12.61,2.29-3.71.74-7.36,1.48-11.13,2.05a7.91,7.91,0,0,1-1.6.23,2.66,2.66,0,0,1-1.94-.69V606.62h.74c33.85,0,65.19,8,95.84,24.43a230.43,230.43,0,0,0,86,26.71,176.39,176.39,0,0,0,18.67,1A124.65,124.65,0,0,0,231.85,653c18.72-6.05,33.51-18.61,43.9-37.22,15.69-28,25.4-59.36,29.68-96,1.77-15.64.57-32.08-4.06-53.2q-1.46-6.51-3.08-13c-2.62-10.91-5.36-22.15-6.5-33.45-5-48.52,4.5-87.16,29-118.16,15.64-19.69,30.94-31.45,48.18-37.1a53.08,53.08,0,0,1,16.84-3.2c11.13,0,19.8,5.37,30.14,18.61,7.19,9,13.3,19.24,19.23,29.11,5.08,8.51,10.39,17.35,16.38,25.46,11.13,15.35,25.29,28.14,43.21,39,14.9,9,31,15.41,46.58,21.52,7.31,2.91,14.84,5.88,22.15,9.08,23.57,10.39,38.41,24.43,46.75,44.18,5.65,13.58,7.7,28.42,9.19,41.27a166.7,166.7,0,0,1,.68,20c-.06,8-.11,16.26,1.26,24.48,3.59,22.78,13.19,27.4,32,28.77,3.25.23,6.5.29,9.7.34,7.36.12,14.27.23,21.23,2.23,27.34,7.54,48.18,36.13,48.41,66.44.28,23-6.85,44.47-13.82,62.45-4.45,11.47-9.13,22.78-13.81,34.07-3.94,9.54-7.88,19.07-11.65,28.66-5.88,15-8.9,27.51-9.58,39.22s2.91,23,11.41,35.21c4.85,7.08,11.07,12.56,17,17.81,2.63,2.34,5.2,4.63,7.71,7.08,3,3,6.1,5.94,9.24,9h-113a6,6,0,0,0-.56-.57,4.7,4.7,0,0,1-1.61-2.45c-3.71-15.3-10.1-29.51-16.32-43.27l-.91-2c-12-26.09-17.92-54.74-22.55-79.45-3.88-20.72-8.39-42.76-16.15-63.65-11-29.74-31.06-44.18-63.31-45.55h-3.82c-26.83,0-52,10.73-79.23,33.91C394.64,677.17,382.32,695.32,369,718l-5.31,8.9c-12.39,20.95-25.23,42.59-37.16,64.39-12.67,23.23-21,45.55-25.46,68.1-.51,2.45-1,4.62-2.4,6.16H265.47c-.8-1.42-.46-3,.23-5.47l.34-1.26a219.46,219.46,0,0,1,13-37.5c27-59.71,51.88-102.92,80.71-140.08A253.39,253.39,0,0,1,469.93,599c14-5.48,29.12-9.82,41.22-13.3,20.77-6.11,35.16-19.81,44.06-42.18,8.39-21,12.56-39.16,13.19-56.91.74-20.27-6.68-37.22-22.09-50.35-11.3-9.64-24-16.55-36.42-23.23L505,410.26l-3.25-1.83c-14.27-7.82-29.06-15.92-42.24-26.14-11.42-9-22.83-20.38-35.85-35.73a203.8,203.8,0,0,0-21.23-22.26c-8.79-7.71-18.73-11.82-28.77-11.82-13.3,0-26.49,7-37.16,19.87-15.53,18.77-21.52,42-18.89,73.17,1.25,13.87,4.62,27.12,8.56,41.61,7,25.35,7.59,50.58,1.82,77.18-9.19,42-19.06,75.12-31.22,104.22-11.59,28.09-32.19,44.87-63,51.38-11.81,2.51-24.2,3.54-36.13,4.57l-3.31.22-7.42.57c-13.7,1-27.91,2.06-41.67,6.17a40.51,40.51,0,0,0-14.27,7.19c-7.42,6.16-10,14.39-8,25.12,2.17,11.19,7.42,20.66,11.7,27.62,7,11.48,15.13,22.27,23,32.65q5.82,7.71,11.47,15.42c12.39,17.35,24.77,36.58,31,59.82l.29,1c.62,2.34,1,3.89.51,5.31H154.79m-.57,2.34h48.12c2.11-3.08.91-6.16.11-9.25-6.16-22.71-18.15-42-31.45-60.62-11.41-15.86-24-31-34.36-47.94-5.14-8.34-9.48-16.9-11.42-26.83-1.71-9.13,0-16.78,7.2-22.83a36.41,36.41,0,0,1,13.47-6.79c15.92-4.74,32.3-5.31,48.57-6.63,13.36-1.08,26.72-2,39.79-4.85,29.57-6.28,52.11-22.31,64.67-52.74,14-33.68,23.52-68.84,31.34-104.63,5.71-26.31,5.31-52.34-1.89-78.26-3.65-13.58-7.19-27.17-8.44-41.21-2.23-26.31,1.37-51,18.38-71.52,10-12,22.49-19,35.33-19,9.13,0,18.49,3.48,27.23,11.25a200.7,200.7,0,0,1,20.94,22c11.14,13.13,22.89,25.57,36.25,36.08,14.33,11.13,30.08,19.52,45.78,28.2,14,7.7,28.37,14.95,40.93,25.68,14.67,12.5,22,28.54,21.29,48.52-.69,19.64-5.88,38.19-13,56.17-8.22,20.55-21.8,34.7-42.52,40.76-13.87,4-27.86,8-41.44,13.35a255.16,255.16,0,0,0-111.14,83c-33.16,42.75-58.51,90.75-81,140.59a224.17,224.17,0,0,0-13.18,37.9c-.8,3.25-2.23,6.56.57,9.64h35.33c2.34-2,3.08-5,3.71-8,4.74-24.09,13.7-46.35,25.23-67.52,13.59-24.72,28.09-49,42.41-73.24,11.82-20.15,24.49-39.61,42.24-54.8,22.89-19.52,47.84-33.44,77.69-33.44,1.26,0,2.45,0,3.71.11,32.42,1.25,50.92,16,61.25,44,7.59,20.49,12,41.84,16,63.25,5.13,27.51,11.07,54.68,22.72,80,6.56,14.61,13.24,29.06,17.06,44.81.4,2.34,2.17,3.25,3.43,4.85H735c-4.45-4.34-9-8.67-13.41-13-8.23-8-17.64-14.67-24.38-24.54-7-10-11.76-21-11-33.68.74-13.42,4.56-26.15,9.41-38.48,8.28-21,17.24-41.72,25.46-62.78,7.88-20.21,14.27-40.93,14-63.36-.34-31.51-21.63-60.74-50.17-68.62-10.45-3-20.89-1.94-31.4-2.62C634.78,559.47,627,554.9,623.65,534c-2.4-14.73-.22-29.57-1.88-44.41-1.66-14.38-3.83-28.6-9.36-41.9-9.59-22.77-27.12-36.18-48-45.37C541.57,392.28,517.65,385,496,371.84c-16.38-10-30.82-22.31-42.52-38.41-12.9-17.47-22.15-37.67-35.68-54.68-10.1-12.9-19.29-19.47-32-19.47a55.63,55.63,0,0,0-17.58,3.31c-20.27,6.62-36,21.12-49.26,37.9-27.46,34.71-34,75.81-29.52,119.82,1.66,15.92,6.23,31.22,9.65,46.69,3.77,17.35,6.05,34.7,4,52.51-3.94,33.91-13,65.88-29.4,95.1-9.76,17.58-24,30.14-42.58,36.13A122.26,122.26,0,0,1,193,656.45a181.67,181.67,0,0,1-18.44-1A227.73,227.73,0,0,1,89.43,629c-30.65-16.45-62.78-24.66-96.92-24.66h-3.08V765.19a4.87,4.87,0,0,0,4.28,2,12.86,12.86,0,0,0,2-.17c7.93-1.31,15.75-3.08,23.69-4.34A133.14,133.14,0,0,1,40,761a72.64,72.64,0,0,1,29.91,5.93c18.73,8.45,34.31,21.23,48.18,37,14.78,16.89,26,36.07,31.85,58.56a8,8,0,0,0,4.28,5.48Z"/><path class="cls-3" d="M841,865.59l5.83-16.26c7.82-21.58,15.92-44,21-67.3,3-14,6.17-28.55,11.42-42.19a79.88,79.88,0,0,1,16.32-26.59c5.08-5.54,10.28-10.91,15.53-16.28,3.08-3.19,6.22-6.38,9.25-9.58,19.18-19.92,30.19-44,32.82-71.76,3.43-36.47,9.19-73.4,14.39-105.14,2.44-14.55,3.47-29.56,4.5-44.06l.63-9.36c1.08-14.73,2.34-31.51,7.36-47,6.17-19.12,23.18-31.91,42.3-31.91a41.05,41.05,0,0,1,7,.57c22.72,3.89,39.78,18,53.88,44.3,9.08,17,13.93,36.65,15.36,61.82.28,5.36.51,10.84.74,16.27.51,15.35,1.09,31.33,4.17,46.86,6.74,34.07,23.8,61.25,50.74,80.83l11,7.87c6.74,4.79,13.65,9.7,20.21,14.9,17,13.41,26,30.82,27.62,53.25,1,12.39.64,21.92-1.14,31.06-2.62,14.16-10.73,23.51-24.19,27.85-7.2,2.4-15.42,3.54-25.69,3.77h-15.59c-3.14-.12-6.33-.12-9.41-.12a198.18,198.18,0,0,0-20.61.92c-19.24,1.94-38.3,9.25-58.34,22.38-20.72,13.52-35.45,27.51-46.18,44-7.08,10.62-11.87,20.77-14.61,31h-56c-.92-1.08-1-2.56-1.14-4.85V859.6c-.12-3.31-.12-6.56,0-9.82.11-6.39.22-13-1.09-19.52l-.28-1.37c-.86-4.45-1.94-9.88-7.71-12a12.78,12.78,0,0,0-3.48-.57c-4.74,0-8.22,3.31-11.19,6.39a105,105,0,0,0-21.86,33.79l-.74,1.89c-1,3-2.06,5.71-4.34,7.19H841m-3.3,2.34h52.34c4.05-2.17,5.08-6.62,6.62-10.61a103.13,103.13,0,0,1,21.41-33c2.62-2.8,5.65-5.66,9.47-5.66a8.11,8.11,0,0,1,2.74.52c5,1.76,5.48,7,6.45,11.52,1.94,9.65.63,19.3,1,29,.17,3-.12,6.17,2.56,8.22h58.8c2.85-11.75,8.22-22.26,14.72-32.08,11.93-18.15,28-31.85,45.55-43.26s36.42-19.92,57.26-22a203.51,203.51,0,0,1,20.38-.85c6.27,0,12.55.17,18.83.17,2.06,0,4.11,0,6.17-.11,9-.12,17.86-1,26.37-3.77,13.81-4.51,22.95-14.16,25.86-29.68,2-10.51,2-20.9,1.2-31.63-1.72-23.29-11.31-41.33-28.55-55-10.15-8-20.89-15.24-31.28-22.83-26.6-19.35-43.15-45.72-49.83-79.4-4-20.78-3.71-41.84-4.85-62.84-1.26-22.21-5.25-43.39-15.64-62.74-12.5-23.4-29.11-41-55.48-45.49a47.79,47.79,0,0,0-7.48-.63c-19.81,0-38,13.19-44.58,33.51-4.91,15.47-6.22,31.57-7.42,47.61-1.26,17.75-2.11,35.67-5.14,53.25-5.65,34.93-11.07,69.92-14.38,105.26a114.69,114.69,0,0,1-32.14,70.32c-8.22,8.62-16.72,17.12-24.83,25.91A82.12,82.12,0,0,0,877,739.05c-5.31,13.81-8.39,28.3-11.47,42.69-6.51,29.8-17.92,57.77-27.85,86.19Z"/><path class="cls-3" d="M867,271.84a59.49,59.49,0,0,1-13.41-1.66c-9.54-2.16-18.89-6.5-28.49-13.3-23.17-16.21-47.66-34-69.69-54-17.52-16-30.43-33-39.67-52.06-3.77-7.76-7.25-15.81-10.62-23.58-5.19-11.87-10.5-24.14-16.84-35.67-7.93-14.84-18.09-29.34-30.93-44.35C651.22,40,644,31.47,637.64,22.34c-5.43-7.82-9.36-17.18-12-28.65h72.44c1.82,1.08,2.22,3,2.79,6.1l.17,1c6.63,34.54,15.65,71.18,27.52,112.05,6.39,21.87,16.26,40.64,29.28,55.77a123.83,123.83,0,0,0,28.08,23.86c19.35,11.76,36.3,18.32,53.26,20.66a39.11,39.11,0,0,0,4.45.29c15.41,0,27.51-11.07,30-27.51,1.83-11.13.92-22.27,0-33l-.46-5.59c-3.42-41,.29-76.66,11.47-108.91,4.23-12,11-23,17.81-33.91.69-1,1.32-2.17,1.94-3.25,1.66-3,3.2-5.71,5.72-7.53h67.58a73.86,73.86,0,0,1-.58,8.1c-.22,2.63-.45,5.14-.56,7.76-.12,22.78,1.36,42.76,4.44,61.08A51.65,51.65,0,0,1,975,105.74c-10.5,19.23-18.61,40-26.48,60.1l-.8,2.11-2.17,5.65c-8.68,22.38-17.7,45.55-30.94,65.82-6.85,10.33-13.53,17.81-21.12,23.52a42.63,42.63,0,0,1-26.49,8.9m0,2.34a44.93,44.93,0,0,0,27.86-9.36c8.67-6.51,15.58-14.84,21.69-24.09,14.5-22.2,23.69-47.15,33.34-71.92,8.21-21.06,16.43-42.18,27.16-61.93a54.37,54.37,0,0,0,6.23-36.65c-3.43-20-4.51-40.41-4.4-60.68.11-6,1.37-12,1-18.2H909.34C905-5.86,903.12-.89,900.49,3.22c-6.85,10.9-13.76,22-18.09,34.36-12.27,35.5-14.73,72.32-11.59,109.88,1,12.62,2.63,25.29.57,38-2.4,15.58-13.7,25.57-27.74,25.57a35.23,35.23,0,0,1-4.17-.29c-19-2.62-36-10.44-52.34-20.32A120.45,120.45,0,0,1,759.62,167c-13.59-15.81-22.83-34.42-28.77-54.85-10.73-36.82-20.26-74-27.52-111.88-.68-3.54-1-7.2-4.67-9H622.74c2.4,11.58,6.22,22.6,13,32.3,6.17,8.79,13,17,19.92,25.12a246.17,246.17,0,0,1,30.66,43.89c10.33,19,17.92,39.5,27.4,59.2,10,20.72,23.92,37.9,40.24,52.74,21.92,20,45.89,37.39,69.93,54.23,9,6.39,18.55,11.24,29.27,13.64A62.35,62.35,0,0,0,867,274.18Z"/><path class="cls-3" d="M1446.3,868.05l-.23-2.34q-34.42-.18-68.84-.18l-34.48.06h-31c4.11-9.76,11.53-17.29,22.72-22.77,10.79-5.26,22.6-8.22,34.08-11.14,3.36-.85,6.73-1.65,10.1-2.56a174.9,174.9,0,0,0,25.63-9.25c19.47-8.68,32.14-24.66,37.73-47.61,7.54-31.27,2.34-60.73-15.53-87.44-5.7-8.62-13.81-15.87-25.45-22.83-17.36-10.39-37-18.44-63.76-26.2-3.37-1-6.79-1.94-10.22-2.91-11.65-3.2-23.75-6.63-35.16-11.25-22.38-9.08-34.88-25-38.19-48.8-6-42.24.46-76.72,19.75-105.49a149.4,149.4,0,0,1,54.74-48.92c13.47-7.25,27.34-14.32,40.76-21.23,9.58-4.91,19.29-9.82,28.88-14.9,15.64-8.39,28.65-17,39.84-26.43a54.74,54.74,0,0,0,5.42-5.59,51.41,51.41,0,0,1,5.2-5.31V456a1.92,1.92,0,0,1-1.14.34,9.82,9.82,0,0,1-2.34-.46l-.63-.11c-3.65-.8-7.19-1.71-10.79-2.57-11.25-2.74-22.89-5.59-34.7-6.56-5.88-.46-11.36-.69-16.73-.69-28.77,0-52.11,7.54-71.29,22.95-20.27,16.44-31,37.79-31.91,63.47-1,31.4,12.78,54.06,40,65.65A159,159,0,0,0,1381,611.19a157,157,0,0,0,39.84-5.26c4.85-1.31,9.59-3.08,14.15-4.79,3.09-1.14,6.17-2.29,9.31-3.31l.68-.23a9.69,9.69,0,0,1,2.46-.57,1.23,1.23,0,0,1,.8.23v71.92q0,96.92.06,193.73a8.1,8.1,0,0,1-.23,2.62,4.73,4.73,0,0,1-1.77.18v2.34m0,0c3.82,0,4.34-1.26,4.34-5.14q-.18-133.23-.06-266.68a4,4,0,0,0-3.14-1.54,12.35,12.35,0,0,0-3.88,1c-7.76,2.51-15.36,5.82-23.29,8a151.23,151.23,0,0,1-39.27,5.19,155.17,155.17,0,0,1-61.42-13c-27.74-11.82-39.44-34.48-38.47-63.36.86-25.8,11.93-46.35,31-61.76,21.06-17,44.92-22.49,69.81-22.49,5.48,0,11,.28,16.55.74,15.3,1.25,30.14,5.65,45.1,9.07a19.83,19.83,0,0,0,3.54.63,4.32,4.32,0,0,0,3.48-1.65V340.62c-6,3-9.48,9.19-14.5,13.47-12.21,10.28-25.51,18.67-39.44,26.15-23.12,12.15-46.52,23.68-69.64,36.13a151.72,151.72,0,0,0-55.54,49.6c-21.75,32.42-25.57,68.95-20.15,107.2,3.54,25.34,17.47,41.67,39.62,50.63,14.89,6,30.36,9.82,45.66,14.21,21.81,6.39,43.27,14,63.19,25.92,9.53,5.76,18.43,12.73,24.71,22.2,17.3,25.86,22.72,54.51,15.19,85.57-5.25,21.51-16.78,37.32-36.42,46.06a174.93,174.93,0,0,1-25.29,9.07c-15,4.06-30.42,7-44.58,13.82-11.3,5.65-20.66,14-25.11,27.28h69c23,0,45.89,0,68.84.12Z"/><path class="cls-3" d="M19.4,298.44c-10.62,0-19.47-.34-27.63-1V265.05a3,3,0,0,1,2.34-.8c.68,0,1.37.11,2.34.17,3.14.51,6.28,1.08,9.42,1.65,9.53,1.66,19.35,3.43,29.34,3.43H36c28.77-.11,50.8-14.21,65.41-42,7-13.29,10.62-28.25,11-45.83.4-23.92-2.85-44.07-9.93-61.65C94.8,101.05,81.84,87.87,64,80.79c-11.47-4.68-24-7.19-40.52-8.1l-3.89-.23c-7.07-.4-14.44-.8-21.74-.8H-4.35c-1.83,0-3-.34-3.88-1.2v-37c9.65-.8,19.29-.91,27.51-.91h8.79l8.85.06c22.83,0,43.27,2.4,62.45,7.19,7.47,1.77,15.35,4.28,22,10.56,9.14,8.33,11.48,19.64,13.25,31.51,1.59,10.67,2.11,21.69,2.68,32.25.23,5.48.51,10.9.91,16.32a313.72,313.72,0,0,1-.28,46.81c-4,51-24.09,86.59-61.42,108.8a89.82,89.82,0,0,1-44.93,12.33c-4.05.05-8.1.11-12.15.11m0,2.34c4.05,0,8.16-.06,12.21-.11A92.16,92.16,0,0,0,77.68,288c40.52-24.08,58.79-62.79,62.56-110.62a318.4,318.4,0,0,0,.28-47.15c-1.2-16.27-1.25-32.53-3.59-48.74-1.83-12.16-4.29-24-14-32.88-6.73-6.34-14.67-9.14-23-11.13-20.67-5.14-41.79-7.2-63-7.25-5.88,0-11.76-.06-17.64-.06-9.93,0-19.86.17-29.85,1.14v40C-9,73.48-6.75,74-4.35,74h2.23c8.5,0,17,.57,25.51,1C37,75.77,50.33,77.71,63.12,83c17.41,6.91,29.85,19.86,37.16,38,7.76,19.29,10.1,39.78,9.76,60.73-.34,16-3.42,31-10.73,44.81C85.44,252.72,64.89,267,36,267.16h-.74c-13,0-25.63-3-38.42-5a20.94,20.94,0,0,0-2.68-.23,5.35,5.35,0,0,0-4.68,2.28v35.33c10,1,20,1.26,30,1.26Z"/><path class="cls-3" d="M1448.24,60.13c-13.93-13-27-22.21-40.47-28.6-8.39-4.05-17.18-7.08-25.63-10-3.77-1.31-7.54-2.62-11.3-4l-3.71-1.43c-7.94-2.91-16-5.94-23.46-10.56a58.78,58.78,0,0,1-13.36-11.81h116.1c.92,0,1.43,0,1.6,0s.11,0,.11,0a4.43,4.43,0,0,1,.18,1.88c-.12,16.55-.06,33.28-.06,50V60.13m2.34,5.48c0-23.35-.11-46.81.06-70,0-3.77-1-4.22-4.23-4.22h-121c4.91,6.27,10.28,12,17,16.15,8.79,5.42,18.26,8.62,27.63,12.16,12.21,4.56,24.77,8.22,36.7,14,16.5,7.77,30.65,19.07,43.84,32Z"/><path class="cls-3" d="M193.61.14V-2.2a57.32,57.32,0,0,1-11.13-1.15,11.11,11.11,0,0,1-5.31-3h36.19A49.42,49.42,0,0,1,193.61-2.2V.14m0,0a52.94,52.94,0,0,0,29-8.79H172.32c2.39,3.76,5.7,6.79,9.7,7.59A57.83,57.83,0,0,0,193.61.14Z"/><path class="cls-3" d="M1174.25,190.1v-2.34a59.62,59.62,0,0,1-7.08-.46c-19-2.28-35.16-12.21-50.85-31.22a183.54,183.54,0,0,1-11-15.07c-4.06-6.33-5.49-13.81-4.17-22.26,1.14-6.68,6.51-10.16,12.39-13.36,12.32-6.45,26.65-9.76,44.8-10.33,13.07.46,26.83,2.17,38.7,11.3,22.5,17.53,21.58,48,12.22,62.34-8.28,12.78-19.75,19.06-35,19.06v2.34m0,0c15,0,27.74-5.77,37-20.15,10-15.47,10.55-47.32-12.85-65.41-12-9.31-25.68-11.31-40-11.82-15.87.51-31.51,3-46,10.62-5.93,3.25-12.33,7.19-13.59,15-1.31,8.28-.22,16.61,4.46,23.92a184,184,0,0,0,11.19,15.29c14,17.07,30.65,29.46,52.28,32.08a65.36,65.36,0,0,0,7.42.46Z"/><path class="cls-3" d="M829.94,639.61c-7.88,0-14.67-4.28-20.78-13-3.08-4.39-6.16-8.78-9.24-13.24-8.85-12.9-18-26.14-28.09-38.3A392.18,392.18,0,0,0,734.39,535c-6.28-5.82-13-11.24-19.41-16.55-9.82-8.16-20-16.5-28.94-26.2a138.49,138.49,0,0,1-22.55-33.57c-1.88-3.88-3.71-7.82-5.53-11.75-5.31-11.31-10.73-23-17.81-33.51-13.59-20.32-29.74-33.51-49.37-40.41-8-2.8-16.33-5.25-24.32-7.6-10.22-3-20.78-6.16-30.88-10.1-13.82-5.42-31.34-13.47-44.75-28.2-15-16.49-24-36.41-27.4-60.9-3.14-21.58.68-40.81,11.53-58.91a180,180,0,0,1,17.35-23.4c16.61-19.58,30.19-40.59,41.33-58.57a361.92,361.92,0,0,1,20.6-30.93c9.53-12.73,23.41-20,38-20a45,45,0,0,1,14.44,2.4c25.06,8.22,44.24,24,58.63,48.4,4.05,7,7.87,14.22,11.58,21.29,6.17,11.7,12.56,23.86,20.26,34.94,13.88,19.92,30.94,36,45.84,49.2l4.74,4.11c15.18,13.36,30.88,27.11,45.89,41.21l3.49,3.26c12.09,11.3,24.65,23,39.15,31.73,15.3,9.19,31.34,13.87,47.66,13.87a89.41,89.41,0,0,0,16.84-1.6c12.73-2.45,23.41-10,32.48-23.23a135,135,0,0,0,10.22-18.55l4.34-9.3c8.27-17.81,16.78-36.31,27.74-52.86,10.56-16.21,21.34-27.57,34-35.73,11.7-7.54,23.52-11.42,35-11.42,10,0,20.1,2.86,30.09,8.45,9.47,5.31,19,11.07,28.14,16.55,6.51,3.89,13,7.82,19.52,11.59a100.39,100.39,0,0,0,50.46,14.27c33.68,0,57.08-13,71.75-39.9,5.19-9.64,8-20.89,9.19-35.39,1.14-16.72-.06-31.16-3.77-44.29-6.17-21.24-20.21-34.65-41.78-40-12.44-3-25.17-3.82-37.56-4.62l-6.85-.46c-5.71-.28-11.64-.34-17.3-.34-13.24-.12-26.94-.17-40.12-3.83-23.58-6.39-41.33-21.4-52.75-44.63-2.11-4.34-4-8.91-5.93-13.3-.35-.86-.69-1.66-1-2.51h44.87c.22.17.51.34.79.57a10.52,10.52,0,0,1,3.32,3c7.3,12.22,18.43,20.38,34.13,24.83a111.21,111.21,0,0,0,31,4.46,123.33,123.33,0,0,0,42.93-8c9.59-3.71,16.66-10.5,21.11-20.21a9.66,9.66,0,0,1,3.89-4.56h45.49c1.37,1.54,1.77,3.82,2.17,6.22,3.71,22,16.38,36.47,38.7,44.29,6.57,2.29,13.19,4.34,19.92,6.4,7.08,2.22,14.39,4.5,21.46,7,28.37,10,50.35,27.11,67.19,52.05,4.62,7,9.47,13.76,14.32,20.55l5.77,8.22a21.05,21.05,0,0,1,2.63,5.48,31.29,31.29,0,0,0,1.88,4.4v79.4c-18.44,15.86-39.56,34.59-58.11,56-9.7,11.3-19.06,23.06-28.2,34.48q-4.8,6-9.58,12A444.48,444.48,0,0,1,1311.24,375l-8,7.37c-16.66,15.41-33.9,31.27-48,50.11-19.35,26-32.14,57-38.07,91.9-.57,3.31-1.15,6.62-1.66,9.93-2,12.62-4.16,25.69-8.84,37.73-2.86,7.14-8.46,15.7-19.42,15.7a26.26,26.26,0,0,1-7.3-1.14c-14.62-4.34-25.46-13.59-32.93-28.2-7.26-14.21-11.31-30.59-12.85-51.6-2.4-30.82-7.08-66.67-24.54-99.32-19.75-36.65-43.16-57.59-73.69-66a115.87,115.87,0,0,0-29.74-3.89,121.36,121.36,0,0,0-25.92,2.86C959.4,345.3,948,358.43,944.5,381.83c-2.23,14.9-3.25,31.51-3.14,50.81.35,40.81-8.1,78.94-25.91,116.55l-3.25,7c-7.48,16-15.25,32.53-25.64,47-11.87,16.66-27.74,28.08-48.4,34.93a24.51,24.51,0,0,1-8.22,1.48m0,2.29a29.38,29.38,0,0,0,9-1.49c19.86-6.62,36.76-18,49.55-35.85,12-16.78,20.26-35.73,29.11-54.34,17.46-37,26.48-76,26.08-117.64a325.47,325.47,0,0,1,3.14-50.4c3.31-22.09,13.47-34.71,33.91-39.39a117.37,117.37,0,0,1,25.46-2.8,111.94,111.94,0,0,1,29.11,3.83c33.79,9.25,55.59,33.79,72.26,64.84,16.33,30.54,21.64,64,24.2,98.35,1.38,18.32,4.8,36,13.13,52.46,7.76,15.07,19.13,24.89,34.36,29.39a27.4,27.4,0,0,0,8,1.2c9.77,0,17.25-6.11,21.58-17.12,6.05-15.41,7.77-32,10.62-48.12,5.71-33.62,17.81-64.1,37.68-90.87,16.15-21.63,36.24-39.1,55.7-57.2a441.28,441.28,0,0,0,41.33-45.09c12.56-15.58,24.77-31.28,37.79-46.41,17.87-20.72,38.12-38.81,58.62-56.45V147.75c-1.88-3.37-2.57-7.37-5-10.68-6.74-9.59-13.54-19-20-28.71-17.36-25.69-40.24-43-68.33-53-13.75-4.85-27.74-8.68-41.44-13.41-19.8-6.91-33.34-19.81-37.1-42.47-.57-3-1.09-6.11-3.54-8.16h-47.09a12.24,12.24,0,0,0-5.42,6,35,35,0,0,1-19.75,19,121.13,121.13,0,0,1-42.13,7.88,110,110,0,0,1-30.37-4.34C1117,16,1105.3,8.93,1097.59-4c-1.37-2.23-3.48-3.26-5.36-4.68H1043c2.79,6.39,5.41,12.9,8.5,19.17,11.64,23.81,29.56,39.22,54.22,45.9,19.07,5.25,38.59,3.19,57.88,4.22,14.85,1,29.57,1.49,44,5,20.09,4.91,34,17.07,40.06,38.31,4.12,14.27,4.75,28.94,3.66,43.49-.86,12-3.14,23.8-8.85,34.48-15.58,28.6-40.47,38.64-69.69,38.64h-.23a99.1,99.1,0,0,1-49.09-13.93c-15.92-9.3-31.57-19.12-47.66-28.19-10.45-5.88-20.83-8.74-31.23-8.74-12.21,0-24.31,4-36.3,11.82C993.93,190.79,983,203.46,973.5,218c-12.84,19.52-22.21,41.15-32.14,62.44a135.11,135.11,0,0,1-10.1,18.21c-7.82,11.3-17.52,19.64-31,22.26a90.15,90.15,0,0,1-16.39,1.54c-16.26,0-31.74-4.68-46.52-13.53-15.52-9.41-28.77-22.26-42.18-34.7-16.61-15.53-33.62-30.42-50.63-45.38C727.88,214.13,712,198.72,699,180.05c-12.22-17.63-20.89-37.56-31.74-56.11-14.38-24.37-34.13-41-59.88-49.43a49,49,0,0,0-15.18-2.45c-15.29,0-29.8,7.53-39.84,20.89a370.86,370.86,0,0,0-20.72,31.16c-12.62,20.38-25.75,40.13-41.1,58.28A180.79,180.79,0,0,0,473,206.08c-11.13,18.5-15,38.59-11.87,60.45,3.36,23.86,12.21,44.75,28,62.16,12.62,13.82,28.71,22.15,45.61,28.77,18.09,7.08,36.93,11.3,55.25,17.75,20.44,7.14,35.91,21.07,48.24,39.5,9.36,13.93,15.75,29.8,23.17,45a140.91,140.91,0,0,0,23,34.14c14.78,16.09,32.59,28.19,48.46,42.86a396,396,0,0,1,37.27,39.85c13.42,16.2,25,34.07,37.16,51.43,6.57,9.3,14,13.93,22.72,13.93Z"/><path class="cls-3" d="M195.32,627.85c-19.47,0-39.33-6.16-60.73-18.72-10.45-6.28-20.55-13.59-30.26-20.66-7.19-5.25-14.55-10.62-22.14-15.53C59,557.7,32.24,547.65-4.29,540.4l-3.88-.8-.06-.05v-59c14.1,8.27,28.77,15.75,43,23,8.51,4.34,17,8.68,25.4,13.13C79.56,527.1,98.22,540.75,120.77,561c16.21,14.67,32.54,28.48,53.2,35.9A63.71,63.71,0,0,0,195,600.68c23.75,0,42.64-15.29,51.83-42,7.31-21.58,7.71-44.29,1.2-71.41a290.66,290.66,0,0,1-8-85.11c2-34.47,4.17-65.52,10-96.35a137.29,137.29,0,0,1,19-47.09c2-3.25,4.05-6.51,6.1-9.76,9.37-14.67,19-29.85,26-46.52,5.93-14.38,11.53-29.17,17-43.44l3.48-9.36c10.22-26.94,28.37-46.29,53.89-57.31s46.8-25,65.41-43C456.52,34.1,472.67,17,484.32-4.26a14.21,14.21,0,0,0,1-2H548c-4.22,14.61-12.56,26.77-25.46,37.1L515,36.84c-18.27,14.55-37.22,29.57-53.26,48a403.36,403.36,0,0,0-33,43.67c-11.59,17.52-26.48,33.22-45.61,48.06-18.6,14.39-33.56,32.25-47.26,49.26-11.36,14-22.77,28.09-34,42.3-19.18,24.09-31.11,52.74-36.53,87.56A379.85,379.85,0,0,0,261,400.56c-.74,20.55,1.83,41.84,7.93,67,4.4,17.81,8.28,37,7,57.31-2.06,33.33-11.53,59.93-29.11,81.17-9.65,11.87-23,19-39.62,21a94.65,94.65,0,0,1-11.87.79m0,2.29a96.79,96.79,0,0,0,12.16-.75c16.27-2,30.48-8.79,41.15-21.86,19.3-23.4,27.74-51.83,29.63-82.54,1.25-19.8-2.34-38.93-7-58-5.31-21.69-8.68-43.73-7.88-66.33A390.64,390.64,0,0,1,267.64,356c5-32.19,16.15-61.42,36.08-86.47,11.18-14.16,22.6-28.26,34-42.24,14.38-17.87,29.05-35.11,46.86-48.92s33.39-29.34,46.12-48.58a406.72,406.72,0,0,1,32.82-43.44c18-20.77,39.5-36.93,60.57-53.77,13.18-10.56,22.77-24,27-41.26H483.63a22.52,22.52,0,0,1-1.31,3.19c-11.24,20.55-26.71,37.22-43.1,53.14C420,66.24,398.35,79.88,374.55,90.15c-26.08,11.3-44.58,30.77-55.14,58.68-6.68,17.58-13.24,35.28-20.43,52.69-8.39,20.09-20.55,37.73-31.91,55.94a139.24,139.24,0,0,0-19.29,47.89c-6.05,31.85-8.17,64.33-10.05,96.69a291,291,0,0,0,8.05,85.74c5.59,23.4,6.79,46.69-1.14,70.15-8.85,25.91-27.17,40.47-49.61,40.47a62.85,62.85,0,0,1-20.26-3.66c-20.26-7.3-36.59-21.12-52.46-35.5-19-17-38.81-32.65-61.07-44.64-23.86-12.78-48.46-24.2-71.81-38.18v65c1.94.46,3.94.86,5.82,1.26,30.08,5.93,59.25,14.9,85.68,32.19,17.75,11.65,34.19,25.35,52.46,36.19,19.4,11.47,39.84,19.07,61.93,19.07Z"/><path class="cls-3" d="M-8.23,388.63V339.31c33.62-3.31,71.86-9,104.11-32.48,40.3-29.45,64.28-69.75,71.36-119.7,1.31-9.59,2.28-19.41,3.25-28.94,1.37-13.7,2.74-27.85,5.31-41.44,4.74-25.28,13.07-43,26.14-55.88,9.76-9.36,21.29-16.67,32.54-23.75L237.84,35C256.45,23.31,269,12,278.54-1.8a21.34,21.34,0,0,0,2.11-4.11c.06-.12.12-.29.18-.4H316.1c-4.62,23.23-17.69,41.32-41,56.73-3.14,2.06-6.28,4-9.42,6C254.4,63.61,242.75,71,232.48,80.62c-10.68,9.93-18.72,23.06-25.35,41.38-6.27,17-9,35.05-11.58,52.52-.63,4.34-1.26,8.67-1.94,12.95-3.71,22.55-8.39,46.3-21.52,66.5-12.33,19.07-28.43,35-44,50.35L127,305.46c-15.24,15-33,27.68-54.28,38.81C67.46,347,62.21,349.7,57,352.44c-21.35,11.07-43.39,22.49-64.28,35.73a4.85,4.85,0,0,1-.91.46m-2.34,3.42a26.64,26.64,0,0,0,4.51-1.94c25.8-16.32,53-29.68,79.85-43.78,19.87-10.39,38.42-23.06,54.86-39.21S161.3,275,174,255.23c13.24-20.38,18-43.61,21.86-67.36,3.54-21.91,5.71-44.12,13.41-65.07,5.54-15.3,12.9-29.45,24.78-40.47,12.9-12.1,27.79-20.49,42.24-30,21.8-14.38,37.9-33,42.58-61H279.34a41.25,41.25,0,0,1-2.74,5.53c-10.67,15.41-24.71,26.54-40,36.13-12.62,8-25.4,15.7-36.25,26.2-15.64,15.3-22.77,35.51-26.83,57.08-4.39,23.24-5.3,47.15-8.62,70.5C157.76,237.31,133.5,276.41,94.51,305,63,327.84,26.42,333.66-10.57,337.2v54.85Z"/><path class="cls-3" d="M327.18,865.59a217.45,217.45,0,0,1,20.37-55.42c5.08-9.48,10.33-18.78,15.53-28.14,4.57-8,9.07-16.15,13.53-24.38,2.22-4,4.39-8.1,6.56-12.21,6.34-11.88,12.84-24.14,20.15-35.57,14.27-22.37,31-37.15,51.09-45.14a66.1,66.1,0,0,1,24.2-4.74c22.66,0,42,12.84,53,35.22,7.19,14.27,11.59,31,13.75,52.57,1.09,10.73,1.89,21.46,2.69,32.19.85,11.19,1.71,22.78,2.85,34.13,1.26,12.11,3.08,24.38,4.8,36.2.74,5.07,1.54,10.21,2.22,15.29H521.31V824.5c-.06-9.14.51-18.5,1.14-27.58.74-11.41,1.48-23.28.91-35C522.45,744,520.11,725,509,708.34c-9-13.53-22.09-21-37-21-9.19,0-18.67,2.91-27.46,8.39-12.79,8.1-23.23,20.49-31.91,37.73-4,8.1-8.05,16.15-12,24.2-11.93,24.09-24.32,48.92-37.16,73a112.52,112.52,0,0,0-12.39,35H327.18m-2.92,2.34h28.83a109,109,0,0,1,12.44-36.19c17.13-32.07,33-64.72,49.26-97.21,7.42-14.84,17.13-28,31.06-36.81a49.72,49.72,0,0,1,26.2-8c13.35,0,26.08,6.33,35,19.86,10.45,15.76,13,33.9,13.93,52.4,1,20.89-2.22,41.73-2,62.56v43.38h41.67c-2.46-18-5.48-36-7.37-54.06-2.22-22.08-3.37-44.23-5.54-66.32-1.88-18.55-5.59-36.71-14-53.37-12.16-24.66-33-36.53-55.14-36.53a68.32,68.32,0,0,0-25.06,4.91c-22.32,8.9-38.93,25.28-52.23,46.06-9.82,15.36-18,31.91-26.77,48C365,774.09,355,791.45,345.5,809a220.4,220.4,0,0,0-21.24,58.91Z"/><path class="cls-3" d="M1051.87,865.59c14.61-34.13,39.84-54.05,75-59.25a124.41,124.41,0,0,1,18.39-1.25c10,0,20.26,1,30.13,1.88l3,.23c3.43.34,6.85.57,10.22.91,11.24.91,22.89,1.88,34.19,3.77,24.88,4.22,28,7.31,33.34,33.45a120,120,0,0,1,2.74,20.26h-44.07a44.23,44.23,0,0,1-7.42-6.33,41.73,41.73,0,0,0-9.76-7.94c-16.16-8.73-31.11-13-45.61-13a76.11,76.11,0,0,0-38,10.5c-5.93,3.42-10,7-13.13,11.3a16.14,16.14,0,0,1-5.93,5.42h-43m-3.48,2.34h47.09a19.14,19.14,0,0,0,7.31-6.39c3.25-4.68,7.59-7.88,12.38-10.67,12.39-7,24.6-10.11,36.82-10.11,15,0,29.74,4.68,44.52,12.62,6.85,3.65,11,10.67,17.64,14.55h47.09a110.82,110.82,0,0,0-2.85-23.06c-5.54-27.17-9.3-30.94-35.28-35.33-14.72-2.46-29.68-3.31-44.52-4.63-11.13-1-22.21-2.16-33.33-2.16a130,130,0,0,0-18.73,1.25c-37.33,5.54-63.42,26.94-78.14,63.93Z"/><path class="cls-3" d="M-6.75,865.71c-.8,0-1.2-.06-1.37-.06h-.05a4,4,0,0,1-.12-1.6c.17-4.11.17-8.28.12-12.44,0-1-.06-2.06-.06-3,6.39-.06,12.79-.51,19-.91,6.73-.45,13.64-.92,20.43-.92h.92c16.15.06,34,2.46,46.06,18.84h-18l-22.38-.06q-22.33,0-44.58.18m0,2.34c14.84-.12,29.74-.12,44.58-.12H82.58c-12-19.63-30.82-23.46-50.45-23.51h-.92c-13.75,0-27.4,1.82-41.15,1.82h-.63c0,5.88.23,11.82-.06,17.7-.11,3.36.69,4.11,3.88,4.11Z"/><path class="cls-3" d="M1299.72,797.09v-2.33a112.13,112.13,0,0,1-13.36-.81c-11.42-1.53-18.15-7.07-21.69-18.14a150.7,150.7,0,0,1-6.39-33.34c-.12-2-.35-4-.58-5.94-.56-4.68-1.14-9.07-.45-13.47a91.1,91.1,0,0,1,3.08-29c5-18.2,9.88-22.94,27.51-26.94a53,53,0,0,1,11.42-1.14c9.76,0,19.29,2.28,30.54,5.82,16.72,5.14,28.65,12,37.5,21.7,13.07,14.15,19.86,31.73,18.49,48.28-1.14,13.76-7.87,25.81-19.4,34.94A66.81,66.81,0,0,1,1342,788.48c-11.41,2.91-26.48,6.28-42.23,6.28v2.33m0,0c14.49,0,28.71-2.73,42.81-6.33a68.12,68.12,0,0,0,25.22-12.21c29.57-23.13,24.72-61.25,1.26-86.66-10.5-11.41-24.2-17.92-38.53-22.37-10.27-3.2-20.66-5.93-31.22-5.93a56.57,56.57,0,0,0-11.93,1.25c-18.44,4.11-24,9.47-29.28,28.66a95.64,95.64,0,0,0-3.2,29.68c-.91,5.93.57,12.67,1.14,19.46a152.44,152.44,0,0,0,6.39,33.91c4,12.27,11.71,18.09,23.64,19.69a111.71,111.71,0,0,0,13.7.85Z"/><path class="cls-3" d="M783.94,812.79c-14.39,0-31.4-13.24-35.06-27.34l-.28-1.31c-1-3.89-2-7.65-1.77-11.53.58-11.08,4.23-22,11.54-34.36,8.1-13.76,17.46-23.06,28.71-28.43a16,16,0,0,1,7.07-1.94c3.94,0,7.14,2.4,9.76,7.31,5.14,9.24,6.8,20,8.45,30.48l.11.79c2.63,16.9,1.26,31.85-4.11,45.78-2.91,7.43-6.73,12.67-12.1,16.56a19.93,19.93,0,0,1-12.32,4m0,2.4a22.46,22.46,0,0,0,13.69-4.45c6.28-4.57,10.17-10.56,12.9-17.64,5.94-15.18,6.74-30.88,4.23-47-1.71-11.07-3.37-22.26-8.79-32.08-3.08-5.82-7.08-8.56-11.82-8.56a19.59,19.59,0,0,0-8.1,2.17c-13,6.28-22.32,16.78-29.74,29.34-6.4,10.9-11.13,22.49-11.76,35.5-.34,4.68,1,9,2.11,13.53,3.71,14.33,21.18,29.17,37.28,29.17Z"/><path class="cls-3" d="M195.55,599.2a59,59,0,0,1-16.73-2.63c-16.89-5-33.1-15.07-49.54-30.71-28.77-27.28-61.82-49.54-101.09-67.92A344.33,344.33,0,0,1-3.09,481.15a13.46,13.46,0,0,1-5.14-5.3V392.74a18.18,18.18,0,0,1,6-5.54c24-14.67,49.61-27.86,71.58-39,22.78-11.53,41.61-24.61,57.71-40,12.9-12.39,27.74-27.28,40.53-44.18,12.16-16.1,20.32-35.39,24.94-59.14,1.77-9,3.14-18.09,4.51-26.94,1.94-12.73,3.94-25.86,7-38.41,5.53-23,13.58-39.73,25.23-52.86,8.79-10,19.92-17.52,30.53-24.37,2.17-1.37,4.4-2.74,6.57-4.11,9.24-5.77,18.83-11.76,27.05-19.81C305.26,26.91,313,14.06,317-.95a12.09,12.09,0,0,1,2.79-5.36H368.5a10.54,10.54,0,0,1,4,4.62c3.59,7.65,10,12,17.64,12a21.6,21.6,0,0,0,6.45-1A42.73,42.73,0,0,0,413.77-.26l.85-.75a38.44,38.44,0,0,1,7.48-5.3h60.22c.4,1.08-.11,2.05-1.26,3.88-.28.51-.57,1-.85,1.42a134.76,134.76,0,0,1-17.47,24.43c-23.92,27.86-46.46,46.58-70.89,59L388,84.33c-5.08,2.51-10.28,5.08-15.53,7.36-26,11.36-44.07,32.08-55.31,63.42l-1.31,3.77c-5.14,14.27-10.45,29-16.67,43-8.16,18.83-18.78,35.79-29.06,51.25-14.15,21.41-22.66,46.75-26,77.52-2.12,19.92-4.51,43.44-5.94,67.07-1.77,30.42.63,59.53,7.19,86.59,3.2,13.24,6.05,27.57,5.31,42.24-1.31,24.72-7.59,42.47-19.75,55.94-9.93,11-21.8,16.67-35.33,16.67m0,2.28c13.81,0,26.37-5.48,37-17.41C247,568.2,251.83,547.94,253,526.7c.74-14.61-2-28.88-5.37-42.92-6.85-28.2-8.84-57-7.13-85.91,1.37-22.37,3.54-44.52,5.94-66.95,3-27.63,10.38-53.37,25.63-76.43,10.9-16.44,21.29-33.22,29.28-51.66,6.73-15.3,12.33-31.11,18-46.92,10.16-28.43,27-50.29,54-62,6.62-2.91,13-6.16,19.52-9.36,28-14.15,50.86-35.33,71.64-59.53A140.34,140.34,0,0,0,482.26.14c1.37-2.52,4.11-5.26,1.37-8.79h-62c-3.49,1.59-6.34,4.11-9.31,6.56A40.56,40.56,0,0,1,396,7a19.27,19.27,0,0,1-5.82.92c-6.57,0-12.28-3.66-15.53-10.62a13.21,13.21,0,0,0-5.42-6H318.9c-2.23,1.76-3.37,4.22-4.17,7.07-4.05,15.13-12,27.69-22.94,38.3C281.8,46.43,270,53,258.51,60.36c-11.19,7.19-22.15,14.67-31,24.77C214,100.31,206.56,119,201.71,139c-5.19,21.52-7.25,43.78-11.47,65.47-4.17,21.29-11.53,41-24.55,58.16-12.1,16-25.91,30.14-40.24,43.9C108.38,322.81,89,335.6,68.31,346c-24.25,12.33-48.4,24.89-71.75,39.16a20.56,20.56,0,0,0-7.13,6.85v84.37a15.1,15.1,0,0,0,6.28,6.67,335.1,335.1,0,0,0,31.51,17c36.7,17.18,70.43,39,100.46,67.52,14.67,13.93,31.16,25.52,50.46,31.28a63.18,63.18,0,0,0,17.41,2.63Z"/><path class="cls-3" d="M354.06,865.59c-.8-1-.63-2.11.06-4.79,3.71-14.1,9.59-28,18.55-44,12.78-23.06,23.86-45,33.85-67,7.7-17,15.35-29.45,24-39.27,12.67-14.33,26.14-21.29,41.1-21.29a46.12,46.12,0,0,1,6.79.46c13.24,1.88,24,10,31.85,24.31,6.62,12.22,10.1,26.83,10.9,46.12.57,13.3-.28,26.94-1.14,40.13-.23,3.37-.4,6.79-.63,10.22-.51,10.16-.4,20.55-.28,30.6.05,5.93.11,12,.05,17.92v1.25c-.05,2.4-.17,4.11-1.14,5.31h-48.4c-.63-.74-.91-1.77-.74-3.59a293.83,293.83,0,0,1,7.59-47.27A379.08,379.08,0,0,0,484,775.46c1.26-10-.11-19.18-4-27.28-3.2-6.51-8.22-10.16-14.16-10.16a18.47,18.47,0,0,0-8.85,2.51c-5.93,3.31-9.59,8.56-12.67,13.7-4.57,7.36-8.39,16-12.1,27-7.76,22.66-18.78,43.84-29.57,63.3a154.52,154.52,0,0,0-7.65,16,9.55,9.55,0,0,1-4,5h-37m-1,2.34h38.59a12.25,12.25,0,0,0,5.53-6.39,133.54,133.54,0,0,1,7.54-15.81c11.3-20.49,22-41.21,29.74-63.65,3.08-9.24,6.73-18.32,11.87-26.66,3.08-5.19,6.51-9.93,11.82-12.84a16,16,0,0,1,7.7-2.17c5,0,9.19,3,12.05,8.8,3.93,8.15,4.9,16.89,3.76,26a369.94,369.94,0,0,1-7.48,39,298.47,298.47,0,0,0-7.64,47.61c-.23,2.56.28,4.5,2.05,6.1H519c2.79-2.28,2.45-5.59,2.56-8.84.18-16.16-.57-32.37.23-48.46,1-16.9,2.51-33.8,1.77-50.58-.68-16.44-3.31-32.65-11.19-47.09-7.64-13.81-18.43-23.4-33.56-25.57a50,50,0,0,0-7.13-.52c-17,0-30.94,8.68-42.87,22.15-10.28,11.64-17.87,25.51-24.37,39.84-10.39,22.84-21.7,45-33.8,66.79-7.82,14-14.55,28.65-18.78,44.52-.74,2.91-1.37,5.59,1.26,7.76Z"/><path class="cls-3" d="M1159,26.85V24.51a95.52,95.52,0,0,1-26.6-3.54c-17.93-5-29.57-13.7-36.48-27.28h128.94c-5.76,15.24-17.12,23.8-36.53,27.68A153.72,153.72,0,0,1,1159,24.51v2.34m0,0a155.49,155.49,0,0,0,29.79-3.2c18.38-3.65,33-12.1,39.33-32.3H1092.23c7.82,18.2,22.43,27.11,39.44,31.85A99.62,99.62,0,0,0,1159,26.85Z"/><path class="cls-3" d="M1099.65,865.59c10.39-15.69,26.2-23.92,48.23-24.94,1.48-.12,3-.12,4.51-.12A81.29,81.29,0,0,1,1203.71,858a27.05,27.05,0,0,1,6.44,7.59h-110.5m-4.17,2.34h118.67c-2.34-4.45-5-8.67-9-11.75-15.87-12.45-33.62-18-52.74-18-1.54,0-3,0-4.62.11-21.64,1-40.36,8.73-52.29,29.62Z"/><path class="cls-3" d="M830.51,551.93c-15.87,0-29.28-8.16-42.69-17.23-17.07-11.88-33.11-25.92-48.52-39.56l-7-6.17c-22-19.12-39.1-43.21-52.23-73.46-9.54-21.63-19.64-37.73-31.79-50.69a129.35,129.35,0,0,0-50.46-33c-6.69-2.57-13.48-4.74-20.1-6.85a273.51,273.51,0,0,1-26.6-9.42C530.84,306.94,520.22,295,516.63,277c-2.23-11.13-.35-22.44,6.1-36.65,14.73-32.53,29.06-57.94,45.21-79.91,7.14-9.71,15.58-16.5,25.12-20.21a28.82,28.82,0,0,1,10.27-2c7.42,0,14.84,3.14,23.29,9.88,7.54,5.94,13,14.33,18.32,22.37l.69,1c14.78,23.12,34.87,44.07,63.19,65.87,26.48,20.44,48.29,40.53,66.55,61.54,8.68,9.87,17.47,19.35,27.17,29.91a225.74,225.74,0,0,0,56.74,43.66c5.88,3.2,11.87,6.8,19,11.3,13.59,8.62,22.15,22,26.37,41,8.57,39-1.48,74.66-29.85,105.94-12.56,13.81-27.11,20.95-43.32,21.23h-.92m0,2.34h1c18-.28,33-8.84,45-22,27.28-30.08,39.61-65.93,30.37-107.94-3.88-17.69-12.11-32.76-27.4-42.52-6.28-4-12.56-7.82-19.12-11.36a221.73,221.73,0,0,1-56.12-43.21c-9.07-9.82-18.2-19.69-27.11-29.86-20.15-23.11-42.87-43.26-67-61.81-23.86-18.44-45.77-39-62.61-65.3-5.71-8.68-11.36-17.53-19.47-24-7.64-6.11-15.81-10.39-24.77-10.39A30.66,30.66,0,0,0,592.2,138c-10.56,4.11-19.12,11.48-26.14,21-18.15,24.71-32.65,52-45.44,80.31-5.42,11.87-9,24.55-6.28,38.07,4.23,21.29,18.1,32.71,35.85,40.3,15.3,6.57,31.28,10.39,46.8,16.27a127.8,127.8,0,0,1,49.55,32.42c13.65,14.56,23.29,31.74,31.4,50.06,12.49,28.88,29.51,54,52.8,74.26,18.14,15.87,36,32.2,55.76,45.84,13.42,9.13,27.35,17.69,44,17.69Z"/><path class="cls-3" d="M1180.19,457.52c-3.2,0-6-1.54-9.36-5.13-7.43-8-12.56-17.47-17.92-27.46l-2.46-4.51c-12.73-23.12-24.09-42.07-35.79-59.65-20.38-30.42-45-50.4-75.06-61.07a85.81,85.81,0,0,1-22.43-11.54,25.36,25.36,0,0,1-9.93-27.62c5.19-20.61,25.51-37.33,45.32-37.33,12.55.4,24.31,5,35,9.81,16,7.14,32.53,14.56,50.45,16.9a234.2,234.2,0,0,0,29.46,2c24.43,0,46.12-4.57,66.21-14,26-12.33,42.81-34.64,51.26-68.15q1.8-7.2,3.42-14.38c2.17-9.19,4.4-18.73,7.14-28C1303,102.71,1321.64,99,1332.14,99a49.62,49.62,0,0,1,12.16,1.54c29.91,7.31,51.31,33.62,55.76,68.67,2.06,16.1-2.51,31.39-14.84,49.66-11.65,17.24-24.55,33.9-37,50.06-8.9,11.53-18.09,23.46-26.77,35.5-16.1,22.21-35.1,42.13-53.36,61.48-4.8,5-9.49,9.93-14.22,14.95-15.7,17.07-30.08,35-43.5,51.89l-2.91,3.65c-5.59,7.25-11.42,14.73-19.63,19a17.37,17.37,0,0,1-7.65,2.17m0,2.4c2.68,0,5.48-.91,8.73-2.51,10.1-5.14,16.44-14.61,23.29-23.18,14-17.69,28.14-35.21,43.38-51.77,23.23-24.83,47.49-48.69,67.76-76.66,20.89-28.94,43.84-56,63.81-85.62,10.22-15.12,17.76-31.73,15.18-51.26-4.22-33-23.91-62.44-57.48-70.66a53.8,53.8,0,0,0-12.72-1.6c-16.73,0-32.42,8.73-38.82,30.08-4.22,14.1-7.08,28.31-10.61,42.47-7.54,30-22.84,53.71-50,66.61-21,9.88-42.92,13.76-65.18,13.76a218.91,218.91,0,0,1-29.12-2c-17.46-2.28-33.67-9.47-49.82-16.67-11.48-5.19-23.24-9.64-36-10-20.77,0-42.18,17.52-47.6,39.1a27.63,27.63,0,0,0,10.78,30.08,88.75,88.75,0,0,0,23.07,11.87c31.11,11,55,32.08,73.86,60.16,12.78,19.24,24.49,39.16,35.67,59.48,6.22,11.36,11.93,23,20.72,32.42,3.77,4.06,7.19,5.94,11.08,5.94Z"/><path class="cls-3" d="M204.17,865.59c-7.88-32.71-26.26-58.51-46.07-84.19C149.37,770,140.24,757.65,132.53,744a68.15,68.15,0,0,1-8.16-25.35c-1.54-13,8.27-19.75,14.27-22.72,9.64-4.68,20.32-5.88,31-7.13,7.48-.86,15.19-1.43,22.61-2,16.55-1.25,33.67-2.51,50.23-7.08a89.23,89.23,0,0,0,36.76-20.21c7.93-7.53,13.18-17.35,16.49-24.09,11.59-23.74,18.67-49.66,25.58-74.77l2.05-7.65a308.84,308.84,0,0,0,10.33-53.37,125.56,125.56,0,0,0-2.62-39.67c-1-4.57-2.17-9.13-3.26-13.7-2.45-10.22-5-20.78-6.85-31.17-4.22-23.63-2.39-44.18,5.65-62.84,8-18.84,25.58-37.85,46.81-37.85.69,0,1.37,0,2.06.06,10.9.52,20.43,5.42,30,15.41,7.14,7.42,14.16,15.24,20.95,22.84,3,3.42,6.11,6.85,9.19,10.27,14,15.3,31.11,28.48,52.4,40.19,3.83,2.11,7.65,4.16,11.47,6.27,10.74,5.88,21.81,11.93,32.37,18.44a92.65,92.65,0,0,1,23.57,20.89c8.22,10.39,11.65,23.41,10.73,41-.79,16.38-4.79,32.87-13,53.6-8.45,21.17-22.6,34.76-42.18,40.41-23.86,7-50.92,14.89-75.12,29.17a300.78,300.78,0,0,0-49.55,36.53c-30.25,27.51-51.54,62.5-70.72,96-12.39,21.35-23.86,43.49-34.25,66C272.09,831.68,266,849,262.45,865.59H204.17m-1.83,2.34h62c4.05-19.46,11-37.67,19.06-55.53q15.58-33.75,34.14-65.82c19.92-34.71,40.87-68.67,70.32-95.44A293.81,293.81,0,0,1,437,615c23.46-13.81,49-21.46,74.6-29,21.18-6.05,35.28-20.66,43.67-41.78,6.91-17.35,12.27-35.16,13.19-54.34.79-15.7-1.55-30.25-11.25-42.58a96.8,96.8,0,0,0-24.14-21.41c-14.39-8.84-29.29-16.61-44-24.77-19.12-10.5-36.76-23.17-51.83-39.73-10-11-19.8-22.37-30.13-33.1-8.68-9.08-18.78-15.53-31.57-16.16-.74-.06-1.48-.06-2.17-.06-21.8,0-40.24,18.78-49,39.28s-9.71,42.29-5.77,64.15c2.68,15.07,6.68,30,10.1,44.93a122.19,122.19,0,0,1,2.57,39,310.81,310.81,0,0,1-10.22,53c-7.7,27.92-14.84,56.06-27.51,82-4.22,8.68-9.19,16.95-16,23.4a87,87,0,0,1-35.79,19.64c-23.75,6.62-48.29,6.28-72.49,9-10.79,1.25-21.64,2.51-31.74,7.41-8.79,4.23-17.07,12.34-15.58,25.06A70.18,70.18,0,0,0,130.48,745c7.53,13.47,16.49,25.74,25.8,37.73,19.75,25.74,38.47,51.94,46.06,85.16Z"/><path class="cls-3" d="M845.35,211.51a28,28,0,0,1-3.2-.18c-25.8-2.85-49.37-13.81-72-33.45-26.54-22.83-37.61-55.08-45.66-86.53l-3.88-15.07c-7-26.94-14.16-54.74-18.84-82.59H906.09c-2.17,5.59-5.49,10.67-8.68,15.58-1.08,1.65-2.17,3.25-3.19,5C883.31,32,876.29,53.05,872.86,78.45c-1.94,14.5-3.76,30-3.19,45.78.28,7.65.91,15.35,1.48,22.89.46,6.33,1,12.73,1.26,19.12.68,15,.34,28.26-10.39,38.53a23.54,23.54,0,0,1-16.67,6.74m0,2.34a25.77,25.77,0,0,0,18.27-7.37c11.76-11.24,11.76-25.68,11.18-40.35-.74-14.1-2.28-28-2.85-42-.45-15.12,1.14-30.25,3.26-45.32,3-22.54,9.19-44,21-63.36,4.8-7.7,10.45-15,13.13-24.08H698.66a17.1,17.1,0,0,1,.68,2.22c5.6,33.28,14.5,65.76,22.83,98.35,8.57,33.39,20.1,65.07,46.41,87.73,21.52,18.61,45.66,30.94,73.35,34a32.65,32.65,0,0,0,3.42.18Z"/><path class="cls-3" d="M1380.77,609.13c-24.77,0-46.92-5.25-67.7-16-22.37-11.48-34.59-36.88-32-66.33,3.36-37.1,35-65.64,63.13-73.64a139.26,139.26,0,0,1,38.53-5.25c14.72,0,30.25,2.06,47.43,6.4,6,1.48,12,3.08,18,4.56V594.52c-4.51,1.42-9,3.08-13.25,4.68-8.56,3.19-17.29,6.44-26.25,7.82a191.81,191.81,0,0,1-28,2.11m0,2.28a198.56,198.56,0,0,0,28.31-2c14.39-2.23,27.57-8.91,41.5-13.13V457.07c-6.62-1.66-13.19-3.31-19.81-5-16-4-32-6.5-48-6.5a142.61,142.61,0,0,0-39.16,5.36c-31.45,9-61.53,39.33-64.79,75.69-2.62,28.66,8.91,56.17,33.22,68.67,22,11.41,45.1,16.15,68.73,16.15Z"/><path class="cls-3" d="M34.92,268c-9.53,0-19.23-1.66-26.54-3.08C3,263.79-2.58,263-8,262.19h-.23V221.78a1.69,1.69,0,0,1,1.2-.46,8.89,8.89,0,0,1,2.57.63l.62.17C7,225.55,16.71,228.52,27.1,230a63.31,63.31,0,0,0,8.85.68,37.39,37.39,0,0,0,6.85-.57c20-3.25,33.39-19.57,34.13-41.49,1.15-35.34-19.52-61.94-52.62-67.82a113.58,113.58,0,0,0-18.67-1.08H2.84c-1.82,0-3.65,0-5.42-.06h-.8c-2.34-.11-3.77-.17-4.85-1.31V73.66h2.4c22.26,0,40.75.4,59.42,5.53C80.47,86.44,97.31,104.42,105,134.1c7.08,27.57,7.65,51.49,1.77,73.12-9.08,34.14-28.89,54.23-58.85,59.65a72.53,72.53,0,0,1-13,1.09m0,2.34a75.6,75.6,0,0,0,13.42-1.14c32.82-5.94,52-28.6,60.73-61.31,6.68-24.71,4.51-49.77-1.77-74.32-7.71-29.68-24.94-49-53.08-56.62-19.75-5.42-39.85-5.59-60-5.59h-4.74v47.83c2.05,2.91,5,2.74,7.88,2.85,1.82.06,3.65.06,5.53.06h2.8a115,115,0,0,1,18.27,1c31.73,5.65,51.77,31.28,50.68,65.47-.68,20.89-13.13,36.13-32.19,39.27a40.67,40.67,0,0,1-6.45.51,61.12,61.12,0,0,1-8.51-.68C17.06,226.17,7,223.09-3.15,219.9A14.18,14.18,0,0,0-7,219a4.28,4.28,0,0,0-3.54,1.89v43.32c6.22.91,12.39,1.77,18.49,3a139.86,139.86,0,0,0,27,3.14Z"/><path class="cls-3" d="M893.19,865.59A109.59,109.59,0,0,1,918,823.92a29,29,0,0,1,5-4.16,10.55,10.55,0,0,1,5.65-2c4.62,0,6.62,4.8,7.42,7.66a66.19,66.19,0,0,1,2,17.92c-.11,5.82-.11,11.64-.11,17.52l.06,4.68H893.19m-3.14,2.34h50.28c0-8.22-.11-16.32.06-24.43a66.77,66.77,0,0,0-2.11-18.61c-1.71-6.16-5.25-9.41-9.7-9.41a13.25,13.25,0,0,0-6.85,2.22,30.1,30.1,0,0,0-5.48,4.69,110.37,110.37,0,0,0-26.2,45.54Z"/><path class="cls-3" d="M635.07,730.94h0a15.42,15.42,0,0,1-12.39-6.68c-9.53-12.73-12.5-27.57-9.13-45.27A24.58,24.58,0,0,1,638,659a13.84,13.84,0,0,1,2,.11c7.54,0,13.7,2.4,17.87,6.85,4.85,5.37,7,13.47,6.17,23.58-1.43,16.38-8,29.16-19.47,38a15.22,15.22,0,0,1-9.53,3.43m0,2.4a17.94,17.94,0,0,0,11-3.94c12.67-9.76,19-23.46,20.37-39.67,1.72-20.55-8.5-33-26.37-33h-2a26.75,26.75,0,0,0-26.72,21.8c-3.25,17.07-1,33.1,9.54,47.15,3.71,5,8.9,7.65,14.27,7.65Z"/><path class="cls-3" d="M995.08,757.31v-2.39h-3.15c-9.35-.41-11.64-7.08-11.87-12.68-.34-9.24,1.94-17.7,4.34-26.71.69-2.8,1.48-5.6,2.12-8.34,1.3-5.82,2.79-11.53,4.27-17.24a344.38,344.38,0,0,0,7.82-34.36,275.57,275.57,0,0,0,3.94-42.87V600.05c-.11-22-.11-44.63,1.31-66.84.63-9.7.58-19.52.58-29-.06-8.67-.06-17.63.39-26.42l.12-2.52c.63-11.35,1.26-23,5.25-33.73,4.34-11.3,11.88-17.75,20.61-17.75a22.76,22.76,0,0,1,12.73,4.39,44.23,44.23,0,0,1,14.27,16.67c6.44,12.73,7.88,26.37,8.44,38.07.29,5.43.23,10.79.18,17.53-.06,3.54-.06,7.3-.06,11.47-1,24.26,1.6,46.46,7.76,65.93,7.71,24.09,20.5,47.32,39.16,71.12,7.08,9,14.16,17.81,21.23,26.72l2.17,2.79a47.74,47.74,0,0,1,6.34,11.25c4.62,11.07,2.91,16.15-7.82,22.89-3.82,2.34-8.68,3.48-13,4.28-26.54,5.93-52.23,15.69-73.81,24.43-19.23,7.76-35.38,13.59-53.36,13.59v2.39m0,0c19.12,0,36.7-6.74,54.22-13.82,24-9.7,48.24-18.66,73.46-24.31,4.69-.91,9.6-2,13.7-4.57,12-7.59,13.59-14.21,8.74-25.8a49.77,49.77,0,0,0-6.63-11.76c-7.82-9.81-15.63-19.63-23.45-29.56-16.55-21.12-30.37-44-38.76-70.33-7.08-22.49-8.45-45.77-7.71-65.18,0-12.45.34-20.78,0-29.17-.68-13.53-2.57-26.77-8.79-39a46.46,46.46,0,0,0-14.95-17.58,25.12,25.12,0,0,0-14.1-4.79c-9.31,0-17.87,6.39-22.78,19.29-4.45,11.82-4.85,24.55-5.48,36.93-1,18.44.12,36.82-1,55.37-1.72,26.54-1.32,53.14-1.32,79.68a271.57,271.57,0,0,1-3.93,42.53c-2.74,17.47-8,34.19-12,51.37-2.79,11.76-7,23.18-6.51,35.73.4,9.14,5.43,14.51,14.1,14.85a32.18,32.18,0,0,0,3.26.11Z"/><path class="cls-3" d="M37,228.86c-12.9,0-25.52-3.94-37.73-7.71l-1.89-.57C-4.52,220-6.35,219.5-8.23,219V121.55c2.17,0,4.28,0,6.45,0H2.56c9.13,0,18.09.17,26.88,2.12,14.9,3.31,28.31,13.52,36.76,28,9.08,15.59,11.42,34,6.45,50.46C67.8,217.78,54.56,228.29,39,228.8c-.69,0-1.37.06-2,.06m0,2.34c.68,0,1.37-.06,2.05-.06,16.5-.57,30.71-11.76,35.85-28.31C85.38,168.07,63.69,129,30,121.43c-9.14-2.05-18.27-2.17-27.4-2.17H-1.78c-2.91,0-5.88,0-8.79-.11V220.87c2.51.62,4.85,1.2,7.25,1.94,13.24,4.05,26.37,8.39,40.3,8.39Z"/><path class="cls-3" d="M358.85,619c-8.27,0-12.61-5.71-13-17-.4-13.08,1.94-25.86,4.51-37.68,2.68-12,6.16-24,9.59-35.61,3-10.28,6.16-21,8.73-31.74,5.48-23,6.28-46.52,2.34-72.09a99.64,99.64,0,0,1-1.66-21.58c.46-10.73,5.37-17.18,13.25-17.18a21.66,21.66,0,0,1,9.13,2.34,115.07,115.07,0,0,1,17.64,10.79c15.12,10.73,31.45,19.92,47.15,28.77l7.93,4.45c10.73,6,24.55,14.55,35.9,27,8.74,9.76,12.68,19.7,11.93,30.71.63,14.73-4.33,27.52-15.46,40.19-10.74,12.1-23.75,21.17-37.33,30.19-19.81,13.36-40.3,27.17-61.14,40.47l-2.28,1.49c-9.65,6.16-19.64,12.5-30.71,15.53a29.74,29.74,0,0,1-6.57.91m0,2.39a28.79,28.79,0,0,0,7.2-1.08c12.27-3.37,22.94-10.45,33.62-17.24,20.6-13.19,40.92-26.88,61.19-40.53,13.47-9,26.71-18.09,37.79-30.65,10.33-11.64,16.72-24.83,16-41.78.86-12.62-4.33-23.06-12.55-32.19-10.56-11.65-23.23-20.1-36.48-27.52-18.55-10.5-37.33-20.6-54.85-33.05a120.35,120.35,0,0,0-18-11,24.17,24.17,0,0,0-10.16-2.57c-9,0-15.07,7-15.59,19.46a101.59,101.59,0,0,0,1.72,22c3.65,24,3.31,47.54-2.34,71.17-5.37,22.67-13.25,44.47-18.33,67.3-2.74,12.62-5,25.35-4.56,38.36.4,12.67,5.71,19.29,15.29,19.29Z"/><path class="cls-3" d="M228.25,772.15v-2.34c-6.05,0-12-2.91-17.23-8.45-8-8.5-8.51-9.93-8.51-16.15,0-5.71,4.34-11.53,9.65-13a60.49,60.49,0,0,1,15.24-2.06,48,48,0,0,1,11.13,1.26,14.26,14.26,0,0,1,9.93,7.42c2.23,4.34,2.11,9.87-.34,15.52-4.23,9.82-11.47,15.47-19.87,15.47v2.34m0,0c8.91,0,17.24-5.82,22-16.9,5.19-12.09.34-23.4-11.25-26.14a50.83,50.83,0,0,0-11.64-1.37,62.42,62.42,0,0,0-15.81,2.17c-6.45,1.83-11.42,8.68-11.42,15.3,0,7.08,1.09,9.19,9.13,17.75,5.88,6.22,12.56,9.19,18.95,9.19Z"/><path class="cls-3" d="M792.72,120.18a10,10,0,0,1-4.56-1.43c-5.37-3.14-10.16-12.56-10.73-21.46-.34-4.34.17-12.39,6.68-17.47a11.54,11.54,0,0,1,6.73-2.74c4.85.46,8.68,3.6,12.1,9.93,5,9,3,22.49-4.62,30.26-1.83,1.94-3.71,2.91-5.6,2.91m0,2.34c2.52,0,4.91-1.2,7.31-3.66,7.94-8.1,10.62-22.83,5-33-2.91-5.42-7.14-10.5-13.93-11.13A13.63,13.63,0,0,0,782.68,78c-14.27,11.13-6.11,36.71,4.34,42.76a11.62,11.62,0,0,0,5.7,1.77Z"/><path class="cls-3" d="M1365.25,566.78a62.61,62.61,0,0,1-25-5c-12.61-5.25-19.81-15.18-20.78-28.77-.8-12.21,3.88-22.54,14.33-31.62,9.82-8.33,21.92-12.44,36.93-12.44h1.54c20.44.28,35.9,6.28,48.63,18.89,8.91,8.85,9.25,21.63.81,31.79-14.28,17-35.45,27.18-56.51,27.18m0,2.39c21.46,0,43.14-10,58.33-28.08,9.47-11.42,8.33-25.69-1-34.93-14.44-14.33-31.34-19.3-50.29-19.53h-1.54c-14,0-27.17,3.37-38.41,13-10,8.62-16.1,19.52-15.19,33.45,1.09,15.12,9.48,25.57,22.21,30.82a65.6,65.6,0,0,0,25.86,5.25Z"/><path class="cls-3" d="M395.1,865.59c4.74-11.7,10.79-22.83,16.67-33.62,2.11-3.88,4.22-7.76,6.28-11.76,5.71-10.73,10-22.37,14.27-33.56,2.05-5.6,4.16-11.19,6.45-16.67,3.65-8.79,7.87-18,15-24.94,3.82-3.6,7.65-5.43,11.42-5.43a13.86,13.86,0,0,1,8.39,3.09c4.51,3.2,6.1,8.56,7.59,14.72,2.22,8.68,1.08,17.47-.52,27.29-1.42,8.91-3.48,17.81-5.42,26.43-2.28,10.1-4.68,20.49-6.11,31-.85,6.28-1.48,12.56-2.16,18.84l-.46,4.62H395.1m-3.42,2.34h76.94c.91-8.56,1.66-17,2.86-25.46,2.56-19.4,8.44-38.07,11.47-57.42,1.54-9.3,2.91-18.78.51-28.19-1.48-6.06-3.25-12.34-8.5-16.1a16.35,16.35,0,0,0-9.76-3.48c-4.4,0-8.85,2.11-13,6.1-7.3,7.08-11.64,16.27-15.58,25.69-6.85,16.67-12.22,34.13-20.61,50.12s-17.75,31.62-24.31,48.74Z"/><path class="cls-3" d="M390,8.53c-9.47,0-14.32-7.48-16.78-13.82-.11-.34-.28-.68-.4-1h44.3C412.4-.43,406.12,4,398.07,7A24.28,24.28,0,0,1,390,8.53m0,2.34a25.93,25.93,0,0,0,8.91-1.72c9.19-3.42,17.12-8.9,22.72-17.8h-52.4c.57,1.48,1.25,2.74,1.82,4.22,3.83,10,10.45,15.3,18.95,15.3Z"/><path class="cls-3" d="M187.21,547.37h0a22.26,22.26,0,0,1-7-1.26c-13.7-4.56-25.17-13.58-33.67-21C131.22,512,114.78,500,98.91,488.35c-9.13-6.62-18.61-13.59-27.74-20.61A76.12,76.12,0,0,1,57,453.53c-13.76-18.67-12.73-35.85,3.48-55.66,6.73-8.16,15-14.49,22.94-20.26,22.84-16.55,46.12-33.22,68.67-49.26l3.2-2.28c8.85-6.23,16.49-10.22,24.14-12.56a25.07,25.07,0,0,1,7-1.14c7.31,0,12.45,4.33,15.76,13.3,4.79,12.95,6.85,27.22,6.45,45-.34,15.24-1.37,30.71-2.34,45.78l-.74,10.95c-.86,14.27-.4,29.91,1.42,49.21.35,3.54.69,7,1.09,10.5,1.37,12.33,2.74,25.12.45,37.67-.91,5.2-2.28,9.08-4.39,12.33-4.17,6.62-10.22,10.28-16.9,10.28m0,2.28c7.54,0,14.22-4,18.9-11.3a35.11,35.11,0,0,0,4.68-13.19c3-16.38-.06-32.48-1.49-48.74s-2.39-32.6-1.42-48.92c1.2-18.95,2.62-37.85,3.08-56.8.34-15.69-1.14-31.11-6.62-45.83-3.6-9.82-9.65-14.84-17.93-14.84a26,26,0,0,0-7.7,1.25c-9,2.74-17.07,7.42-24.83,12.9-24,17.13-48,34.19-71.87,51.55-8.39,6.1-16.66,12.5-23.4,20.66-15.24,18.66-19.18,37.39-3.54,58.51a77.77,77.77,0,0,0,14.67,14.72c25,19.3,51.26,36.54,75.23,57.31,10.45,9,21.52,17,34.48,21.35a23.8,23.8,0,0,0,7.76,1.37Z"/><path class="cls-3" d="M821.38,498.16a11.92,11.92,0,0,1-1.31-.05c-8.39-.52-17-3.14-27.12-8.34a203,203,0,0,1-48.86-36.24c-13.58-13.7-24.2-31.51-32.53-54.4a310.46,310.46,0,0,0-48.41-87.62c-4.51-5.71-7.76-12.5-10.73-19-3.14-6.85-4.28-11.81-.86-16.95,3.08-4.62,7.54-6.74,14-6.74.69,0,1.32,0,1.94.06,11.08.69,21.92,4.45,34.32,11.87,20,11.88,35.32,28.83,47.71,43.84,23.41,28.54,43.15,50.75,62.22,69.93,3.54,3.53,7.08,7,10.73,10.38,6.4,6.28,13.07,12.68,19.3,19.41a65,65,0,0,1,13.92,23.46c3.25,10,1.89,21.35-3.65,31.11-5.31,9.25-13.76,15.76-23.17,17.92L828,497a27.78,27.78,0,0,1-6.62,1.14m0,2.4a33.38,33.38,0,0,0,8.1-1.48C851.12,494.17,865,468.71,858,447a68.53,68.53,0,0,0-14.44-24.32c-9.59-10.5-20.1-19.86-30.09-29.85-21.86-22-42.29-45.66-62.1-69.75-14.21-17.3-29.4-33.17-48.35-44.35-11-6.62-22.6-11.42-35.27-12.22-.68-.06-1.43-.06-2.12-.06-6.22,0-12,1.77-16,7.77-4.39,6.56-2.22,12.9.69,19.23,3.14,6.91,6.39,13.65,11,19.47a306.7,306.7,0,0,1,48.06,87c7.53,20.72,17.8,39.84,33.11,55.25a202.6,202.6,0,0,0,49.43,36.65c8.79,4.56,18,8.05,28,8.62.51.05,1,.11,1.48.11Z"/><path class="cls-3" d="M1186.52,377.78v-2.34c-8.73,0-16.83-5.25-27-17.52-7.64-9.25-13.35-21.12-16.89-35.34-2.74-10.9,1.26-20.66,10.73-26.14,12.33-7.25,26-10,38.93-12.33a498.19,498.19,0,0,1,52.17-6.28c.57-.05,1.14-.05,1.72-.05a59.83,59.83,0,0,1,11.07,1.37,10.75,10.75,0,0,1,7,4.39,12.49,12.49,0,0,1,1.71,9.48c-1.65,8.44-5.25,16.61-11.7,26.37a169.73,169.73,0,0,1-46.69,47.89c-8,5.54-14.9,8.16-21,8.16v2.34m0,0c6.62,0,13.88-2.74,22.32-8.56a171.37,171.37,0,0,0,47.38-48.58c5.42-8.27,10-17.06,12-27.17,1.6-8.1-3-15.29-10.62-16.61a59.06,59.06,0,0,0-11.41-1.42c-.58,0-1.26,0-1.89.05a497.11,497.11,0,0,0-52.46,6.34c-13.64,2.4-27.17,5.31-39.61,12.61-10.33,5.94-14.9,16.61-11.87,28.71,3.3,13.3,8.79,25.92,17.35,36.25,9.82,11.87,18.6,18.38,28.82,18.38Z"/><path class="cls-3" d="M139.21,440.51v-2.34c-7,0-12.73-3.71-16.61-10.67a20.83,20.83,0,0,1-2.34-7.37c.68-5.19,3-10,6.9-14.66,2.4-2.92,5.6-4.8,9-6.8l2.28-1.37a14.77,14.77,0,0,1,7.36-2.34c7.08,0,10.91,8.22,11,16a36.83,36.83,0,0,1-3.94,16.43c-2.22,4.91-6.27,10.79-13.35,10.79l-.23,2.34m0,0h.28c7.14,0,12.22-5,15.42-12.21a39.68,39.68,0,0,0,4.16-17.47c0-9.07-4.85-18.21-13.3-18.21a16.61,16.61,0,0,0-8.56,2.69c-4.17,2.56-8.56,4.73-11.81,8.61a31.44,31.44,0,0,0-7.48,15.87,22.55,22.55,0,0,0,2.62,8.85c4.23,7.59,10.79,11.87,18.67,11.87Z"/></g></svg>
