<?xml version="1.0" encoding="UTF-8"?>
<svg width="33px" height="33px" viewBox="0 0 33 33" version="1.1" xmlns="http://www.w3.org/2000/svg" xmlns:xlink="http://www.w3.org/1999/xlink">
    <!-- Generator: Sketch 51.2 (57519) - http://www.bohemiancoding.com/sketch -->
    <title>oval</title>
    <desc>Created with Sketch.</desc>
    <defs></defs>
    <g id="Symbols" stroke="none" stroke-width="1" fill="none" fill-rule="evenodd">
        <g id="mobile/footer/demo" transform="translate(-136.000000, -605.000000)">
            <g id="footer" transform="translate(9.000000, 25.000000)">
                <g transform="translate(55.000000, 521.000000)" id="social-media">
                    <g transform="translate(72.000000, 59.000000)">
                        <g id="social_fb">
                            <circle id="oval" fill="#4A4A4A" cx="16.5" cy="16.5" r="16.5"></circle>
                            <g id="icon/social/fb/white" transform="translate(9.000000, 9.000000)" fill="#FFFFFF">
                                <path d="M10.8844556,0.951902788 L10.8844556,3.03707087 L9.64441242,3.03707087 C8.67291366,3.03707087 8.49125129,3.50307434 8.49125129,4.17443527 L8.49125129,5.66722605 L10.8054719,5.66722605 L10.4974357,8.00514178 L8.49125129,8.00514178 L8.49125129,14 L6.07435192,14 L6.07435192,8.00514178 L4.06026912,8.00514178 L4.06026912,5.66722605 L6.07435192,5.66722605 L6.07435192,3.94538272 C6.07435192,1.94709664 7.29859833,0.857122421 9.08362858,0.857122421 C9.93665188,0.857122421 10.6711997,0.920309333 10.8844556,0.951902788 Z" id="facebook---FontAwesome"></path>
                            </g>
                        </g>
                    </g>
                </g>
            </g>
        </g>
    </g>
</svg>
