<?xml version="1.0" encoding="UTF-8"?>
<svg width="33px" height="33px" viewBox="0 0 33 33" version="1.1" xmlns="http://www.w3.org/2000/svg" xmlns:xlink="http://www.w3.org/1999/xlink">
    <!-- Generator: Sketch 51.2 (57519) - http://www.bohemiancoding.com/sketch -->
    <title>social_ig</title>
    <desc>Created with Sketch.</desc>
    <defs></defs>
    <g id="Symbols" stroke="none" stroke-width="1" fill="none" fill-rule="evenodd">
        <g id="mobile/footer/demo" transform="translate(-180.000000, -605.000000)">
            <g id="footer" transform="translate(9.000000, 25.000000)">
                <g transform="translate(55.000000, 521.000000)" id="social-media">
                    <g transform="translate(72.000000, 59.000000)">
                        <g id="social_ig" transform="translate(44.000000, 0.000000)">
                            <circle id="oval" fill="#4A4A4A" cx="16.5" cy="16.5" r="16.5"></circle>
                            <g id="icon/social/ig/white" transform="translate(9.000000, 9.000000)" fill="#FFFFFF">
                                <path d="M4.79166667,7.5 C4.79166667,5.69443542 5.69443542,4.79166667 7.5,4.79166667 C9.30556458,4.79166667 10.2083333,5.69443542 10.2083333,7.5 C10.2083333,9.30556458 9.30556458,10.2083333 7.5,10.2083333 C5.69443542,10.2083333 4.79166667,9.30556458 4.79166667,7.5 Z M4.82552083,4.82552083 C4.35156013,5.29948154 4.03559107,5.82985818 3.87760417,6.41666667 L1,6.41666667 L1,2.625 C1,2.1510393 1.15798453,1.76736258 1.47395833,1.47395833 C1.83507125,1.15798453 2.23003258,1 2.65885417,1 L12.4088542,1 C12.8376758,1 13.2100679,1.15798453 13.5260417,1.47395833 C13.8420155,1.78993214 14,2.17360885 14,2.625 L14,6.41666667 L11.15625,6.41666667 C10.9982631,5.82985818 10.682294,5.29948154 10.2083333,4.82552083 C9.46353794,4.08072544 8.56076919,3.70833333 7.5,3.70833333 C6.46180036,3.70833333 5.57031622,4.08072544 4.82552083,4.82552083 Z M12.9166667,3.84375 L12.9166667,2.5234375 C12.9166667,2.41058971 12.8715282,2.30902823 12.78125,2.21875 C12.6909718,2.12847177 12.5894103,2.08333333 12.4765625,2.08333333 L11.1901042,2.08333333 C11.0772564,2.08333333 10.9756949,2.12847177 10.8854167,2.21875 C10.7951384,2.30902823 10.75,2.41058971 10.75,2.5234375 L10.75,3.84375 C10.75,3.95659779 10.7951384,4.05815927 10.8854167,4.1484375 C10.9531253,4.21614617 11.0546868,4.25 11.1901042,4.25 L12.4765625,4.25 C12.6119798,4.25 12.7135413,4.21614617 12.78125,4.1484375 C12.8715282,4.05815927 12.9166667,3.95659779 12.9166667,3.84375 Z M10.2083333,10.1744792 C10.9305592,9.45225333 11.2916667,8.56076919 11.2916667,7.5 L14,7.5 L14,12.375 C14,12.781252 13.8420155,13.1649287 13.5260417,13.5260417 C13.2326374,13.8420155 12.8602453,14 12.4088542,14 L2.65885417,14 C2.20746302,14 1.8237863,13.8420155 1.5078125,13.5260417 C1.16926914,13.1874983 1,12.8038216 1,12.375 L1,7.5 L3.7421875,7.5 C3.7421875,8.56076919 4.103295,9.45225333 4.82552083,10.1744792 C5.57031622,10.9192746 6.46180036,11.2916667 7.5,11.2916667 C8.56076919,11.2916667 9.46353794,10.9192746 10.2083333,10.1744792 Z" id="ion-social-instagram---Ionicons"></path>
                            </g>
                        </g>
                    </g>
                </g>
            </g>
        </g>
    </g>
</svg>
