<?xml version="1.0" encoding="UTF-8"?>
<svg width="33px" height="33px" viewBox="0 0 33 33" version="1.1" xmlns="http://www.w3.org/2000/svg" xmlns:xlink="http://www.w3.org/1999/xlink">
    <!-- Generator: Sketch 51.2 (57519) - http://www.bohemiancoding.com/sketch -->
    <title>social_line</title>
    <desc>Created with Sketch.</desc>
    <defs></defs>
    <g id="Symbols" stroke="none" stroke-width="1" fill="none" fill-rule="evenodd">
        <g id="mobile/footer/demo" transform="translate(-224.000000, -605.000000)">
            <g id="footer" transform="translate(9.000000, 25.000000)">
                <g transform="translate(55.000000, 521.000000)" id="social-media">
                    <g transform="translate(72.000000, 59.000000)">
                        <g id="social_line" transform="translate(88.000000, 0.000000)">
                            <circle id="oval" fill="#4A4A4A" cx="16.5" cy="16.5" r="16.5"></circle>
                            <g id="icon/social/line/white" transform="translate(9.000000, 9.000000)">
                                <path d="M15,6.17906358 C15,7.37108806 14.5900162,8.48406811 13.8802641,9.42792507 C13.8451403,9.48168103 13.7992521,9.54101562 13.7414034,9.60658517 C13.4945999,9.90994433 13.221583,10.190107 12.921416,10.4487345 C10.8473769,12.421174 7.43356975,14.7694335 6.98300024,14.40715 C6.59131593,14.0922028 7.62810622,12.5518824 6.43194313,12.2955725 C6.34847923,12.2856663 6.26529441,12.2751038 6.18272754,12.2631057 C2.66795441,11.7493374 0,9.22092054 0,6.17906358 C-9.96702907e-05,2.76645255 3.35783229,0 7.4999701,0 C11.642088,0 15,2.76645255 15,6.17906358 Z M5.58095222,8.53506657 L5.61629132,8.53506657 C5.84928761,8.53506657 6.03986401,8.33893354 6.03986401,8.09913148 L6.03986401,4.86651267 C6.03986401,4.62677725 5.84928761,4.43068865 5.61629132,4.43068865 L5.58095222,4.43068865 C5.34793435,4.43068865 5.15729318,4.62677725 5.15729318,4.86651267 L5.15729318,8.09913148 C5.15729318,8.33893354 5.34793435,8.53506657 5.58095222,8.53506657 Z M9.75409632,8.40510345 L9.75420426,8.40494796 C9.8297397,8.3260283 9.87667141,8.21798854 9.87667141,8.09919812 L9.87667141,4.8665571 C9.87667141,4.62684389 9.686095,4.43075528 9.45299078,4.43075528 L9.41769485,4.43075528 C9.18465539,4.43075528 8.9940574,4.62684389 8.9940574,4.8665571 L8.9940574,6.76418301 L7.46296981,4.65116616 C7.38983061,4.51973704 7.25210095,4.43075528 7.0951798,4.43075528 L7.05981911,4.43075528 C6.82680124,4.43075528 6.63616007,4.62684389 6.63616007,4.8665571 L6.63616007,8.09919812 C6.63616007,8.33897796 6.82675806,8.5351332 7.05981911,8.5351332 L7.0951798,8.5351332 C7.32819767,8.5351332 7.51877407,8.33897796 7.51877407,8.09919812 L7.51877407,6.16614387 L9.06091457,8.33333608 C9.07041317,8.34852918 9.08071051,8.36312254 9.09193613,8.37702733 L9.09200089,8.37713839 C9.13439918,8.4365336 9.19231904,8.47735948 9.25686632,8.50225926 C9.30653967,8.52336078 9.3608112,8.53506657 9.41758691,8.53506657 L9.4529476,8.53506657 C9.52431661,8.53506657 9.5916703,8.51658608 9.65084225,8.48413417 C9.69319736,8.46338805 9.72892504,8.43660023 9.75409632,8.40510345 Z M12.9043062,6.50878805 L12.9043062,6.47247123 C12.9043062,6.23266917 12.7137298,6.03658057 12.4806904,6.03658057 L11.301569,6.03658057 L11.301569,5.34649439 L12.4806904,5.34649439 C12.7137298,5.34649439 12.9043062,5.15033915 12.9043062,4.91062594 L12.9043062,4.87428691 C12.9043062,4.63450707 12.7137298,4.43839625 12.4806904,4.43839625 L10.8778884,4.43839625 L10.8698145,4.43839625 L10.8425708,4.43839625 C10.6095746,4.43839625 10.4189982,4.63450707 10.4189982,4.87428691 L10.4189982,8.1068613 C10.4189982,8.34664114 10.6095746,8.54279638 10.8425708,8.54279638 L10.8698145,8.54279638 L10.8778884,8.54279638 L12.4806904,8.54279638 C12.7137298,8.54279638 12.9043062,8.34664114 12.9043062,8.1068613 L12.9043062,8.07052227 C12.9043062,7.83074242 12.7137298,7.63465382 12.4806904,7.63465382 L11.301569,7.63465382 L11.301569,6.94456765 L12.4806904,6.94456765 C12.7137298,6.94465649 12.9043062,6.74852347 12.9043062,6.50878805 Z M2.75373782,8.53506657 L2.78098152,8.53506657 L2.78907692,8.53506657 L4.39185733,8.53506657 C4.62483202,8.53506657 4.81547319,8.33893354 4.81547319,8.09913148 L4.81547319,8.06279245 C4.81547319,7.82301261 4.62483202,7.626924 4.39185733,7.626924 L3.2126712,7.626924 L3.2126712,4.86644603 C3.2126712,4.62673283 3.02209479,4.43062201 2.78907692,4.43062201 L2.75373782,4.43062201 C2.52071995,4.43062201 2.33014354,4.62673283 2.33014354,4.86644603 L2.33014354,8.09906484 C2.33014354,8.33893354 2.52071995,8.53506657 2.75373782,8.53506657 Z" id="Combined-Shape" fill="#FFFFFF"></path>
                                <g id="Line" stroke-width="1" transform="translate(2.000000, 4.000000)"></g>
                            </g>
                        </g>
                    </g>
                </g>
            </g>
        </g>
    </g>
</svg>
